<svg xmlns="http://www.w3.org/2000/svg" xmlns:xlink="http://www.w3.org/1999/xlink" width="1328" height="410" viewBox="0 0 1328 410">
  <defs>
    <linearGradient id="linear-gradient" x1="0.5" x2="0.5" y2="1" gradientUnits="objectBoundingBox">
      <stop offset="0" stop-color="#fff"/>
      <stop offset="1" stop-color="#e8e8e8"/>
    </linearGradient>
    <clipPath id="clip-path">
      <rect id="Rectángulo_63180" data-name="Rectángulo 63180" width="95.218" height="143.402" transform="translate(0 0)" fill="none"/>
    </clipPath>
    <clipPath id="clip-path-2">
      <rect id="Rectángulo_63080" data-name="Rectángulo 63080" width="117.64" height="188.828" fill="none"/>
    </clipPath>
    <clipPath id="clip-path-4">
      <rect id="Rectángulo_63068" data-name="Rectángulo 63068" width="33.053" height="10.844" fill="none"/>
    </clipPath>
    <clipPath id="clip-path-5">
      <rect id="Rectángulo_63069" data-name="Rectángulo 63069" width="11.703" height="44.246" fill="none"/>
    </clipPath>
    <clipPath id="clip-path-6">
      <rect id="Rectángulo_63070" data-name="Rectángulo 63070" width="11.622" height="37.985" fill="none"/>
    </clipPath>
    <clipPath id="clip-path-7">
      <rect id="Rectángulo_63071" data-name="Rectángulo 63071" width="8.285" height="8.627" fill="none"/>
    </clipPath>
    <clipPath id="clip-path-8">
      <rect id="Rectángulo_63074" data-name="Rectángulo 63074" width="19.251" height="125.397" fill="none"/>
    </clipPath>
    <clipPath id="clip-path-9">
      <rect id="Rectángulo_63076" data-name="Rectángulo 63076" width="1.53" height="3.853" fill="none"/>
    </clipPath>
    <clipPath id="clip-path-10">
      <rect id="Rectángulo_63077" data-name="Rectángulo 63077" width="3.814" height="3.814" fill="none"/>
    </clipPath>
    <clipPath id="clip-path-11">
      <rect id="Rectángulo_63078" data-name="Rectángulo 63078" width="3.312" height="8.34" fill="none"/>
    </clipPath>
  </defs>
  <g id="Grupo_184189" data-name="Grupo 184189" transform="translate(5410 5971)">
    <g id="Grupo_184187" data-name="Grupo 184187" transform="translate(-5546 -10660.928)">
      <rect id="Rectángulo_63181" data-name="Rectángulo 63181" width="1328" height="205" transform="translate(136 4689.927)" fill="url(#linear-gradient)"/>
      <rect id="Rectángulo_63182" data-name="Rectángulo 63182" width="1328" height="205" transform="translate(1464 5099.927) rotate(180)" fill="url(#linear-gradient)"/>
    </g>
    <g id="Grupo_184188" data-name="Grupo 184188">
      <g id="Grupo_181948" data-name="Grupo 181948" transform="matrix(0.951, 0.309, -0.309, 0.951, -5304.381, -5915.276)">
        <g id="Grupo_181947" data-name="Grupo 181947" transform="translate(0 0.003)" clip-path="url(#clip-path)">
          <path id="Trazado_233101" data-name="Trazado 233101" d="M88.349,268.979H6.869A6.869,6.869,0,0,1,0,262.111V145.233a6.869,6.869,0,0,1,6.869-6.869H88.349a6.869,6.869,0,0,1,6.869,6.869V262.111a6.869,6.869,0,0,1-6.869,6.869" transform="translate(0 -125.577)" fill="#d3c4a7"/>
          <rect id="Rectángulo_63159" data-name="Rectángulo 63159" width="78.372" height="113.844" transform="translate(8.606 18.05)" fill="#f6f5f5"/>
          <path id="Trazado_233102" data-name="Trazado 233102" d="M171.482,195.329c.025,44.393,1.458,97.934-3.529,109.788-21.964,2.14-47.682,2.827-74.844,2.955l10.325-112.4Z" transform="translate(-84.504 -177.278)" fill="#e4e4e4"/>
          <path id="Trazado_233103" data-name="Trazado 233103" d="M121.834,301.58c-34.234,5.479-57.115,5.768-75.672,4.39,2.4-25.6,3.369-68.126,4.339-110.585l41.253.092,37.336,2.464c.544,44.068.6,84.774-7.255,103.639" transform="translate(-41.896 -177.329)" fill="#fff"/>
          <rect id="Rectángulo_63160" data-name="Rectángulo 63160" width="6.282" height="41.24" transform="translate(26.466 34.829) rotate(-88.652)" fill="#8c5be1"/>
          <rect id="Rectángulo_63161" data-name="Rectángulo 63161" width="2.875" height="37.198" transform="matrix(0.024, -1, 1, 0.024, 38.534, 46.887)" fill="#708cd5"/>
          <rect id="Rectángulo_63162" data-name="Rectángulo 63162" width="2.875" height="25.284" transform="translate(38.387 53.154) rotate(-88.652)" fill="#d3dfff"/>
          <rect id="Rectángulo_63163" data-name="Rectángulo 63163" width="8.806" height="8.806" transform="translate(17.873 52.502) rotate(-88.652)" fill="#43a99b"/>
          <path id="Trazado_233104" data-name="Trazado 233104" d="M211,446.747c.272,1.041.774,5.4,2.957,4.18a6.647,6.647,0,0,0,1.306-1.452l2.031-2.305,4.061-4.611c.347-.394-1.185-1.382-1.621-.887l-3.61,4.1-1.805,2.049c-.418.474-1.383,2-2,2.139l1.011.326c.238.2-.2-1.189-.214-1.227l-.5-1.929c-.139-.531-1.815-1.17-1.609-.383" transform="translate(-191.483 -400.732)" fill="#eeac3a"/>
          <rect id="Rectángulo_63165" data-name="Rectángulo 63165" width="2.875" height="30.632" transform="translate(38.158 62.892) rotate(-88.652)" fill="#708cd5"/>
          <rect id="Rectángulo_63166" data-name="Rectángulo 63166" width="2.875" height="37.198" transform="matrix(0.024, -1, 1, 0.024, 38.01, 69.159)" fill="#d3dfff"/>
          <rect id="Rectángulo_63167" data-name="Rectángulo 63167" width="8.806" height="8.806" transform="translate(17.497 68.507) rotate(-88.652)" fill="#43a99b"/>
          <path id="Trazado_233105" data-name="Trazado 233105" d="M206.86,622.625c.272,1.041.774,5.4,2.956,4.181a6.649,6.649,0,0,0,1.306-1.452l2.031-2.305,4.061-4.611c.347-.394-1.185-1.382-1.621-.887l-3.61,4.1-1.805,2.049c-.418.474-1.383,2-2,2.139l1.011.326c.238.2-.2-1.189-.214-1.227l-.5-1.929c-.139-.531-1.815-1.169-1.609-.383" transform="translate(-187.727 -560.357)" fill="#eeac3a"/>
          <rect id="Rectángulo_63169" data-name="Rectángulo 63169" width="2.875" height="37.198" transform="matrix(0.024, -1, 1, 0.024, 37.781, 78.897)" fill="#708cd5"/>
          <rect id="Rectángulo_63170" data-name="Rectángulo 63170" width="2.875" height="16.636" transform="matrix(0.024, -1, 1, 0.024, 37.634, 85.165)" fill="#d3dfff"/>
          <rect id="Rectángulo_63171" data-name="Rectángulo 63171" width="8.806" height="8.806" transform="translate(17.12 84.513) rotate(-88.652)" fill="#43a99b"/>
          <path id="Trazado_233106" data-name="Trazado 233106" d="M204.077,797.047c.272,1.041.774,5.4,2.957,4.181a6.646,6.646,0,0,0,1.306-1.452l2.031-2.305,4.061-4.611c.347-.394-1.185-1.382-1.62-.887l-3.61,4.1L207.4,798.12c-.418.474-1.383,2-2,2.139l1.011.326c.238.2-.2-1.189-.214-1.227l-.5-1.929c-.139-.531-1.815-1.17-1.609-.383" transform="translate(-185.201 -718.659)" fill="#eeac3a"/>
          <rect id="Rectángulo_63173" data-name="Rectángulo 63173" width="2.875" height="37.198" transform="matrix(0.024, -1, 1, 0.024, 37.404, 94.903)" fill="#708cd5"/>
          <rect id="Rectángulo_63174" data-name="Rectángulo 63174" width="2.875" height="29.385" transform="translate(37.257 101.17) rotate(-88.652)" fill="#d3dfff"/>
          <rect id="Rectángulo_63175" data-name="Rectángulo 63175" width="8.806" height="8.806" transform="translate(16.743 100.518) rotate(-88.652)" fill="#43a99b"/>
          <path id="Trazado_233107" data-name="Trazado 233107" d="M200.027,969.1c.272,1.041.774,5.4,2.957,4.18a6.647,6.647,0,0,0,1.306-1.452l2.031-2.305,4.061-4.611c.347-.394-1.185-1.382-1.621-.887l-3.61,4.1-1.805,2.049c-.418.474-1.383,2-2,2.139l1.011.326c.238.2-.2-1.189-.214-1.227l-.5-1.929c-.139-.531-1.815-1.17-1.609-.383" transform="translate(-181.525 -874.813)" fill="#eeac3a"/>
          <rect id="Rectángulo_63177" data-name="Rectángulo 63177" width="2.875" height="14.745" transform="matrix(0.024, -1, 1, 0.024, 37.031, 110.787)" fill="#708cd5"/>
          <path id="Trazado_233108" data-name="Trazado 233108" d="M436.356,1236.393l-37.188-.875-.068,2.874c14.387.338,32.707,1.012,36.445.438a3.227,3.227,0,0,0,.811-2.437" transform="translate(-362.218 -1121.338)" fill="#d3dfff"/>
          <rect id="Rectángulo_63178" data-name="Rectángulo 63178" width="8.806" height="8.806" transform="translate(16.493 116.406) rotate(-88.652)" fill="#43a99b"/>
          <path id="Trazado_233109" data-name="Trazado 233109" d="M196.013,1139.65c.272,1.041.774,5.4,2.957,4.18a6.646,6.646,0,0,0,1.306-1.452l2.031-2.305,4.061-4.611c.347-.394-1.185-1.382-1.621-.887l-3.61,4.1-1.805,2.05c-.418.474-1.383,2-2,2.139l1.011.326c.238.2-.2-1.189-.214-1.227l-.5-1.929c-.139-.531-1.815-1.17-1.609-.383" transform="translate(-177.882 -1029.601)" fill="#eeac3a"/>
          <path id="Trazado_233110" data-name="Trazado 233110" d="M359.462,13.581v8.787h-35.3V13.581a5.072,5.072,0,0,1,1.486-3.589A4.189,4.189,0,0,1,326,9.67a5.038,5.038,0,0,1,3.231-1.164,5.978,5.978,0,0,0,2.6-.591,6.232,6.232,0,0,0,.976-.588,5.974,5.974,0,0,0,2.166-3.072A6,6,0,0,1,340.709,0h2.2a6,6,0,0,1,5.737,4.251,5.975,5.975,0,0,0,2.166,3.072,6.232,6.232,0,0,0,.976.588,5.978,5.978,0,0,0,2.6.591,5.082,5.082,0,0,1,5.075,5.075" transform="translate(-294.202 -0.003)" fill="#eeac3a"/>
          <path id="Trazado_233111" data-name="Trazado 233111" d="M334.192,195.323v6.532H293.16v-6.532h2.865v4.314h35.3v-4.314Z" transform="translate(-266.067 -177.272)" fill="#e4e4e4"/>
          <path id="Trazado_233112" data-name="Trazado 233112" d="M487.545,27.769a3.135,3.135,0,1,1-3.131-2.976,3.057,3.057,0,0,1,3.131,2.976" transform="translate(-436.804 -22.502)" fill="#fff"/>
        </g>
      </g>
      <g id="Grupo_181819" data-name="Grupo 181819" transform="translate(-5619.978 -10811.209)">
        <rect id="Rectángulo_63386" data-name="Rectángulo 63386" width="478" height="61" transform="translate(633.978 4869.209)" fill="#ecf3fb"/>
        <g id="Grupo_173980" data-name="Grupo 173980" transform="translate(622.978 4899.854) rotate(-90)">
          <g id="Grupo_152581" data-name="Grupo 152581">
            <g id="Grupo_152556" data-name="Grupo 152556" transform="translate(0 16.337)">
              <rect id="Rectángulo_45221" data-name="Rectángulo 45221" width="2.636" height="2.636" transform="translate(28.009 11.204)" fill="#8c5be1"/>
              <rect id="Rectángulo_45222" data-name="Rectángulo 45222" width="2.636" height="2.636" transform="translate(22.407 11.204)" fill="#8c5be1"/>
              <rect id="Rectángulo_45223" data-name="Rectángulo 45223" width="2.636" height="2.636" transform="translate(16.806 11.204)" fill="#8c5be1"/>
              <rect id="Rectángulo_45224" data-name="Rectángulo 45224" width="2.636" height="2.636" transform="translate(11.204 11.204)" fill="#8c5be1"/>
              <rect id="Rectángulo_45225" data-name="Rectángulo 45225" width="2.636" height="2.636" transform="translate(5.602 11.204)" fill="#8c5be1"/>
              <rect id="Rectángulo_45226" data-name="Rectángulo 45226" width="2.636" height="2.636" transform="translate(0 11.204)" fill="#8c5be1"/>
              <rect id="Rectángulo_45232" data-name="Rectángulo 45232" width="2.636" height="2.636" transform="translate(28.009 5.602)" fill="#8c5be1"/>
              <rect id="Rectángulo_45233" data-name="Rectángulo 45233" width="2.636" height="2.636" transform="translate(22.407 5.602)" fill="#8c5be1"/>
              <rect id="Rectángulo_45234" data-name="Rectángulo 45234" width="2.636" height="2.636" transform="translate(16.806 5.602)" fill="#8c5be1"/>
              <rect id="Rectángulo_45235" data-name="Rectángulo 45235" width="2.636" height="2.636" transform="translate(11.204 5.602)" fill="#8c5be1"/>
              <rect id="Rectángulo_45236" data-name="Rectángulo 45236" width="2.636" height="2.636" transform="translate(5.602 5.602)" fill="#8c5be1"/>
              <rect id="Rectángulo_45237" data-name="Rectángulo 45237" width="2.636" height="2.636" transform="translate(0 5.602)" fill="#8c5be1"/>
              <rect id="Rectángulo_45243" data-name="Rectángulo 45243" width="2.636" height="2.636" transform="translate(28.009)" fill="#8c5be1"/>
              <rect id="Rectángulo_45244" data-name="Rectángulo 45244" width="2.636" height="2.636" transform="translate(22.407)" fill="#8c5be1"/>
              <rect id="Rectángulo_45245" data-name="Rectángulo 45245" width="2.636" height="2.636" transform="translate(16.806)" fill="#8c5be1"/>
              <rect id="Rectángulo_45246" data-name="Rectángulo 45246" width="2.636" height="2.636" transform="translate(11.204)" fill="#8c5be1"/>
              <rect id="Rectángulo_45247" data-name="Rectángulo 45247" width="2.636" height="2.636" transform="translate(5.602)" fill="#8c5be1"/>
              <rect id="Rectángulo_45248" data-name="Rectángulo 45248" width="2.636" height="2.636" fill="#8c5be1"/>
            </g>
            <g id="Grupo_152580" data-name="Grupo 152580">
              <rect id="Rectángulo_45221-2" data-name="Rectángulo 45221" width="2.636" height="2.636" transform="translate(28.009 11.204)" fill="#8c5be1"/>
              <rect id="Rectángulo_45222-2" data-name="Rectángulo 45222" width="2.636" height="2.636" transform="translate(22.407 11.204)" fill="#8c5be1"/>
              <rect id="Rectángulo_45223-2" data-name="Rectángulo 45223" width="2.636" height="2.636" transform="translate(16.806 11.204)" fill="#8c5be1"/>
              <rect id="Rectángulo_45224-2" data-name="Rectángulo 45224" width="2.636" height="2.636" transform="translate(11.204 11.204)" fill="#8c5be1"/>
              <rect id="Rectángulo_45225-2" data-name="Rectángulo 45225" width="2.636" height="2.636" transform="translate(5.602 11.204)" fill="#8c5be1"/>
              <rect id="Rectángulo_45226-2" data-name="Rectángulo 45226" width="2.636" height="2.636" transform="translate(0 11.204)" fill="#8c5be1"/>
              <rect id="Rectángulo_45232-2" data-name="Rectángulo 45232" width="2.636" height="2.636" transform="translate(28.009 5.602)" fill="#8c5be1"/>
              <rect id="Rectángulo_45233-2" data-name="Rectángulo 45233" width="2.636" height="2.636" transform="translate(22.407 5.602)" fill="#8c5be1"/>
              <rect id="Rectángulo_45234-2" data-name="Rectángulo 45234" width="2.636" height="2.636" transform="translate(16.806 5.602)" fill="#8c5be1"/>
              <rect id="Rectángulo_45235-2" data-name="Rectángulo 45235" width="2.636" height="2.636" transform="translate(11.204 5.602)" fill="#8c5be1"/>
              <rect id="Rectángulo_45236-2" data-name="Rectángulo 45236" width="2.636" height="2.636" transform="translate(5.602 5.602)" fill="#8c5be1"/>
              <rect id="Rectángulo_45237-2" data-name="Rectángulo 45237" width="2.636" height="2.636" transform="translate(0 5.602)" fill="#8c5be1"/>
              <rect id="Rectángulo_45243-2" data-name="Rectángulo 45243" width="2.636" height="2.636" transform="translate(28.009)" fill="#8c5be1"/>
              <rect id="Rectángulo_45244-2" data-name="Rectángulo 45244" width="2.636" height="2.636" transform="translate(22.407)" fill="#8c5be1"/>
              <rect id="Rectángulo_45245-2" data-name="Rectángulo 45245" width="2.636" height="2.636" transform="translate(16.806)" fill="#8c5be1"/>
              <rect id="Rectángulo_45246-2" data-name="Rectángulo 45246" width="2.636" height="2.636" transform="translate(11.204)" fill="#8c5be1"/>
              <rect id="Rectángulo_45247-2" data-name="Rectángulo 45247" width="2.636" height="2.636" transform="translate(5.602)" fill="#8c5be1"/>
              <rect id="Rectángulo_45248-2" data-name="Rectángulo 45248" width="2.636" height="2.636" fill="#8c5be1"/>
            </g>
          </g>
        </g>
        <g id="Grupo_177370" data-name="Grupo 177370" transform="translate(1100.125 4942.797) rotate(-90)">
          <g id="Grupo_152581-2" data-name="Grupo 152581" transform="translate(0 0)">
            <g id="Grupo_152556-2" data-name="Grupo 152556" transform="translate(0 12.92)">
              <rect id="Rectángulo_45221-3" data-name="Rectángulo 45221" width="2.085" height="2.085" transform="translate(22.151 8.86)" fill="#43a99b"/>
              <rect id="Rectángulo_45222-3" data-name="Rectángulo 45222" width="2.085" height="2.085" transform="translate(17.721 8.86)" fill="#43a99b"/>
              <rect id="Rectángulo_45223-3" data-name="Rectángulo 45223" width="2.085" height="2.085" transform="translate(13.291 8.86)" fill="#43a99b"/>
              <rect id="Rectángulo_45224-3" data-name="Rectángulo 45224" width="2.085" height="2.085" transform="translate(8.86 8.86)" fill="#43a99b"/>
              <rect id="Rectángulo_45225-3" data-name="Rectángulo 45225" width="2.085" height="2.085" transform="translate(4.43 8.86)" fill="#43a99b"/>
              <rect id="Rectángulo_45226-3" data-name="Rectángulo 45226" width="2.085" height="2.085" transform="translate(0 8.86)" fill="#43a99b"/>
              <rect id="Rectángulo_45232-3" data-name="Rectángulo 45232" width="2.085" height="2.085" transform="translate(22.151 4.43)" fill="#43a99b"/>
              <rect id="Rectángulo_45233-3" data-name="Rectángulo 45233" width="2.085" height="2.085" transform="translate(17.721 4.43)" fill="#43a99b"/>
              <rect id="Rectángulo_45234-3" data-name="Rectángulo 45234" width="2.085" height="2.085" transform="translate(13.291 4.43)" fill="#43a99b"/>
              <rect id="Rectángulo_45235-3" data-name="Rectángulo 45235" width="2.085" height="2.085" transform="translate(8.86 4.43)" fill="#43a99b"/>
              <rect id="Rectángulo_45236-3" data-name="Rectángulo 45236" width="2.085" height="2.085" transform="translate(4.43 4.43)" fill="#43a99b"/>
              <rect id="Rectángulo_45237-3" data-name="Rectángulo 45237" width="2.085" height="2.085" transform="translate(0 4.43)" fill="#43a99b"/>
              <rect id="Rectángulo_45243-3" data-name="Rectángulo 45243" width="2.085" height="2.085" transform="translate(22.151)" fill="#43a99b"/>
              <rect id="Rectángulo_45244-3" data-name="Rectángulo 45244" width="2.085" height="2.085" transform="translate(17.721)" fill="#43a99b"/>
              <rect id="Rectángulo_45245-3" data-name="Rectángulo 45245" width="2.085" height="2.085" transform="translate(13.291)" fill="#43a99b"/>
              <rect id="Rectángulo_45246-3" data-name="Rectángulo 45246" width="2.085" height="2.085" transform="translate(8.86)" fill="#43a99b"/>
              <rect id="Rectángulo_45247-3" data-name="Rectángulo 45247" width="2.085" height="2.085" transform="translate(4.43)" fill="#43a99b"/>
              <rect id="Rectángulo_45248-3" data-name="Rectángulo 45248" width="2.085" height="2.085" fill="#43a99b"/>
            </g>
            <g id="Grupo_152580-2" data-name="Grupo 152580">
              <rect id="Rectángulo_45221-4" data-name="Rectángulo 45221" width="2.085" height="2.085" transform="translate(22.151 8.86)" fill="#43a99b"/>
              <rect id="Rectángulo_45222-4" data-name="Rectángulo 45222" width="2.085" height="2.085" transform="translate(17.721 8.86)" fill="#43a99b"/>
              <rect id="Rectángulo_45223-4" data-name="Rectángulo 45223" width="2.085" height="2.085" transform="translate(13.291 8.86)" fill="#43a99b"/>
              <rect id="Rectángulo_45224-4" data-name="Rectángulo 45224" width="2.085" height="2.085" transform="translate(8.86 8.86)" fill="#43a99b"/>
              <rect id="Rectángulo_45225-4" data-name="Rectángulo 45225" width="2.085" height="2.085" transform="translate(4.43 8.86)" fill="#43a99b"/>
              <rect id="Rectángulo_45226-4" data-name="Rectángulo 45226" width="2.085" height="2.085" transform="translate(0 8.86)" fill="#43a99b"/>
              <rect id="Rectángulo_45232-4" data-name="Rectángulo 45232" width="2.085" height="2.085" transform="translate(22.151 4.43)" fill="#43a99b"/>
              <rect id="Rectángulo_45233-4" data-name="Rectángulo 45233" width="2.085" height="2.085" transform="translate(17.721 4.43)" fill="#43a99b"/>
              <rect id="Rectángulo_45234-4" data-name="Rectángulo 45234" width="2.085" height="2.085" transform="translate(13.291 4.43)" fill="#43a99b"/>
              <rect id="Rectángulo_45235-4" data-name="Rectángulo 45235" width="2.085" height="2.085" transform="translate(8.86 4.43)" fill="#43a99b"/>
              <rect id="Rectángulo_45236-4" data-name="Rectángulo 45236" width="2.085" height="2.085" transform="translate(4.43 4.43)" fill="#43a99b"/>
              <rect id="Rectángulo_45237-4" data-name="Rectángulo 45237" width="2.085" height="2.085" transform="translate(0 4.43)" fill="#43a99b"/>
              <rect id="Rectángulo_45243-4" data-name="Rectángulo 45243" width="2.085" height="2.085" transform="translate(22.151)" fill="#43a99b"/>
              <rect id="Rectángulo_45244-4" data-name="Rectángulo 45244" width="2.085" height="2.085" transform="translate(17.721)" fill="#43a99b"/>
              <rect id="Rectángulo_45245-4" data-name="Rectángulo 45245" width="2.085" height="2.085" transform="translate(13.291)" fill="#43a99b"/>
              <rect id="Rectángulo_45246-4" data-name="Rectángulo 45246" width="2.085" height="2.085" transform="translate(8.86)" fill="#43a99b"/>
              <rect id="Rectángulo_45247-4" data-name="Rectángulo 45247" width="2.085" height="2.085" transform="translate(4.43)" fill="#43a99b"/>
              <rect id="Rectángulo_45248-4" data-name="Rectángulo 45248" width="2.085" height="2.085" fill="#43a99b"/>
            </g>
          </g>
        </g>
        <path id="Trazado_237192" data-name="Trazado 237192" d="M97.017,12.829a1.278,1.278,0,0,0-.5-1.083,6.533,6.533,0,0,0-1.793-.8,12.71,12.71,0,0,1-2.05-.826,3.35,3.35,0,0,1-2.059-3,2.919,2.919,0,0,1,.552-1.747,3.6,3.6,0,0,1,1.585-1.2,5.967,5.967,0,0,1,2.32-.432,5.432,5.432,0,0,1,2.308.469,3.674,3.674,0,0,1,1.573,1.324,3.464,3.464,0,0,1,.56,1.942h-2.49A1.63,1.63,0,0,0,96.5,6.193a2.15,2.15,0,0,0-1.469-.461,2.3,2.3,0,0,0-1.419.386,1.217,1.217,0,0,0-.506,1.017,1.166,1.166,0,0,0,.594.988,6.705,6.705,0,0,0,1.747.747,7.55,7.55,0,0,1,3.1,1.585,3.157,3.157,0,0,1,.971,2.357,2.909,2.909,0,0,1-1.187,2.461,5.2,5.2,0,0,1-3.2.892,6.171,6.171,0,0,1-2.54-.51,4.019,4.019,0,0,1-1.747-1.4,3.582,3.582,0,0,1-.6-2.059h2.5q0,2,2.391,2a2.326,2.326,0,0,0,1.386-.361A1.175,1.175,0,0,0,97.017,12.829Zm9.4,2.258a3.008,3.008,0,0,1-2.457,1.079,2.837,2.837,0,0,1-2.2-.83,3.543,3.543,0,0,1-.776-2.432V7.019h2.4v5.809q0,1.4,1.278,1.4a1.732,1.732,0,0,0,1.677-.848V7.019h2.407V16h-2.258Zm3.785-3.644a5.264,5.264,0,0,1,.984-3.329,3.187,3.187,0,0,1,2.652-1.262,2.8,2.8,0,0,1,2.3,1.013l.1-.847h2.175V15.7a3.839,3.839,0,0,1-.535,2.05,3.439,3.439,0,0,1-1.507,1.328,5.3,5.3,0,0,1-2.274.457,4.925,4.925,0,0,1-1.926-.394,3.418,3.418,0,0,1-1.419-1.017l1.063-1.461a2.81,2.81,0,0,0,2.175,1,2.057,2.057,0,0,0,1.486-.51,1.915,1.915,0,0,0,.531-1.448v-.481a2.775,2.775,0,0,1-2.183.938,3.179,3.179,0,0,1-2.619-1.266,5.262,5.262,0,0,1-1-3.358Zm2.4.171a3.3,3.3,0,0,0,.49,1.922,1.557,1.557,0,0,0,1.345.7,1.665,1.665,0,0,0,1.569-.826V9.612a1.661,1.661,0,0,0-1.552-.826A1.566,1.566,0,0,0,113.1,9.5,3.715,3.715,0,0,0,112.606,11.614Zm11.787,4.552a4.409,4.409,0,0,1-3.217-1.212,4.308,4.308,0,0,1-1.241-3.229v-.232a5.426,5.426,0,0,1,.523-2.42,3.838,3.838,0,0,1,1.482-1.644,4.159,4.159,0,0,1,2.187-.577,3.727,3.727,0,0,1,2.9,1.162,4.722,4.722,0,0,1,1.058,3.3v.979h-5.719a2.229,2.229,0,0,0,.7,1.411,2.12,2.12,0,0,0,1.482.531,2.589,2.589,0,0,0,2.167-1l1.179,1.32a3.6,3.6,0,0,1-1.461,1.191A4.793,4.793,0,0,1,124.393,16.166Zm-.274-7.379a1.5,1.5,0,0,0-1.158.484,2.5,2.5,0,0,0-.569,1.384h3.337v-.192a1.786,1.786,0,0,0-.432-1.238A1.547,1.547,0,0,0,124.12,8.787Zm10.376.481a6.517,6.517,0,0,0-.863-.066,1.757,1.757,0,0,0-1.785.921V16h-2.4V7.019h2.266l.066,1.071a2.223,2.223,0,0,1,2-1.237,2.514,2.514,0,0,1,.747.108Zm5.13,6.9a4.409,4.409,0,0,1-3.217-1.212,4.308,4.308,0,0,1-1.241-3.229v-.232a5.426,5.426,0,0,1,.523-2.42,3.838,3.838,0,0,1,1.482-1.644,4.159,4.159,0,0,1,2.187-.577,3.727,3.727,0,0,1,2.9,1.162,4.722,4.722,0,0,1,1.058,3.3v.979H137.6a2.228,2.228,0,0,0,.7,1.411,2.12,2.12,0,0,0,1.482.531,2.589,2.589,0,0,0,2.167-1l1.179,1.32a3.6,3.6,0,0,1-1.461,1.191A4.793,4.793,0,0,1,139.625,16.166Zm-.274-7.379a1.5,1.5,0,0,0-1.158.484,2.5,2.5,0,0,0-.569,1.384h3.337v-.192a1.786,1.786,0,0,0-.432-1.238A1.547,1.547,0,0,0,139.351,8.787Zm7.537-1.768.075,1.038a3.136,3.136,0,0,1,2.582-1.2,2.606,2.606,0,0,1,2.125.838,3.912,3.912,0,0,1,.714,2.507V16h-2.4V10.243a1.562,1.562,0,0,0-.332-1.111,1.484,1.484,0,0,0-1.1-.345,1.65,1.65,0,0,0-1.519.865V16h-2.4V7.019Zm11.048,7.213a1.573,1.573,0,0,0,1.079-.365,1.28,1.28,0,0,0,.432-.971h2.25a3.077,3.077,0,0,1-.5,1.673,3.286,3.286,0,0,1-1.341,1.179,4.2,4.2,0,0,1-1.88.419,3.9,3.9,0,0,1-3.038-1.224,4.845,4.845,0,0,1-1.112-3.383V11.4a4.79,4.79,0,0,1,1.1-3.312,3.854,3.854,0,0,1,3.03-1.237,3.778,3.778,0,0,1,2.7.959,3.4,3.4,0,0,1,1.033,2.552h-2.25a1.648,1.648,0,0,0-.432-1.139,1.6,1.6,0,0,0-2.362.173,3.541,3.541,0,0,0-.427,1.983v.249a3.586,3.586,0,0,0,.423,2A1.463,1.463,0,0,0,157.937,14.232ZM165.6,16h-2.407V7.019H165.6ZM163.05,4.694a1.181,1.181,0,0,1,.361-.888,1.556,1.556,0,0,1,1.963,0,1.175,1.175,0,0,1,.365.888,1.178,1.178,0,0,1-.369.9,1.539,1.539,0,0,1-1.951,0A1.178,1.178,0,0,1,163.05,4.694ZM172.779,16a2.664,2.664,0,0,1-.241-.805,2.9,2.9,0,0,1-2.266.971,3.189,3.189,0,0,1-2.187-.764,2.456,2.456,0,0,1-.867-1.926,2.538,2.538,0,0,1,1.058-2.191,5.222,5.222,0,0,1,3.059-.772h1.1V10a1.48,1.48,0,0,0-.32-1,1.257,1.257,0,0,0-1.009-.374,1.429,1.429,0,0,0-.95.291.987.987,0,0,0-.344.8h-2.4a2.41,2.41,0,0,1,.481-1.444,3.182,3.182,0,0,1,1.361-1.042,4.961,4.961,0,0,1,1.976-.378,3.92,3.92,0,0,1,2.635.834,2.918,2.918,0,0,1,.975,2.345v3.893a4.294,4.294,0,0,0,.357,1.934V16Zm-1.984-1.668a2.066,2.066,0,0,0,.979-.237,1.554,1.554,0,0,0,.664-.635V11.916h-.9q-1.8,0-1.917,1.245l-.008.141a.96.96,0,0,0,.315.739A1.225,1.225,0,0,0,170.795,14.332Zm10.758-.813a.773.773,0,0,0-.436-.693,4.95,4.95,0,0,0-1.4-.452q-3.2-.672-3.2-2.723a2.468,2.468,0,0,1,.992-2,4,4,0,0,1,2.594-.8,4.307,4.307,0,0,1,2.735.805A2.538,2.538,0,0,1,183.86,9.75h-2.4a1.161,1.161,0,0,0-.332-.851,1.405,1.405,0,0,0-1.038-.336,1.436,1.436,0,0,0-.938.274.865.865,0,0,0-.332.7.739.739,0,0,0,.378.643,3.885,3.885,0,0,0,1.274.423,10.407,10.407,0,0,1,1.511.4,2.482,2.482,0,0,1,1.9,2.416,2.343,2.343,0,0,1-1.054,1.988,4.548,4.548,0,0,1-2.723.76,4.75,4.75,0,0,1-2-.4,3.363,3.363,0,0,1-1.374-1.1,2.565,2.565,0,0,1-.5-1.515h2.274a1.252,1.252,0,0,0,.473.979,1.877,1.877,0,0,0,1.179.34A1.737,1.737,0,0,0,181.2,14.2.814.814,0,0,0,181.553,13.518Zm16.195-1.926a5.387,5.387,0,0,1-.942,3.324,3.021,3.021,0,0,1-2.544,1.249,2.8,2.8,0,0,1-2.2-.946v4.233h-2.4V7.019h2.225l.083.88a2.819,2.819,0,0,1,2.274-1.046,3.041,3.041,0,0,1,2.582,1.229,5.532,5.532,0,0,1,.921,3.387Zm-2.4-.183a3.554,3.554,0,0,0-.444-1.94,1.445,1.445,0,0,0-1.291-.683,1.57,1.57,0,0,0-1.552.866v3.689a1.6,1.6,0,0,0,1.569.891Q195.349,14.232,195.349,11.409ZM204.438,16a2.664,2.664,0,0,1-.241-.805,2.9,2.9,0,0,1-2.266.971,3.189,3.189,0,0,1-2.187-.764,2.456,2.456,0,0,1-.867-1.926,2.538,2.538,0,0,1,1.058-2.191,5.222,5.222,0,0,1,3.059-.772h1.1V10a1.48,1.48,0,0,0-.32-1,1.257,1.257,0,0,0-1.009-.374,1.429,1.429,0,0,0-.95.291.987.987,0,0,0-.344.8h-2.4a2.41,2.41,0,0,1,.481-1.444,3.182,3.182,0,0,1,1.361-1.042,4.961,4.961,0,0,1,1.976-.378,3.92,3.92,0,0,1,2.635.834,2.918,2.918,0,0,1,.975,2.345v3.893a4.294,4.294,0,0,0,.357,1.934V16Zm-1.984-1.668a2.066,2.066,0,0,0,.979-.237,1.554,1.554,0,0,0,.664-.635V11.916h-.9q-1.8,0-1.917,1.245l-.008.141a.96.96,0,0,0,.315.739A1.225,1.225,0,0,0,202.454,14.332Zm10.94-5.063a6.517,6.517,0,0,0-.863-.066,1.757,1.757,0,0,0-1.785.921V16h-2.4V7.019h2.266l.066,1.071a2.223,2.223,0,0,1,2-1.237,2.514,2.514,0,0,1,.747.108ZM219.5,16a2.664,2.664,0,0,1-.241-.805,2.9,2.9,0,0,1-2.266.971,3.189,3.189,0,0,1-2.187-.764,2.456,2.456,0,0,1-.867-1.926A2.538,2.538,0,0,1,215,11.285a5.222,5.222,0,0,1,3.059-.772h1.1V10a1.48,1.48,0,0,0-.32-1,1.257,1.257,0,0,0-1.009-.374,1.429,1.429,0,0,0-.95.291.987.987,0,0,0-.344.8h-2.4a2.41,2.41,0,0,1,.481-1.444,3.182,3.182,0,0,1,1.361-1.042,4.961,4.961,0,0,1,1.976-.378,3.92,3.92,0,0,1,2.635.834,2.918,2.918,0,0,1,.975,2.345v3.893a4.294,4.294,0,0,0,.357,1.934V16Zm-1.984-1.668a2.066,2.066,0,0,0,.979-.237,1.554,1.554,0,0,0,.664-.635V11.916h-.9q-1.8,0-1.917,1.245l-.008.141a.96.96,0,0,0,.315.739A1.225,1.225,0,0,0,217.52,14.332ZM232.851,16a2.664,2.664,0,0,1-.241-.805,2.9,2.9,0,0,1-2.266.971,3.189,3.189,0,0,1-2.187-.764,2.456,2.456,0,0,1-.867-1.926,2.538,2.538,0,0,1,1.058-2.191,5.222,5.222,0,0,1,3.059-.772h1.1V10a1.48,1.48,0,0,0-.32-1,1.257,1.257,0,0,0-1.009-.374,1.429,1.429,0,0,0-.95.291.987.987,0,0,0-.344.8h-2.4a2.41,2.41,0,0,1,.481-1.444,3.182,3.182,0,0,1,1.361-1.042,4.961,4.961,0,0,1,1.976-.378,3.92,3.92,0,0,1,2.635.834,2.918,2.918,0,0,1,.975,2.345v3.893a4.294,4.294,0,0,0,.357,1.934V16Zm-1.984-1.668a2.066,2.066,0,0,0,.979-.237,1.554,1.554,0,0,0,.664-.635V11.916h-.9q-1.8,0-1.917,1.245l-.008.141a.96.96,0,0,0,.315.739A1.225,1.225,0,0,0,230.868,14.332Zm13.979-2.739a5.387,5.387,0,0,1-.942,3.324,3.021,3.021,0,0,1-2.544,1.249,2.8,2.8,0,0,1-2.2-.946v4.233h-2.4V7.019h2.225l.083.88a2.819,2.819,0,0,1,2.274-1.046,3.041,3.041,0,0,1,2.582,1.229,5.532,5.532,0,0,1,.921,3.387Zm-2.4-.183A3.554,3.554,0,0,0,242,9.469a1.445,1.445,0,0,0-1.291-.683,1.57,1.57,0,0,0-1.552.866v3.689a1.6,1.6,0,0,0,1.569.891Q242.447,14.232,242.447,11.409ZM248.864,16h-2.407V3.25h2.407Zm4.507,0h-2.407V7.019h2.407ZM250.823,4.694a1.181,1.181,0,0,1,.361-.888,1.556,1.556,0,0,1,1.963,0,1.175,1.175,0,0,1,.365.888,1.178,1.178,0,0,1-.369.9,1.539,1.539,0,0,1-1.951,0A1.178,1.178,0,0,1,250.823,4.694Zm8.259,9.538a1.573,1.573,0,0,0,1.079-.365,1.28,1.28,0,0,0,.432-.971h2.25a3.077,3.077,0,0,1-.5,1.673A3.286,3.286,0,0,1,261,15.747a4.2,4.2,0,0,1-1.88.419,3.9,3.9,0,0,1-3.038-1.224,4.845,4.845,0,0,1-1.112-3.383V11.4a4.79,4.79,0,0,1,1.1-3.312,3.854,3.854,0,0,1,3.03-1.237,3.778,3.778,0,0,1,2.7.959,3.4,3.4,0,0,1,1.033,2.552h-2.25a1.648,1.648,0,0,0-.432-1.139A1.6,1.6,0,0,0,257.8,9.4a3.541,3.541,0,0,0-.427,1.983v.249a3.586,3.586,0,0,0,.423,2A1.463,1.463,0,0,0,259.082,14.232ZM269.416,16a2.664,2.664,0,0,1-.241-.805,2.9,2.9,0,0,1-2.266.971,3.189,3.189,0,0,1-2.187-.764,2.456,2.456,0,0,1-.867-1.926,2.538,2.538,0,0,1,1.058-2.191,5.222,5.222,0,0,1,3.059-.772h1.1V10a1.48,1.48,0,0,0-.32-1,1.257,1.257,0,0,0-1.009-.374,1.429,1.429,0,0,0-.95.291.987.987,0,0,0-.344.8h-2.4a2.41,2.41,0,0,1,.481-1.444A3.182,3.182,0,0,1,265.9,7.23a4.961,4.961,0,0,1,1.976-.378,3.92,3.92,0,0,1,2.635.834,2.918,2.918,0,0,1,.975,2.345v3.893a4.294,4.294,0,0,0,.357,1.934V16Zm-1.984-1.668a2.066,2.066,0,0,0,.979-.237,1.554,1.554,0,0,0,.664-.635V11.916h-.9q-1.8,0-1.917,1.245l-.008.141a.96.96,0,0,0,.315.739A1.225,1.225,0,0,0,267.433,14.332Zm10.94-5.063a6.517,6.517,0,0,0-.863-.066,1.757,1.757,0,0,0-1.785.921V16h-2.4V7.019h2.266l.066,1.071a2.223,2.223,0,0,1,2-1.237,2.514,2.514,0,0,1,.747.108Zm10.766,5.819a3.008,3.008,0,0,1-2.457,1.079,2.837,2.837,0,0,1-2.2-.83A3.544,3.544,0,0,1,283.7,12.9V7.019h2.4v5.809q0,1.4,1.278,1.4a1.732,1.732,0,0,0,1.677-.848V7.019h2.407V16h-2.258Zm6.342-8.068.075,1.038a3.136,3.136,0,0,1,2.582-1.2,2.606,2.606,0,0,1,2.125.838,3.912,3.912,0,0,1,.714,2.507V16h-2.4V10.243a1.562,1.562,0,0,0-.332-1.111,1.484,1.484,0,0,0-1.1-.345,1.65,1.65,0,0,0-1.519.865V16h-2.4V7.019ZM308,16a2.664,2.664,0,0,1-.241-.805,2.9,2.9,0,0,1-2.266.971A3.189,3.189,0,0,1,303.3,15.4a2.456,2.456,0,0,1-.867-1.926,2.538,2.538,0,0,1,1.058-2.191,5.222,5.222,0,0,1,3.059-.772h1.1V10a1.48,1.48,0,0,0-.32-1,1.257,1.257,0,0,0-1.009-.374,1.429,1.429,0,0,0-.95.291.987.987,0,0,0-.344.8h-2.4a2.41,2.41,0,0,1,.481-1.444,3.182,3.182,0,0,1,1.361-1.042,4.961,4.961,0,0,1,1.976-.378,3.92,3.92,0,0,1,2.635.834,2.918,2.918,0,0,1,.975,2.345v3.893a4.294,4.294,0,0,0,.357,1.934V16Zm-1.984-1.668a2.066,2.066,0,0,0,.979-.237,1.554,1.554,0,0,0,.664-.635V11.916h-.9q-1.8,0-1.917,1.245l-.008.141a.96.96,0,0,0,.315.739A1.225,1.225,0,0,0,306.015,14.332Zm14.261,1.834a4.409,4.409,0,0,1-3.217-1.212,4.308,4.308,0,0,1-1.241-3.229v-.232a5.426,5.426,0,0,1,.523-2.42,3.838,3.838,0,0,1,1.482-1.644,4.159,4.159,0,0,1,2.187-.577,3.727,3.727,0,0,1,2.9,1.162,4.722,4.722,0,0,1,1.058,3.3v.979H318.25a2.229,2.229,0,0,0,.7,1.411,2.12,2.12,0,0,0,1.482.531,2.589,2.589,0,0,0,2.167-1l1.179,1.32a3.6,3.6,0,0,1-1.461,1.191A4.793,4.793,0,0,1,320.275,16.166ZM320,8.787a1.5,1.5,0,0,0-1.158.484,2.5,2.5,0,0,0-.569,1.384h3.337v-.192a1.786,1.786,0,0,0-.432-1.238A1.547,1.547,0,0,0,320,8.787Zm7.537-1.768.075,1.038a3.136,3.136,0,0,1,2.582-1.2,2.606,2.606,0,0,1,2.125.838,3.912,3.912,0,0,1,.714,2.507V16h-2.4V10.243a1.562,1.562,0,0,0-.332-1.111,1.484,1.484,0,0,0-1.1-.345,1.65,1.65,0,0,0-1.519.865V16h-2.4V7.019Zm11.048,7.213a1.573,1.573,0,0,0,1.079-.365,1.28,1.28,0,0,0,.432-.971h2.25a3.077,3.077,0,0,1-.5,1.673,3.286,3.286,0,0,1-1.341,1.179,4.2,4.2,0,0,1-1.88.419,3.9,3.9,0,0,1-3.038-1.224,4.845,4.845,0,0,1-1.112-3.383V11.4a4.79,4.79,0,0,1,1.1-3.312,3.854,3.854,0,0,1,3.03-1.237,3.778,3.778,0,0,1,2.7.959,3.4,3.4,0,0,1,1.033,2.552H340.1a1.648,1.648,0,0,0-.432-1.139A1.6,1.6,0,0,0,337.3,9.4a3.541,3.541,0,0,0-.427,1.983v.249a3.586,3.586,0,0,0,.423,2A1.463,1.463,0,0,0,338.587,14.232Zm10.509.855a3.008,3.008,0,0,1-2.457,1.079,2.837,2.837,0,0,1-2.2-.83,3.544,3.544,0,0,1-.776-2.432V7.019h2.4v5.809q0,1.4,1.278,1.4a1.732,1.732,0,0,0,1.677-.848V7.019h2.407V16h-2.258Zm8.268,1.079a4.409,4.409,0,0,1-3.217-1.212,4.308,4.308,0,0,1-1.241-3.229v-.232a5.426,5.426,0,0,1,.523-2.42,3.838,3.838,0,0,1,1.482-1.644,4.159,4.159,0,0,1,2.187-.577A3.727,3.727,0,0,1,360,8.015a4.722,4.722,0,0,1,1.058,3.3v.979h-5.719a2.229,2.229,0,0,0,.7,1.411,2.12,2.12,0,0,0,1.482.531,2.589,2.589,0,0,0,2.167-1l1.179,1.32a3.6,3.6,0,0,1-1.461,1.191A4.793,4.793,0,0,1,357.363,16.166Zm-.274-7.379a1.5,1.5,0,0,0-1.158.484,2.5,2.5,0,0,0-.569,1.384H358.7v-.192a1.786,1.786,0,0,0-.432-1.238A1.547,1.547,0,0,0,357.089,8.787Zm10.193,4.731a.773.773,0,0,0-.436-.693,4.95,4.95,0,0,0-1.4-.452q-3.2-.672-3.2-2.723a2.468,2.468,0,0,1,.992-2,4,4,0,0,1,2.594-.8,4.307,4.307,0,0,1,2.735.805A2.537,2.537,0,0,1,369.59,9.75h-2.4a1.161,1.161,0,0,0-.332-.851,1.405,1.405,0,0,0-1.038-.336,1.436,1.436,0,0,0-.938.274.865.865,0,0,0-.332.7.739.739,0,0,0,.378.643,3.885,3.885,0,0,0,1.274.423,10.407,10.407,0,0,1,1.511.4,2.482,2.482,0,0,1,1.9,2.416,2.343,2.343,0,0,1-1.054,1.988,4.548,4.548,0,0,1-2.723.76,4.75,4.75,0,0,1-2-.4,3.363,3.363,0,0,1-1.374-1.1,2.565,2.565,0,0,1-.5-1.515h2.274a1.252,1.252,0,0,0,.473.979,1.877,1.877,0,0,0,1.179.34,1.737,1.737,0,0,0,1.042-.261A.814.814,0,0,0,367.283,13.518Zm6.749-8.708V7.019h1.536v1.76h-1.536v4.482a1.07,1.07,0,0,0,.191.714.959.959,0,0,0,.73.216,3.826,3.826,0,0,0,.706-.058V15.95a4.938,4.938,0,0,1-1.453.216,2.29,2.29,0,0,1-2.573-2.548V8.778h-1.312V7.019h1.312V4.811ZM382.108,16a2.664,2.664,0,0,1-.241-.805,2.9,2.9,0,0,1-2.266.971,3.189,3.189,0,0,1-2.187-.764,2.456,2.456,0,0,1-.867-1.926,2.538,2.538,0,0,1,1.058-2.191,5.222,5.222,0,0,1,3.059-.772h1.1V10a1.48,1.48,0,0,0-.32-1,1.257,1.257,0,0,0-1.009-.374,1.429,1.429,0,0,0-.95.291.987.987,0,0,0-.344.8h-2.4a2.41,2.41,0,0,1,.481-1.444,3.182,3.182,0,0,1,1.361-1.042,4.961,4.961,0,0,1,1.976-.378,3.92,3.92,0,0,1,2.635.834,2.918,2.918,0,0,1,.975,2.345v3.893a4.294,4.294,0,0,0,.357,1.934V16Zm-1.984-1.668a2.066,2.066,0,0,0,.979-.237,1.554,1.554,0,0,0,.664-.635V11.916h-.9q-1.8,0-1.917,1.245l-.008.141a.96.96,0,0,0,.315.739A1.225,1.225,0,0,0,380.124,14.332Z" transform="translate(633.952 4885.031)" fill="#0b67d1"/>
      </g>
      <path id="Trazado_232875" data-name="Trazado 232875" d="M34,129.528V56.109h75.548v89.38h80.868" transform="translate(-5258.822 -5878.994)" fill="none" stroke="#8c5be1" stroke-miterlimit="10" stroke-width="2" stroke-dasharray="4"/>
      <path id="Trazado_232880" data-name="Trazado 232880" d="M34,129.528V56.109h75.548v89.38h80.868" transform="translate(-4964.612 -5878.994)" fill="none" stroke="#8c5be1" stroke-miterlimit="10" stroke-width="2" stroke-dasharray="4"/>
      <path id="Trazado_232886" data-name="Trazado 232886" d="M34,129.528V56.109h75.548v89.38h80.868" transform="translate(-4670.403 -5878.994)" fill="none" stroke="#8c5be1" stroke-miterlimit="10" stroke-width="2" stroke-dasharray="4"/>
      <path id="Trazado_232878" data-name="Trazado 232878" d="M34,129.528V56.109h75.548v89.38h80.868" transform="translate(-5111.451 -5878.994)" fill="none" stroke="#8c5be1" stroke-miterlimit="10" stroke-width="2" stroke-dasharray="4"/>
      <path id="Trazado_232881" data-name="Trazado 232881" d="M34,129.528V56.109h75.548v89.38h80.868" transform="translate(-4817.242 -5878.994)" fill="none" stroke="#8c5be1" stroke-miterlimit="10" stroke-width="2" stroke-dasharray="4"/>
      <path id="Trazado_232885" data-name="Trazado 232885" d="M34,129.528V56.109h75.548v89.38h80.868" transform="translate(-4523.032 -5878.994)" fill="none" stroke="#8c5be1" stroke-miterlimit="10" stroke-width="2" stroke-dasharray="4"/>
      <path id="Trazado_232890" data-name="Trazado 232890" d="M34,129.528V56.109h75.548" transform="translate(-4375.661 -5878.994)" fill="none" stroke="#8c5be1" stroke-miterlimit="10" stroke-width="2" stroke-dasharray="4"/>
      <path id="Trazado_237193" data-name="Trazado 237193" d="M0,0H73.419V73.419H0Z" transform="translate(-5261 -5769.683)" fill="#43a99b"/>
      <path id="Trazado_237194" data-name="Trazado 237194" d="M0,0H73.419V73.419H0Z" transform="translate(-4966.79 -5769.683)" fill="#43a99b"/>
      <path id="Trazado_237195" data-name="Trazado 237195" d="M0,0H73.419V73.419H0Z" transform="translate(-4672.581 -5769.683)" fill="#43a99b"/>
      <path id="Trazado_237196" data-name="Trazado 237196" d="M0,0H72.355V72.355H0Z" transform="translate(-5260.468 -5769.151)" fill="#43a99b"/>
      <path id="Trazado_237197" data-name="Trazado 237197" d="M0,0H72.355V72.355H0Z" transform="translate(-4966.258 -5769.151)" fill="#0b67d1"/>
      <path id="Trazado_237198" data-name="Trazado 237198" d="M0,0H72.355V72.355H0Z" transform="translate(-4672.049 -5769.151)" fill="#afafaf"/>
      <path id="Trazado_237199" data-name="Trazado 237199" d="M0,0H74V73H0Z" transform="translate(-5188 -5861)" fill="#0b67d1"/>
      <path id="Trazado_237200" data-name="Trazado 237200" d="M0,0H73.419V73.419H0Z" transform="translate(-4893.371 -5861.307)" fill="#afafaf"/>
      <path id="Trazado_237201" data-name="Trazado 237201" d="M0,0H73V73H0Z" transform="translate(-4599 -5861)" fill="#43a99b"/>
      <path id="Trazado_237202" data-name="Trazado 237202" d="M0,0H73.419V73.419H0Z" transform="translate(-5040.21 -5861.307)" fill="#43a99b"/>
      <path id="Trazado_237203" data-name="Trazado 237203" d="M0,0H73V73H0Z" transform="translate(-4746 -5861)" fill="#0b67d1"/>
      <path id="Trazado_237204" data-name="Trazado 237204" d="M0,0H73.419V73.419H0Z" transform="translate(-4451.79 -5861.307)" fill="#afafaf"/>
      <path id="Trazado_237205" data-name="Trazado 237205" d="M0,0H73V73H0Z" transform="translate(-4304 -5861)" fill="#0b67d1"/>
      <path id="Trazado_237206" data-name="Trazado 237206" d="M0,0H54.267V54.267H0Z" transform="translate(-5251.424 -5760.106)" fill="#fff"/>
      <path id="Trazado_237207" data-name="Trazado 237207" d="M0,0H54.267V54.267H0Z" transform="translate(-4957.214 -5760.106)" fill="#fff"/>
      <path id="Trazado_237208" data-name="Trazado 237208" d="M0,0H54.267V54.267H0Z" transform="translate(-4663.004 -5760.106)" fill="#fff"/>
      <path id="Trazado_237209" data-name="Trazado 237209" d="M0,0H59.864V59.865H0Z" transform="translate(-5254.222 -5762.906)" fill="#fff"/>
      <path id="Trazado_237210" data-name="Trazado 237210" d="M0,0H59.864V59.865H0Z" transform="translate(-4960.012 -5762.906)" fill="#fff"/>
      <path id="Trazado_237211" data-name="Trazado 237211" d="M0,0H59.864V59.865H0Z" transform="translate(-4665.803 -5762.906)" fill="#fff"/>
      <path id="Trazado_237212" data-name="Trazado 237212" d="M0,0H73.419V73.419H0Z" transform="translate(-5114.161 -5769.683)" fill="#afafaf"/>
      <path id="Trazado_237213" data-name="Trazado 237213" d="M0,0H73.419V73.419H0Z" transform="translate(-4819.951 -5769.683)" fill="#43a99b"/>
      <path id="Trazado_237214" data-name="Trazado 237214" d="M0,0H73.419V73.419H0Z" transform="translate(-4525.742 -5769.683)" fill="#0b67d1"/>
      <path id="Trazado_237215" data-name="Trazado 237215" d="M0,0H73.419V73.419H0Z" transform="translate(-4378.371 -5769.683)" fill="#43a99b"/>
      <path id="Trazado_232876" data-name="Trazado 232876" d="M-3248.63-6827.83l8.148-7.161,34.086,3.022,9.507-3.009,8.434,7.147Z" transform="translate(-2005.592 1124.789)" fill="#7346bf"/>
      <path id="Trazado_232882" data-name="Trazado 232882" d="M-3248.63-6827.83l8.148-7.161,34.086,3.022,9.507-3.009,8.434,7.147Z" transform="translate(-1711.382 1124.789)" fill="#7346bf"/>
      <path id="Trazado_232887" data-name="Trazado 232887" d="M-3248.63-6827.83l8.148-7.161,34.086,3.022,9.507-3.009,8.434,7.147Z" transform="translate(-1417.172 1124.789)" fill="#7346bf"/>
      <path id="Trazado_237216" data-name="Trazado 237216" d="M0,0H43.625V41.671H0Z" transform="translate(-5246.104 -5710.212)" fill="#8c5be1"/>
      <path id="Trazado_237217" data-name="Trazado 237217" d="M0,0H43.625V41.671H0Z" transform="translate(-4951.894 -5710.212)" fill="#8c5be1"/>
      <path id="Trazado_237218" data-name="Trazado 237218" d="M0,0H43.625V41.671H0Z" transform="translate(-4657.684 -5710.212)" fill="#8c5be1"/>
      <path id="Trazado_237219" data-name="Trazado 237219" d="M11.816-6.392A7.468,7.468,0,0,1,10.393-1.5,4.919,4.919,0,0,1,6.381.215,4.945,4.945,0,0,1,2.342-1.515,7.457,7.457,0,0,1,.913-6.392V-9.249a7.468,7.468,0,0,1,1.423-4.888,4.931,4.931,0,0,1,4.023-1.719,4.933,4.933,0,0,1,4.028,1.729,7.475,7.475,0,0,1,1.429,4.888ZM8.2-9.711a5.578,5.578,0,0,0-.44-2.519,1.472,1.472,0,0,0-1.4-.833A1.437,1.437,0,0,0,5-12.289a5.255,5.255,0,0,0-.457,2.342v4a5.62,5.62,0,0,0,.44,2.562,1.478,1.478,0,0,0,1.4.811,1.458,1.458,0,0,0,1.364-.79A5.366,5.366,0,0,0,8.2-5.844ZM21.721,0H18.09V-11.559l-3.566,1.042v-2.75l6.864-2.374h.333Z" transform="translate(-5237.591 -5681.334)" fill="#fff"/>
      <path id="Trazado_237220" data-name="Trazado 237220" d="M11.816-6.392A7.468,7.468,0,0,1,10.393-1.5,4.919,4.919,0,0,1,6.381.215,4.945,4.945,0,0,1,2.342-1.515,7.457,7.457,0,0,1,.913-6.392V-9.249a7.468,7.468,0,0,1,1.423-4.888,4.931,4.931,0,0,1,4.023-1.719,4.933,4.933,0,0,1,4.028,1.729,7.475,7.475,0,0,1,1.429,4.888ZM8.2-9.711a5.578,5.578,0,0,0-.44-2.519,1.472,1.472,0,0,0-1.4-.833A1.437,1.437,0,0,0,5-12.289a5.255,5.255,0,0,0-.457,2.342v4a5.62,5.62,0,0,0,.44,2.562,1.478,1.478,0,0,0,1.4.811,1.458,1.458,0,0,0,1.364-.79A5.366,5.366,0,0,0,8.2-5.844ZM13.911-7.64l.956-8h9.142v2.793h-6.2l-.354,3.128a4.27,4.27,0,0,1,1.015-.4,4.632,4.632,0,0,1,1.23-.173,4.589,4.589,0,0,1,3.583,1.38,5.56,5.56,0,0,1,1.251,3.873,5.55,5.55,0,0,1-.671,2.723A4.615,4.615,0,0,1,21.979-.44,5.952,5.952,0,0,1,19.11.215,6.4,6.4,0,0,1,16.35-.392a4.953,4.953,0,0,1-2.02-1.664,4.043,4.043,0,0,1-.72-2.388h3.631a2.054,2.054,0,0,0,.548,1.361,1.739,1.739,0,0,0,1.3.5q1.826,0,1.826-2.7,0-2.5-2.234-2.5a2.23,2.23,0,0,0-1.891.815Z" transform="translate(-4943.381 -5681.334)" fill="#fff"/>
      <path id="Trazado_237221" data-name="Trazado 237221" d="M11.816-6.392A7.468,7.468,0,0,1,10.393-1.5,4.919,4.919,0,0,1,6.381.215,4.945,4.945,0,0,1,2.342-1.515,7.457,7.457,0,0,1,.913-6.392V-9.249a7.468,7.468,0,0,1,1.423-4.888,4.931,4.931,0,0,1,4.023-1.719,4.933,4.933,0,0,1,4.028,1.729,7.475,7.475,0,0,1,1.429,4.888ZM8.2-9.711a5.578,5.578,0,0,0-.44-2.519,1.472,1.472,0,0,0-1.4-.833A1.437,1.437,0,0,0,5-12.289a5.255,5.255,0,0,0-.457,2.342v4a5.62,5.62,0,0,0,.44,2.562,1.478,1.478,0,0,0,1.4.811,1.458,1.458,0,0,0,1.364-.79A5.366,5.366,0,0,0,8.2-5.844ZM20.829-6.048A3.824,3.824,0,0,1,18.208-5a4.232,4.232,0,0,1-3.373-1.439,5.671,5.671,0,0,1-1.246-3.846,5.772,5.772,0,0,1,.7-2.793,5.239,5.239,0,0,1,1.96-2.041,5.345,5.345,0,0,1,2.788-.752,5.189,5.189,0,0,1,2.8.779,5.244,5.244,0,0,1,1.95,2.2A7.564,7.564,0,0,1,24.5-9.6v1.386a9.4,9.4,0,0,1-1.015,4.49,7.008,7.008,0,0,1-2.9,2.922A9.046,9.046,0,0,1,16.21.215h-.226v-2.9l.688-.011Q20.41-2.879,20.829-6.048ZM19.186-7.605a1.762,1.762,0,0,0,1.7-1.021v-1.5a3.91,3.91,0,0,0-.5-2.224,1.584,1.584,0,0,0-1.364-.72,1.5,1.5,0,0,0-1.278.816,3.627,3.627,0,0,0-.516,1.977,3.252,3.252,0,0,0,.526,1.95A1.684,1.684,0,0,0,19.186-7.605Z" transform="translate(-4649.171 -5681.334)" fill="#fff"/>
      <g id="Grupo_181801" data-name="Grupo 181801" transform="translate(-5107.777 -5762.906)">
        <rect id="Rectángulo_63024" data-name="Rectángulo 63024" width="54.267" height="54.267" transform="translate(2.798 2.799)" fill="#fff"/>
        <rect id="Rectángulo_63023" data-name="Rectángulo 63023" width="59.864" height="59.865" transform="translate(0 0)" fill="#fff"/>
        <path id="Trazado_232877" data-name="Trazado 232877" d="M-3248.63-6827.83l8.148-7.161,34.086,3.022,9.507-3.009,8.434,7.147Z" transform="translate(3248.63 6887.695)" fill="#7346bf"/>
        <rect id="Rectángulo_63022" data-name="Rectángulo 63022" width="43.625" height="41.671" transform="translate(8.119 52.694)" fill="#8c5be1"/>
        <text id="_03" data-name="03" transform="translate(16.631 81.571)" fill="#fff" font-size="22" font-family="Roboto-Black, Roboto" font-weight="800"><tspan x="0" y="0">03</tspan></text>
      </g>
      <g id="Grupo_181806" data-name="Grupo 181806" transform="translate(-4813.567 -5762.906)">
        <rect id="Rectángulo_63024-2" data-name="Rectángulo 63024" width="54.267" height="54.267" transform="translate(2.798 2.799)" fill="#fff"/>
        <rect id="Rectángulo_63023-2" data-name="Rectángulo 63023" width="59.864" height="59.865" transform="translate(0 0)" fill="#fff"/>
        <path id="Trazado_232877-2" data-name="Trazado 232877" d="M-3248.63-6827.83l8.148-7.161,34.086,3.022,9.507-3.009,8.434,7.147Z" transform="translate(3248.63 6887.695)" fill="#7346bf"/>
        <rect id="Rectángulo_63022-2" data-name="Rectángulo 63022" width="43.625" height="41.671" transform="translate(8.119 52.694)" fill="#8c5be1"/>
        <text id="_07" data-name="07" transform="translate(16.631 81.571)" fill="#fff" font-size="22" font-family="Roboto-Black, Roboto" font-weight="800"><tspan x="0" y="0">07</tspan></text>
      </g>
      <g id="Grupo_181810" data-name="Grupo 181810" transform="translate(-4519.357 -5762.906)">
        <rect id="Rectángulo_63024-3" data-name="Rectángulo 63024" width="54.267" height="54.267" transform="translate(2.798 2.799)" fill="#fff"/>
        <rect id="Rectángulo_63023-3" data-name="Rectángulo 63023" width="59.864" height="59.865" transform="translate(0 0)" fill="#fff"/>
        <path id="Trazado_232877-3" data-name="Trazado 232877" d="M-3248.63-6827.83l8.148-7.161,34.086,3.022,9.507-3.009,8.434,7.147Z" transform="translate(3248.63 6887.695)" fill="#7346bf"/>
        <rect id="Rectángulo_63022-3" data-name="Rectángulo 63022" width="43.625" height="41.671" transform="translate(8.119 52.694)" fill="#8c5be1"/>
        <text id="_11" data-name="11" transform="translate(16.631 81.571)" fill="#fff" font-size="22" font-family="Roboto-Black, Roboto" font-weight="800"><tspan x="0" y="0">11</tspan></text>
      </g>
      <g id="Grupo_181815" data-name="Grupo 181815" transform="translate(-4371.986 -5762.906)">
        <rect id="Rectángulo_63024-4" data-name="Rectángulo 63024" width="54.267" height="54.267" transform="translate(2.798 2.799)" fill="#fff"/>
        <rect id="Rectángulo_63023-4" data-name="Rectángulo 63023" width="59.864" height="59.865" transform="translate(0 0)" fill="#fff"/>
        <path id="Trazado_232877-4" data-name="Trazado 232877" d="M-3248.63-6827.83l8.148-7.161,34.086,3.022,9.507-3.009,8.434,7.147Z" transform="translate(3248.63 6887.695)" fill="#7346bf"/>
        <rect id="Rectángulo_63022-4" data-name="Rectángulo 63022" width="43.625" height="41.671" transform="translate(8.119 52.694)" fill="#8c5be1"/>
        <text id="_13" data-name="13" transform="translate(16.631 81.571)" fill="#fff" font-size="22" font-family="Roboto-Black, Roboto" font-weight="800"><tspan x="0" y="0">13</tspan></text>
      </g>
      <path id="Trazado_237222" data-name="Trazado 237222" d="M0,0H54.267V54.267H0Z" transform="translate(-5123.819 -5798.662) rotate(180)" fill="#fff"/>
      <path id="Trazado_237223" data-name="Trazado 237223" d="M0,0H54.267V54.267H0Z" transform="translate(-4829.609 -5798.662) rotate(180)" fill="#fff"/>
      <path id="Trazado_237224" data-name="Trazado 237224" d="M0,0H54.267V54.267H0Z" transform="translate(-4535.4 -5798.662) rotate(180)" fill="#fff"/>
      <path id="Trazado_237225" data-name="Trazado 237225" d="M0,0H54.267V54.267H0Z" transform="translate(-4976.448 -5798.662) rotate(180)" fill="#fff"/>
      <path id="Trazado_237226" data-name="Trazado 237226" d="M0,0H54.267V54.267H0Z" transform="translate(-4682.238 -5798.662) rotate(180)" fill="#fff"/>
      <path id="Trazado_237227" data-name="Trazado 237227" d="M0,0H54.267V54.267H0Z" transform="translate(-4388.029 -5798.662) rotate(180)" fill="#fff"/>
      <path id="Trazado_237228" data-name="Trazado 237228" d="M0,0H54.267V54.267H0Z" transform="translate(-4240.658 -5798.662) rotate(180)" fill="#fff"/>
      <path id="Trazado_237229" data-name="Trazado 237229" d="M0,0H59.864V59.865H0Z" transform="translate(-5121.021 -5795.058) rotate(180)" fill="#fff"/>
      <path id="Trazado_237230" data-name="Trazado 237230" d="M0,0H59.864V59.865H0Z" transform="translate(-4826.811 -5795.058) rotate(180)" fill="#fff"/>
      <path id="Trazado_237231" data-name="Trazado 237231" d="M0,0H59.864V59.865H0Z" transform="translate(-4532.602 -5795.058) rotate(180)" fill="#fff"/>
      <path id="Trazado_237232" data-name="Trazado 237232" d="M0,0H59.864V59.865H0Z" transform="translate(-4973.65 -5795.058) rotate(180)" fill="#fff"/>
      <path id="Trazado_237233" data-name="Trazado 237233" d="M0,0H59.864V59.865H0Z" transform="translate(-4679.44 -5795.058) rotate(180)" fill="#fff"/>
      <path id="Trazado_237234" data-name="Trazado 237234" d="M0,0H59.864V59.865H0Z" transform="translate(-4385.23 -5795.058) rotate(180)" fill="#fff"/>
      <path id="Trazado_237235" data-name="Trazado 237235" d="M0,0H59.864V59.865H0Z" transform="translate(-4237.86 -5795.058) rotate(180)" fill="#fff"/>
      <path id="Trazado_232877-5" data-name="Trazado 232877" d="M0,7.161,8.148,0,42.234,3.022,51.741.013l8.434,7.147Z" transform="translate(-5121.021 -5847.762) rotate(180)" fill="#7346bf"/>
      <path id="Trazado_232883" data-name="Trazado 232883" d="M0,7.161,8.148,0,42.234,3.022,51.741.013l8.434,7.147Z" transform="translate(-4826.811 -5847.762) rotate(180)" fill="#7346bf"/>
      <path id="Trazado_232888" data-name="Trazado 232888" d="M0,7.161,8.148,0,42.234,3.022,51.741.013l8.434,7.147Z" transform="translate(-4532.602 -5847.762) rotate(180)" fill="#7346bf"/>
      <path id="Trazado_232879" data-name="Trazado 232879" d="M0,7.161,8.148,0,42.234,3.022,51.741.013l8.434,7.147Z" transform="translate(-4973.65 -5847.762) rotate(180)" fill="#7346bf"/>
      <path id="Trazado_232884" data-name="Trazado 232884" d="M0,7.161,8.148,0,42.234,3.022,51.741.013l8.434,7.147Z" transform="translate(-4679.44 -5847.762) rotate(180)" fill="#7346bf"/>
      <path id="Trazado_232889" data-name="Trazado 232889" d="M0,7.161,8.148,0,42.234,3.022,51.741.013l8.434,7.147Z" transform="translate(-4385.23 -5847.762) rotate(180)" fill="#7346bf"/>
      <path id="Trazado_232891" data-name="Trazado 232891" d="M0,7.161,8.148,0,42.234,3.022,51.741.013l8.434,7.147Z" transform="translate(-4237.86 -5847.762) rotate(180)" fill="#7346bf"/>
      <path id="Trazado_237236" data-name="Trazado 237236" d="M0,0H43.625V41.671H0Z" transform="translate(-5129.14 -5847.762) rotate(180)" fill="#8c5be1"/>
      <path id="Trazado_237237" data-name="Trazado 237237" d="M0,0H43.625V41.671H0Z" transform="translate(-4834.93 -5847.762) rotate(180)" fill="#8c5be1"/>
      <path id="Trazado_237238" data-name="Trazado 237238" d="M0,0H43.625V41.671H0Z" transform="translate(-4540.72 -5847.762) rotate(180)" fill="#8c5be1"/>
      <path id="Trazado_237239" data-name="Trazado 237239" d="M0,0H43.625V41.671H0Z" transform="translate(-4981.769 -5847.762) rotate(180)" fill="#8c5be1"/>
      <path id="Trazado_237240" data-name="Trazado 237240" d="M0,0H43.625V41.671H0Z" transform="translate(-4687.559 -5847.762) rotate(180)" fill="#8c5be1"/>
      <path id="Trazado_237241" data-name="Trazado 237241" d="M0,0H43.625V41.671H0Z" transform="translate(-4393.349 -5847.762) rotate(180)" fill="#8c5be1"/>
      <path id="Trazado_237242" data-name="Trazado 237242" d="M0,0H43.625V41.671H0Z" transform="translate(-4245.979 -5847.762) rotate(180)" fill="#8c5be1"/>
      <path id="Trazado_237243" data-name="Trazado 237243" d="M11.816-6.392A7.468,7.468,0,0,1,10.393-1.5,4.919,4.919,0,0,1,6.381.215,4.945,4.945,0,0,1,2.342-1.515,7.457,7.457,0,0,1,.913-6.392V-9.249a7.468,7.468,0,0,1,1.423-4.888,4.931,4.931,0,0,1,4.023-1.719,4.933,4.933,0,0,1,4.028,1.729,7.475,7.475,0,0,1,1.429,4.888ZM8.2-9.711a5.578,5.578,0,0,0-.44-2.519,1.472,1.472,0,0,0-1.4-.833A1.437,1.437,0,0,0,5-12.289a5.255,5.255,0,0,0-.457,2.342v4a5.62,5.62,0,0,0,.44,2.562,1.478,1.478,0,0,0,1.4.811,1.458,1.458,0,0,0,1.364-.79A5.366,5.366,0,0,0,8.2-5.844ZM24.61,0H13.7V-2.363l5.027-5.285q1.858-2.116,1.858-3.362a2.339,2.339,0,0,0-.44-1.536,1.572,1.572,0,0,0-1.278-.526,1.592,1.592,0,0,0-1.343.7A2.892,2.892,0,0,0,17-10.613H13.374a5.136,5.136,0,0,1,.72-2.659,5.047,5.047,0,0,1,2-1.907,5.935,5.935,0,0,1,2.857-.687,5.839,5.839,0,0,1,3.9,1.171,4.18,4.18,0,0,1,1.37,3.362,4.883,4.883,0,0,1-.344,1.8A7.891,7.891,0,0,1,22.811-7.7a26.924,26.924,0,0,1-2.336,2.573l-2.02,2.331H24.61Z" transform="translate(-5164.253 -5863.369)" fill="#fff"/>
      <path id="Trazado_237244" data-name="Trazado 237244" d="M11.816-6.392A7.468,7.468,0,0,1,10.393-1.5,4.919,4.919,0,0,1,6.381.215,4.945,4.945,0,0,1,2.342-1.515,7.457,7.457,0,0,1,.913-6.392V-9.249a7.468,7.468,0,0,1,1.423-4.888,4.931,4.931,0,0,1,4.023-1.719,4.933,4.933,0,0,1,4.028,1.729,7.475,7.475,0,0,1,1.429,4.888ZM8.2-9.711a5.578,5.578,0,0,0-.44-2.519,1.472,1.472,0,0,0-1.4-.833A1.437,1.437,0,0,0,5-12.289a5.255,5.255,0,0,0-.457,2.342v4a5.62,5.62,0,0,0,.44,2.562,1.478,1.478,0,0,0,1.4.811,1.458,1.458,0,0,0,1.364-.79A5.366,5.366,0,0,0,8.2-5.844ZM22.44-15.866v2.847h-.161a5.435,5.435,0,0,0-3.335.972,4.1,4.1,0,0,0-1.606,2.7,4.233,4.233,0,0,1,3.094-1.2,3.949,3.949,0,0,1,3.233,1.482,5.979,5.979,0,0,1,1.2,3.889,5.475,5.475,0,0,1-.7,2.739A5.021,5.021,0,0,1,22.2-.489a5.649,5.649,0,0,1-2.8.7,5.838,5.838,0,0,1-2.976-.757,5.207,5.207,0,0,1-2.041-2.165,7.128,7.128,0,0,1-.752-3.244V-7.4a9.029,9.029,0,0,1,1.037-4.345,7.515,7.515,0,0,1,2.959-3.024,8.461,8.461,0,0,1,4.265-1.1Zm-3.266,8.11a2.077,2.077,0,0,0-1.2.332,2.108,2.108,0,0,0-.72.813v1.08q0,2.953,2.052,2.953a1.666,1.666,0,0,0,1.38-.738,3,3,0,0,0,.553-1.851,2.944,2.944,0,0,0-.564-1.867A1.807,1.807,0,0,0,19.175-7.756Z" transform="translate(-4870.043 -5863.369)" fill="#fff"/>
      <path id="Trazado_237245" data-name="Trazado 237245" d="M8.98,0H5.35V-11.559L1.783-10.517v-2.75l6.864-2.374H8.98ZM24.557-6.392A7.468,7.468,0,0,1,23.133-1.5,4.919,4.919,0,0,1,19.121.215a4.945,4.945,0,0,1-4.039-1.729,7.457,7.457,0,0,1-1.429-4.877V-9.249a7.468,7.468,0,0,1,1.423-4.888A4.931,4.931,0,0,1,19.1-15.855a4.933,4.933,0,0,1,4.028,1.729,7.475,7.475,0,0,1,1.429,4.888Zm-3.62-3.319a5.578,5.578,0,0,0-.44-2.519,1.472,1.472,0,0,0-1.4-.833,1.437,1.437,0,0,0-1.359.773,5.255,5.255,0,0,0-.457,2.342v4a5.62,5.62,0,0,0,.44,2.562,1.478,1.478,0,0,0,1.4.811,1.458,1.458,0,0,0,1.364-.79,5.366,5.366,0,0,0,.451-2.476Z" transform="translate(-4575.833 -5863.369)" fill="#fff"/>
      <path id="Trazado_237246" data-name="Trazado 237246" d="M11.816-6.392A7.468,7.468,0,0,1,10.393-1.5,4.919,4.919,0,0,1,6.381.215,4.945,4.945,0,0,1,2.342-1.515,7.457,7.457,0,0,1,.913-6.392V-9.249a7.468,7.468,0,0,1,1.423-4.888,4.931,4.931,0,0,1,4.023-1.719,4.933,4.933,0,0,1,4.028,1.729,7.475,7.475,0,0,1,1.429,4.888ZM8.2-9.711a5.578,5.578,0,0,0-.44-2.519,1.472,1.472,0,0,0-1.4-.833A1.437,1.437,0,0,0,5-12.289a5.255,5.255,0,0,0-.457,2.342v4a5.62,5.62,0,0,0,.44,2.562,1.478,1.478,0,0,0,1.4.811,1.458,1.458,0,0,0,1.364-.79A5.366,5.366,0,0,0,8.2-5.844Zm15.061,3.6h1.59v2.793h-1.59V0h-3.62V-3.319H13.589l-.215-2.213,6.263-10.076v-.032h3.62Zm-6.435,0h2.814v-4.812l-.226.365Z" transform="translate(-5016.882 -5863.369)" fill="#fff"/>
      <path id="Trazado_237247" data-name="Trazado 237247" d="M11.816-6.392A7.468,7.468,0,0,1,10.393-1.5,4.919,4.919,0,0,1,6.381.215,4.945,4.945,0,0,1,2.342-1.515,7.457,7.457,0,0,1,.913-6.392V-9.249a7.468,7.468,0,0,1,1.423-4.888,4.931,4.931,0,0,1,4.023-1.719,4.933,4.933,0,0,1,4.028,1.729,7.475,7.475,0,0,1,1.429,4.888ZM8.2-9.711a5.578,5.578,0,0,0-.44-2.519,1.472,1.472,0,0,0-1.4-.833A1.437,1.437,0,0,0,5-12.289a5.255,5.255,0,0,0-.457,2.342v4a5.62,5.62,0,0,0,.44,2.562,1.478,1.478,0,0,0,1.4.811,1.458,1.458,0,0,0,1.364-.79A5.366,5.366,0,0,0,8.2-5.844Zm16.049-1.751a3.611,3.611,0,0,1-.564,2.009,4.107,4.107,0,0,1-1.552,1.4,4.52,4.52,0,0,1,1.772,1.5,3.867,3.867,0,0,1,.655,2.25A4.093,4.093,0,0,1,23.112-1,6,6,0,0,1,19.132.215,6.109,6.109,0,0,1,15.114-1a4.064,4.064,0,0,1-1.472-3.3,3.915,3.915,0,0,1,.645-2.224,4.383,4.383,0,0,1,1.826-1.525,4.131,4.131,0,0,1-1.568-1.4,3.586,3.586,0,0,1-.569-2.009,4.013,4.013,0,0,1,1.386-3.223A5.571,5.571,0,0,1,19.1-15.866a5.6,5.6,0,0,1,3.76,1.182A4.013,4.013,0,0,1,24.245-11.462ZM20.926-4.6a2.065,2.065,0,0,0-.5-1.488,1.739,1.739,0,0,0-1.316-.521,1.757,1.757,0,0,0-1.321.521,2.051,2.051,0,0,0-.5,1.488,2.069,2.069,0,0,0,.51,1.477,1.751,1.751,0,0,0,1.337.542,1.683,1.683,0,0,0,1.3-.537A2.106,2.106,0,0,0,20.926-4.6ZM19.1-13.073a1.338,1.338,0,0,0-1.112.478,2.075,2.075,0,0,0-.381,1.327,2.2,2.2,0,0,0,.387,1.354,1.334,1.334,0,0,0,1.139.516,1.28,1.28,0,0,0,1.112-.516,2.268,2.268,0,0,0,.371-1.354,2.079,2.079,0,0,0-.381-1.321A1.356,1.356,0,0,0,19.1-13.073Z" transform="translate(-4722.672 -5863.369)" fill="#fff"/>
      <path id="Trazado_237248" data-name="Trazado 237248" d="M8.98,0H5.35V-11.559L1.783-10.517v-2.75l6.864-2.374H8.98ZM24.61,0H13.7V-2.363l5.027-5.285q1.858-2.116,1.858-3.362a2.339,2.339,0,0,0-.44-1.536,1.572,1.572,0,0,0-1.278-.526,1.592,1.592,0,0,0-1.343.7A2.892,2.892,0,0,0,17-10.613H13.374a5.136,5.136,0,0,1,.72-2.659,5.047,5.047,0,0,1,2-1.907,5.935,5.935,0,0,1,2.857-.687,5.839,5.839,0,0,1,3.9,1.171,4.18,4.18,0,0,1,1.37,3.362,4.883,4.883,0,0,1-.344,1.8A7.891,7.891,0,0,1,22.811-7.7a26.924,26.924,0,0,1-2.336,2.573l-2.02,2.331H24.61Z" transform="translate(-4428.463 -5863.369)" fill="#fff"/>
      <path id="Trazado_237249" data-name="Trazado 237249" d="M8.98,0H5.35V-11.559L1.783-10.517v-2.75l6.864-2.374H8.98ZM23.257-6.112h1.59v2.793h-1.59V0h-3.62V-3.319H13.589l-.215-2.213,6.263-10.076v-.032h3.62Zm-6.435,0h2.814v-4.812l-.226.365Z" transform="translate(-4281.092 -5863.369)" fill="#fff"/>
      <path id="Trazado_237250" data-name="Trazado 237250" d="M61,0c33.689,0,61,3.134,61,7s-27.311,7-61,7S0,10.866,0,7,27.311,0,61,0Z" transform="translate(-4248 -5679)" fill="#afafaf"/>
      <g id="Grupo_181851" data-name="Grupo 181851" transform="translate(-4243.64 -5857.369)">
        <g id="Grupo_181850" data-name="Grupo 181850" transform="translate(0)" clip-path="url(#clip-path-2)">
          <g id="Grupo_181849" data-name="Grupo 181849" transform="translate(0 0)">
            <g id="Grupo_181848" data-name="Grupo 181848" clip-path="url(#clip-path-2)">
              <path id="Trazado_232892" data-name="Trazado 232892" d="M712.014,123.825c2-.379,3.876-3.726,4.526-5.009a1.593,1.593,0,0,0,.144-1.019l-.8-4.225s-1.839.313-1.7,2.762a1.8,1.8,0,0,1-.128.746l-.7,1.842-2.082-1.612,1.142-3.224a5.541,5.541,0,0,0,2.317.168c1.62-.517-.5-1.78-1.175-1.914s-2.149-.672-2.821.47-1.075,1.813-1.075,1.813-.739-2.552-.235-8.261c.023-.257-.621-.251-.8-.067-.541.55-1.4,2.226-1.448,7.321,0,0-.09-5.937-1.108-6.548-.839-.5-1.264,2.4-.672,7.33,0,0-1.1-4.267-1.88-4.275-1.323-.013-.017,11.4,3.309,14.8Z" transform="translate(-703.008 -90.468)" fill="#f9b384"/>
              <path id="Trazado_232893" data-name="Trazado 232893" d="M712.227,213.813q.089.852.2,1.65v.006a47.917,47.917,0,0,0,.875,5.033c.018.071.03.136.047.2,1.011,4.145,1.195,6.174,4.648,5.63l3.554-4.045.035-.041.26-.3-.721-2.129-.095-.278-.532-1.549-.065-.2-.911-2.667-.367-1.082Z" transform="translate(-709.502 -182.202)" fill="#f9b384"/>
              <path id="Trazado_232894" data-name="Trazado 232894" d="M264.952,1210.075l.9,2.828c6.2,2.038,9.822,4.373,10.053,7.1H257.972l-1.438-9.467a13.915,13.915,0,0,0,8.418-.457" transform="translate(-196.198 -1031.171)" fill="#1f3c88"/>
              <path id="Trazado_232895" data-name="Trazado 232895" d="M337.751,1162.533l2.249,7.029a13.916,13.916,0,0,1-8.418.457l-.927-6.106Z" transform="translate(-271.245 -990.658)" fill="#f9b384"/>
              <path id="Trazado_232896" data-name="Trazado 232896" d="M497.279,1166.692l-.526-7.159,8.427.444.46,6.6a13.786,13.786,0,0,1-8.361.116" transform="translate(-461.443 -988.102)" fill="#f9b384"/>
              <path id="Trazado_232897" data-name="Trazado 232897" d="M491.867,1217.525c.232-2.724,3.4-6.456,10.349-7.343l-.213-2.894a13.788,13.788,0,0,0,8.361-.116l.722,10.353Z" transform="translate(-466.167 -1028.697)" fill="#1f3c88"/>
              <path id="Trazado_232898" data-name="Trazado 232898" d="M438.347,149.838l10.166.071V134.534h-9.858l-.006.94-.047,4.873-.071,7.824Z" transform="translate(-395.681 -114.644)" fill="#f9b384"/>
              <path id="Trazado_232899" data-name="Trazado 232899" d="M447.188,150.766c1.828,1.922,6.594-.248,8.6-2.366l-8.557-2.507Z" transform="translate(-404.267 -124.324)" fill="#e28b6d"/>
              <path id="Trazado_232900" data-name="Trazado 232900" d="M412.539,51.5a21.984,21.984,0,0,0,.266,3.46c.5,3.1,1.81,5.778,4.838,5.861,7.156.207,9.2-3.885,10.544-7.232s-.84-11.414-.84-11.414l-9.261-.917L413,45.423a37.941,37.941,0,0,0-.461,6.073" transform="translate(-371.978 -35.155)" fill="#f9b384"/>
              <path id="Trazado_232901" data-name="Trazado 232901" d="M401.745,16.514s-2.042-.094-2.39-5.363a7.215,7.215,0,0,1-8.432-2.323,4.881,4.881,0,0,1-8.557-1.749c-1.232-3.524,2.168-8.772,7.121-5.593C394.341-.968,401.7-.8,403.822,5.216c0,0,7.365,3.4-.433,10.873a9.014,9.014,0,0,1-1.644.425" transform="translate(-345.824 -0.001)" fill="#102048"/>
              <path id="Trazado_232902" data-name="Trazado 232902" d="M480.534,611.833l5.619,84.967H499.36l-3.3-82.448-2.021-.936Z" transform="translate(-452.765 -521.377)" fill="#102048"/>
              <path id="Trazado_232903" data-name="Trazado 232903" d="M347.622,496.841l9.265,96.592H342.5L328.8,513.2l-15.573-4.731-.69-17.15,34.694-.789Z" transform="translate(-285.454 -418.01)" fill="#1f3c88"/>
              <g id="Grupo_181826" data-name="Grupo 181826" transform="translate(29.972 69.267)" opacity="0.6">
                <g id="Grupo_181825" data-name="Grupo 181825">
                  <g id="Grupo_181824" data-name="Grupo 181824" clip-path="url(#clip-path-4)">
                    <path id="Trazado_232904" data-name="Trazado 232904" d="M399.537,478.287c-7.86,2.822-26.3-.4-30.13-4.333l2.721-5.442,30.332,4.031Z" transform="translate(-369.407 -468.512)" fill="#102048"/>
                  </g>
                </g>
              </g>
              <path id="Trazado_232905" data-name="Trazado 232905" d="M401.428,245.136c.254.106.514.219.781.319a53.382,53.382,0,0,0,9.852,2.933,45.215,45.215,0,0,0,6.606.81,38.17,38.17,0,0,0,10.373-.84l-4.406-41.077-.538-5.009s-5.766,7.1-12.123-.739Z" transform="translate(-370.749 -171.737)" fill="#fff"/>
              <g id="Grupo_181829" data-name="Grupo 181829" transform="translate(46.587 33.269)" opacity="0.3">
                <g id="Grupo_181828" data-name="Grupo 181828">
                  <g id="Grupo_181827" data-name="Grupo 181827" clip-path="url(#clip-path-5)">
                    <path id="Trazado_232906" data-name="Trazado 232906" d="M402.758,269.224a38.168,38.168,0,0,0,10.373-.84l-4.406-41.077-1.573-2.274c-3.885,9.45-7.865,30.376-4.394,44.191" transform="translate(-401.427 -225.033)" fill="#1f3c88"/>
                  </g>
                </g>
              </g>
              <path id="Trazado_232907" data-name="Trazado 232907" d="M111.481,195.533c-4.381,18.6-6.183,37.738.271,58.99,4.786,1.821,10,1.8,15.573.2l-1.38-38.637,32.477,22.325,1.971-12.172c-12.484-11.937-34.069-29.971-48.912-30.7" transform="translate(-58.652 -166.624)" fill="#708cd5"/>
              <g id="Grupo_181832" data-name="Grupo 181832" transform="translate(31.46 38.666)" opacity="0.3">
                <g id="Grupo_181831" data-name="Grupo 181831" transform="translate(0)">
                  <g id="Grupo_181830" data-name="Grupo 181830" clip-path="url(#clip-path-6)">
                    <path id="Trazado_232908" data-name="Trazado 232908" d="M504.3,296.584a53.387,53.387,0,0,0,9.852,2.933c1.958-11.224,2.389-29.664.8-37.984Z" transform="translate(-504.299 -261.533)" fill="#1f3c88"/>
                  </g>
                </g>
              </g>
              <g id="Grupo_181835" data-name="Grupo 181835" transform="translate(3.795 35.591)" opacity="0.6">
                <g id="Grupo_181834" data-name="Grupo 181834">
                  <g id="Grupo_181833" data-name="Grupo 181833" clip-path="url(#clip-path-7)">
                    <path id="Trazado_232909" data-name="Trazado 232909" d="M713.987,243.442c.018.071.029.136.047.2,1.011,4.145,1.195,6.174,4.648,5.63l3.554-4.045.035-.041-.461-2.425-.095-.278-.532-1.549-.065-.2Z" transform="translate(-713.987 -240.733)" fill="#e28b6d"/>
                  </g>
                </g>
              </g>
              <path id="Trazado_232910" data-name="Trazado 232910" d="M505.117,207.413s8.723,18.481,13.9,18.924c5.016.43,7.392-4.435,7.392-4.435l-3.548,27.008a22.645,22.645,0,0,0,14,1.969c4.69-15.228,6.462-34.918,6.811-56.847-3.8.237-11.316.561-14.008,2.292-4.83,3.1-10.793,14.193-10.793,14.193l-6.949-9.462Z" transform="translate(-500.707 -165.346)" fill="#708cd5"/>
              <path id="Trazado_232911" data-name="Trazado 232911" d="M50.741,59.773s-.528-8.841-1.428-8.423-2.7,8.1-2.7,8.1l1.93,3.114Z" transform="translate(60.008 -43.746)" fill="#6f3428"/>
              <path id="Trazado_232912" data-name="Trazado 232912" d="M95.591,1188.2l-.261,2.91a9.338,9.338,0,0,0,8.465,10.136l.748.067a9.339,9.339,0,0,0,10.136-8.465l.261-2.91Z" transform="translate(-11.389 -1012.531)" fill="#ee6f57"/>
              <rect id="Rectángulo_63072" data-name="Rectángulo 63072" width="19.427" height="141.458" transform="translate(103.552 177.408) rotate(-174.866)" fill="#fbc343"/>
              <g id="Grupo_181838" data-name="Grupo 181838" transform="translate(91.618 31.872)" opacity="0.3">
                <g id="Grupo_181837" data-name="Grupo 181837" transform="translate(0)">
                  <g id="Grupo_181836" data-name="Grupo 181836" clip-path="url(#clip-path-8)">
                    <rect id="Rectángulo_63073" data-name="Rectángulo 63073" width="6.899" height="123.993" transform="translate(7.513 124.755) rotate(-174.866)" fill="none" stroke="#6f3428" stroke-miterlimit="10" stroke-width="8"/>
                  </g>
                </g>
              </g>
              <path id="Trazado_232913" data-name="Trazado 232913" d="M82.067,1062.878l19.344,1.739.509-5.677.355-3.945,1.094-12.123-19.35-1.739-1.088,12.123-.355,3.944Z" transform="translate(2.138 -887.207)" fill="#102048"/>
              <rect id="Rectángulo_63075" data-name="Rectángulo 63075" width="19.422" height="3.96" transform="translate(104.058 171.733) rotate(-174.864)" fill="#fbc343"/>
              <path id="Trazado_232914" data-name="Trazado 232914" d="M29.008,119.581l-5.375-21.54a4.62,4.62,0,0,1-4.105-.567l-9.87,20.368Z" transform="translate(87.204 -83.063)" fill="#ee6f57"/>
              <path id="Trazado_232915" data-name="Trazado 232915" d="M394.543,100.076c.087-.318,1.53-.754,1.849-.842a2.217,2.217,0,0,1,1.508.014c1.746.789,1.513,3.29.608,4.6a3.939,3.939,0,0,1-2.136,1.567c-.317.091-3.321.127-3.189-.356l1.36-4.986" transform="translate(-339.693 -84.455)" fill="#f9b384"/>
              <path id="Trazado_232916" data-name="Trazado 232916" d="M.593,434.7a2.63,2.63,0,0,1,3.36-1.736c2.2.76,4.118,2.049,4.415,4.243.27,2-.729,8.378-5.191,9.2l.364-3.278S.81,442.489.264,441.3c-.382-.829-.408-4.29.33-6.6" transform="translate(109.231 -368.83)" fill="#f9b384"/>
              <path id="Trazado_232917" data-name="Trazado 232917" d="M613.062,297.109c-.235,1.4-.434,2.8-.626,4.2s-.356,2.806-.536,4.209l-.459,4.218c-.134,1.408-.264,2.816-.351,4.23l.23.027c.242-1.4.44-2.8.635-4.2l.527-4.21c.149-1.406.32-2.81.45-4.219s.266-2.816.359-4.229Z" transform="translate(-585.999 -253.183)" fill="#1f3c88"/>
              <path id="Trazado_232918" data-name="Trazado 232918" d="M336.084,295.507c0,1.568.041,3.134.088,4.7s.12,3.131.179,4.7l.256,4.692c.1,1.563.212,3.126.364,4.687l.231-.011c0-1.568-.036-3.135-.079-4.7l-.187-4.7c-.09-1.564-.157-3.129-.265-4.692s-.211-3.126-.356-4.688Z" transform="translate(-269.251 -251.808)" fill="#1f3c88"/>
              <path id="Trazado_232919" data-name="Trazado 232919" d="M463.045,99.718a.929.929,0,0,0,.513,1.176c.408.092.841-.286.966-.844a.929.929,0,0,0-.513-1.176c-.408-.092-.841.287-.966.844" transform="translate(-415.371 -84.245)" fill="#102048"/>
              <path id="Trazado_232920" data-name="Trazado 232920" d="M502.865,93.853c.024.571.383,1.02.8,1s.737-.495.713-1.066-.383-1.02-.8-1-.737.495-.713,1.066" transform="translate(-461.086 -79.069)" fill="#102048"/>
              <path id="Trazado_232921" data-name="Trazado 232921" d="M491.376,103.168a13.425,13.425,0,0,0-.3,1.416,1.11,1.11,0,0,1-.286.492,1.87,1.87,0,0,1-.555.273,1.545,1.545,0,0,0-.7.528.918.918,0,0,0-.072.968,1.823,1.823,0,0,0,.578.584c.2.137.4.283.609.41l.152-.174c-.155-.192-.326-.365-.489-.548a1.727,1.727,0,0,1-.382-.5c-.125-.274.143-.573.531-.727a2.06,2.06,0,0,0,.721-.409,1.442,1.442,0,0,0,.38-.782c.1-.548-.014-1.017.039-1.472Z" transform="translate(-446.31 -87.915)" fill="#e28b6d"/>
              <path id="Trazado_232922" data-name="Trazado 232922" d="M457.7,86.889a1.722,1.722,0,0,0-.6-.922,1.837,1.837,0,0,0-1.072-.4,1.984,1.984,0,0,0-1.865,1.048l.181.144a2.54,2.54,0,0,1,1.655-.6,1.932,1.932,0,0,1,1.495.833Z" transform="translate(-407.204 -72.913)" fill="#102048"/>
              <path id="Trazado_232923" data-name="Trazado 232923" d="M498.316,82.822a1.78,1.78,0,0,0-.464-.747,1.546,1.546,0,0,0-.839-.415,1.473,1.473,0,0,0-1.568.782l.185.139a1.875,1.875,0,0,1,1.3-.339,1.665,1.665,0,0,1,.618.226,4.088,4.088,0,0,1,.574.472Z" transform="translate(-453.925 -69.57)" fill="#102048"/>
              <path id="Trazado_232924" data-name="Trazado 232924" d="M476.788,141.907c-1.033,1.616-2.408,1.792-3.471.091Z" transform="translate(-429.125 -120.927)" fill="#fff"/>
              <g id="Grupo_181841" data-name="Grupo 181841" transform="translate(40.534 15.948)" opacity="0.4">
                <g id="Grupo_181840" data-name="Grupo 181840" transform="translate(0)">
                  <g id="Grupo_181839" data-name="Grupo 181839" clip-path="url(#clip-path-9)">
                    <path id="Trazado_232925" data-name="Trazado 232925" d="M511.187,107.867a27.272,27.272,0,0,0,.294,3.854,1.781,1.781,0,0,0,1.236-1.7,2.276,2.276,0,0,0-1.53-2.157" transform="translate(-511.187 -107.867)" fill="#fc8879"/>
                  </g>
                </g>
              </g>
              <g id="Grupo_181844" data-name="Grupo 181844" transform="translate(48.276 17.253)" opacity="0.4">
                <g id="Grupo_181843" data-name="Grupo 181843" transform="translate(0)">
                  <g id="Grupo_181842" data-name="Grupo 181842" clip-path="url(#clip-path-10)">
                    <path id="Trazado_232926" data-name="Trazado 232926" d="M443.367,118.608a1.907,1.907,0,1,0,1.907-1.907,1.907,1.907,0,0,0-1.907,1.907" transform="translate(-443.367 -116.701)" fill="#fc8879"/>
                  </g>
                </g>
              </g>
              <path id="Trazado_232927" data-name="Trazado 232927" d="M401.395,110.57a9.554,9.554,0,0,1,1.066-.7.932.932,0,0,1,.47-.122,1.054,1.054,0,0,1,.492.226l.194-.126a.92.92,0,0,0-.562-.6,1.1,1.1,0,0,0-.856.1,2.214,2.214,0,0,0-.989,1.09Z" transform="translate(-345.295 -93.049)" fill="#e28b6d"/>
              <g id="Grupo_181847" data-name="Grupo 181847" transform="translate(109.494 72.475)" opacity="0.6">
                <g id="Grupo_181846" data-name="Grupo 181846" transform="translate(0)">
                  <g id="Grupo_181845" data-name="Grupo 181845" clip-path="url(#clip-path-11)">
                    <path id="Trazado_232928" data-name="Trazado 232928" d="M32.7,490.207l2.745,8.34.567-6.518a5.687,5.687,0,0,1-3.312-1.822" transform="translate(-32.698 -490.207)" fill="#6f3428"/>
                  </g>
                </g>
              </g>
            </g>
          </g>
        </g>
      </g>
    </g>
  </g>
</svg>
