<svg xmlns="http://www.w3.org/2000/svg" xmlns:xlink="http://www.w3.org/1999/xlink" width="93.863" height="79.682" viewBox="0 0 93.863 79.682">
  <defs>
    <clipPath id="clip-path">
      <rect id="Rect치ngulo_56418" data-name="Rect치ngulo 56418" width="93.863" height="79.682" fill="#fff"/>
    </clipPath>
    <clipPath id="clip-path-2">
      <rect id="Rect치ngulo_62968" data-name="Rect치ngulo 62968" width="58.456" height="78.853" fill="none"/>
    </clipPath>
  </defs>
  <g id="Grupo_183974" data-name="Grupo 183974" transform="translate(567 7720.661)">
    <g id="Grupo_181783" data-name="Grupo 181783" transform="translate(-857.241 -10099.116)">
      <g id="Grupo_175904" data-name="Grupo 175904" transform="translate(290.241 2378.455)" clip-path="url(#clip-path)">
        <path id="Trazado_218610" data-name="Trazado 218610" d="M75.88,67.356s49.465-37.1,16-46.919S23.869-13.752,14.776,10.253s15.64,34.189,4,47.282,14.548,36.735,57.1,9.82" transform="translate(-9.637 0)" fill="#fff"/>
      </g>
    </g>
    <g id="Grupo_181779" data-name="Grupo 181779" transform="translate(-549 -7719.833)">
      <g id="Grupo_181778" data-name="Grupo 181778" transform="translate(0 0)" clip-path="url(#clip-path-2)">
        <path id="Trazado_232789" data-name="Trazado 232789" d="M56.089,76.351H2.369A2.372,2.372,0,0,1,0,73.982V6.619A2.371,2.371,0,0,1,2.369,4.252H14.494a1.315,1.315,0,0,1,0,2.631H2.632V73.72H55.826V6.883H43.964a1.315,1.315,0,0,1,0-2.631H56.089a2.371,2.371,0,0,1,2.369,2.367V73.982a2.372,2.372,0,0,1-2.369,2.369" transform="translate(0 2.503)"/>
        <path id="Trazado_232790" data-name="Trazado 232790" d="M25.9,9.033H17.394a4.516,4.516,0,1,1,0-9.033H25.9a4.516,4.516,0,1,1,0,9.033m-8.508-6.4a1.886,1.886,0,0,0,0,3.771H25.9a1.886,1.886,0,0,0,0-3.771Z" transform="translate(7.58 0.001)"/>
        <path id="Trazado_232791" data-name="Trazado 232791" d="M36.975,15.7H11.715a3.424,3.424,0,0,1-3.42-3.42V5.436a3.424,3.424,0,0,1,3.42-3.42h5.174a1.315,1.315,0,0,1,1.317,1.315,1.888,1.888,0,0,0,1.886,1.886H28.6a1.889,1.889,0,0,0,1.886-1.886A1.314,1.314,0,0,1,31.8,2.016h5.174A3.426,3.426,0,0,1,40.4,5.436v6.842a3.426,3.426,0,0,1-3.422,3.42M11.715,4.647a.791.791,0,0,0-.79.79v6.842a.791.791,0,0,0,.79.79h25.26a.792.792,0,0,0,.791-.79V5.436a.792.792,0,0,0-.791-.79H32.921a4.525,4.525,0,0,1-4.321,3.2H20.092a4.527,4.527,0,0,1-4.322-3.2Z" transform="translate(4.882 1.187)"/>
        <path id="Trazado_232792" data-name="Trazado 232792" d="M48.539,67.618H5.266A1.316,1.316,0,0,1,3.951,66.3V9.376A1.316,1.316,0,0,1,5.266,8.061h6.9a1.316,1.316,0,1,1,0,2.632H6.583V64.986h40.64V10.693H41.638a1.316,1.316,0,1,1,0-2.632h6.9a1.315,1.315,0,0,1,1.315,1.315V66.3a1.315,1.315,0,0,1-1.315,1.315" transform="translate(2.325 4.745)"/>
        <path id="Trazado_232793" data-name="Trazado 232793" d="M36.978,17.871h-26.4a1.315,1.315,0,0,1,0-2.631h26.4a1.315,1.315,0,1,1,0,2.631" transform="translate(5.451 8.97)"/>
        <path id="Trazado_232794" data-name="Trazado 232794" d="M36.978,21.459h-26.4a1.315,1.315,0,1,1,0-2.631h26.4a1.315,1.315,0,1,1,0,2.631" transform="translate(5.451 11.082)"/>
        <path id="Trazado_232795" data-name="Trazado 232795" d="M36.978,25.048h-26.4a1.315,1.315,0,1,1,0-2.631h26.4a1.315,1.315,0,1,1,0,2.631" transform="translate(5.451 13.195)"/>
        <path id="Trazado_232796" data-name="Trazado 232796" d="M24.78,27.992,31.553,47.84H28.816L26.694,41.6H19.657L17.595,47.84h-2.65l6.774-19.848Zm-4.594,11.6h6.006l-1.97-5.714c-.445-1.295-.737-2.473-1.031-3.622h-.06c-.3,1.149-.588,2.386-1,3.593l-1.944,5.743m6.351-14.059H19.962L19.394,27.2,12.621,47.045l-1.109,3.249h7.857l.556-1.685,1.506-4.556h3.5l1.555,4.577.567,1.665h7.929l-1.109-3.249L27.1,27.2Z" transform="translate(6.776 15.03)"/>
      </g>
    </g>
  </g>
</svg>
