<svg xmlns="http://www.w3.org/2000/svg" width="60.001" height="60.001" viewBox="0 0 60.001 60.001">
  <g id="Grupo_184189" data-name="Grupo 184189" transform="translate(-297 -4858)">
    <g id="Grupo_182805" data-name="Grupo 182805" transform="translate(0.001 63)">
      <g id="Grupo_182800" data-name="Grupo 182800">
        <circle id="Elipse_6145" data-name="Elipse 6145" cx="30" cy="30" r="30" transform="translate(297 4795)" fill="#d7e6f8"/>
        <path id="Intersección_7" data-name="Intersección 7" d="M7292,11730a30.344,30.344,0,0,1,.2-3.494,30.026,30.026,0,1,1-.2,3.494Z" transform="translate(-6995 -6905)" fill="#c6dcf6"/>
      </g>
    </g>
    <g id="informe-de-negocio" transform="translate(310.996 4867)">
      <path id="Trazado_234530" data-name="Trazado 234530" d="M3.027,42.622a3.03,3.03,0,0,1-3.024-3V3.008a3.029,3.029,0,0,1,3.022-3H22.982a1.051,1.051,0,0,1,1.051,1.048V6.493a2.425,2.425,0,0,0,2.428,2.4h5.482A1.051,1.051,0,0,1,33,9.937V39.624a3.029,3.029,0,0,1-3.022,3Zm0-41.24A1.65,1.65,0,0,0,1.379,3.012v36.61A1.65,1.65,0,0,0,3.03,41.248H29.972a1.65,1.65,0,0,0,1.649-1.627V10.263H26.459a3.8,3.8,0,0,1-3.8-3.768V1.382ZM32.309,39.621h.007Zm0,0" transform="translate(0 -0.007)"/>
      <path id="Trazado_234531" data-name="Trazado 234531" d="M208.851,292.451H196.265a.687.687,0,0,1-.687-.687v-10.31a.687.687,0,1,1,1.375,0v9.623h11.9a.687.687,0,0,1,0,1.375Zm0,0" transform="translate(-178.771 -256.643)"/>
      <path id="Trazado_234532" data-name="Trazado 234532" d="M273.34,10.256a.686.686,0,0,1-.484-.2l-8.962-8.881A.688.688,0,0,1,264.862.2l8.962,8.881a.688.688,0,0,1-.484,1.176Zm0,0" transform="translate(-241.032 0)"/>
      <path id="Trazado_234533" data-name="Trazado 234533" d="M31.379,124.986a5.63,5.63,0,1,1,0-11.26.687.687,0,0,1,.687.687v4.255h4.305a.687.687,0,0,1,.687.687A5.662,5.662,0,0,1,31.379,124.986Zm-.687-9.831a4.26,4.26,0,1,0,4.936,4.888H31.379a.687.687,0,0,1-.687-.687Zm0,0" transform="translate(-23.488 -103.955)"/>
      <path id="Trazado_234534" data-name="Trazado 234534" d="M119.274,90.563h-4.993a.687.687,0,0,1-.687-.687V84.933a.687.687,0,0,1,.687-.687,5.661,5.661,0,0,1,5.68,5.63A.687.687,0,0,1,119.274,90.563Zm-4.306-1.375h3.562a4.291,4.291,0,0,0-3.562-3.514Zm0,0" transform="translate(-103.831 -77.007)"/>
      <path id="Trazado_234535" data-name="Trazado 234535" d="M216.662,143.324H206.523a.687.687,0,0,1,0-1.375h10.139a.687.687,0,1,1,0,1.375Zm0,0" transform="translate(-188.148 -129.753)"/>
      <path id="Trazado_234536" data-name="Trazado 234536" d="M216.662,176.91H206.523a.687.687,0,1,1,0-1.375h10.139a.687.687,0,1,1,0,1.375Zm0,0" transform="translate(-188.148 -160.454)"/>
      <path id="Trazado_234537" data-name="Trazado 234537" d="M216.662,210.5H206.523a.687.687,0,1,1,0-1.375h10.139a.687.687,0,1,1,0,1.375Zm0,0" transform="translate(-188.148 -191.161)"/>
      <path id="Trazado_234538" data-name="Trazado 234538" d="M46.525,333.75H36.386a.687.687,0,1,1,0-1.375H46.525a.687.687,0,0,1,0,1.375Zm0,0" transform="translate(-32.628 -303.818)"/>
      <path id="Trazado_234539" data-name="Trazado 234539" d="M46.525,367.336H36.386a.687.687,0,1,1,0-1.375H46.525a.687.687,0,1,1,0,1.375Zm0,0" transform="translate(-32.628 -334.519)"/>
      <path id="Trazado_234540" data-name="Trazado 234540" d="M46.525,400.926H36.386a.687.687,0,1,1,0-1.375H46.525a.687.687,0,1,1,0,1.375Zm0,0" transform="translate(-32.628 -365.223)"/>
      <path id="Trazado_234541" data-name="Trazado 234541" d="M312.2,314.5a.687.687,0,0,1-.687-.687v-8.238a.687.687,0,1,1,1.375,0v8.238A.687.687,0,0,1,312.2,314.5Zm0,0" transform="translate(-284.741 -278.692)"/>
      <path id="Trazado_234542" data-name="Trazado 234542" d="M270.593,341.39a.687.687,0,0,1-.687-.687v-5.71a.687.687,0,1,1,1.375,0v5.71A.687.687,0,0,1,270.593,341.39Zm0,0" transform="translate(-246.713 -305.583)"/>
      <path id="Trazado_234543" data-name="Trazado 234543" d="M229,367.763a.687.687,0,0,1-.687-.687v-2.67a.687.687,0,0,1,1.375,0v2.67A.687.687,0,0,1,229,367.763Zm0,0" transform="translate(-208.696 -332.469)"/>
    </g>
  </g>
</svg>
