<svg xmlns="http://www.w3.org/2000/svg" xmlns:xlink="http://www.w3.org/1999/xlink" width="505" height="261" viewBox="0 0 505 261">
  <defs>
    <linearGradient id="linear-gradient" x1="0.013" y1="0.554" x2="1" y2="0.554" gradientUnits="objectBoundingBox">
      <stop offset="0" stop-color="#a9d5d5"/>
      <stop offset="0.783" stop-color="#e8f1f9"/>
      <stop offset="1" stop-color="#ecf3fb"/>
    </linearGradient>
    <clipPath id="clip-path">
      <rect id="Rectángulo_57889" data-name="Rectángulo 57889" width="246" height="182.061" fill="none"/>
    </clipPath>
    <clipPath id="clip-path-2">
      <rect id="Rectángulo_63744" data-name="Rectángulo 63744" width="315.584" height="141.689" transform="translate(0.005)" fill="none"/>
    </clipPath>
    <clipPath id="clip-path-3">
      <rect id="Rectángulo_57895" data-name="Rectángulo 57895" width="204.609" height="138.13" fill="none"/>
    </clipPath>
  </defs>
  <g id="Grupo_184187" data-name="Grupo 184187" transform="translate(-1672 5751)">
    <rect id="Rectángulo_63724" data-name="Rectángulo 63724" width="505" height="261" rx="23" transform="translate(1672 -5751)" fill="url(#linear-gradient)"/>
    <rect id="Rectángulo_63710" data-name="Rectángulo 63710" width="505" height="64" transform="translate(1672 -5554)" fill="#ecf3fb"/>
    <path id="Trazado_237193" data-name="Trazado 237193" d="M59.313,10.547V15h-1.5V3.625h4.2a4.215,4.215,0,0,1,2.926.953A3.231,3.231,0,0,1,65.992,7.1a3.189,3.189,0,0,1-1.035,2.551,4.4,4.4,0,0,1-2.965.895Zm0-1.227h2.7a2.7,2.7,0,0,0,1.844-.567,2.075,2.075,0,0,0,.641-1.64,2.143,2.143,0,0,0-.641-1.628,2.525,2.525,0,0,0-1.758-.634H59.313ZM69.25,15H67.8V3H69.25Zm7.531,0a3.036,3.036,0,0,1-.2-.891,3.225,3.225,0,0,1-2.406,1.047,2.984,2.984,0,0,1-2.051-.707,2.288,2.288,0,0,1-.8-1.793,2.39,2.39,0,0,1,1-2.051,4.733,4.733,0,0,1,2.824-.73h1.406V9.211A1.623,1.623,0,0,0,76.1,8a1.821,1.821,0,0,0-1.336-.449,2.108,2.108,0,0,0-1.3.391,1.151,1.151,0,0,0-.523.945H71.492a2,2,0,0,1,.449-1.223,3.066,3.066,0,0,1,1.219-.934,4.1,4.1,0,0,1,1.691-.344,3.342,3.342,0,0,1,2.289.73A2.635,2.635,0,0,1,78,9.133v3.891a4.757,4.757,0,0,0,.3,1.852V15Zm-2.4-1.1a2.54,2.54,0,0,0,1.289-.352,2.127,2.127,0,0,0,.883-.914V10.9H75.422q-2.656,0-2.656,1.555a1.316,1.316,0,0,0,.453,1.063A1.742,1.742,0,0,0,74.383,13.9Zm10.8-1.141a1.064,1.064,0,0,0-.441-.91,4.249,4.249,0,0,0-1.539-.559,7.277,7.277,0,0,1-1.742-.562,2.479,2.479,0,0,1-.953-.781A1.869,1.869,0,0,1,80.2,8.867a2.193,2.193,0,0,1,.879-1.758,3.432,3.432,0,0,1,2.246-.719,3.532,3.532,0,0,1,2.332.742,2.357,2.357,0,0,1,.895,1.9H85.1a1.3,1.3,0,0,0-.5-1.023,1.888,1.888,0,0,0-1.27-.43,1.976,1.976,0,0,0-1.234.344,1.082,1.082,0,0,0-.445.9.877.877,0,0,0,.414.789,5.1,5.1,0,0,0,1.5.508,7.8,7.8,0,0,1,1.754.578,2.558,2.558,0,0,1,1,.809,1.988,1.988,0,0,1,.324,1.152,2.163,2.163,0,0,1-.906,1.816,3.8,3.8,0,0,1-2.352.684,4.257,4.257,0,0,1-1.8-.359,2.922,2.922,0,0,1-1.223-1,2.42,2.42,0,0,1-.441-1.395h1.445a1.5,1.5,0,0,0,.582,1.152,2.258,2.258,0,0,0,1.434.426,2.331,2.331,0,0,0,1.316-.332A1.02,1.02,0,0,0,85.188,12.758Zm4.688-6.211.039.938a3.122,3.122,0,0,1,2.508-1.094A2.417,2.417,0,0,1,94.836,7.75a3.2,3.2,0,0,1,1.1-.984,3.242,3.242,0,0,1,1.6-.375q2.781,0,2.828,2.945V15H98.914V9.422A1.941,1.941,0,0,0,98.5,8.066a1.823,1.823,0,0,0-1.391-.449,1.916,1.916,0,0,0-1.336.48,1.949,1.949,0,0,0-.617,1.293V15H93.7V9.461a1.613,1.613,0,0,0-1.8-1.844,1.934,1.934,0,0,0-1.945,1.211V15H88.508V6.547Zm16.172,8.609a3.693,3.693,0,0,1-2.8-1.129,4.19,4.19,0,0,1-1.078-3.02v-.266a5.073,5.073,0,0,1,.48-2.246A3.748,3.748,0,0,1,104,6.949a3.378,3.378,0,0,1,1.871-.559,3.166,3.166,0,0,1,2.563,1.086,4.7,4.7,0,0,1,.914,3.109v.6h-5.727a3,3,0,0,0,.73,2.02,2.3,2.3,0,0,0,1.777.77,2.517,2.517,0,0,0,1.3-.312,3.259,3.259,0,0,0,.93-.828l.883.688A3.55,3.55,0,0,1,106.047,15.156Zm-.18-7.578a1.928,1.928,0,0,0-1.469.637A3.1,3.1,0,0,0,103.664,10H107.9V9.891a2.753,2.753,0,0,0-.594-1.707A1.815,1.815,0,0,0,105.867,7.578ZM120.2,14.164a3.07,3.07,0,0,1-2.477.992,2.628,2.628,0,0,1-2.059-.785,3.4,3.4,0,0,1-.715-2.324v-5.5h1.445v5.461q0,1.922,1.563,1.922a2.163,2.163,0,0,0,2.2-1.234V6.547H121.6V15h-1.375Zm4.969-7.617.047,1.063a3.08,3.08,0,0,1,2.531-1.219q2.68,0,2.7,3.023V15H129V9.406a1.946,1.946,0,0,0-.418-1.352,1.675,1.675,0,0,0-1.277-.437,2.086,2.086,0,0,0-1.234.375,2.546,2.546,0,0,0-.828.984V15H123.8V6.547ZM137.844,15a3.036,3.036,0,0,1-.2-.891,3.225,3.225,0,0,1-2.406,1.047,2.984,2.984,0,0,1-2.051-.707,2.287,2.287,0,0,1-.8-1.793,2.39,2.39,0,0,1,1-2.051,4.733,4.733,0,0,1,2.824-.73h1.406V9.211A1.623,1.623,0,0,0,137.164,8a1.821,1.821,0,0,0-1.336-.449,2.107,2.107,0,0,0-1.3.391,1.151,1.151,0,0,0-.523.945h-1.453A2,2,0,0,1,133,7.668a3.066,3.066,0,0,1,1.219-.934,4.1,4.1,0,0,1,1.691-.344,3.342,3.342,0,0,1,2.289.73,2.635,2.635,0,0,1,.859,2.012v3.891a4.757,4.757,0,0,0,.3,1.852V15Zm-2.4-1.1a2.54,2.54,0,0,0,1.289-.352,2.127,2.127,0,0,0,.883-.914V10.9h-1.133q-2.656,0-2.656,1.555a1.316,1.316,0,0,0,.453,1.063A1.742,1.742,0,0,0,135.445,13.9Zm14.766-1.141a1.064,1.064,0,0,0-.441-.91,4.249,4.249,0,0,0-1.539-.559,7.277,7.277,0,0,1-1.742-.562,2.479,2.479,0,0,1-.953-.781,1.869,1.869,0,0,1-.309-1.078,2.193,2.193,0,0,1,.879-1.758,3.432,3.432,0,0,1,2.246-.719,3.532,3.532,0,0,1,2.332.742,2.357,2.357,0,0,1,.895,1.9h-1.453a1.3,1.3,0,0,0-.5-1.023,1.888,1.888,0,0,0-1.27-.43,1.976,1.976,0,0,0-1.234.344,1.082,1.082,0,0,0-.445.9.877.877,0,0,0,.414.789,5.1,5.1,0,0,0,1.5.508,7.8,7.8,0,0,1,1.754.578,2.558,2.558,0,0,1,1,.809,1.988,1.988,0,0,1,.324,1.152,2.163,2.163,0,0,1-.906,1.816,3.8,3.8,0,0,1-2.352.684,4.257,4.257,0,0,1-1.8-.359,2.922,2.922,0,0,1-1.223-1,2.42,2.42,0,0,1-.441-1.395h1.445a1.5,1.5,0,0,0,.582,1.152,2.258,2.258,0,0,0,1.434.426,2.331,2.331,0,0,0,1.316-.332A1.02,1.02,0,0,0,150.211,12.758Zm4.9,2.242h-1.453V6.547h1.453Zm.016-11.977h1.75l-2.094,2.3-1.164,0Zm3.734,3.523.047,1.063a3.08,3.08,0,0,1,2.531-1.219q2.68,0,2.7,3.023V15H162.7V9.406a1.946,1.946,0,0,0-.418-1.352A1.675,1.675,0,0,0,161,7.617a2.086,2.086,0,0,0-1.234.375,2.546,2.546,0,0,0-.828.984V15h-1.445V6.547ZM168.281,4.5V6.547h1.578V7.664h-1.578v5.249a1.173,1.173,0,0,0,.211.763.888.888,0,0,0,.719.254,3.5,3.5,0,0,0,.688-.094V15a4.215,4.215,0,0,1-1.109.155,1.8,1.8,0,0,1-1.461-.586,2.517,2.517,0,0,1-.492-1.664V7.664H165.3V6.547h1.539V4.5Zm6.773,10.656a3.693,3.693,0,0,1-2.8-1.129,4.19,4.19,0,0,1-1.078-3.02v-.266a5.073,5.073,0,0,1,.48-2.246A3.748,3.748,0,0,1,173,6.949a3.378,3.378,0,0,1,1.871-.559,3.166,3.166,0,0,1,2.563,1.086,4.7,4.7,0,0,1,.914,3.109v.6h-5.727a3,3,0,0,0,.73,2.02,2.3,2.3,0,0,0,1.777.77,2.517,2.517,0,0,0,1.3-.312,3.258,3.258,0,0,0,.93-.828l.883.688A3.55,3.55,0,0,1,175.055,15.156Zm-.18-7.578a1.928,1.928,0,0,0-1.469.637A3.1,3.1,0,0,0,172.672,10h4.234V9.891a2.753,2.753,0,0,0-.594-1.707A1.815,1.815,0,0,0,174.875,7.578Zm10.07,5.18a1.064,1.064,0,0,0-.441-.91,4.249,4.249,0,0,0-1.539-.559,7.277,7.277,0,0,1-1.742-.562,2.479,2.479,0,0,1-.953-.781,1.869,1.869,0,0,1-.309-1.078,2.193,2.193,0,0,1,.879-1.758,3.432,3.432,0,0,1,2.246-.719,3.532,3.532,0,0,1,2.332.742,2.357,2.357,0,0,1,.895,1.9h-1.453a1.3,1.3,0,0,0-.5-1.023,1.888,1.888,0,0,0-1.27-.43,1.976,1.976,0,0,0-1.234.344,1.082,1.082,0,0,0-.445.9.877.877,0,0,0,.414.789,5.1,5.1,0,0,0,1.5.508,7.8,7.8,0,0,1,1.754.578,2.558,2.558,0,0,1,1,.809,1.988,1.988,0,0,1,.324,1.152,2.163,2.163,0,0,1-.906,1.816,3.8,3.8,0,0,1-2.352.684,4.257,4.257,0,0,1-1.8-.359,2.922,2.922,0,0,1-1.223-1,2.42,2.42,0,0,1-.441-1.395h1.445a1.5,1.5,0,0,0,.582,1.152,2.258,2.258,0,0,0,1.434.426,2.331,2.331,0,0,0,1.316-.332A1.02,1.02,0,0,0,184.945,12.758Zm4.9,2.242H188.4V6.547h1.445ZM188.281,4.3a.863.863,0,0,1,.215-.594.807.807,0,0,1,.637-.242.819.819,0,0,1,.641.242.854.854,0,0,1,.219.594.826.826,0,0,1-.219.586.834.834,0,0,1-.641.234.821.821,0,0,1-.637-.234A.834.834,0,0,1,188.281,4.3Zm8.8,8.453a1.064,1.064,0,0,0-.441-.91,4.249,4.249,0,0,0-1.539-.559,7.277,7.277,0,0,1-1.742-.562,2.479,2.479,0,0,1-.953-.781,1.869,1.869,0,0,1-.309-1.078,2.193,2.193,0,0,1,.879-1.758,3.432,3.432,0,0,1,2.246-.719,3.532,3.532,0,0,1,2.332.742,2.357,2.357,0,0,1,.895,1.9h-1.453a1.3,1.3,0,0,0-.5-1.023,1.888,1.888,0,0,0-1.27-.43,1.976,1.976,0,0,0-1.234.344,1.082,1.082,0,0,0-.445.9.877.877,0,0,0,.414.789,5.1,5.1,0,0,0,1.5.508,7.8,7.8,0,0,1,1.754.578,2.558,2.558,0,0,1,1,.809,1.988,1.988,0,0,1,.324,1.152,2.163,2.163,0,0,1-.906,1.816,3.8,3.8,0,0,1-2.352.684,4.257,4.257,0,0,1-1.8-.359,2.922,2.922,0,0,1-1.223-1A2.42,2.42,0,0,1,191.8,12.4h1.445a1.5,1.5,0,0,0,.582,1.152,2.258,2.258,0,0,0,1.434.426,2.331,2.331,0,0,0,1.316-.332A1.02,1.02,0,0,0,197.078,12.758Zm6.945-2.055a4.968,4.968,0,0,1,.914-3.145,3.151,3.151,0,0,1,4.836-.074l.07-.937h1.32V14.8a3.439,3.439,0,0,1-.973,2.586,3.589,3.589,0,0,1-2.613.945,4.348,4.348,0,0,1-1.789-.391,3.08,3.08,0,0,1-1.336-1.07L205.2,16a2.826,2.826,0,0,0,2.273,1.148,2.214,2.214,0,0,0,1.645-.594,2.269,2.269,0,0,0,.59-1.672v-.727a2.971,2.971,0,0,1-2.367,1,2.887,2.887,0,0,1-2.4-1.2A5.224,5.224,0,0,1,204.023,10.7Zm1.453.164a3.79,3.79,0,0,0,.586,2.246,1.9,1.9,0,0,0,1.641.816,2.117,2.117,0,0,0,2.008-1.242V8.828a2.142,2.142,0,0,0-1.992-1.211,1.921,1.921,0,0,0-1.648.82A4.128,4.128,0,0,0,205.477,10.867Zm11.375,4.289a3.693,3.693,0,0,1-2.8-1.129,4.19,4.19,0,0,1-1.078-3.02v-.266a5.073,5.073,0,0,1,.48-2.246A3.748,3.748,0,0,1,214.8,6.949a3.378,3.378,0,0,1,1.871-.559,3.166,3.166,0,0,1,2.563,1.086,4.7,4.7,0,0,1,.914,3.109v.6h-5.727a3,3,0,0,0,.73,2.02,2.3,2.3,0,0,0,1.777.77,2.517,2.517,0,0,0,1.3-.312,3.258,3.258,0,0,0,.93-.828l.883.688A3.55,3.55,0,0,1,216.852,15.156Zm-.18-7.578a1.928,1.928,0,0,0-1.469.637A3.1,3.1,0,0,0,214.469,10H218.7V9.891a2.753,2.753,0,0,0-.594-1.707A1.815,1.815,0,0,0,216.672,7.578Zm6.516-1.031.047,1.063a3.08,3.08,0,0,1,2.531-1.219q2.68,0,2.7,3.023V15h-1.445V9.406a1.946,1.946,0,0,0-.418-1.352,1.675,1.675,0,0,0-1.277-.437,2.086,2.086,0,0,0-1.234.375,2.546,2.546,0,0,0-.828.984V15H221.82V6.547Zm10.969,8.609a3.693,3.693,0,0,1-2.8-1.129,4.19,4.19,0,0,1-1.078-3.02v-.266a5.073,5.073,0,0,1,.48-2.246,3.748,3.748,0,0,1,1.344-1.547,3.378,3.378,0,0,1,1.871-.559,3.166,3.166,0,0,1,2.563,1.086,4.7,4.7,0,0,1,.914,3.109v.6h-5.727a3,3,0,0,0,.73,2.02,2.3,2.3,0,0,0,1.777.77,2.517,2.517,0,0,0,1.3-.312,3.258,3.258,0,0,0,.93-.828l.883.688A3.55,3.55,0,0,1,234.156,15.156Zm-.18-7.578a1.928,1.928,0,0,0-1.469.637A3.1,3.1,0,0,0,231.773,10h4.234V9.891a2.753,2.753,0,0,0-.594-1.707A1.815,1.815,0,0,0,233.977,7.578Zm9.234.266a4.331,4.331,0,0,0-.711-.055A1.9,1.9,0,0,0,240.57,9v6h-1.445V6.547h1.406l.023.977a2.251,2.251,0,0,1,2.016-1.133,1.477,1.477,0,0,1,.641.109ZM249.445,15a3.036,3.036,0,0,1-.2-.891,3.225,3.225,0,0,1-2.406,1.047,2.984,2.984,0,0,1-2.051-.707,2.287,2.287,0,0,1-.8-1.793,2.39,2.39,0,0,1,1-2.051,4.733,4.733,0,0,1,2.824-.73h1.406V9.211A1.623,1.623,0,0,0,248.766,8a1.821,1.821,0,0,0-1.336-.449,2.107,2.107,0,0,0-1.3.391,1.151,1.151,0,0,0-.523.945h-1.453a2,2,0,0,1,.449-1.223,3.066,3.066,0,0,1,1.219-.934,4.1,4.1,0,0,1,1.691-.344,3.342,3.342,0,0,1,2.289.73,2.635,2.635,0,0,1,.859,2.012v3.891a4.757,4.757,0,0,0,.3,1.852V15Zm-2.4-1.1a2.54,2.54,0,0,0,1.289-.352,2.127,2.127,0,0,0,.883-.914V10.9h-1.133q-2.656,0-2.656,1.555a1.316,1.316,0,0,0,.453,1.063A1.742,1.742,0,0,0,247.047,13.9ZM254.5,15h-1.445V3H254.5Zm5.922-4.3a4.952,4.952,0,0,1,.922-3.129,3.137,3.137,0,0,1,4.766-.168V3h1.445V15h-1.328l-.07-.906a2.943,2.943,0,0,1-2.414,1.063,2.887,2.887,0,0,1-2.395-1.2,5.008,5.008,0,0,1-.926-3.141Zm1.445.164a3.749,3.749,0,0,0,.594,2.25,1.92,1.92,0,0,0,1.641.813,2.109,2.109,0,0,0,2.008-1.234V8.813a2.125,2.125,0,0,0-1.992-1.2,1.929,1.929,0,0,0-1.656.82A4.128,4.128,0,0,0,261.867,10.867ZM273.3,15.156a3.693,3.693,0,0,1-2.8-1.129,4.19,4.19,0,0,1-1.078-3.02v-.266a5.073,5.073,0,0,1,.48-2.246,3.748,3.748,0,0,1,1.344-1.547,3.378,3.378,0,0,1,1.871-.559,3.166,3.166,0,0,1,2.563,1.086,4.7,4.7,0,0,1,.914,3.109v.6h-5.727a3,3,0,0,0,.73,2.02,2.3,2.3,0,0,0,1.777.77,2.517,2.517,0,0,0,1.3-.312,3.259,3.259,0,0,0,.93-.828l.883.688A3.55,3.55,0,0,1,273.3,15.156Zm-.18-7.578a1.928,1.928,0,0,0-1.469.637A3.1,3.1,0,0,0,270.922,10h4.234V9.891a2.753,2.753,0,0,0-.594-1.707A1.815,1.815,0,0,0,273.125,7.578ZM283.8,15h-1.445V3H283.8Zm7.531,0a3.036,3.036,0,0,1-.2-.891,3.225,3.225,0,0,1-2.406,1.047,2.984,2.984,0,0,1-2.051-.707,2.288,2.288,0,0,1-.8-1.793,2.39,2.39,0,0,1,1-2.051,4.733,4.733,0,0,1,2.824-.73h1.406V9.211A1.623,1.623,0,0,0,290.656,8a1.821,1.821,0,0,0-1.336-.449,2.108,2.108,0,0,0-1.3.391,1.151,1.151,0,0,0-.523.945h-1.453a2,2,0,0,1,.449-1.223,3.066,3.066,0,0,1,1.219-.934,4.1,4.1,0,0,1,1.691-.344,3.342,3.342,0,0,1,2.289.73,2.635,2.635,0,0,1,.859,2.012v3.891a4.757,4.757,0,0,0,.3,1.852V15Zm-2.4-1.1a2.54,2.54,0,0,0,1.289-.352,2.126,2.126,0,0,0,.883-.914V10.9h-1.133q-2.656,0-2.656,1.555a1.316,1.316,0,0,0,.453,1.063A1.742,1.742,0,0,0,288.938,13.9Zm13.352,1.258a3.693,3.693,0,0,1-2.8-1.129,4.19,4.19,0,0,1-1.078-3.02v-.266a5.073,5.073,0,0,1,.48-2.246,3.748,3.748,0,0,1,1.344-1.547,3.378,3.378,0,0,1,1.871-.559,3.166,3.166,0,0,1,2.563,1.086,4.7,4.7,0,0,1,.914,3.109v.6h-5.727a3,3,0,0,0,.73,2.02,2.3,2.3,0,0,0,1.777.77,2.517,2.517,0,0,0,1.3-.312,3.259,3.259,0,0,0,.93-.828l.883.688A3.55,3.55,0,0,1,302.289,15.156Zm-.18-7.578a1.928,1.928,0,0,0-1.469.637A3.1,3.1,0,0,0,299.906,10h4.234V9.891a2.753,2.753,0,0,0-.594-1.707A1.815,1.815,0,0,0,302.109,7.578Zm6.516-1.031.047,1.063A3.08,3.08,0,0,1,311.2,6.391q2.68,0,2.7,3.023V15h-1.445V9.406a1.946,1.946,0,0,0-.418-1.352,1.675,1.675,0,0,0-1.277-.437,2.086,2.086,0,0,0-1.234.375,2.546,2.546,0,0,0-.828.984V15h-1.445V6.547Zm10.852,7.43a2.082,2.082,0,0,0,1.352-.469,1.649,1.649,0,0,0,.641-1.172h1.367a2.621,2.621,0,0,1-.5,1.383,3.293,3.293,0,0,1-1.23,1.047,3.55,3.55,0,0,1-1.629.391A3.482,3.482,0,0,1,316.73,14a4.59,4.59,0,0,1-1.02-3.152v-.242a5.089,5.089,0,0,1,.453-2.2,3.451,3.451,0,0,1,1.3-1.492,3.7,3.7,0,0,1,2-.531,3.39,3.39,0,0,1,2.363.852,3.043,3.043,0,0,1,1,2.211h-1.367a1.992,1.992,0,0,0-.621-1.348,1.932,1.932,0,0,0-1.379-.527,2.023,2.023,0,0,0-1.707.793,3.724,3.724,0,0,0-.605,2.293v.273a3.65,3.65,0,0,0,.6,2.25A2.033,2.033,0,0,0,319.477,13.977Zm10.2.188a3.07,3.07,0,0,1-2.477.992,2.628,2.628,0,0,1-2.059-.785,3.4,3.4,0,0,1-.715-2.324v-5.5h1.445v5.461q0,1.922,1.563,1.922a2.163,2.163,0,0,0,2.2-1.234V6.547h1.445V15h-1.375Zm7.109.992a3.693,3.693,0,0,1-2.8-1.129,4.19,4.19,0,0,1-1.078-3.02v-.266a5.073,5.073,0,0,1,.48-2.246,3.748,3.748,0,0,1,1.344-1.547,3.378,3.378,0,0,1,1.871-.559,3.166,3.166,0,0,1,2.563,1.086,4.7,4.7,0,0,1,.914,3.109v.6h-5.727a3,3,0,0,0,.73,2.02,2.3,2.3,0,0,0,1.777.77,2.517,2.517,0,0,0,1.3-.312,3.259,3.259,0,0,0,.93-.828l.883.688A3.55,3.55,0,0,1,336.789,15.156Zm-.18-7.578a1.928,1.928,0,0,0-1.469.637A3.1,3.1,0,0,0,334.406,10h4.234V9.891a2.753,2.753,0,0,0-.594-1.707A1.815,1.815,0,0,0,336.609,7.578Zm10.07,5.18a1.064,1.064,0,0,0-.441-.91,4.249,4.249,0,0,0-1.539-.559,7.276,7.276,0,0,1-1.742-.562A2.478,2.478,0,0,1,342,9.945a1.869,1.869,0,0,1-.309-1.078,2.193,2.193,0,0,1,.879-1.758,3.432,3.432,0,0,1,2.246-.719,3.532,3.532,0,0,1,2.332.742,2.357,2.357,0,0,1,.895,1.9h-1.453a1.3,1.3,0,0,0-.5-1.023,1.888,1.888,0,0,0-1.27-.43,1.976,1.976,0,0,0-1.234.344,1.082,1.082,0,0,0-.445.9.877.877,0,0,0,.414.789,5.1,5.1,0,0,0,1.5.508,7.8,7.8,0,0,1,1.754.578,2.559,2.559,0,0,1,1,.809,1.988,1.988,0,0,1,.324,1.152,2.163,2.163,0,0,1-.906,1.816,3.8,3.8,0,0,1-2.352.684,4.257,4.257,0,0,1-1.8-.359,2.922,2.922,0,0,1-1.223-1,2.42,2.42,0,0,1-.441-1.395h1.445a1.5,1.5,0,0,0,.582,1.152,2.258,2.258,0,0,0,1.434.426,2.331,2.331,0,0,0,1.316-.332A1.02,1.02,0,0,0,346.68,12.758ZM351.969,4.5V6.547h1.578V7.664h-1.578v5.249a1.173,1.173,0,0,0,.211.763.888.888,0,0,0,.719.254,3.5,3.5,0,0,0,.688-.094V15a4.215,4.215,0,0,1-1.109.155,1.8,1.8,0,0,1-1.461-.586,2.517,2.517,0,0,1-.492-1.664V7.664h-1.539V6.547h1.539V4.5ZM360.453,15a3.036,3.036,0,0,1-.2-.891,3.225,3.225,0,0,1-2.406,1.047,2.984,2.984,0,0,1-2.051-.707,2.288,2.288,0,0,1-.8-1.793,2.39,2.39,0,0,1,1-2.051,4.733,4.733,0,0,1,2.824-.73h1.406V9.211A1.623,1.623,0,0,0,359.773,8a1.821,1.821,0,0,0-1.336-.449,2.108,2.108,0,0,0-1.3.391,1.151,1.151,0,0,0-.523.945h-1.453a2,2,0,0,1,.449-1.223,3.066,3.066,0,0,1,1.219-.934,4.1,4.1,0,0,1,1.691-.344,3.342,3.342,0,0,1,2.289.73,2.635,2.635,0,0,1,.859,2.012v3.891a4.757,4.757,0,0,0,.3,1.852V15Zm-2.4-1.1a2.54,2.54,0,0,0,1.289-.352,2.126,2.126,0,0,0,.883-.914V10.9h-1.133q-2.656,0-2.656,1.555a1.316,1.316,0,0,0,.453,1.063A1.742,1.742,0,0,0,358.055,13.9Zm9.492-3.2a4.961,4.961,0,0,1,.914-3.152,3.226,3.226,0,0,1,4.82-.152l.063-.852h1.328v11.7h-1.445V14.219a3.033,3.033,0,0,1-2.328.938,2.915,2.915,0,0,1-2.441-1.191,5.072,5.072,0,0,1-.91-3.16Zm1.445.164a3.761,3.761,0,0,0,.613,2.281,1.951,1.951,0,0,0,1.652.828,2.164,2.164,0,0,0,1.969-1.141V8.7a2.171,2.171,0,0,0-1.953-1.117,1.965,1.965,0,0,0-1.664.832A4.094,4.094,0,0,0,368.992,10.867Zm13.219,3.3a3.07,3.07,0,0,1-2.477.992,2.628,2.628,0,0,1-2.059-.785,3.4,3.4,0,0,1-.715-2.324v-5.5h1.445v5.461q0,1.922,1.563,1.922a2.163,2.163,0,0,0,2.2-1.234V6.547h1.445V15h-1.375Zm7.109.992a3.693,3.693,0,0,1-2.8-1.129,4.19,4.19,0,0,1-1.078-3.02v-.266a5.073,5.073,0,0,1,.48-2.246,3.748,3.748,0,0,1,1.344-1.547,3.378,3.378,0,0,1,1.871-.559A3.166,3.166,0,0,1,391.7,7.477a4.7,4.7,0,0,1,.914,3.109v.6h-5.727a3,3,0,0,0,.73,2.02,2.3,2.3,0,0,0,1.777.77,2.517,2.517,0,0,0,1.3-.312,3.259,3.259,0,0,0,.93-.828l.883.688A3.55,3.55,0,0,1,389.32,15.156Zm-.18-7.578a1.928,1.928,0,0,0-1.469.637A3.1,3.1,0,0,0,386.938,10h4.234V9.891a2.753,2.753,0,0,0-.594-1.707A1.815,1.815,0,0,0,389.141,7.578Zm13.2.266a4.331,4.331,0,0,0-.711-.055A1.9,1.9,0,0,0,399.7,9v6H398.25V6.547h1.406l.023.977A2.251,2.251,0,0,1,401.7,6.391a1.477,1.477,0,0,1,.641.109Zm4.688,7.313a3.693,3.693,0,0,1-2.8-1.129,4.19,4.19,0,0,1-1.078-3.02v-.266a5.073,5.073,0,0,1,.48-2.246,3.748,3.748,0,0,1,1.344-1.547,3.378,3.378,0,0,1,1.871-.559,3.166,3.166,0,0,1,2.563,1.086,4.7,4.7,0,0,1,.914,3.109v.6h-5.727a3,3,0,0,0,.73,2.02,2.3,2.3,0,0,0,1.777.77,2.517,2.517,0,0,0,1.3-.312,3.259,3.259,0,0,0,.93-.828l.883.688A3.55,3.55,0,0,1,407.023,15.156Zm-.18-7.578a1.928,1.928,0,0,0-1.469.637A3.1,3.1,0,0,0,404.641,10h4.234V9.891a2.753,2.753,0,0,0-.594-1.707A1.815,1.815,0,0,0,406.844,7.578ZM417.211,15a3.036,3.036,0,0,1-.2-.891,3.225,3.225,0,0,1-2.406,1.047,2.984,2.984,0,0,1-2.051-.707,2.288,2.288,0,0,1-.8-1.793,2.39,2.39,0,0,1,1-2.051,4.733,4.733,0,0,1,2.824-.73h1.406V9.211A1.623,1.623,0,0,0,416.531,8a1.821,1.821,0,0,0-1.336-.449,2.108,2.108,0,0,0-1.3.391,1.151,1.151,0,0,0-.523.945h-1.453a2,2,0,0,1,.449-1.223,3.066,3.066,0,0,1,1.219-.934,4.1,4.1,0,0,1,1.691-.344,3.342,3.342,0,0,1,2.289.73,2.635,2.635,0,0,1,.859,2.012v3.891a4.757,4.757,0,0,0,.3,1.852V15Zm-2.4-1.1a2.54,2.54,0,0,0,1.289-.352,2.126,2.126,0,0,0,.883-.914V10.9h-1.133q-2.656,0-2.656,1.555a1.316,1.316,0,0,0,.453,1.063A1.742,1.742,0,0,0,414.813,13.9Zm7.453,1.1H420.82V3h1.445Zm3.883,0H424.7V6.547h1.445ZM424.586,4.3a.863.863,0,0,1,.215-.594.807.807,0,0,1,.637-.242.819.819,0,0,1,.641.242.854.854,0,0,1,.219.594.826.826,0,0,1-.219.586.834.834,0,0,1-.641.234.821.821,0,0,1-.637-.234A.834.834,0,0,1,424.586,4.3Zm5.234,9.516h4.945V15h-6.711V13.938l4.664-6.2h-4.594v-1.2h6.406V7.57Zm6.063-3.125a4.993,4.993,0,0,1,.488-2.234A3.643,3.643,0,0,1,437.73,6.93a3.7,3.7,0,0,1,1.988-.539,3.565,3.565,0,0,1,2.793,1.2,4.6,4.6,0,0,1,1.066,3.18v.1a5.036,5.036,0,0,1-.473,2.215,3.589,3.589,0,0,1-1.352,1.527,3.743,3.743,0,0,1-2.02.547,3.556,3.556,0,0,1-2.785-1.2,4.575,4.575,0,0,1-1.066-3.164Zm1.453.172a3.616,3.616,0,0,0,.652,2.258,2.211,2.211,0,0,0,3.5-.012,3.955,3.955,0,0,0,.648-2.418,3.61,3.61,0,0,0-.66-2.254,2.1,2.1,0,0,0-1.754-.863,2.075,2.075,0,0,0-1.727.852A3.925,3.925,0,0,0,437.336,10.867Zm3.039-7.852h1.75l-2.094,2.3-1.164,0Zm5.047,11.227a.905.905,0,0,1,.223-.625.848.848,0,0,1,.668-.25.874.874,0,0,1,.676.25.887.887,0,0,1,.23.625.839.839,0,0,1-.23.6.89.89,0,0,1-.676.242.8.8,0,0,1-.891-.844Z" transform="translate(1672 -5533)" fill="#12263f"/>
    <g id="Grupo_177953" data-name="Grupo 177953" transform="translate(1721 -5736.061)">
      <g id="Grupo_177953-2" data-name="Grupo 177953" clip-path="url(#clip-path)">
        <path id="Trazado_227962" data-name="Trazado 227962" d="M225.36,191.02c26.178-19.9,37.836-75.1-4.669-102.164-28.14-17.915-45.641-7.7-77.3-19.546C104.747,54.845,98.987,11.144,51.978,32.648,27.074,44.036,9.81,76.134,6.772,112.614c-2.977,35.725,9.685,60.238,35.559,77.011,60.761,2.585,121.644,2.117,183.028,1.395" transform="translate(-2.848 -12.029)" fill="#fff"/>
        <path id="Trazado_227963" data-name="Trazado 227963" d="M208.041,21.995c-3.954,15.875,10.729,31.591,26.2,38.106s33.208,5.744,49.779,2.635c7.15-1.339,14.5-3.225,20.056-7.783s8.776-12.474,5.731-18.868c-2.687-5.639-9.227-8.527-15.463-10.01s-12.858-2.089-18.413-5.209c-5.268-2.96-9-7.86-13.586-11.741-8.465-7.16-20.355-10.71-31.36-8.445S211.4,8.5,208.041,21.995" transform="translate(-93.071 0)" fill="#fff"/>
        <path id="Trazado_227964" data-name="Trazado 227964" d="M238.8,224.47c-1.064-16.4,6.113-33.382,18.2-43.095.375,16.487-6.73,33.173-18.2,43.095" transform="translate(-107.119 -81.397)" fill="#a2c7eb"/>
        <path id="Trazado_227965" data-name="Trazado 227965" d="M244.934,189.385a217.581,217.581,0,0,0-13.158,29.672c-4.448,12.441-7.949,25.659-15.567,36.089" transform="translate(-97.03 -84.992)" fill="none" stroke="#6f8bbf" stroke-linecap="round" stroke-miterlimit="10" stroke-width="1"/>
        <path id="Trazado_227966" data-name="Trazado 227966" d="M231.96,256.33c6.119-13.687,18.262-24.028,31.651-26.955-5.7,14.668-18.521,25.858-31.651,26.955" transform="translate(-104.098 -102.938)" fill="#a2c7eb"/>
        <path id="Trazado_227967" data-name="Trazado 227967" d="M260.707,234.845q-13.717,12.072-27.9,23.46" transform="translate(-104.48 -105.393)" fill="none" stroke="#6f8bbf" stroke-linecap="round" stroke-miterlimit="10" stroke-width="1"/>
        <path id="Trazado_227968" data-name="Trazado 227968" d="M225.41,286.842c8.175-12.21,23.256-18.582,35.736-15.1-9.178,12.055-24.292,18.444-35.736,15.1" transform="translate(-101.159 -121.527)" fill="#a2c7eb"/>
        <path id="Trazado_227969" data-name="Trazado 227969" d="M256.972,274.115a118.986,118.986,0,0,1-34.192,14.629" transform="translate(-99.978 -123.016)" fill="none" stroke="#6f8bbf" stroke-linecap="round" stroke-miterlimit="10" stroke-width="1"/>
        <path id="Trazado_227970" data-name="Trazado 227970" d="M224.131,238.824c2.613-13.748-1.306-29.072-10.032-39.209-3.577,13.51-.165,29.342,10.032,39.209" transform="translate(-95.465 -89.583)" fill="#a2c7eb"/>
        <path id="Trazado_227971" data-name="Trazado 227971" d="M216.85,205.975a148.819,148.819,0,0,0,9.52,36.474" transform="translate(-97.317 -92.437)" fill="none" stroke="#6f8bbf" stroke-linecap="round" stroke-miterlimit="10" stroke-width="1"/>
        <path id="Trazado_227972" data-name="Trazado 227972" d="M209.851,263.708c-1.113-14.133-8.357-27.407-18.951-34.733a60.4,60.4,0,0,0,5.76,21.261c3.633,7.535,8.968,12.314,13.191,13.472" transform="translate(-85.671 -102.759)" fill="#a2c7eb"/>
        <path id="Trazado_227973" data-name="Trazado 227973" d="M193.75,234.165a112.281,112.281,0,0,0,17.645,32.169" transform="translate(-86.95 -105.088)" fill="none" stroke="#6f8bbf" stroke-linecap="round" stroke-miterlimit="10" stroke-width="1"/>
        <path id="Trazado_227974" data-name="Trazado 227974" d="M373.71,260.627c5.782-15.043,19.083-27.247,33.751-30.962-6.427,14.839-19.546,26.8-33.751,30.962" transform="translate(-167.712 -103.068)" fill="#a2c7eb"/>
        <path id="Trazado_227975" data-name="Trazado 227975" d="M385.874,235.335A213.732,213.732,0,0,0,362.083,256.4c-9.029,9.272-17.545,19.613-28.553,25.8" transform="translate(-149.68 -105.613)" fill="none" stroke="#6f8bbf" stroke-linecap="round" stroke-miterlimit="10" stroke-width="1"/>
        <path id="Trazado_227976" data-name="Trazado 227976" d="M359.92,289.94c11.019-9.7,25.99-13.951,39.021-11.1-11.047,10.743-26.966,15.478-39.021,11.1" transform="translate(-161.524 -124.746)" fill="#a2c7eb"/>
        <path id="Trazado_227977" data-name="Trazado 227977" d="M395.3,282.005q-17.074,5.159-34.275,9.514" transform="translate(-162.017 -126.557)" fill="none" stroke="#6f8bbf" stroke-linecap="round" stroke-miterlimit="10" stroke-width="1"/>
        <path id="Trazado_227978" data-name="Trazado 227978" d="M345.26,311.93c12.232-7.541,28.173-7.061,37.775,1.136-13.053,6.99-29.033,6.51-37.775-1.136" transform="translate(-154.945 -137.586)" fill="#a2c7eb"/>
        <path id="Trazado_227979" data-name="Trazado 227979" d="M378.855,316.8a115.24,115.24,0,0,1-36.215-.921" transform="translate(-153.769 -141.757)" fill="none" stroke="#6f8bbf" stroke-linecap="round" stroke-miterlimit="10" stroke-width="1"/>
        <path id="Trazado_227980" data-name="Trazado 227980" d="M362.439,261.806c7.943-11.179,10.76-26.431,7.2-39.021-8.7,10.572-12.177,26.067-7.2,39.021" transform="translate(-161.629 -99.981)" fill="#a2c7eb"/>
        <path id="Trazado_227981" data-name="Trazado 227981" d="M370.882,229.1a146.563,146.563,0,0,0-6.532,36.381" transform="translate(-163.512 -102.817)" fill="none" stroke="#6f8bbf" stroke-linecap="round" stroke-miterlimit="10" stroke-width="1"/>
        <path id="Trazado_227982" data-name="Trazado 227982" d="M343.4,277.689c4.807-13.042,3.848-27.826-2.514-38.674a59.632,59.632,0,0,0-3.622,21.288c.116,8.191,2.872,14.629,6.135,17.386" transform="translate(-151.354 -107.264)" fill="#a2c7eb"/>
        <path id="Trazado_227983" data-name="Trazado 227983" d="M343.811,244.8a110.54,110.54,0,0,0,2.409,35.857" transform="translate(-154.069 -109.858)" fill="none" stroke="#6f8bbf" stroke-linecap="round" stroke-miterlimit="10" stroke-width="1"/>
        <path id="Trazado_227984" data-name="Trazado 227984" d="M42.636,208.214c-5.895-18.03-22.345-32.6-41.482-36.732,8.045,15.6,22.638,28.013,41.482,36.732" transform="translate(-0.518 -76.957)" fill="#a2c7eb"/>
        <path id="Trazado_227985" data-name="Trazado 227985" d="M43.116,237.585A54.527,54.527,0,0,0,0,233.289a60.888,60.888,0,0,0,43.116,4.3" transform="translate(0 -103.53)" fill="#a2c7eb"/>
        <path id="Trazado_227986" data-name="Trazado 227986" d="M52.21,249.858a57.041,57.041,0,0,0-39.9,9.391c12.851,4.672,28.27,1.642,39.9-9.391" transform="translate(-5.523 -111.894)" fill="#a2c7eb"/>
        <path id="Trazado_227987" data-name="Trazado 227987" d="M63.664,265.782c-13.819-.057-27.407,6.51-35.53,17.175a30.383,30.383,0,0,0,18.324-2.06c5.642-2.555,10.37-6.916,17.206-15.115" transform="translate(-12.626 -119.276)" fill="#a2c7eb"/>
        <path id="Trazado_227988" data-name="Trazado 227988" d="M79.352,291.192A45.351,45.351,0,0,0,41.38,302.237a30.51,30.51,0,0,0,18.432,1c6-1.582,11.4-5.1,19.54-12.046" transform="translate(-18.57 -130.396)" fill="#a2c7eb"/>
        <path id="Trazado_227989" data-name="Trazado 227989" d="M76.28,205.169a45.7,45.7,0,0,1-6.328-42.376c3.9,6.611,7.272,13.6,8.844,21.03s1.267,15.351-2.516,21.347" transform="translate(-30.21 -73.058)" fill="#a2c7eb"/>
        <path id="Trazado_227990" data-name="Trazado 227990" d="M93.121,231.691A41.8,41.8,0,0,1,104.7,195.816c1.07,13.331-3.008,26.912-11.581,35.875" transform="translate(-41.553 -87.878)" fill="#a2c7eb"/>
        <path id="Trazado_227991" data-name="Trazado 227991" d="M8.753,177.344c27.387,17.523,48.805,43.641,60.111,73.316" transform="translate(-3.928 -79.588)" fill="none" stroke="#6f8bbf" stroke-linecap="round" stroke-miterlimit="10" stroke-width="1"/>
        <path id="Trazado_227992" data-name="Trazado 227992" d="M73.64,174.393a217.3,217.3,0,0,1,6.044,41.187" transform="translate(-33.048 -78.263)" fill="none" stroke="#6f8bbf" stroke-linecap="round" stroke-miterlimit="10" stroke-width="1"/>
        <path id="Trazado_227993" data-name="Trazado 227993" d="M102.828,205.307a80.261,80.261,0,0,1-9.851,31.187" transform="translate(-41.726 -92.137)" fill="none" stroke="#6f8bbf" stroke-linecap="round" stroke-miterlimit="10" stroke-width="1"/>
        <path id="Trazado_227994" data-name="Trazado 227994" d="M10.458,235.972a221.72,221.72,0,0,0,38.082,3.872" transform="translate(-4.693 -105.899)" fill="none" stroke="#6f8bbf" stroke-linecap="round" stroke-miterlimit="10" stroke-width="1"/>
        <path id="Trazado_227995" data-name="Trazado 227995" d="M24.184,258.661a102.251,102.251,0,0,0,33.5-8.253" transform="translate(-10.853 -112.377)" fill="none" stroke="#6f8bbf" stroke-linecap="round" stroke-miterlimit="10" stroke-width="1"/>
        <path id="Trazado_227996" data-name="Trazado 227996" d="M36.767,280.389Q52.791,272.4,68.816,264.4" transform="translate(-16.5 -118.655)" fill="none" stroke="#6f8bbf" stroke-linecap="round" stroke-miterlimit="10" stroke-width="1"/>
        <path id="Trazado_227997" data-name="Trazado 227997" d="M49.372,302.055c13.948-2.691,18.092-5.9,33.572-10.346" transform="translate(-22.157 -130.912)" fill="none" stroke="#6f8bbf" stroke-linecap="round" stroke-miterlimit="10" stroke-width="1"/>
      </g>
    </g>
    <g id="Grupo_182790" data-name="Grupo 182790" transform="translate(1838.514 -5736.061)">
      <g id="Grupo_182790-2" data-name="Grupo 182790" clip-path="url(#clip-path-2)">
        <path id="Trazado_234451" data-name="Trazado 234451" d="M205.73,29.778h-66.1a3.09,3.09,0,0,1-3.081-3.081V3.08A3.089,3.089,0,0,1,139.629,0h66.1a3.089,3.089,0,0,1,3.08,3.08V26.7a3.089,3.089,0,0,1-3.08,3.081" fill="#9ec8ff"/>
        <path id="Trazado_234452" data-name="Trazado 234452" d="M145.275,25.286V41.715l18.932-18.932s-18.547,2.5-18.932,2.5" fill="#9ec8ff"/>
        <path id="Trazado_234453" data-name="Trazado 234453" d="M202.46,26.825H142.9a2.619,2.619,0,0,1-2.612-2.612V5.564A2.619,2.619,0,0,1,142.9,2.952h59.564a2.619,2.619,0,0,1,2.612,2.612v18.65a2.619,2.619,0,0,1-2.612,2.612" fill="#fff"/>
        <path id="Trazado_234454" data-name="Trazado 234454" d="M175.567,8.856H146.3a1.284,1.284,0,1,1,0-2.567h29.265a1.284,1.284,0,1,1,0,2.567" fill="#eeac3a"/>
        <path id="Trazado_234455" data-name="Trazado 234455" d="M200.01,13.764H145.733a.716.716,0,0,1-.714-.714v-.015a.716.716,0,0,1,.714-.714h54.278a.716.716,0,0,1,.714.714v.015a.716.716,0,0,1-.714.714" fill="#9ec8ff"/>
        <path id="Trazado_234456" data-name="Trazado 234456" d="M200.01,16.558H145.733a.716.716,0,0,1-.714-.714v-.01a.716.716,0,0,1,.714-.714h54.278a.716.716,0,0,1,.714.714v.015a.716.716,0,0,1-.714.714" fill="#9ec8ff"/>
        <path id="Trazado_234457" data-name="Trazado 234457" d="M188.791,25.8h-1.778a.68.68,0,0,1-.679-.68V23.655a.68.68,0,0,1,.679-.68h1.778a.679.679,0,0,1,.68.68v1.464a.679.679,0,0,1-.68.68" fill="#9ec8ff"/>
        <path id="Trazado_234458" data-name="Trazado 234458" d="M194.5,25.8h-1.778a.679.679,0,0,1-.68-.68V23.655a.679.679,0,0,1,.68-.68H194.5a.679.679,0,0,1,.68.68v1.464a.679.679,0,0,1-.68.68" fill="#9ec8ff"/>
        <path id="Trazado_234459" data-name="Trazado 234459" d="M200.2,25.8h-1.778a.679.679,0,0,1-.68-.68V23.655a.679.679,0,0,1,.68-.68H200.2a.679.679,0,0,1,.68.68v1.464a.679.679,0,0,1-.68.68" fill="#9ec8ff"/>
        <rect id="Rectángulo_63740" data-name="Rectángulo 63740" width="175.992" height="97.64" transform="translate(68.93 44.049)" fill="#9ec8ff"/>
        <rect id="Rectángulo_63741" data-name="Rectángulo 63741" width="169.023" height="88.929" transform="translate(70.866 46.179)" fill="#fff"/>
        <path id="Trazado_234460" data-name="Trazado 234460" d="M74.81,93.651H27V7.233a1.91,1.91,0,0,1,1.91-1.91h56.63a1.91,1.91,0,0,1,1.91,1.91V81.011A12.642,12.642,0,0,1,74.811,93.653" fill="#9ec8ff"/>
        <path id="Trazado_234461" data-name="Trazado 234461" d="M73.406,91.208H27.683V8.63A1.814,1.814,0,0,1,29.5,6.816H83.6A1.814,1.814,0,0,1,85.411,8.63V79.2A12.009,12.009,0,0,1,73.406,91.208" fill="#fff"/>
        <path id="Trazado_234462" data-name="Trazado 234462" d="M61.658,73.89V72.368a2.042,2.042,0,0,0-1.878-2.174H1.883A2.042,2.042,0,0,0,0,72.368V73.89C0,84.678,7.56,93.423,16.881,93.423H76.037c-9.32,0-14.506-7.761-14.379-19.533" fill="#9ec8ff"/>
        <path id="Trazado_234463" data-name="Trazado 234463" d="M60.234,75.4V74.171a1.76,1.76,0,0,0-1.759-1.759H4.261A1.76,1.76,0,0,0,2.5,74.171V75.4A15.8,15.8,0,0,0,18.3,91.2H76.037c-8.728,0-15.8-4.223-15.8-15.8" fill="#fff"/>
        <path id="Trazado_234464" data-name="Trazado 234464" d="M65.649,52.9H20.32a1.171,1.171,0,1,1,0-2.342H65.649a1.171,1.171,0,0,1,0,2.342" fill="#9ec8ff"/>
        <path id="Trazado_234465" data-name="Trazado 234465" d="M65.649,57.171H20.32a1.171,1.171,0,0,1,0-2.342H65.649a1.171,1.171,0,0,1,0,2.342" fill="#9ec8ff"/>
        <path id="Trazado_234466" data-name="Trazado 234466" d="M65.649,61.295H20.32a1.171,1.171,0,1,1,0-2.342H65.649a1.171,1.171,0,0,1,0,2.342" fill="#9ec8ff"/>
        <path id="Trazado_234467" data-name="Trazado 234467" d="M65.649,38.687H20.32a1.171,1.171,0,1,1,0-2.342H65.649a1.171,1.171,0,0,1,0,2.342" fill="#9ec8ff"/>
        <path id="Trazado_234468" data-name="Trazado 234468" d="M65.649,42.961H20.32a1.171,1.171,0,1,1,0-2.342H65.649a1.171,1.171,0,0,1,0,2.342" fill="#9ec8ff"/>
        <path id="Trazado_234469" data-name="Trazado 234469" d="M65.649,47.085H20.32a1.171,1.171,0,1,1,0-2.342H65.649a1.171,1.171,0,0,1,0,2.342" fill="#9ec8ff"/>
        <path id="Trazado_234470" data-name="Trazado 234470" d="M65.649,24.317H20.32a1.171,1.171,0,1,1,0-2.342H65.649a1.171,1.171,0,0,1,0,2.342" fill="#9ec8ff"/>
        <path id="Trazado_234471" data-name="Trazado 234471" d="M65.649,28.591H20.32a1.171,1.171,0,1,1,0-2.342H65.649a1.171,1.171,0,0,1,0,2.342" fill="#9ec8ff"/>
        <path id="Trazado_234472" data-name="Trazado 234472" d="M65.649,32.715H20.32a1.171,1.171,0,0,1,0-2.342H65.649a1.171,1.171,0,0,1,0,2.342" fill="#9ec8ff"/>
        <path id="Trazado_234473" data-name="Trazado 234473" d="M68.1,16.857H66.584A.579.579,0,0,1,66,16.278V15.03a.579.579,0,0,1,.579-.579H68.1a.579.579,0,0,1,.579.579v1.247a.579.579,0,0,1-.579.579" fill="#43a99b"/>
        <path id="Trazado_234474" data-name="Trazado 234474" d="M72.96,16.857H71.445a.579.579,0,0,1-.579-.579V15.03a.579.579,0,0,1,.579-.579H72.96a.579.579,0,0,1,.579.579v1.247a.579.579,0,0,1-.579.579" fill="#43a99b"/>
        <path id="Trazado_234475" data-name="Trazado 234475" d="M77.821,16.857H76.306a.579.579,0,0,1-.579-.579V15.03a.579.579,0,0,1,.579-.579h1.515a.579.579,0,0,1,.579.579v1.247a.579.579,0,0,1-.579.579" fill="#43a99b"/>
        <path id="Trazado_234476" data-name="Trazado 234476" d="M314.008,101.876H233.755a1.581,1.581,0,0,1-1.582-1.58h0V65.755a1.581,1.581,0,0,1,1.581-1.581h80.254a1.581,1.581,0,0,1,1.582,1.58h0V100.29a1.583,1.583,0,0,1-1.582,1.581" fill="#9ec8ff"/>
        <path id="Trazado_234477" data-name="Trazado 234477" d="M312.031,100.107h-76.3a1.278,1.278,0,0,1-1.278-1.278V75.36a1.278,1.278,0,0,1,1.278-1.277h76.3a1.277,1.277,0,0,1,1.278,1.276h0V98.829a1.278,1.278,0,0,1-1.278,1.278" fill="#fff"/>
        <path id="Trazado_234478" data-name="Trazado 234478" d="M238.172,69.894H236.32a.708.708,0,0,1-.708-.708V67.661a.708.708,0,0,1,.708-.708h1.852a.708.708,0,0,1,.708.708v1.525a.708.708,0,0,1-.708.708" fill="#fff"/>
        <path id="Trazado_234479" data-name="Trazado 234479" d="M244.114,69.894h-1.852a.708.708,0,0,1-.708-.708V67.661a.708.708,0,0,1,.708-.708h1.852a.708.708,0,0,1,.708.708v1.525a.708.708,0,0,1-.708.708" fill="#fff"/>
        <path id="Trazado_234480" data-name="Trazado 234480" d="M250.055,69.894H248.2a.708.708,0,0,1-.708-.708V67.661a.708.708,0,0,1,.708-.708h1.852a.708.708,0,0,1,.708.708v1.525a.708.708,0,0,1-.708.708" fill="#fff"/>
        <path id="Trazado_234481" data-name="Trazado 234481" d="M310.1,79.786h-41.71a1.25,1.25,0,0,1,0-2.5H310.1a1.25,1.25,0,0,1,0,2.5" fill="#43a99b"/>
        <path id="Trazado_234482" data-name="Trazado 234482" d="M278.729,99.039H237.018a1.25,1.25,0,0,1,0-2.5h41.711a1.25,1.25,0,0,1,0,2.5" fill="#9ec8ff"/>
        <path id="Trazado_234483" data-name="Trazado 234483" d="M286.413,99.039H282.1a.427.427,0,0,1-.427-.427V96.969a.427.427,0,0,1,.427-.427h4.316a.428.428,0,0,1,.426.427v1.642a.428.428,0,0,1-.426.427" fill="#9ec8ff"/>
        <path id="Trazado_234484" data-name="Trazado 234484" d="M292.918,99.039H288.6a.427.427,0,0,1-.427-.427V96.969a.427.427,0,0,1,.427-.427h4.316a.427.427,0,0,1,.427.427v1.642a.427.427,0,0,1-.427.427" fill="#9ec8ff"/>
        <path id="Trazado_234485" data-name="Trazado 234485" d="M310.5,85.223H241.429a.847.847,0,1,1-.058-1.693H310.5a.847.847,0,1,1,.058,1.693H310.5" fill="#9ec8ff"/>
        <path id="Trazado_234486" data-name="Trazado 234486" d="M310.5,88.877H241.429a.847.847,0,1,1-.058-1.693H310.5a.847.847,0,1,1,.058,1.693H310.5" fill="#9ec8ff"/>
        <path id="Trazado_234487" data-name="Trazado 234487" d="M151.2,118.236H96.721a1.507,1.507,0,0,1,0-3.007H151.2a1.507,1.507,0,0,1,0,3.007" fill="#9ec8ff"/>
        <path id="Trazado_234488" data-name="Trazado 234488" d="M151.2,123.723H96.721a1.507,1.507,0,0,1,0-3.007H151.2a1.507,1.507,0,0,1,0,3.007" fill="#9ec8ff"/>
        <path id="Trazado_234489" data-name="Trazado 234489" d="M151.2,129.017H96.721a1.507,1.507,0,0,1,0-3.007H151.2a1.507,1.507,0,0,1,0,3.007" fill="#9ec8ff"/>
        <path id="Trazado_234490" data-name="Trazado 234490" d="M151.2,99.992H96.721a1.507,1.507,0,0,1,0-3.007H151.2a1.507,1.507,0,0,1,0,3.007" fill="#9ec8ff"/>
        <path id="Trazado_234491" data-name="Trazado 234491" d="M151.2,105.479H96.721a1.507,1.507,0,0,1,0-3.007H151.2a1.507,1.507,0,0,1,0,3.007" fill="#9ec8ff"/>
        <path id="Trazado_234492" data-name="Trazado 234492" d="M151.2,110.774H96.721a1.507,1.507,0,0,1,0-3.007H151.2a1.507,1.507,0,0,1,0,3.007" fill="#9ec8ff"/>
        <path id="Trazado_234493" data-name="Trazado 234493" d="M151.2,81.543H96.721a1.507,1.507,0,0,1,0-3.007H151.2a1.507,1.507,0,0,1,0,3.007" fill="#9ec8ff"/>
        <path id="Trazado_234494" data-name="Trazado 234494" d="M151.2,87.03H96.721a1.507,1.507,0,0,1,0-3.007H151.2a1.507,1.507,0,0,1,0,3.007" fill="#9ec8ff"/>
        <path id="Trazado_234495" data-name="Trazado 234495" d="M151.2,92.325H96.721a1.507,1.507,0,0,1,0-3.007H151.2a1.507,1.507,0,0,1,0,3.007" fill="#9ec8ff"/>
        <path id="Trazado_234496" data-name="Trazado 234496" d="M222.624,118.236H168.145a1.507,1.507,0,0,1,0-3.007h54.479a1.507,1.507,0,0,1,0,3.007" fill="#9ec8ff"/>
        <path id="Trazado_234497" data-name="Trazado 234497" d="M222.624,123.723H168.145a1.507,1.507,0,0,1,0-3.007h54.479a1.507,1.507,0,0,1,0,3.007" fill="#9ec8ff"/>
        <path id="Trazado_234498" data-name="Trazado 234498" d="M222.624,129.017H168.145a1.507,1.507,0,0,1,0-3.007h54.479a1.507,1.507,0,0,1,0,3.007" fill="#9ec8ff"/>
        <path id="Trazado_234499" data-name="Trazado 234499" d="M222.624,99.992H168.145a1.507,1.507,0,0,1,0-3.007h54.479a1.507,1.507,0,0,1,0,3.007" fill="#9ec8ff"/>
        <path id="Trazado_234500" data-name="Trazado 234500" d="M222.624,105.479H168.145a1.507,1.507,0,0,1,0-3.007h54.479a1.507,1.507,0,0,1,0,3.007" fill="#9ec8ff"/>
        <path id="Trazado_234501" data-name="Trazado 234501" d="M222.624,110.774H168.145a1.507,1.507,0,0,1,0-3.007h54.479a1.507,1.507,0,0,1,0,3.007" fill="#9ec8ff"/>
        <path id="Trazado_234502" data-name="Trazado 234502" d="M222.624,81.543H168.145a1.507,1.507,0,0,1,0-3.007h54.479a1.507,1.507,0,0,1,0,3.007" fill="#9ec8ff"/>
        <path id="Trazado_234503" data-name="Trazado 234503" d="M222.624,87.03H168.145a1.507,1.507,0,0,1,0-3.007h54.479a1.507,1.507,0,0,1,0,3.007" fill="#9ec8ff"/>
        <path id="Trazado_234504" data-name="Trazado 234504" d="M222.624,92.325H168.145a1.507,1.507,0,0,1,0-3.007h54.479a1.507,1.507,0,0,1,0,3.007" fill="#9ec8ff"/>
        <rect id="Rectángulo_63742" data-name="Rectángulo 63742" width="20.787" height="19.585" transform="translate(201.921 54.498)" fill="#43a99b"/>
        <rect id="Rectángulo_63743" data-name="Rectángulo 63743" width="20.787" height="19.585" transform="translate(131.821 54.498)" fill="#8c5be1"/>
      </g>
    </g>
    <g id="Grupo_177965" data-name="Grupo 177965" transform="translate(1747 -5691.872)">
      <g id="Grupo_177964" data-name="Grupo 177964" transform="translate(0 -1)" clip-path="url(#clip-path-3)">
        <path id="Trazado_228057" data-name="Trazado 228057" d="M177.325,184.586c3,3.558,5.713,9.457,7.4,10.394s4.528,1.262,7.213,9.906-10.873,7.461-10.873,7.461a20,20,0,0,1-8.139-11.374l-5.806-5.15Z" transform="translate(-75.784 -87.272)" fill="#f6a397"/>
        <path id="Trazado_228058" data-name="Trazado 228058" d="M196.019,220.221a21.734,21.734,0,0,1-8.11-5.361c-3.737-3.947-4.219-10.968-4.219-10.968l-1.79,3.344-3.579-3.826-1.726-.167-1.272,1.4,5.806,5.15a20,20,0,0,0,8.138,11.374,21.553,21.553,0,0,0,6.9-.617c-.082-.2-.149-.331-.149-.331" transform="translate(-83.989 -96.093)" fill="#d65863"/>
        <path id="Trazado_228059" data-name="Trazado 228059" d="M195.734,125.857c4.153,3.036,6.631,5.239,8.7,9.369s15.007,18.969,15.833,20.292-7.273,15.366-13.756,18.808c0,0-9.787-11.29-15.431-15.557s-3.717-19.412-1.1-24.506a39.789,39.789,0,0,1,5.76-8.406" transform="translate(-114.521 -59.505)" fill="#5470d3"/>
        <path id="Trazado_228060" data-name="Trazado 228060" d="M212.3,170.105v-8.429s-1.1-.44-1.956,2.405a7.811,7.811,0,0,0-.163,3.365l-6.3-4.739c-.26,5.305.591,10.7,3.611,12.984,5.644,4.268,15.431,15.557,15.431,15.557a20.439,20.439,0,0,0,5.158-4.382c-3.985-3.968-11.545-11.627-15.78-16.761" transform="translate(-130.938 -76.428)" fill="#314ec6"/>
        <path id="Trazado_228061" data-name="Trazado 228061" d="M155.9,230.929c1.078.336,1.874.851,1.874,2.209a10.993,10.993,0,0,1-.749,4.354c-.515.843-3.174,1.348-3.174,1.348s.178-5.608.74-6.639a2.623,2.623,0,0,1,1.31-1.273" transform="translate(-34.273 -109.182)" fill="#f6a397"/>
        <path id="Trazado_228062" data-name="Trazado 228062" d="M157.75,242.5a3.743,3.743,0,0,0,.366-.981,1.813,1.813,0,0,1-1.477.646l-2.019.629c-.031.632-.045,1.053-.045,1.053s2.66-.505,3.175-1.348" transform="translate(-34.999 -114.188)" fill="#d65863"/>
        <path id="Trazado_228063" data-name="Trazado 228063" d="M159.835,227.037a2.766,2.766,0,0,1,2.622,2.482c0,1.358.468,5.15,0,5.759a11.08,11.08,0,0,1-3.558,2.481c-.8.141-2.148-.093-1.963-.515s2.9-10.207,2.9-10.207" transform="translate(-40.783 -107.342)" fill="#f6a397"/>
        <path id="Trazado_228064" data-name="Trazado 228064" d="M162.329,240.734c-.994,1.122-3.536,1.021-3.536,1.021a10.139,10.139,0,0,0-1.255,1.576c-.083.231-.54.536-.6.772a3.585,3.585,0,0,0,1.636.131,11.131,11.131,0,0,0,3.524-2.442l.233-1.056v0" transform="translate(-40.456 -113.818)" fill="#d65863"/>
        <path id="Trazado_228065" data-name="Trazado 228065" d="M163.121,222.788c4.023.227,4.772.6,4.912,2.24s.047,6.414-.468,7.632a9.613,9.613,0,0,1-1.451,2.95,2.565,2.565,0,0,1-1.636.658s-2.2-3.233-2.3-5.949a41.631,41.631,0,0,1,.941-7.531" transform="translate(-48.981 -105.333)" fill="#f6a397"/>
        <path id="Trazado_228066" data-name="Trazado 228066" d="M164.595,237.7a24.407,24.407,0,0,1-.714-6.019c-.022-1.4-1.318,5.9-.739,7.907.288.5.5.8.5.8a2.561,2.561,0,0,0,1.636-.658,9.583,9.583,0,0,0,1.451-2.95,2.336,2.336,0,0,0,.1-.282,2.381,2.381,0,0,1-2.225,1.2" transform="translate(-48.141 -109.453)" fill="#d65863"/>
        <path id="Trazado_228067" data-name="Trazado 228067" d="M168.548,229.845c.253,2.237,3.184,3.044,3.512,4.167s.093,2.154.655,2.435,2.9-1.03,2.809-2.528a2.915,2.915,0,0,0,1.966,1.5c1.358.234,1.685-.758,1.451-2.252a19.045,19.045,0,0,1-.141-4.069c.047-1.779.468-3.418-.327-5.384s-1.873-3.7-4.027-3.371-3.465,3.043-4.635,3.98-1.545,3.043-1.264,5.525" transform="translate(-63.215 -104.158)" fill="#f6a397"/>
        <path id="Trazado_228068" data-name="Trazado 228068" d="M178.861,237.794c-.131-2.845-.28-5.174-.28-5.633s.149-3.478-.925-3.662c-.163-.028-2.524,1.469-2.57,2.478s0,2.822.734,3.339a32.733,32.733,0,0,1,3.04,3.478" transform="translate(-66.551 -108.033)" fill="#d65863"/>
        <path id="Trazado_228069" data-name="Trazado 228069" d="M229.565,120.751c4.268-5.415,5.736-5.966,10.142-8.536s21.11-9.086,24.552-9.912,17.324,5.645,21.878,7.71,10.351,4.1,11.339,6.11c3.306,6.737-3.241,16.285-3.276,36.294-.018,10.479-2.406,34.045-2.406,34.045s-52.453.1-53.188-1-2.569-38.733-3.487-46.442-5.554-18.265-5.554-18.265" transform="translate(-214.826 -48.334)" fill="#5470d3"/>
        <path id="Trazado_228070" data-name="Trazado 228070" d="M229.565,141.614a28.538,28.538,0,0,0,1.125-7.778,28.552,28.552,0,0,0-1.125,7.778" transform="translate(-147.107 -63.277)" fill="#314ec6"/>
        <path id="Trazado_228071" data-name="Trazado 228071" d="M253.75,129.848c2.027-.757,6.828.559,7.706.865s-.517-3.446-1.033-3.911a2.74,2.74,0,0,0-2.925-1.057,6.153,6.153,0,0,0-3.144,2.9,8.485,8.485,0,0,1-.6,1.2" transform="translate(-190.907 -59.393)" fill="#314ec6"/>
        <path id="Trazado_228072" data-name="Trazado 228072" d="M273.239,133.963a45.334,45.334,0,0,0,5.949-2.455c1.01-.482,5.583-.707,8.654.151,0,0-5.912-3.995-9.354-3.96s-4.75,1.274-5.025,2.375a22.851,22.851,0,0,0-.224,3.889" transform="translate(-227.283 -60.375)" fill="#314ec6"/>
        <path id="Trazado_228073" data-name="Trazado 228073" d="M290.5,201.054c-.563-.551-34.819.551-35.508-3.029s-1.162-10.09-1.162-10.09c4.124,2.2,10.111,1.286,10.111,1.286-3.992-1.3-9.775-7.855-10.05-9.782-.848-5.938,2.324-22.308,2.324-22.308l-2.324-4.676-2.719-1.515a37.753,37.753,0,0,0-9.566,7.292,37.094,37.094,0,0,1,.681,3.814c.866,7.269,2.546,41.128,3.351,45.9,10.61.391,29.844,1.1,42.714,1.537,6.236.015,10.611.007,10.611.007s.081-3.1.268-7.545c-3.59-.21-8.381-.551-8.731-.893" transform="translate(-221.991 -71.364)" fill="#314ec6"/>
        <path id="Trazado_228074" data-name="Trazado 228074" d="M270.738,118.584c-3.7-.445-9.637-3.648-11.978-2.547s-2.891,3.923-3.373,4.405-2.547-1.927-2.547-7.847-.182-11.982,4.177-12.806,15.648,3.444,17.92,5.165a10.724,10.724,0,0,1,3.855,5.139c.619,1.676,2.272,8.422,1.514,8.491s-2.891-4.337-4.474-4.474-4.093,4.6-5.094,4.474" transform="translate(-209.189 -47.131)" fill="#5470d3"/>
        <path id="Trazado_228075" data-name="Trazado 228075" d="M266.4,117.436c.943-2.237,1.975-4.2,1.941-5.748s-.379-2.615-2.1-3.1-2.444.447-2.547,2.788,2.706,6.058,2.706,6.058" transform="translate(-202.744 -51.283)" fill="#314ec6"/>
        <path id="Trazado_228076" data-name="Trazado 228076" d="M296.729,109.517c-3.6-3.264-4.006-6.912-3.667-7.669s1.824-1.308,1.824-1.308.585,2.375.241,2.96,1.6,6.017,1.6,6.017" transform="translate(-246.572 -47.535)" fill="#314ec6"/>
        <path id="Trazado_228077" data-name="Trazado 228077" d="M294.464,126.636c-1.909-.768-5.19-2.05-7.09-.806a10.778,10.778,0,0,0-2.538,3.575,1.256,1.256,0,0,1-.3.447c-.007,0,0,.015-.079-.032-2.187-2.658-2.078-6.476-2.225-9.761-.22,3.336-.448,7.515,1.928,10.186.521.4.963-.177,1.147-.6a11,11,0,0,1,2.363-3.457,2.36,2.36,0,0,1,1.21-.445,15.315,15.315,0,0,1,5.585.9" transform="translate(-238.579 -56.764)" fill="#314ec6"/>
        <path id="Trazado_228078" data-name="Trazado 228078" d="M252.409,128.536c.686-.541,1.439-1.422,2.342-1.461,1.459.779,2.246,2.231,3.195,3.544,1.474,1.774,1.924.366,1.475-1.219a14.342,14.342,0,0,0-.465-1.534,9.5,9.5,0,0,1,.184,3.058.161.161,0,0,1-.051.075.515.515,0,0,1-.258-.14A9.729,9.729,0,0,1,257.468,129a6.215,6.215,0,0,0-2.631-2.307c-1.039-.023-1.827,1.129-2.428,1.846" transform="translate(-188.049 -59.898)" fill="#314ec6"/>
        <path id="Trazado_228079" data-name="Trazado 228079" d="M282.954,86.227c-.008,1.455-.066,2.9-.217,4.352-.371,3.549-.007,8.231-.288,9.095-.313.964-2.172,4.406-2.172,4.406a16.627,16.627,0,0,1-4.681-3.167c-1.377-1.652-3.166-1.736-5.576-4.172s-4.047-6.306-3.511-9.527c.069-.413.492-4.537.585-8.8s4.578-7.511,8.845-7.511,6.823,6.333,6.956,10.6c.055,1.751.065,3.4.057,4.726" transform="translate(-218.797 -33.521)" fill="#f6a397"/>
        <path id="Trazado_228080" data-name="Trazado 228080" d="M267.094,79.448c-.093,4.268-.516,8.391-.585,8.8a8.736,8.736,0,0,0,.085,3.111c.944.174,13.1.468,16.248-1,.072-1.031.1-2.065.111-3.1.007-1.331,0-2.975-.057-4.726a16.084,16.084,0,0,0-1.422-5.9l-10-3.544a7.659,7.659,0,0,0-4.381,6.353" transform="translate(-218.796 -34.559)" fill="#d65863"/>
        <path id="Trazado_228081" data-name="Trazado 228081" d="M241.92,51.438a8.432,8.432,0,0,1,8.875,8.679c0,3.336-1.07,8.678-8.875,8.678-3.9,0-6.545-3.885-6.545-8.678s2.642-8.679,6.545-8.679" transform="translate(-170.276 -24.32)" fill="#504984"/>
        <path id="Trazado_228082" data-name="Trazado 228082" d="M243.9,55.469a6.368,6.368,0,0,1,6.7,6.553c0,2.52-.808,6.554-6.7,6.554-2.947,0-4.942-2.934-4.942-6.554s1.995-6.553,4.942-6.553" transform="translate(-171.969 -26.226)" fill="#372d5b"/>
        <path id="Trazado_228083" data-name="Trazado 228083" d="M271.131,39.107c-.382,2.263-1.5,3.128-2,6.178s.834,7.484-1.156,11.344-5.207,8.937-7.066,9.152-16.748-2.3-21.771-12.29c-1.442-2.867-4.523-14.112-1.886-20.978s6.927-13.158,16.841-13.348,19.062,7.949,17.04,19.942" transform="translate(-191.339 -9.06)" fill="#f6a397"/>
        <path id="Trazado_228084" data-name="Trazado 228084" d="M252.109,79.005a1.749,1.749,0,0,1-1.372-.537,1.4,1.4,0,0,1-.257-1.079,3.192,3.192,0,0,0,2.68.583c.118.712-.431,1.02-1.051,1.034" transform="translate(-180.609 -36.589)" fill="#d65863"/>
        <path id="Trazado_228085" data-name="Trazado 228085" d="M243.37,30.048a6.642,6.642,0,0,1,1.951-3.712,29.018,29.018,0,0,1,6.721-1.859,38.644,38.644,0,0,0,5.934-1.144,8.125,8.125,0,0,1-2.5,3.357s7.007-.354,9.223-2.428c0,0-.429,1.709-.858,2.856,0,0,3.432-.354,4.5-1.712a23.17,23.17,0,0,1,.858,4.641s4.123-5.643,3.074-10.123-2.478-6.2-2.478-6.2a22.762,22.762,0,0,0,4.576,0S270.559,10.392,267.7,8.2s-11.44-2.288-11.44-2.288a13.222,13.222,0,0,0-.1-5.91s-3.67,5.386-7.555,7.03a32.209,32.209,0,0,1-7.48,2.544c-4.119,1.04-8.035,3.676-9.679,5.893s-3.432,4.5-4.5,4.862a9.4,9.4,0,0,0,3.861-1.43,14.5,14.5,0,0,0,.691,11.148c2.837,6.274,9.943,4.417,11.321,3.032a2.7,2.7,0,0,0,.552-3.032" transform="translate(-189.408 0)" fill="#ba6454"/>
        <path id="Trazado_228086" data-name="Trazado 228086" d="M286.523,40.383a2.7,2.7,0,0,0,.552-3.032,6.713,6.713,0,0,1,1.383-3.1,41.814,41.814,0,0,1,1.221-18.808,21.489,21.489,0,0,1-3.255,1.028,35.266,35.266,0,0,0-4.3,9.341c-1.247,4.152-1.851,8.638-.687,12.815a14.007,14.007,0,0,0,1.283,3.093,6.807,6.807,0,0,0,3.807-1.341" transform="translate(-233.114 -7.303)" fill="#874438"/>
        <path id="Trazado_228087" data-name="Trazado 228087" d="M281.439,34s-.49-15.682,7.732-20.686a10.723,10.723,0,0,0-10.009,5.648,25.966,25.966,0,0,0-3.308,14.88c.092,3.059,5.586.158,5.586.158" transform="translate(-229.97 -6.284)" fill="#504984"/>
        <path id="Trazado_228088" data-name="Trazado 228088" d="M291.694,51.438a8.432,8.432,0,0,0-8.875,8.679c0,3.336,1.07,8.678,8.875,8.678,3.9,0,6.545-3.885,6.545-8.678s-2.642-8.679-6.545-8.679" transform="translate(-242.732 -24.32)" fill="#504984"/>
        <path id="Trazado_228089" data-name="Trazado 228089" d="M300.986,60.99c0-4.255-2.809-7.7-6.274-7.7s-6.083,3.449-6.083,7.7,2.618,7.7,6.083,7.7,6.274-3.45,6.274-7.7" transform="translate(-248.542 -25.193)" fill="#372d5b"/>
        <path id="Trazado_228090" data-name="Trazado 228090" d="M302.54,63.2c0-2.9-1.912-5.243-4.269-5.243S294,60.3,294,63.2s1.912,5.243,4.269,5.243,4.269-2.347,4.269-5.243" transform="translate(-252.928 -27.4)" fill="#504984"/>
        <path id="Trazado_228091" data-name="Trazado 228091" d="M249.24,84.361c1.745.961,7.446,1.281,7.834,1.228s-.409,4.275-1.8,4.435-4.188-.214-5.352-1.335-.677-4.328-.677-4.328" transform="translate(-183.909 -39.886)" fill="#d65863"/>
        <path id="Trazado_228092" data-name="Trazado 228092" d="M249.954,85.865c.108-.384.191-.692.273-.992a30.846,30.846,0,0,0,6.865.961,8,8,0,0,1-.5,1.74c-.037-.024.009.056-.027.032a8.494,8.494,0,0,1-6.612-1.74" transform="translate(-184.258 -40.128)" fill="#fff"/>
        <path id="Trazado_228093" data-name="Trazado 228093" d="M264.464,63.453c0-.79-.39-1.43-.87-1.43s-.87.64-.87,1.43.39,1.43.87,1.43.87-.64.87-1.43" transform="translate(-198.363 -29.324)" fill="#3f1751"/>
        <path id="Trazado_228094" data-name="Trazado 228094" d="M245.34,64.719c0-.79-.335-1.43-.748-1.43s-.748.64-.748,1.43.335,1.43.748,1.43.748-.64.748-1.43" transform="translate(-169.286 -29.923)" fill="#3f1751"/>
        <path id="Trazado_228095" data-name="Trazado 228095" d="M257.274,53.2a9.118,9.118,0,0,1,3.929-1.048,5.058,5.058,0,0,1,2.088.2,3.835,3.835,0,0,1,1.726,1.207l-.051.085c-.718-.077-1.311-.254-1.937-.336s-1.206-.316-1.846-.367a11.076,11.076,0,0,0-3.869.345Z" transform="translate(-196.044 -24.65)" fill="#3f1751"/>
        <path id="Trazado_228096" data-name="Trazado 228096" d="M242.863,56.526a3.923,3.923,0,0,0-.962-.234,8.108,8.108,0,0,0-.968-.063,4.256,4.256,0,0,1-.959.034,2.878,2.878,0,0,1-.487-.135,2,2,0,0,1-.52-.259l-.011-.1a1.872,1.872,0,0,1,1.021-.5,2.417,2.417,0,0,1,1.065.172,4.971,4.971,0,0,1,1.012.377,3.3,3.3,0,0,1,.87.627Z" transform="translate(-164.293 -26.124)" fill="#3f1751"/>
        <path id="Trazado_228097" data-name="Trazado 228097" d="M205.807,244.4c0,.221.306.542,1.063.542h23.875c2.754,0,3.4-1.089,2.57-2.466s-4.314-4.405-12.941-6.516-13.164,2.825-14.567,5.048a3.492,3.492,0,0,0,0,3.393" transform="translate(-137.302 -111.319)" fill="#504984"/>
        <path id="Trazado_228098" data-name="Trazado 228098" d="M233.525,244.857c-.475,1.579-18.692.756-18.692.756s1.847-2.5,3.889-2.567,3.035.638,5.774,1.11.708-1.115.708-1.115A9.256,9.256,0,0,0,227.927,242s-4.513-1.333-6.406-1.643a42.689,42.689,0,0,0-7.331,0c-.438.073-2.662-1.218-5.349-.57a12.035,12.035,0,0,0-3.027,3.186,3.492,3.492,0,0,0,0,3.393c0,.221.306.542,1.063.542h23.875c2.47,0,3.238-.878,2.773-2.052" transform="translate(-137.309 -113.285)" fill="#372d5b"/>
        <path id="Trazado_228099" data-name="Trazado 228099" d="M232.087,213.225s16.979,2.625,26.181,4.272c8.718,1.56,16.245,2.237,18.379,1.824a113.989,113.989,0,0,0,11.771-4.062c2.34-.964,7.021-1.514,9.431-.757s4.383,1.583,5.346,1.583.78,1.561-.5,1.882a9.639,9.639,0,0,1-2.432.275s4.359,2.387,5.14,2.616-.144,1.652-1.2,1.561c0,0,.924.55.6,1.1s-2.616.55-2.616.55,2.8,1.377.459,1.927-5.14-2.065-6.287-2.294-3.809-.092-5.094.872-6.792,5.415-14.318,2.754c0,0-51.084,2.07-56.178,2.07s-8.17-4.5-6.537-13.176a65.831,65.831,0,0,1,4.8-15.144l17.622,1.239Z" transform="translate(-213.792 -95.07)" fill="#f6a397"/>
        <path id="Trazado_228100" data-name="Trazado 228100" d="M232.753,230.857a6.865,6.865,0,0,0-1.033-.181s.436.075,1.033.181" transform="translate(-150.307 -109.063)" fill="#d65863"/>
        <path id="Trazado_228101" data-name="Trazado 228101" d="M221.948,232.4a9.638,9.638,0,0,0,2.433-.275,1.532,1.532,0,0,0,.818-.5,6.789,6.789,0,0,1-4.152,0c-.608-.144-2.1-.417-3.121-.6a23.849,23.849,0,0,1,4.022,1.379" transform="translate(-135.481 -109.226)" fill="#d65863"/>
        <path id="Trazado_228102" data-name="Trazado 228102" d="M224.782,237.456a2.7,2.7,0,0,0-.264-.108l.264.108" transform="translate(-138.539 -112.217)" fill="#d65863"/>
        <path id="Trazado_228103" data-name="Trazado 228103" d="M219.714,239.126c-.016.015-.52.459-1.581,0-.884-.384-3.028-1.264-3.774-1.57.939.426,3.487,1.864,4.164,2.11a1.472,1.472,0,0,0,1.191-.538" transform="translate(-128.116 -112.314)" fill="#d65863"/>
        <path id="Trazado_228104" data-name="Trazado 228104" d="M221.9,241.747c-.78-.229-2.409-1.216-3.407-1.688a6.865,6.865,0,0,0-2.272-.527,4.821,4.821,0,0,1,1.377.527c1,.492,3.735,2.193,3.735,2.193a8.43,8.43,0,0,0,2.223-.285,6.537,6.537,0,0,1-1.656-.22" transform="translate(-132.936 -113.25)" fill="#d65863"/>
        <path id="Trazado_228105" data-name="Trazado 228105" d="M307.2,243.343c-1.446.895-5.713,2.065-8.261,1.583a3.88,3.88,0,0,1-3.1-2.616l-.711,2.295s-35.428,1.01-42.633.685c-7.122-.32-18.231-.482-19.682-4.76.4,4.965,3.088,7.521,6.924,7.521,5.094,0,56.178-2.07,56.178-2.07,7.526,2.662,13.033-1.79,14.318-2.754a7.589,7.589,0,0,1,4.4-.953c-1.955-.685-5.985.173-7.431,1.068" transform="translate(-232.762 -113.722)" fill="#d65863"/>
        <path id="Trazado_228106" data-name="Trazado 228106" d="M358.64,219.481s-6.637-.9-7.969-1.04l1.01-4.13,8.4,1.7Z" transform="translate(-340.344 -101.326)" fill="#d65863"/>
        <path id="Trazado_228107" data-name="Trazado 228107" d="M322.3,169.943a1.723,1.723,0,0,0,.4,1.858c3.085,3.012,7.135,7.115,11.3,7.746,4.543.688,12.116.964,12.528,0s1.927-13.217,4.681-19.412,4.543-9.362,5.231-12.942-5.507-11.978-8.26-12.666-9.087-1.1-11.7,1.239-4.543,11.289-7.572,18.035c-2.444,5.444-5.516,13.308-6.611,16.141" transform="translate(-321.74 -63.35)" fill="#5470d3"/>
        <path id="Trazado_228108" data-name="Trazado 228108" d="M324.178,134.272a26.862,26.862,0,0,1,7.549.115,7.155,7.155,0,0,1,2.34.708c2.2,1.207,3.681,3.385,4.982,5.477.448.716.846,1.462,1.234,2.218-1.212-3.127-2.967-6.44-5.971-8.162a11.863,11.863,0,0,0-5.067-.927,20.848,20.848,0,0,0-5.067.571" transform="translate(-306.581 -63.213)" fill="#314ec6"/>
        <path id="Trazado_228109" data-name="Trazado 228109" d="M367.445,176.861c.023-2.2,4.668-22.367,8.771-33.607-1.745,3.841-3.375,9.977-5.6,14.929-2.444,5.443-5.516,13.307-6.611,16.141a1.721,1.721,0,0,0,.4,1.857c1.181,1.154,2.506,2.467,3.922,3.684a4.1,4.1,0,0,1-.889-3.005" transform="translate(-363.451 -67.73)" fill="#314ec6"/>
        <path id="Trazado_228110" data-name="Trazado 228110" d="M79.674,245.67h50.838a.927.927,0,0,1,.927.927v2.253a.927.927,0,0,1-.927.927H79.674Z" transform="translate(31.166 -116.152)" fill="#282142"/>
        <path id="Trazado_228111" data-name="Trazado 228111" d="M176.339,248.5v.916a.358.358,0,0,0,.358.358H189.5a.722.722,0,0,0,.722-.722v-2.668a.722.722,0,0,0-.8-.717l-12.765,2.477a.358.358,0,0,0-.318.356" transform="translate(-78.582 -116.148)" fill="#504984"/>
        <path id="Trazado_228112" data-name="Trazado 228112" d="M120.32,81.773H25.3a4.559,4.559,0,0,0-4.289,3.015L.236,142.494c-.869,2.977,1.308,5.206,4.808,5.583.536.058,3.089-1.089,7.1-2.974H97.084a4.559,4.559,0,0,0,4.289-3.015l18.771-52.129c3.174-1.657,4.983-2.6,4.983-2.6s1.175-5.583-4.808-5.583" transform="translate(79.364 -38.662)" fill="#504984"/>
        <path id="Trazado_228113" data-name="Trazado 228113" d="M25.186,87.416H120.2a1.948,1.948,0,0,1,1.833,2.609l-20.78,57.707a4.559,4.559,0,0,1-4.289,3.015H1.95a1.948,1.948,0,0,1-1.833-2.609L20.9,90.431a4.559,4.559,0,0,1,4.289-3.015" transform="translate(82.457 -41.33)" fill="#afafaf"/>
        <path id="Trazado_228114" data-name="Trazado 228114" d="M104.916,193.511l4.218-15.643,15.985,15.643Z" transform="translate(24.178 -84.095)" fill="#282142"/>
        <path id="Trazado_228115" data-name="Trazado 228115" d="M106.565,122.611a3.88,3.88,0,0,1-4.086,3.62,3.081,3.081,0,0,1-3.153-3.62,4.352,4.352,0,0,1,4.086-3.62,3.094,3.094,0,0,1,3.153,3.62" transform="translate(45.663 -56.259)" fill="#504984"/>
        <path id="Trazado_228116" data-name="Trazado 228116" d="M183.275,186.282l1.222-3.393h-1.536l-1.222,3.393Z" transform="translate(-75.701 -86.469)" fill="#282142"/>
        <path id="Trazado_228117" data-name="Trazado 228117" d="M177.14,186.282l1.222-3.393h-1.536l-1.222,3.393Z" transform="translate(-66.332 -86.469)" fill="#282142"/>
        <path id="Trazado_228118" data-name="Trazado 228118" d="M171.006,186.282l1.222-3.393h-1.536l-1.222,3.393Z" transform="translate(-56.964 -86.469)" fill="#282142"/>
        <path id="Trazado_228119" data-name="Trazado 228119" d="M164.872,186.282l1.222-3.393h-1.536l-1.222,3.393Z" transform="translate(-47.596 -86.469)" fill="#282142"/>
        <path id="Trazado_228120" data-name="Trazado 228120" d="M77.736,186.282l1.222-3.393H77.422L76.2,186.282Z" transform="translate(85.478 -86.469)" fill="#282142"/>
        <path id="Trazado_228121" data-name="Trazado 228121" d="M71.6,186.282l1.222-3.393H71.288l-1.222,3.393Z" transform="translate(94.846 -86.469)" fill="#282142"/>
        <path id="Trazado_228122" data-name="Trazado 228122" d="M65.467,186.282l1.222-3.393H65.153l-1.222,3.393Z" transform="translate(104.215 -86.469)" fill="#282142"/>
        <path id="Trazado_228123" data-name="Trazado 228123" d="M59.334,186.282l1.222-3.393H59.019L57.8,186.282Z" transform="translate(113.583 -86.469)" fill="#282142"/>
        <path id="Trazado_228124" data-name="Trazado 228124" d="M127.891,207.56c-.938-2.7-12.308-39.385-12.308-39.385h-14.6l-.964,5.11s9.785,31.579,10.723,34.275q.108.308.2.618h0c.858,2.637-1.4,2.625-3.953,2.625H81.257v2.334H124.14c5.158,0,4.689-2.881,3.751-5.577" transform="translate(33.287 -79.513)" fill="#372d5b"/>
        <path id="Trazado_228125" data-name="Trazado 228125" d="M76.423,168.176s11.37,36.689,12.308,39.385,1.407,5.577-3.751,5.577h17.144c5.158,0,4.689-2.881,3.751-5.577s-12.308-39.385-12.308-39.385Z" transform="translate(57.853 -79.513)" fill="#cacacb"/>
        <path id="Trazado_228126" data-name="Trazado 228126" d="M90.418,167.942c1.131-.052,2.262-.078,3.393-.115s2.261-.047,3.392-.072,2.262-.051,3.393-.051l3.392-.021h.189l.059.183c.473,1.478.939,2.957,1.383,4.444l1.352,4.453c.87,2.978,1.742,5.956,2.538,8.958-1.045-2.924-2.013-5.872-2.983-8.82l-1.408-4.436c-.476-1.477-.93-2.96-1.378-4.445l.248.182-3.392-.021c-1.131,0-2.262-.033-3.393-.051s-2.262-.033-3.392-.072-2.262-.063-3.393-.115" transform="translate(47.432 -79.28)" fill="#636363"/>
      </g>
    </g>
    <g id="Grupo_182809" data-name="Grupo 182809" transform="translate(1672 -5688.868) rotate(-90)">
      <rect id="Rectángulo_45220" data-name="Rectángulo 45220" width="29.641" height="29.427" transform="translate(62.132 29.427) rotate(180)" fill="#ecf3fb"/>
      <g id="Grupo_152581" data-name="Grupo 152581" transform="translate(22.769 21.923)">
        <g id="Grupo_152556" data-name="Grupo 152556" transform="translate(0 15.727)">
          <rect id="Rectángulo_45221" data-name="Rectángulo 45221" width="2.538" height="2.538" transform="translate(26.963 10.785)" fill="#43a99b"/>
          <rect id="Rectángulo_45222" data-name="Rectángulo 45222" width="2.538" height="2.538" transform="translate(21.571 10.785)" fill="#43a99b"/>
          <rect id="Rectángulo_45223" data-name="Rectángulo 45223" width="2.538" height="2.538" transform="translate(16.178 10.785)" fill="#43a99b"/>
          <rect id="Rectángulo_45224" data-name="Rectángulo 45224" width="2.538" height="2.538" transform="translate(10.785 10.785)" fill="#43a99b"/>
          <rect id="Rectángulo_45225" data-name="Rectángulo 45225" width="2.538" height="2.538" transform="translate(5.393 10.785)" fill="#43a99b"/>
          <rect id="Rectángulo_45226" data-name="Rectángulo 45226" width="2.538" height="2.538" transform="translate(0 10.785)" fill="#43a99b"/>
          <rect id="Rectángulo_45232" data-name="Rectángulo 45232" width="2.538" height="2.538" transform="translate(26.963 5.393)" fill="#43a99b"/>
          <rect id="Rectángulo_45233" data-name="Rectángulo 45233" width="2.538" height="2.538" transform="translate(21.571 5.393)" fill="#43a99b"/>
          <rect id="Rectángulo_45234" data-name="Rectángulo 45234" width="2.538" height="2.538" transform="translate(16.178 5.393)" fill="#43a99b"/>
          <rect id="Rectángulo_45235" data-name="Rectángulo 45235" width="2.538" height="2.538" transform="translate(10.785 5.393)" fill="#43a99b"/>
          <rect id="Rectángulo_45236" data-name="Rectángulo 45236" width="2.538" height="2.538" transform="translate(5.393 5.393)" fill="#43a99b"/>
          <rect id="Rectángulo_45237" data-name="Rectángulo 45237" width="2.538" height="2.538" transform="translate(0 5.393)" fill="#43a99b"/>
          <rect id="Rectángulo_45243" data-name="Rectángulo 45243" width="2.538" height="2.538" transform="translate(26.963)" fill="#43a99b"/>
          <rect id="Rectángulo_45244" data-name="Rectángulo 45244" width="2.538" height="2.538" transform="translate(21.571)" fill="#43a99b"/>
          <rect id="Rectángulo_45245" data-name="Rectángulo 45245" width="2.538" height="2.538" transform="translate(16.178)" fill="#43a99b"/>
          <rect id="Rectángulo_45246" data-name="Rectángulo 45246" width="2.538" height="2.538" transform="translate(10.785)" fill="#43a99b"/>
          <rect id="Rectángulo_45247" data-name="Rectángulo 45247" width="2.538" height="2.538" transform="translate(5.393)" fill="#43a99b"/>
          <rect id="Rectángulo_45248" data-name="Rectángulo 45248" width="2.538" height="2.538" fill="#43a99b"/>
        </g>
        <g id="Grupo_152580" data-name="Grupo 152580" transform="translate(0)">
          <rect id="Rectángulo_45221-2" data-name="Rectángulo 45221" width="2.538" height="2.538" transform="translate(26.963 10.785)" fill="#43a99b"/>
          <rect id="Rectángulo_45222-2" data-name="Rectángulo 45222" width="2.538" height="2.538" transform="translate(21.571 10.785)" fill="#43a99b"/>
          <rect id="Rectángulo_45223-2" data-name="Rectángulo 45223" width="2.538" height="2.538" transform="translate(16.178 10.785)" fill="#43a99b"/>
          <rect id="Rectángulo_45224-2" data-name="Rectángulo 45224" width="2.538" height="2.538" transform="translate(10.785 10.785)" fill="#43a99b"/>
          <rect id="Rectángulo_45225-2" data-name="Rectángulo 45225" width="2.538" height="2.538" transform="translate(5.393 10.785)" fill="#43a99b"/>
          <rect id="Rectángulo_45226-2" data-name="Rectángulo 45226" width="2.538" height="2.538" transform="translate(0 10.785)" fill="#43a99b"/>
          <rect id="Rectángulo_45232-2" data-name="Rectángulo 45232" width="2.538" height="2.538" transform="translate(26.963 5.393)" fill="#43a99b"/>
          <rect id="Rectángulo_45233-2" data-name="Rectángulo 45233" width="2.538" height="2.538" transform="translate(21.571 5.393)" fill="#43a99b"/>
          <rect id="Rectángulo_45234-2" data-name="Rectángulo 45234" width="2.538" height="2.538" transform="translate(16.178 5.393)" fill="#43a99b"/>
          <rect id="Rectángulo_45235-2" data-name="Rectángulo 45235" width="2.538" height="2.538" transform="translate(10.785 5.393)" fill="#43a99b"/>
          <rect id="Rectángulo_45236-2" data-name="Rectángulo 45236" width="2.538" height="2.538" transform="translate(5.393 5.393)" fill="#43a99b"/>
          <rect id="Rectángulo_45237-2" data-name="Rectángulo 45237" width="2.538" height="2.538" transform="translate(0 5.393)" fill="#43a99b"/>
          <rect id="Rectángulo_45243-2" data-name="Rectángulo 45243" width="2.538" height="2.538" transform="translate(26.963)" fill="#43a99b"/>
          <rect id="Rectángulo_45244-2" data-name="Rectángulo 45244" width="2.538" height="2.538" transform="translate(21.571)" fill="#43a99b"/>
          <rect id="Rectángulo_45245-2" data-name="Rectángulo 45245" width="2.538" height="2.538" transform="translate(16.178)" fill="#43a99b"/>
          <rect id="Rectángulo_45246-2" data-name="Rectángulo 45246" width="2.538" height="2.538" transform="translate(10.785)" fill="#43a99b"/>
          <rect id="Rectángulo_45247-2" data-name="Rectángulo 45247" width="2.538" height="2.538" transform="translate(5.393)" fill="#43a99b"/>
          <rect id="Rectángulo_45248-2" data-name="Rectángulo 45248" width="2.538" height="2.538" fill="#43a99b"/>
        </g>
      </g>
    </g>
  </g>
</svg>
