<svg xmlns="http://www.w3.org/2000/svg" xmlns:xlink="http://www.w3.org/1999/xlink" width="610" height="211.133" viewBox="0 0 610 211.133">
  <defs>
    <clipPath id="clip-path">
      <rect id="Rectángulo_63790" data-name="Rectángulo 63790" width="357" height="207.633" fill="none"/>
    </clipPath>
    <clipPath id="clip-path-3">
      <rect id="Rectángulo_63778" data-name="Rectángulo 63778" width="58.727" height="25.803" fill="none"/>
    </clipPath>
    <clipPath id="clip-path-4">
      <rect id="Rectángulo_63779" data-name="Rectángulo 63779" width="15.985" height="22.987" fill="none"/>
    </clipPath>
    <clipPath id="clip-path-5">
      <rect id="Rectángulo_63780" data-name="Rectángulo 63780" width="17.355" height="34.402" fill="none"/>
    </clipPath>
    <clipPath id="clip-path-6">
      <rect id="Rectángulo_63781" data-name="Rectángulo 63781" width="15.16" height="27.385" fill="none"/>
    </clipPath>
    <clipPath id="clip-path-7">
      <rect id="Rectángulo_63782" data-name="Rectángulo 63782" width="12.779" height="39.225" fill="none"/>
    </clipPath>
    <clipPath id="clip-path-8">
      <rect id="Rectángulo_63783" data-name="Rectángulo 63783" width="12.009" height="11.992" fill="none"/>
    </clipPath>
    <clipPath id="clip-path-9">
      <rect id="Rectángulo_63784" data-name="Rectángulo 63784" width="5.808" height="7.944" fill="none"/>
    </clipPath>
    <clipPath id="clip-path-10">
      <rect id="Rectángulo_63785" data-name="Rectángulo 63785" width="10.621" height="8.629" fill="none"/>
    </clipPath>
  </defs>
  <g id="Grupo_182868" data-name="Grupo 182868" transform="translate(-495 -386.867)">
    <g id="Grupo_182864" data-name="Grupo 182864" transform="translate(955.245 586.893) rotate(-90)">
      <rect id="Rectángulo_45220" data-name="Rectángulo 45220" width="52.05" height="51.675" transform="translate(91.892 51.675) rotate(180)" fill="#8c5be1"/>
      <g id="Grupo_152581" data-name="Grupo 152581" transform="translate(22.769 38.497)">
        <g id="Grupo_152556" data-name="Grupo 152556" transform="translate(0 27.617)">
          <rect id="Rectángulo_45221" data-name="Rectángulo 45221" width="4.456" height="4.456" transform="translate(47.349 18.94)" fill="#43a99b"/>
          <rect id="Rectángulo_45222" data-name="Rectángulo 45222" width="4.456" height="4.456" transform="translate(37.879 18.94)" fill="#43a99b"/>
          <rect id="Rectángulo_45223" data-name="Rectángulo 45223" width="4.456" height="4.456" transform="translate(28.409 18.94)" fill="#43a99b"/>
          <rect id="Rectángulo_45224" data-name="Rectángulo 45224" width="4.456" height="4.456" transform="translate(18.94 18.94)" fill="#43a99b"/>
          <rect id="Rectángulo_45225" data-name="Rectángulo 45225" width="4.456" height="4.456" transform="translate(9.47 18.94)" fill="#43a99b"/>
          <rect id="Rectángulo_45226" data-name="Rectángulo 45226" width="4.456" height="4.456" transform="translate(0 18.94)" fill="#43a99b"/>
          <rect id="Rectángulo_45232" data-name="Rectángulo 45232" width="4.456" height="4.456" transform="translate(47.349 9.47)" fill="#43a99b"/>
          <rect id="Rectángulo_45233" data-name="Rectángulo 45233" width="4.456" height="4.456" transform="translate(37.879 9.47)" fill="#43a99b"/>
          <rect id="Rectángulo_45234" data-name="Rectángulo 45234" width="4.456" height="4.456" transform="translate(28.409 9.47)" fill="#43a99b"/>
          <rect id="Rectángulo_45235" data-name="Rectángulo 45235" width="4.456" height="4.456" transform="translate(18.94 9.47)" fill="#43a99b"/>
          <rect id="Rectángulo_45236" data-name="Rectángulo 45236" width="4.456" height="4.456" transform="translate(9.47 9.47)" fill="#43a99b"/>
          <rect id="Rectángulo_45237" data-name="Rectángulo 45237" width="4.456" height="4.456" transform="translate(0 9.47)" fill="#43a99b"/>
          <rect id="Rectángulo_45243" data-name="Rectángulo 45243" width="4.456" height="4.456" transform="translate(47.349)" fill="#43a99b"/>
          <rect id="Rectángulo_45244" data-name="Rectángulo 45244" width="4.456" height="4.456" transform="translate(37.879)" fill="#43a99b"/>
          <rect id="Rectángulo_45245" data-name="Rectángulo 45245" width="4.456" height="4.456" transform="translate(28.409)" fill="#43a99b"/>
          <rect id="Rectángulo_45246" data-name="Rectángulo 45246" width="4.456" height="4.456" transform="translate(18.94)" fill="#43a99b"/>
          <rect id="Rectángulo_45247" data-name="Rectángulo 45247" width="4.456" height="4.456" transform="translate(9.47)" fill="#43a99b"/>
          <rect id="Rectángulo_45248" data-name="Rectángulo 45248" width="4.456" height="4.456" fill="#43a99b"/>
        </g>
        <g id="Grupo_152580" data-name="Grupo 152580" transform="translate(0)">
          <rect id="Rectángulo_45221-2" data-name="Rectángulo 45221" width="4.456" height="4.456" transform="translate(47.349 18.94)" fill="#43a99b"/>
          <rect id="Rectángulo_45222-2" data-name="Rectángulo 45222" width="4.456" height="4.456" transform="translate(37.879 18.94)" fill="#43a99b"/>
          <rect id="Rectángulo_45223-2" data-name="Rectángulo 45223" width="4.456" height="4.456" transform="translate(28.409 18.94)" fill="#43a99b"/>
          <rect id="Rectángulo_45224-2" data-name="Rectángulo 45224" width="4.456" height="4.456" transform="translate(18.94 18.94)" fill="#43a99b"/>
          <rect id="Rectángulo_45225-2" data-name="Rectángulo 45225" width="4.456" height="4.456" transform="translate(9.47 18.94)" fill="#43a99b"/>
          <rect id="Rectángulo_45226-2" data-name="Rectángulo 45226" width="4.456" height="4.456" transform="translate(0 18.94)" fill="#43a99b"/>
          <rect id="Rectángulo_45232-2" data-name="Rectángulo 45232" width="4.456" height="4.456" transform="translate(47.349 9.47)" fill="#43a99b"/>
          <rect id="Rectángulo_45233-2" data-name="Rectángulo 45233" width="4.456" height="4.456" transform="translate(37.879 9.47)" fill="#43a99b"/>
          <rect id="Rectángulo_45234-2" data-name="Rectángulo 45234" width="4.456" height="4.456" transform="translate(28.409 9.47)" fill="#43a99b"/>
          <rect id="Rectángulo_45235-2" data-name="Rectángulo 45235" width="4.456" height="4.456" transform="translate(18.94 9.47)" fill="#43a99b"/>
          <rect id="Rectángulo_45236-2" data-name="Rectángulo 45236" width="4.456" height="4.456" transform="translate(9.47 9.47)" fill="#43a99b"/>
          <rect id="Rectángulo_45237-2" data-name="Rectángulo 45237" width="4.456" height="4.456" transform="translate(0 9.47)" fill="#43a99b"/>
          <rect id="Rectángulo_45243-2" data-name="Rectángulo 45243" width="4.456" height="4.456" transform="translate(47.349)" fill="#43a99b"/>
          <rect id="Rectángulo_45244-2" data-name="Rectángulo 45244" width="4.456" height="4.456" transform="translate(37.879)" fill="#43a99b"/>
          <rect id="Rectángulo_45245-2" data-name="Rectángulo 45245" width="4.456" height="4.456" transform="translate(28.409)" fill="#43a99b"/>
          <rect id="Rectángulo_45246-2" data-name="Rectángulo 45246" width="4.456" height="4.456" transform="translate(18.94)" fill="#43a99b"/>
          <rect id="Rectángulo_45247-2" data-name="Rectángulo 45247" width="4.456" height="4.456" transform="translate(9.47)" fill="#43a99b"/>
          <rect id="Rectángulo_45248-2" data-name="Rectángulo 45248" width="4.456" height="4.456" fill="#43a99b"/>
        </g>
      </g>
    </g>
    <g id="Grupo_182865" data-name="Grupo 182865" transform="translate(648.755 472.232) rotate(90)">
      <rect id="Rectángulo_45220-2" data-name="Rectángulo 45220" width="52.05" height="51.675" transform="translate(91.892 51.675) rotate(180)" fill="#8c5be1"/>
      <g id="Grupo_152581-2" data-name="Grupo 152581" transform="translate(22.769 38.497)">
        <g id="Grupo_152556-2" data-name="Grupo 152556" transform="translate(0 27.617)">
          <rect id="Rectángulo_45221-3" data-name="Rectángulo 45221" width="4.456" height="4.456" transform="translate(47.349 18.94)" fill="#43a99b"/>
          <rect id="Rectángulo_45222-3" data-name="Rectángulo 45222" width="4.456" height="4.456" transform="translate(37.879 18.94)" fill="#43a99b"/>
          <rect id="Rectángulo_45223-3" data-name="Rectángulo 45223" width="4.456" height="4.456" transform="translate(28.409 18.94)" fill="#43a99b"/>
          <rect id="Rectángulo_45224-3" data-name="Rectángulo 45224" width="4.456" height="4.456" transform="translate(18.94 18.94)" fill="#43a99b"/>
          <rect id="Rectángulo_45225-3" data-name="Rectángulo 45225" width="4.456" height="4.456" transform="translate(9.47 18.94)" fill="#43a99b"/>
          <rect id="Rectángulo_45226-3" data-name="Rectángulo 45226" width="4.456" height="4.456" transform="translate(0 18.94)" fill="#43a99b"/>
          <rect id="Rectángulo_45232-3" data-name="Rectángulo 45232" width="4.456" height="4.456" transform="translate(47.349 9.47)" fill="#43a99b"/>
          <rect id="Rectángulo_45233-3" data-name="Rectángulo 45233" width="4.456" height="4.456" transform="translate(37.879 9.47)" fill="#43a99b"/>
          <rect id="Rectángulo_45234-3" data-name="Rectángulo 45234" width="4.456" height="4.456" transform="translate(28.409 9.47)" fill="#43a99b"/>
          <rect id="Rectángulo_45235-3" data-name="Rectángulo 45235" width="4.456" height="4.456" transform="translate(18.94 9.47)" fill="#43a99b"/>
          <rect id="Rectángulo_45236-3" data-name="Rectángulo 45236" width="4.456" height="4.456" transform="translate(9.47 9.47)" fill="#43a99b"/>
          <rect id="Rectángulo_45237-3" data-name="Rectángulo 45237" width="4.456" height="4.456" transform="translate(0 9.47)" fill="#43a99b"/>
          <rect id="Rectángulo_45243-3" data-name="Rectángulo 45243" width="4.456" height="4.456" transform="translate(47.349)" fill="#43a99b"/>
          <rect id="Rectángulo_45244-3" data-name="Rectángulo 45244" width="4.456" height="4.456" transform="translate(37.879)" fill="#43a99b"/>
          <rect id="Rectángulo_45245-3" data-name="Rectángulo 45245" width="4.456" height="4.456" transform="translate(28.409)" fill="#43a99b"/>
          <rect id="Rectángulo_45246-3" data-name="Rectángulo 45246" width="4.456" height="4.456" transform="translate(18.94)" fill="#43a99b"/>
          <rect id="Rectángulo_45247-3" data-name="Rectángulo 45247" width="4.456" height="4.456" transform="translate(9.47)" fill="#43a99b"/>
          <rect id="Rectángulo_45248-3" data-name="Rectángulo 45248" width="4.456" height="4.456" fill="#43a99b"/>
        </g>
        <g id="Grupo_152580-2" data-name="Grupo 152580" transform="translate(0)">
          <rect id="Rectángulo_45221-4" data-name="Rectángulo 45221" width="4.456" height="4.456" transform="translate(47.349 18.94)" fill="#43a99b"/>
          <rect id="Rectángulo_45222-4" data-name="Rectángulo 45222" width="4.456" height="4.456" transform="translate(37.879 18.94)" fill="#43a99b"/>
          <rect id="Rectángulo_45223-4" data-name="Rectángulo 45223" width="4.456" height="4.456" transform="translate(28.409 18.94)" fill="#43a99b"/>
          <rect id="Rectángulo_45224-4" data-name="Rectángulo 45224" width="4.456" height="4.456" transform="translate(18.94 18.94)" fill="#43a99b"/>
          <rect id="Rectángulo_45225-4" data-name="Rectángulo 45225" width="4.456" height="4.456" transform="translate(9.47 18.94)" fill="#43a99b"/>
          <rect id="Rectángulo_45226-4" data-name="Rectángulo 45226" width="4.456" height="4.456" transform="translate(0 18.94)" fill="#43a99b"/>
          <rect id="Rectángulo_45232-4" data-name="Rectángulo 45232" width="4.456" height="4.456" transform="translate(47.349 9.47)" fill="#43a99b"/>
          <rect id="Rectángulo_45233-4" data-name="Rectángulo 45233" width="4.456" height="4.456" transform="translate(37.879 9.47)" fill="#43a99b"/>
          <rect id="Rectángulo_45234-4" data-name="Rectángulo 45234" width="4.456" height="4.456" transform="translate(28.409 9.47)" fill="#43a99b"/>
          <rect id="Rectángulo_45235-4" data-name="Rectángulo 45235" width="4.456" height="4.456" transform="translate(18.94 9.47)" fill="#43a99b"/>
          <rect id="Rectángulo_45236-4" data-name="Rectángulo 45236" width="4.456" height="4.456" transform="translate(9.47 9.47)" fill="#43a99b"/>
          <rect id="Rectángulo_45237-4" data-name="Rectángulo 45237" width="4.456" height="4.456" transform="translate(0 9.47)" fill="#43a99b"/>
          <rect id="Rectángulo_45243-4" data-name="Rectángulo 45243" width="4.456" height="4.456" transform="translate(47.349)" fill="#43a99b"/>
          <rect id="Rectángulo_45244-4" data-name="Rectángulo 45244" width="4.456" height="4.456" transform="translate(37.879)" fill="#43a99b"/>
          <rect id="Rectángulo_45245-4" data-name="Rectángulo 45245" width="4.456" height="4.456" transform="translate(28.409)" fill="#43a99b"/>
          <rect id="Rectángulo_45246-4" data-name="Rectángulo 45246" width="4.456" height="4.456" transform="translate(18.94)" fill="#43a99b"/>
          <rect id="Rectángulo_45247-4" data-name="Rectángulo 45247" width="4.456" height="4.456" transform="translate(9.47)" fill="#43a99b"/>
          <rect id="Rectángulo_45248-4" data-name="Rectángulo 45248" width="4.456" height="4.456" fill="#43a99b"/>
        </g>
      </g>
    </g>
    <g id="Grupo_182863" data-name="Grupo 182863" transform="translate(622 386.867)">
      <g id="Grupo_182862" data-name="Grupo 182862" clip-path="url(#clip-path)">
        <g id="Grupo_182861" data-name="Grupo 182861">
          <g id="Grupo_182860" data-name="Grupo 182860" clip-path="url(#clip-path)">
            <path id="Trazado_234623" data-name="Trazado 234623" d="M346.807,165.121q-.014,1.572-.058,3.131c-.031,1.19-.08,2.375-.137,3.557-.013.258-.027.511-.04.764-.009.191-.022.382-.035.568q-.1,1.718-.24,3.424c-.013.146-.022.288-.036.435q-.486,5.695-1.43,11.185c-.009.071-.018.138-.031.209,0,0,0,0,0,.009-.115.679-.24,1.354-.364,2.025-.12.6-.24,1.208-.364,1.812q-.506,2.464-1.123,4.884l-.08.306q-.906,3.53-2.034,6.927a1.011,1.011,0,0,1-.036.107c-.355,1.066-.728,2.127-1.119,3.17H54.889q-1.006-1.439-1.958-2.908c-.084-.12-.164-.244-.24-.369a130.04,130.04,0,0,1-7.8-13.774q-.606-1.239-1.186-2.486-.453-.966-.879-1.932a133.438,133.438,0,0,1-6.03-16.291,109.626,109.626,0,0,1-4.844-36.459c.688-13.139,4.445-24.63,11.638-32.521,10.182-11.163,23.311-10.8,39.891-9.071,2.256.235,4.578.5,6.962.755q2.3.253,4.693.5c3.947.4,8.068.755,12.358.968.7.031,1.4.062,2.113.084,1.408.057,2.837.089,4.285.1q3.051.033,6.208-.075c.057,0,.111,0,.169,0,.178,0,.351-.013.529-.022q2.018-.073,4.089-.227c1.208-.084,2.425-.186,3.659-.311.564-.057,1.132-.12,1.7-.186.218-.027.44-.049.661-.08q3.777-.453,7.7-1.181a121.571,121.571,0,0,0,20.252-5.661,121.055,121.055,0,0,0,18.583-8.774,122.22,122.22,0,0,0,27.13-21.6A172.975,172.975,0,0,0,216.116,42.6c1.865-2.411,3.637-4.8,5.342-7.149q2.578-3.563,4.964-6.962C238.029,12.073,246.95-.671,261.532.026c12.872.617,27.006,11.554,40,28.627A184.041,184.041,0,0,1,315.352,49.9a257.19,257.19,0,0,1,29.3,85.676c.906,6.136,1.541,12.255,1.874,18.3.217,3.779.311,7.535.28,11.247" transform="translate(-20.82 0.001)" fill="#e8e8e8"/>
            <path id="Trazado_234624" data-name="Trazado 234624" d="M419.119,111.558V225.017a9.141,9.141,0,0,1-9.134,9.129H210.292a9.136,9.136,0,0,1-9.12-9.129V111.558a9.136,9.136,0,0,1,9.12-9.129H409.986a9.129,9.129,0,0,1,9.134,9.129" transform="translate(-131.544 -66.977)" fill="#fff"/>
            <path id="Trazado_234625" data-name="Trazado 234625" d="M769.365,404.821c-.93-.111-1.859-.242-2.792-.409a46.577,46.577,0,0,1-9.2-2.617c-9.012-3.59-15.528-13.623-19.77-21.855-3.97-7.723-10.452-23.105-2.772-30.475,5.378-5.17,13.31-5.476,19.279-9.616,10.188-7.06,8.1-21.694,16.992-29.173,16.165-13.588,24.7,11.6,24.95,23.705.633,31.1,23.018,16.343,23.134,36.475.105,17.45-23.842,36.924-49.825,33.966" transform="translate(-478.161 -200.588)" fill="#a2e8de"/>
            <path id="Trazado_234626" data-name="Trazado 234626" d="M844.7,388.592c-.69,4.955-1.582,10.241-2.754,15.651-.186.9-.392,1.813-.605,2.721a154.872,154.872,0,0,1-5.258,18.1c-.93-.111-1.859-.242-2.792-.409a154.236,154.236,0,0,0,5.268-18.132q.308-1.353.6-2.708c6.868-32.1,5.208-64.087,5.176-64.626a1.387,1.387,0,1,1,2.769-.157,287.636,287.636,0,0,1-2.4,49.555" transform="translate(-544.88 -220.835)" fill="#e2f5fd"/>
            <path id="Trazado_234627" data-name="Trazado 234627" d="M797.669,477.054c-1.074-.088-2.167-.224-3.285-.416-24.3-4.153-29.65-29.986-29.7-30.247a1.387,1.387,0,0,1,2.722-.537c.048.242,5.058,24.222,27.446,28.049,22.472,3.84,35.563-15.911,35.693-16.111a1.387,1.387,0,0,1,2.329,1.509c-.133.206-12.967,19.569-35.2,17.753" transform="translate(-500.001 -290.808)" fill="#e2f5fd"/>
            <path id="Trazado_234628" data-name="Trazado 234628" d="M855.084,440.8c-.709-.3-1.412-.608-2.111-.949a38.209,38.209,0,0,1-6.667-4.126c-6.3-4.852-9.193-14.228-10.692-21.672-1.4-6.982-3.063-20.569,4.647-24.659,5.4-2.872,11.726-1.335,17.363-3.262,9.62-3.284,11.253-15.3,19.945-19.2,15.8-7.093,16.88,14.69,14.364,24.293C885.458,415.9,906.423,409.281,902,425.186c-3.83,13.788-27.086,23.778-46.917,15.618" transform="translate(-545.62 -239.023)" fill="#97d9f4"/>
            <path id="Trazado_234629" data-name="Trazado 234629" d="M905.106,430c-1.655,3.754-3.544,7.723-5.682,11.727-.349.671-.715,1.342-1.087,2.01a127.043,127.043,0,0,1-8.208,13.1c-.709-.3-1.412-.608-2.111-.949a126.452,126.452,0,0,0,8.221-13.121q.547-1,1.078-2c12.614-23.776,18.48-49.382,18.575-49.814a1.137,1.137,0,1,1,2.219.5,235.884,235.884,0,0,1-13,38.549" transform="translate(-580.665 -255.058)" fill="#e2f5fd"/>
            <path id="Trazado_234630" data-name="Trazado 234630" d="M884.261,484.551c-.828-.31-1.659-.663-2.5-1.064-18.233-8.725-16.662-30.3-16.644-30.518a1.138,1.138,0,0,1,2.267.187c-.016.2-1.442,20.24,15.359,28.279,16.864,8.068,31.619-4.576,31.766-4.7a1.138,1.138,0,0,1,1.5,1.713c-.151.132-14.617,12.528-31.749,6.108" transform="translate(-565.665 -295.509)" fill="#e2f5fd"/>
            <path id="Trazado_234631" data-name="Trazado 234631" d="M95.967,404.821c.931-.111,1.859-.242,2.792-.409a46.577,46.577,0,0,0,9.2-2.617c9.012-3.59,15.528-13.623,19.77-21.855,3.97-7.723,10.453-23.105,2.772-30.475-5.378-5.17-13.31-5.476-19.279-9.616-10.188-7.06-8.1-21.694-16.992-29.173-16.165-13.588-24.7,11.6-24.95,23.705-.633,31.1-23.018,16.343-23.134,36.475-.106,17.45,23.841,36.924,49.825,33.966" transform="translate(-30.172 -200.588)" fill="#a2e8de"/>
            <path id="Trazado_234632" data-name="Trazado 234632" d="M160.259,388.592c.69,4.955,1.581,10.241,2.754,15.651.185.9.391,1.813.605,2.721a154.922,154.922,0,0,0,5.258,18.1c.931-.111,1.859-.242,2.792-.409a154.162,154.162,0,0,1-5.268-18.132q-.309-1.353-.6-2.708c-6.868-32.1-5.208-64.087-5.176-64.626a1.387,1.387,0,1,0-2.769-.157,287.662,287.662,0,0,0,2.4,49.555" transform="translate(-103.081 -220.835)" fill="#e2f5fd"/>
            <path id="Trazado_234633" data-name="Trazado 234633" d="M104.491,477.054c1.074-.088,2.167-.224,3.285-.416,24.3-4.153,29.65-29.986,29.7-30.247a1.387,1.387,0,0,0-2.722-.537c-.048.242-5.058,24.222-27.446,28.049-22.472,3.84-35.563-15.911-35.693-16.111a1.387,1.387,0,1,0-2.328,1.509c.133.206,12.967,19.569,35.2,17.753" transform="translate(-45.16 -290.808)" fill="#e2f5fd"/>
            <path id="Trazado_234634" data-name="Trazado 234634" d="M47.536,440.8c.709-.3,1.412-.608,2.111-.949a38.2,38.2,0,0,0,6.667-4.126c6.3-4.852,9.193-14.228,10.693-21.672,1.4-6.982,3.063-20.569-4.648-24.659-5.4-2.872-11.726-1.335-17.363-3.262-9.62-3.284-11.253-15.3-19.945-19.2-15.8-7.093-16.881,14.69-14.364,24.293C17.162,415.9-3.8,409.281.619,425.186,4.449,438.974,27.7,448.964,47.536,440.8" transform="translate(0 -239.023)" fill="#97d9f4"/>
            <path id="Trazado_234635" data-name="Trazado 234635" d="M69.449,430c1.655,3.754,3.544,7.723,5.682,11.727.349.671.715,1.342,1.087,2.01a127.04,127.04,0,0,0,8.208,13.1c.709-.3,1.412-.608,2.111-.949a126.447,126.447,0,0,1-8.221-13.121q-.547-1-1.078-2c-12.614-23.776-18.48-49.382-18.575-49.814a1.137,1.137,0,1,0-2.219.5,235.89,235.89,0,0,0,13,38.549" transform="translate(-36.891 -255.058)" fill="#e2f5fd"/>
            <path id="Trazado_234636" data-name="Trazado 234636" d="M50.242,484.551c.828-.31,1.659-.663,2.5-1.064,18.233-8.725,16.662-30.3,16.644-30.518a1.138,1.138,0,0,0-2.268.187c.016.2,1.442,20.24-15.358,28.279-16.864,8.068-31.619-4.576-31.766-4.7a1.138,1.138,0,0,0-1.5,1.713c.151.132,14.617,12.528,31.749,6.108" transform="translate(-11.838 -295.509)" fill="#e2f5fd"/>
            <path id="Trazado_234637" data-name="Trazado 234637" d="M301.462,200.141A43.746,43.746,0,1,1,257.71,156.4a43.626,43.626,0,0,1,43.753,43.74" transform="translate(-139.913 -102.269)" fill="#43a99b"/>
            <path id="Trazado_234638" data-name="Trazado 234638" d="M318.951,298.881a43.749,43.749,0,0,1-73.55,12.767l32.862-28.873h27.272Z" transform="translate(-160.465 -184.903)" fill="#0b67d1"/>
            <path id="Trazado_234639" data-name="Trazado 234639" d="M384.1,200.141a43.5,43.5,0,0,1-7.59,24.621l-36.162-24.621V156.4a43.741,43.741,0,0,1,43.753,43.74" transform="translate(-222.548 -102.269)" fill="#eeac3a"/>
            <rect id="Rectángulo_63772" data-name="Rectángulo 63772" width="12.264" height="73.948" transform="translate(262.279 69.304)" fill="#8c5be1"/>
            <rect id="Rectángulo_63773" data-name="Rectángulo 63773" width="12.264" height="63.276" transform="translate(244.138 79.975)" fill="#43a99b"/>
            <rect id="Rectángulo_63774" data-name="Rectángulo 63774" width="12.264" height="52.605" transform="translate(225.997 90.646)" fill="#8c5be1"/>
            <rect id="Rectángulo_63775" data-name="Rectángulo 63775" width="12.264" height="44.279" transform="translate(207.855 98.973)" fill="#eeac3a"/>
            <rect id="Rectángulo_63776" data-name="Rectángulo 63776" width="12.264" height="31.263" transform="translate(189.714 111.989)" fill="#8c5be1"/>
            <rect id="Rectángulo_63777" data-name="Rectángulo 63777" width="12.264" height="20.591" transform="translate(171.573 122.66)" fill="#e8e8e8"/>
            <path id="Trazado_234640" data-name="Trazado 234640" d="M582.819,200.243h-87.1v1.067h87.1a.535.535,0,0,0,.534-.533.529.529,0,0,0-.534-.534" transform="translate(-324.145 -130.937)" fill="#9cb6c1"/>
            <path id="Trazado_234641" data-name="Trazado 234641" d="M566.15,231.609a.535.535,0,0,1-.534.534h-69.9v-1.067h69.9a.529.529,0,0,1,.534.534" transform="translate(-324.145 -151.097)" fill="#9cb6c1"/>
            <path id="Trazado_234642" data-name="Trazado 234642" d="M545.938,262.441a.542.542,0,0,1-.534.534H495.719v-1.067H545.4a.535.535,0,0,1,.534.534" transform="translate(-324.145 -171.258)" fill="#9cb6c1"/>
            <path id="Trazado_234643" data-name="Trazado 234643" d="M528.513,286.49a.529.529,0,0,1-.534.534H495.72v-1.067h32.259a.528.528,0,0,1,.534.534" transform="translate(-324.146 -186.983)" fill="#9cb6c1"/>
            <path id="Trazado_234644" data-name="Trazado 234644" d="M509.048,324.1a.535.535,0,0,1-.534.534H495.72v-1.067h12.795a.528.528,0,0,1,.534.534" transform="translate(-324.146 -211.579)" fill="#9cb6c1"/>
            <path id="Trazado_234645" data-name="Trazado 234645" d="M486.88,499.049H421.333L424.743,484l5.852-25.8.684-3.019h45.655l.684,3.019L483.47,484Z" transform="translate(-275.505 -297.636)" fill="#00307f"/>
            <g id="Grupo_182832" data-name="Grupo 182832" transform="translate(149.238 160.562)" style="mix-blend-mode: multiply;isolation: isolate">
              <g id="Grupo_182831" data-name="Grupo 182831">
                <g id="Grupo_182830" data-name="Grupo 182830" clip-path="url(#clip-path-3)">
                  <path id="Trazado_234646" data-name="Trazado 234646" d="M489.913,489.7H431.186l5.852-25.8h47.023Z" transform="translate(-431.186 -463.902)" fill="#00307f"/>
                </g>
              </g>
            </g>
            <path id="Trazado_234647" data-name="Trazado 234647" d="M356.442,337.121s3.628,3.817,5.938,2.807,1.768-4.993-4.174-5.873-1.764,3.066-1.764,3.066" transform="translate(-232.14 -218.351)" fill="#fa9c66"/>
            <path id="Trazado_234648" data-name="Trazado 234648" d="M309.833,281.2c-.04.151-.084.3-.129.444a7.5,7.5,0,0,1-2.455,3.646,4.176,4.176,0,0,1-.467.324l-.035-.022c-.626-.364-9.525-5.617-15.8-12.038a36.714,36.714,0,0,1-2.566-2.9,66.473,66.473,0,0,1-10.2-17.455l10.839-.018A54.487,54.487,0,0,0,293.2,262.6l0,0a.177.177,0,0,0,.023.04.311.311,0,0,1,.018.036c.155.28.311.551.471.821.022.04.044.08.071.124a56.008,56.008,0,0,0,16.052,17.57" transform="translate(-181.901 -165.551)" fill="#0c1646"/>
            <g id="Grupo_182835" data-name="Grupo 182835" transform="translate(108.862 97.051)" style="mix-blend-mode: multiply;isolation: isolate">
              <g id="Grupo_182834" data-name="Grupo 182834">
                <g id="Grupo_182833" data-name="Grupo 182833" clip-path="url(#clip-path-4)">
                  <path id="Trazado_234649" data-name="Trazado 234649" d="M330.513,303.39c-.626-.364-9.524-5.617-15.8-12.038l-.182-4.156,2.434-6.793,0,0a.165.165,0,0,0,.022.04.305.305,0,0,1,.018.036c.08.129.244.413.471.821.022.04.044.08.071.124a78.974,78.974,0,0,1,4.414,11.354c1.51,5.138,8,10.23,8.552,10.608" transform="translate(-314.528 -280.403)" fill="#0c1646"/>
                </g>
              </g>
            </g>
            <path id="Trazado_234650" data-name="Trazado 234650" d="M407.2,86.1a16.126,16.126,0,0,0-8.1-3.619,15.454,15.454,0,0,0-2.269-.164H197.137A16.107,16.107,0,0,0,181.054,98.4V211.862a16.065,16.065,0,0,0,16.083,16.091H396.83c.169,0,.337,0,.5-.009.493-.013.981-.053,1.461-.111a16.046,16.046,0,0,0,2.367-.471c.462-.129.914-.28,1.358-.449a14.625,14.625,0,0,0,1.723-.773q.453-.233.893-.493v0a15.712,15.712,0,0,0,2.438-1.812,16.069,16.069,0,0,0,4.587-7.078,14.515,14.515,0,0,0,.435-1.652,13.278,13.278,0,0,0,.222-1.412,15.593,15.593,0,0,0,.107-1.829V98.4A16.071,16.071,0,0,0,407.2,86.1M188.016,98.4a9.136,9.136,0,0,1,9.12-9.129H396.83a9.129,9.129,0,0,1,9.134,9.129V211.862a9.139,9.139,0,0,1-9.134,9.129H197.137a9.128,9.128,0,0,1-9.12-9.129Z" transform="translate(-118.389 -53.823)" fill="#003b90"/>
            <path id="Trazado_234651" data-name="Trazado 234651" d="M416.026,437.678v6.554a12.614,12.614,0,0,1-12.611,12.611H203.721a12.606,12.606,0,0,1-12.6-12.611v-6.554Z" transform="translate(-124.971 -286.193)" fill="#003b90"/>
            <path id="Trazado_234652" data-name="Trazado 234652" d="M474.117,584.41H387.529a1.8,1.8,0,1,1,0-3.607h86.589a1.8,1.8,0,1,1,0,3.607" transform="translate(-252.221 -379.78)" fill="#00307f"/>
            <path id="Trazado_234653" data-name="Trazado 234653" d="M302.389,564.024a6.762,6.762,0,0,0,4.473,3.78c3.161.634,4.441,2.05,4.581,4.112l-13.789.182s-.878-2.54-.1-7.729,4.837-.345,4.837-.345" transform="translate(-194.357 -367.466)" fill="#001330"/>
            <path id="Trazado_234654" data-name="Trazado 234654" d="M196.272,551.712a6.762,6.762,0,0,0,1.791,5.576c2.345,2.212,2.681,4.092,1.707,5.915l-11.791-7.15s.6-2.62,4.008-6.61,4.285,2.269,4.285,2.269" transform="translate(-122.917 -358.404)" fill="#001330"/>
            <path id="Trazado_234655" data-name="Trazado 234655" d="M281.371,414.393s-2.629,2.877-8.947,1.274l-3.1-32.223-.107-1.083-.675-7.029-1.341-5.59-.187-.777-6.479-26.975.475-.821,5.688-9.782.479-.83,9.307,5.107s.089.639.235,1.763c.062.466.133,1.008.218,1.62.151,1.141.328,2.527.529,4.09.7,5.488,1.638,13.13,2.327,19.9.67,6.6,1.105,12.366.857,14.493-.013.107.724,36.868.724,36.868" transform="translate(-170.36 -216.147)" fill="#4e1d4e"/>
            <path id="Trazado_234656" data-name="Trazado 234656" d="M233.761,343.065s-.337.906-.923,2.447v0c-.746,1.985-1.9,5.018-3.25,8.507-2.362,6.11-10.746,25.785-10.95,26.18-.164.319-3.566,6.918-7.349,14.262-4.9,9.515-10.444,20.288-10.444,20.288s-5.257,1.27-8.485-3.113l10.346-24.706.2-.466,2.846-6.8,2.26-5.4.089-.342,8.41-32.032.209-.79,5.493-3.384,5.768-3.552.066.107,2.837,4.365Z" transform="translate(-125.782 -218.505)" fill="#702a65"/>
            <path id="Trazado_234657" data-name="Trazado 234657" d="M278.423,281.841s-12.748,3.69-22.317-.813a17.742,17.742,0,0,1-2.216-1.23c-.466-.307-.919-.64-1.358-.995,0,0-.187-3.548-.222-8.69-.031-4.653.067-10.608.538-16.42.888-10.843,3.095-21.185,8.263-21.607h4.8s15.887,7.877,12.513,49.753" transform="translate(-164.979 -151.76)" fill="#0c1646"/>
            <g id="Grupo_182838" data-name="Grupo 182838" transform="translate(87.728 90.124)" style="mix-blend-mode: multiply;isolation: isolate">
              <g id="Grupo_182837" data-name="Grupo 182837">
                <g id="Grupo_182836" data-name="Grupo 182836" clip-path="url(#clip-path-5)">
                  <path id="Trazado_234658" data-name="Trazado 234658" d="M266.928,260.391s-2.98,6.905-1.245,13.719c1.511,5.934-1.5,11.7,5.139,20.683L253.467,274.11l7.639-13.719Z" transform="translate(-253.467 -260.391)" fill="#0c1646"/>
                </g>
              </g>
            </g>
            <g id="Grupo_182841" data-name="Grupo 182841" transform="translate(87.326 101.886)" style="mix-blend-mode: multiply;isolation: isolate">
              <g id="Grupo_182840" data-name="Grupo 182840">
                <g id="Grupo_182839" data-name="Grupo 182839" clip-path="url(#clip-path-6)">
                  <path id="Trazado_234659" data-name="Trazado 234659" d="M267.464,317.015l-1.687,3.339c-2.42-.528-6.9,1.47-9.671,1.4a17.783,17.783,0,0,1-2.215-1.23c-.467-.306-.919-.64-1.359-.995,0,0-.186-3.548-.222-8.689-.031-4.653.067-10.608.538-16.42l.058-.049Z" transform="translate(-252.304 -294.374)" fill="#0c1646"/>
                </g>
              </g>
            </g>
            <g id="Grupo_182844" data-name="Grupo 182844" transform="translate(96.652 126.989)" opacity="0.7" style="mix-blend-mode: multiply;isolation: isolate">
              <g id="Grupo_182843" data-name="Grupo 182843">
                <g id="Grupo_182842" data-name="Grupo 182842" clip-path="url(#clip-path-7)">
                  <path id="Trazado_234660" data-name="Trazado 234660" d="M292.03,386.8c-2.389,6.345-5.834,13.552-10.577,19.329l-.675-7.029-1.341-5.59-.187-.777c2.607-6.168,5.826-13.871,7.153-17.3,1.35-3.49,2.5-6.523,3.25-8.508v0l.049-.018c.7,5.488,1.638,13.13,2.327,19.9" transform="translate(-279.251 -366.901)" fill="#702a65"/>
                </g>
              </g>
            </g>
            <path id="Trazado_234661" data-name="Trazado 234661" d="M231.748,434.336a.692.692,0,0,1-.615-1.009c.09-.174,9.022-17.526,13.452-26.592,4.418-9.043,10.9-26.42,10.969-26.594a.692.692,0,1,1,1.3.483c-.065.175-6.575,17.615-11.023,26.719-4.436,9.08-13.376,26.444-13.465,26.619a.693.693,0,0,1-.616.375" transform="translate(-151.085 -248.275)" fill="#ba69a7"/>
            <path id="Trazado_234662" data-name="Trazado 234662" d="M312.287,443.23a.692.692,0,0,1-.692-.683c0-.2-.278-19.71-.632-29.795-.353-10.058-2.8-28.444-2.824-28.629a.692.692,0,0,1,1.372-.183c.025.185,2.48,18.638,2.836,28.764.354,10.1.63,29.627.632,29.824a.692.692,0,0,1-.683.7Z" transform="translate(-201.485 -250.662)" fill="#ba69a7"/>
            <path id="Trazado_234663" data-name="Trazado 234663" d="M289.556,374.716l6.137,6.121a2.706,2.706,0,0,0,3.824,0l13.352-13.386a2.706,2.706,0,0,0,0-3.824l-6.137-6.121a2.706,2.706,0,0,0-3.824,0l-13.352,13.386a2.706,2.706,0,0,0,0,3.824" transform="translate(-188.818 -233.25)" fill="#0b1c41"/>
            <path id="Trazado_234664" data-name="Trazado 234664" d="M294.258,369.9l1.289,1.286,1.254-1.258-1.289-1.285a.645.645,0,0,1-.183-.352.659.659,0,0,1,.181-.578l4.174-4.185a.659.659,0,0,1,.932,0l1.289,1.285,1.254-1.257-1.289-1.285a2.438,2.438,0,0,0-3.444.007l-4.174,4.184a2.437,2.437,0,0,0-.672,2.145,2.4,2.4,0,0,0,.677,1.3" transform="translate(-191.945 -236.417)" fill="#004990"/>
            <g id="Grupo_182847" data-name="Grupo 182847" transform="translate(112.831 123.462)" opacity="0.5" style="mix-blend-mode: multiply;isolation: isolate">
              <g id="Grupo_182846" data-name="Grupo 182846">
                <g id="Grupo_182845" data-name="Grupo 182845" clip-path="url(#clip-path-8)">
                  <path id="Trazado_234665" data-name="Trazado 234665" d="M335.961,368.7l1.254-1.257a2.706,2.706,0,0,0,0-3.824l-6.137-6.121a2.706,2.706,0,0,0-3.824,0l-1.254,1.258a2.706,2.706,0,0,1,3.824,0l6.137,6.121a2.706,2.706,0,0,1,0,3.824" transform="translate(-325.995 -356.712)" fill="#0a3778"/>
                </g>
              </g>
            </g>
            <path id="Trazado_234666" data-name="Trazado 234666" d="M289.121,233.61c.608-.292,1.438.17,1.853,1.034a1.548,1.548,0,0,1-.348,2.093c-.608.293-1.438-.17-1.853-1.034a1.548,1.548,0,0,1,.348-2.094" transform="translate(-188.673 -152.698)" fill="#8ed5ec"/>
            <path id="Trazado_234667" data-name="Trazado 234667" d="M294.951,360.027s6.134,3.438,3.685,5.95c-3.379,3.467-6.276-3.681-6.276-3.681Z" transform="translate(-191.171 -235.418)" fill="#fa9c66"/>
            <path id="Trazado_234668" data-name="Trazado 234668" d="M283.941,210.189l-.182,2.824-.32,4.884-.1,1.519c-2.864,1.4-6.518-1.177-6.518-1.177l1.155-6.825.035-.218,2.194-.373Z" transform="translate(-181.011 -137.44)" fill="#fa9c66"/>
            <path id="Trazado_234669" data-name="Trazado 234669" d="M262.122,245.928l-8.36,19.367,10.928,18.1a6.5,6.5,0,0,1-4.283,3.34s-15.077-16.635-16.066-20.071c-1.18-4.1,1.9-17.686,7.067-23.7Z" transform="translate(-159.609 -158.873)" fill="#0c1646"/>
            <path id="Trazado_234670" data-name="Trazado 234670" d="M508.968,455.506a7.934,7.934,0,1,1-7.935-7.935,7.935,7.935,0,0,1,7.935,7.935" transform="translate(-322.432 -292.662)" fill="#3485c8"/>
            <g id="Grupo_182850" data-name="Grupo 182850" transform="translate(96.94 72.514)" style="mix-blend-mode: multiply;isolation: isolate">
              <g id="Grupo_182849" data-name="Grupo 182849">
                <g id="Grupo_182848" data-name="Grupo 182848" clip-path="url(#clip-path-9)">
                  <path id="Trazado_234671" data-name="Trazado 234671" d="M285.89,212.569l-.32,4.884a8.2,8.2,0,0,1-5.461-6.483,1.5,1.5,0,0,1-.027-.169l.848-1.292,1.408.87Z" transform="translate(-280.082 -209.51)" fill="#fa9c66"/>
                </g>
              </g>
            </g>
            <path id="Trazado_234672" data-name="Trazado 234672" d="M287.585,194.237c-1.341,2.553-8.317,3.277-9.289-3.738-.026-.173-.044-.351-.062-.533a12.964,12.964,0,0,1-.022-2.264,8.55,8.55,0,0,1,.1-.879,6.31,6.31,0,0,1,3-4.742,4.622,4.622,0,0,1,1.417-.559l.1.03,5.293,1.665s.138,1.376.209,3.193c.107,2.664.076,6.274-.741,7.828" transform="translate(-181.894 -118.695)" fill="#fa9c66"/>
            <g id="Grupo_182853" data-name="Grupo 182853" transform="translate(95.812 62.857)" style="mix-blend-mode: multiply;isolation: isolate">
              <g id="Grupo_182852" data-name="Grupo 182852">
                <g id="Grupo_182851" data-name="Grupo 182851" clip-path="url(#clip-path-10)">
                  <path id="Trazado_234673" data-name="Trazado 234673" d="M287.445,186.468a3.508,3.508,0,0,1-3.5.475c-3.095-1.128-2.593.688-4.387.266a1.816,1.816,0,0,1,.732,1.692,2.169,2.169,0,0,1-.741,1.137c-.83.75-1.488-.72-1.949-2.469-.058-.227-.116-.458-.169-.688-.4-1.732-.6-3.486-.6-3.486l3.605-1.256,1.514-.529,5.293,1.665s.138,1.376.209,3.193" transform="translate(-276.824 -181.61)" fill="#fa9c66"/>
                </g>
              </g>
            </g>
            <path id="Trazado_234674" data-name="Trazado 234674" d="M265.27,176.565c.244,1.3,1.168,2.376,1.606,3.624a12.389,12.389,0,0,0,1.1,2.685,2.889,2.889,0,0,0,2.368,1.458,18.809,18.809,0,0,0,.843-7.213c1.3.828,3.092-.743,4.589-.357a5.355,5.355,0,0,0,3.622-.078,4.156,4.156,0,0,0,2.028-2.467c.523-1.55.8-3.927-.925-4.822a3.9,3.9,0,0,0-2-.358,10.235,10.235,0,0,0-3.952,1.2,8.335,8.335,0,0,1-3.729,1.271c-3.193-.068-6.166,1.766-5.547,5.061" transform="translate(-173.403 -110.526)" fill="#0b1f47"/>
            <path id="Trazado_234675" data-name="Trazado 234675" d="M276.47,199.908a1.8,1.8,0,1,0,1.816-1.786,1.8,1.8,0,0,0-1.816,1.786" transform="translate(-180.78 -129.55)" fill="#fa9c66"/>
            <path id="Trazado_234676" data-name="Trazado 234676" d="M292.394,240.183C297.6,254.592,297.6,272.9,297.6,272.9l3.057,3.452,2.2-3.746a54.139,54.139,0,0,0-9.663-32.877Z" transform="translate(-191.193 -156.759)" fill="#8ed5ec"/>
            <rect id="Rectángulo_63786" data-name="Rectángulo 63786" width="115.135" height="13.508" transform="translate(161.55 42.599)" fill="#43a99b"/>
            <path id="Trazado_234679" data-name="Trazado 234679" d="M281.862,294.33a.519.519,0,0,1-.445-.251L270.35,275.747l7.141-16.544a.519.519,0,1,1,.953.412l-6.929,16.054,10.79,17.874a.519.519,0,0,1-.176.713.514.514,0,0,1-.268.075" transform="translate(-176.779 -169.284)" fill="#435aa5"/>
            <path id="Trazado_234680" data-name="Trazado 234680" d="M340.353,304.5a.519.519,0,0,1-.279-.081c-8.18-5.218-13.781-15.1-14.015-15.516a.519.519,0,0,1,.906-.508c.056.1,5.712,10.074,13.668,15.148a.519.519,0,0,1-.28.957" transform="translate(-213.163 -188.404)" fill="#7483c0"/>
            <path id="Trazado_234681" data-name="Trazado 234681" d="M465.792,250.921l-2.171-1.545,19.858-27.913,15.19,5.4,30.365-29.428,8.108,5.961,29.121-24.8,1.727,2.028-30.727,26.17-7.993-5.876-29.936,29.011-14.853-5.276Z" transform="translate(-303.157 -116.778)" fill="#0c1646"/>
            <path id="Trazado_234682" data-name="Trazado 234682" d="M751.593,179.133l-1.015-5.746-5.284-2.475,11.447-2.247Z" transform="translate(-487.34 -110.288)" fill="#0c1646"/>
          </g>
        </g>
      </g>
    </g>
    <rect id="Rectángulo_63791" data-name="Rectángulo 63791" width="610" height="7" rx="3.5" transform="translate(495 591)" fill="#8c5be1"/>
    <g id="Grupo_182866" data-name="Grupo 182866" transform="translate(-1570.105 -2245)">
      <rect id="Rectángulo_63793" data-name="Rectángulo 63793" width="75.74" height="47.17" transform="matrix(0.951, 0.309, -0.309, 0.951, 2603.072, 2756.081)" fill="#cdd8e1"/>
      <rect id="Rectángulo_63794" data-name="Rectángulo 63794" width="25.429" height="25.429" transform="matrix(0.951, 0.309, -0.309, 0.951, 2605.711, 2767.278)" fill="#fff"/>
      <rect id="Rectángulo_63795" data-name="Rectángulo 63795" width="34.577" height="2.356" transform="matrix(0.951, 0.309, -0.309, 0.951, 2633.527, 2776.316)" fill="#fff"/>
      <rect id="Rectángulo_63796" data-name="Rectángulo 63796" width="34.577" height="2.356" transform="matrix(0.951, 0.309, -0.309, 0.951, 2631.134, 2783.681)" fill="#fff"/>
      <rect id="Rectángulo_63797" data-name="Rectángulo 63797" width="34.577" height="2.356" transform="matrix(0.951, 0.309, -0.309, 0.951, 2626.347, 2798.412)" fill="#fff"/>
      <rect id="Rectángulo_63798" data-name="Rectángulo 63798" width="34.577" height="2.356" transform="matrix(0.951, 0.309, -0.309, 0.951, 2628.741, 2791.047)" fill="#fff"/>
    </g>
    <g id="Grupo_182867" data-name="Grupo 182867" transform="translate(495 511.081)">
      <rect id="Rectángulo_63793-2" data-name="Rectángulo 63793" width="75.74" height="47.169" transform="matrix(-0.951, 0.309, -0.309, -0.951, 86.609, 44.861)" fill="#cdd8e1"/>
      <rect id="Rectángulo_63794-2" data-name="Rectángulo 63794" width="25.43" height="25.429" transform="matrix(-0.951, 0.309, -0.309, -0.951, 77.253, 35.381)" fill="#fff"/>
      <rect id="Rectángulo_63795-2" data-name="Rectángulo 63795" width="34.577" height="2.356" transform="matrix(-0.951, 0.309, -0.309, -0.951, 42.306, 22.476)" fill="#fff"/>
      <rect id="Rectángulo_63796-2" data-name="Rectángulo 63796" width="34.577" height="2.356" transform="matrix(-0.951, 0.309, -0.309, -0.951, 44.699, 29.841)" fill="#fff"/>
      <rect id="Rectángulo_63797-2" data-name="Rectángulo 63797" width="34.577" height="2.356" transform="matrix(-0.951, 0.309, -0.309, -0.951, 49.486, 44.572)" fill="#fff"/>
      <rect id="Rectángulo_63798-2" data-name="Rectángulo 63798" width="34.577" height="2.356" transform="matrix(-0.951, 0.309, -0.309, -0.951, 47.092, 37.206)" fill="#fff"/>
    </g>
    <path id="Trazado_234683" data-name="Trazado 234683" d="M6585.748-10261.1l17.654-26.585,18.9,39.878,15.993-60.232,18.07,29.908,17.239,37.594,17.654-25.132,19.489,16.824" transform="translate(-5640.748 10731.22)" fill="none" stroke="#43a99b" stroke-width="2"/>
    <circle id="Elipse_6319" data-name="Elipse 6319" cx="4" cy="4" r="4" transform="translate(977 479)" fill="#43a99b"/>
    <circle id="Elipse_6320" data-name="Elipse 6320" cx="4" cy="4" r="4" transform="translate(1028 487)" fill="#43a99b"/>
    <circle id="Elipse_6321" data-name="Elipse 6321" cx="4" cy="4" r="4" transform="translate(1047 463)" fill="#43a99b"/>
    <circle id="Elipse_6322" data-name="Elipse 6322" cx="4" cy="4" r="4" transform="translate(994 419)" fill="#43a99b"/>
    <circle id="Elipse_6323" data-name="Elipse 6323" cx="4" cy="4" r="4" transform="translate(940 467)" fill="#43a99b"/>
  </g>
</svg>
