<svg xmlns="http://www.w3.org/2000/svg" xmlns:xlink="http://www.w3.org/1999/xlink" width="49" height="50" viewBox="0 0 49 50">
  <defs>
    <clipPath id="clip-path">
      <rect id="Rectángulo_62492" data-name="Rectángulo 62492" width="49" height="50" transform="translate(776 1727)" fill="#eeac3a"/>
    </clipPath>
  </defs>
  <g id="Grupo_184428" data-name="Grupo 184428" transform="translate(-776 -1889)">
    <g id="Enmascarar_grupo_76" data-name="Enmascarar grupo 76" transform="translate(0 162)" clip-path="url(#clip-path)">
      <g id="apoyo-tecnico_1_" data-name="apoyo-tecnico (1)" transform="translate(780.195 1725.67)">
        <g id="Grupo_180993" data-name="Grupo 180993" transform="translate(4 2.804)">
          <g id="Grupo_180992" data-name="Grupo 180992">
            <g id="Grupo_180987" data-name="Grupo 180987" transform="translate(0 20.05)">
              <g id="Grupo_180986" data-name="Grupo 180986">
                <g id="Grupo_180985" data-name="Grupo 180985">
                  <g id="Grupo_180984" data-name="Grupo 180984">
                    <path id="Trazado_232071" data-name="Trazado 232071" d="M25.377,30.436a2.239,2.239,0,0,1-1.816-2.2V22.089H15v6.148a2.243,2.243,0,0,1-1.815,2.2L15.3,33.274h7.961A27.9,27.9,0,0,0,25.377,30.436Z" transform="translate(0.523 -22.089)" fill="#ffddce"/>
                    <path id="Trazado_232072" data-name="Trazado 232072" d="M38.972,47.2V43.542A13.221,13.221,0,0,0,28.249,30.559c-.609-.117-16.935,0-16.935,0A13.221,13.221,0,0,0,.592,43.542V47.2Z" transform="translate(0.023 -21.756)" fill="#43a99b"/>
                    <path id="Trazado_232075" data-name="Trazado 232075" d="M33.134,47.442V46.18l-.269-.391H1.653a1.653,1.653,0,1,0,0,3.306H31.482a1.653,1.653,0,0,0,1.652-1.653Z" transform="translate(0 -21.15)" fill="#9bc4f9"/>
                    <path id="Trazado_232076" data-name="Trazado 232076" d="M36.767,45.789H31.675v1.653A1.653,1.653,0,0,1,30.022,49.1h6.745a1.653,1.653,0,0,0,0-3.306Z" transform="translate(1.19 -21.15)" fill="#7fb2f9"/>
                  </g>
                </g>
              </g>
            </g>
            <g id="Grupo_180991" data-name="Grupo 180991" transform="translate(9.421)">
              <g id="Grupo_180990" data-name="Grupo 180990">
                <g id="Grupo_180989" data-name="Grupo 180989">
                  <g id="Grupo_180988" data-name="Grupo 180988">
                    <path id="Trazado_232078" data-name="Trazado 232078" d="M20.6,25.524a8.124,8.124,0,0,0,2.682-5.98L23.253,8.527a8.274,8.274,0,0,0-.926-3.814,8.815,8.815,0,0,0-3.01-.552,8.3,8.3,0,0,0-8.353,8.276l.007,1.625.025,5.456a7.94,7.94,0,0,0,2.67,5.823,8.891,8.891,0,0,0,3.883,1.992A9.275,9.275,0,0,0,20.6,25.524Z" transform="translate(-8.987 -2.75)" fill="#ffddce"/>
                    <path id="Trazado_232079" data-name="Trazado 232079" d="M27.508,12.35a8.151,8.151,0,0,0-5.82-7.79A8.054,8.054,0,0,1,22.8,8.66l.027,10.77a7.941,7.941,0,0,1-2.621,5.845,8.975,8.975,0,0,1-3.413,1.906,8.431,8.431,0,0,0,8.121-1.906,7.941,7.941,0,0,0,2.621-5.845Z" transform="translate(-8.756 -2.735)" fill="#ffcbbe"/>
                    <path id="Trazado_232080" data-name="Trazado 232080" d="M19.155,9.683h.582A7.5,7.5,0,0,0,22.06,9.3a4.253,4.253,0,0,1,1.27-.2V8.581a8.243,8.243,0,0,0-1.137-4.195h0a8.211,8.211,0,0,0-1-1.356L20.517,2.8H15.622a6.56,6.56,0,0,0-6.56,6.56V13.7a1.5,1.5,0,0,0,1,1.413l1.616.563a.868.868,0,0,0,1.154-.821l0-3.057a2.676,2.676,0,0,1,2.648-2.7h.032a4.254,4.254,0,0,1,1.319.2,7.5,7.5,0,0,0,2.323.385Z" transform="translate(-9.062 -2.804)" fill="#756e78"/>
                    <path id="Trazado_232081" data-name="Trazado 232081" d="M26.835,6.226h-.086a.864.864,0,0,1-.864-.864A2.558,2.558,0,0,0,23.327,2.8H20.08a8,8,0,0,1,2.589,5.925V9.1c.09-.005.181-.009.272-.008h.032a2.676,2.676,0,0,1,2.648,2.7l0,3.057a.868.868,0,0,0,1.154.821l1.615-.563a1.5,1.5,0,0,0,1-1.413V8.784a2.558,2.558,0,0,0-2.558-2.558Z" transform="translate(-8.625 -2.804)" fill="#665e66"/>
                  </g>
                </g>
              </g>
            </g>
          </g>
        </g>
      </g>
    </g>
    <g id="bienes" transform="translate(774.291 1908.334)">
      <path id="Trazado_232085" data-name="Trazado 232085" d="M264.58,20.3v7.784a.3.3,0,0,1-.3.3H255.3a.3.3,0,0,1-.3-.3V20.3a.3.3,0,0,1,.3-.3h8.981A.3.3,0,0,1,264.58,20.3Z" transform="translate(-239.071 -18.047)" fill="#d29650"/>
      <path id="Trazado_232086" data-name="Trazado 232086" d="M209.969,156.736,195,158.981V150h14.969Z" transform="translate(-182.663 -140.263)" fill="#b07f5b"/>
      <path id="Trazado_232087" data-name="Trazado 232087" d="M257.694,41.2H255V40h2.694a.3.3,0,0,1,.3.3v.6A.3.3,0,0,1,257.694,41.2Z" transform="translate(-239.071 -36.849)" fill="#f7d139"/>
      <path id="Trazado_232089" data-name="Trazado 232089" d="M200.688,183.592H195V180h5.688a.3.3,0,0,1,.3.3v2.994A.3.3,0,0,1,200.688,183.592Z" transform="translate(-182.663 -168.467)" fill="#f63"/>
      <path id="Trazado_232090" data-name="Trazado 232090" d="M52.662,39.9H31.455l-.485-1.941a.6.6,0,0,0-.633-.451l-.056,0H25.587a.6.6,0,0,0,0,1.2h4.335l.481,1.924,2.356,12.426-1.141,3.423a.6.6,0,1,0,1.136.379l1.058-3.173,18.927-2.41a.6.6,0,0,0,.523-.594V47.087h0V40.494A.6.6,0,0,0,52.662,39.9Zm-20.952,1.2h4.726l.3,2.86-4.46.131Zm.793,4.182,4.359-.128.288,2.734-4.083.369Zm1.363,7.188-.575-3.031,3.985-.36.3,2.861c0,.019,0,.038.009.056Zm3.774-11.37h4.724c0,.012,0,.023,0,.035l.156,2.654-4.584.135Zm.423,4.019,4.528-.133.141,2.4-4.389.4Zm.707,6.727c0-.01,0-.02,0-.031l-.3-2.844,4.334-.392.161,2.732Zm4.793-10.745h4.19v2.536l-4.034.119Zm.227,3.85,3.964-.117v2.1l-3.827.346Zm.365,6.21L44,48.464l3.757-.339v2.548c0,.007,0,.014,0,.021Zm7.909-1.007-3.113.4V48.017l3.113-.281Zm0-3.612-3.113.281V44.791l3.113-.092Zm0-3.032-3.113.092v-2.5h3.113Z" transform="translate(-22.842 -34.499)" fill="#cbcbcb"/>
      <path id="Trazado_232091" data-name="Trazado 232091" d="M43.1,48.861v1.2a.3.3,0,0,1-.3.3H24.835a.3.3,0,0,1-.3-.3v-1.2a.3.3,0,0,1,.3-.3H42.8A.3.3,0,0,1,43.1,48.861ZM21.167,30H18.623A1.123,1.123,0,0,0,17.5,31.123h0a1.123,1.123,0,0,0,1.123,1.123h2.545a1.123,1.123,0,0,0,1.123-1.123h0A1.123,1.123,0,0,0,21.167,30Z" transform="translate(-15.791 -27.448)" fill="#8c5be1"/>
      <path id="Trazado_232092" data-name="Trazado 232092" d="M198.172,337.8v4.191a.3.3,0,0,1-.3.3h-1.2a.3.3,0,0,1-.3-.3V337.8a.3.3,0,0,1,.3-.3h1.2A.3.3,0,0,1,198.172,337.8Zm-11.676-.3h-1.2a.3.3,0,0,0-.3.3v4.191a.3.3,0,0,0,.3.3h1.2a.3.3,0,0,0,.3-.3V337.8A.3.3,0,0,0,186.5,337.5Z" transform="translate(-173.262 -316.537)" fill="#5d31a9"/>
      <path id="Trazado_232093" data-name="Trazado 232093" d="M180.567,389.6a2.1,2.1,0,1,1-2.1-2.1A2.1,2.1,0,0,1,180.567,389.6ZM167.1,387.5a2.1,2.1,0,1,0,2.1,2.1A2.1,2.1,0,0,0,167.1,387.5Z" transform="translate(-154.46 -363.543)" fill="#501e0f"/>
      <path id="Trazado_232094" data-name="Trazado 232094" d="M193.771,403.7a1.2,1.2,0,1,1-1.2-1.2A1.2,1.2,0,0,1,193.771,403.7ZM181.2,402.5a1.2,1.2,0,1,0,1.2,1.2A1.2,1.2,0,0,0,181.2,402.5Z" transform="translate(-168.561 -377.645)" fill="#b9783d"/>
    </g>
  </g>
</svg>
