<svg xmlns="http://www.w3.org/2000/svg" xmlns:xlink="http://www.w3.org/1999/xlink" width="85" height="85" viewBox="0 0 85 85">
  <defs>
    <clipPath id="clip-path">
      <circle id="Elipse_6332" data-name="Elipse 6332" cx="42.5" cy="42.5" r="42.5" transform="translate(810 2487)" fill="#967dc0"/>
    </clipPath>
  </defs>
  <g id="Grupo_184177" data-name="Grupo 184177" transform="translate(-810 -2475)">
    <circle id="Elipse_6329" data-name="Elipse 6329" cx="42.5" cy="42.5" r="42.5" transform="translate(810 2475)" fill="#967dc0"/>
    <g id="Enmascarar_grupo_100" data-name="Enmascarar grupo 100" transform="translate(0 -12)" clip-path="url(#clip-path)">
      <g id="nina" transform="translate(742.708 2499.383)">
        <path id="Trazado_236380" data-name="Trazado 236380" d="M116.314,295.83l-12.358-4.362a4.786,4.786,0,0,1-3.193-4.513v-6.181H86.4v6.181a4.786,4.786,0,0,1-3.193,4.513L70.854,295.83a7.179,7.179,0,0,0-4.79,6.77v8.088a3.59,3.59,0,0,0,3.59,3.589h47.861a3.59,3.59,0,0,0,3.59-3.589V302.6A7.179,7.179,0,0,0,116.314,295.83Z" transform="translate(0 -240.093)" fill="#e3aa75"/>
        <path id="Trazado_236381" data-name="Trazado 236381" d="M116.315,364.088l-9.887-3.49-1.066,2.665c-2.068,5.171-6.683,8.5-11.776,8.5h0c-5.093,0-9.707-3.332-11.776-8.5L80.742,360.6l-9.887,3.49a7.179,7.179,0,0,0-4.79,6.77v8.088a3.59,3.59,0,0,0,3.59,3.59h47.861a3.59,3.59,0,0,0,3.589-3.59v-8.088A7.179,7.179,0,0,0,116.315,364.088Z" transform="translate(-0.001 -308.351)" fill="#ffd164"/>
        <path id="Trazado_236382" data-name="Trazado 236382" d="M213.63,285.559a17.712,17.712,0,0,0,7.179-1.531v-3.255H206.451v3.255A17.713,17.713,0,0,0,213.63,285.559Z" transform="translate(-120.046 -240.092)" fill="#d29b6e"/>
        <path id="Trazado_236383" data-name="Trazado 236383" d="M159.168,87.485h-.6V74.323H127.461V87.485h-.6a2.991,2.991,0,1,0,0,5.983h.8a15.534,15.534,0,0,0,30.7,0h.8a2.991,2.991,0,0,0,0-5.983Z" transform="translate(-49.431 -63.554)" fill="#f5b97d"/>
        <rect id="Rectángulo_64534" data-name="Rectángulo 64534" width="10.768" height="2.393" transform="translate(95.977 22.733)" fill="#e3aa75"/>
        <path id="Trazado_236384" data-name="Trazado 236384" d="M233.519,161.619a1.2,1.2,0,0,1-1.174-.976,2.012,2.012,0,0,0-3.94,0,1.2,1.2,0,1,1-2.351-.442,4.4,4.4,0,0,1,8.642,0,1.2,1.2,0,0,1-.955,1.4A1.211,1.211,0,0,1,233.519,161.619Z" transform="translate(-136.79 -133.95)" fill="#ffe1a0"/>
        <path id="Trazado_236385" data-name="Trazado 236385" d="M153.439,74.323H127.461V87.485h-.428a3.109,3.109,0,0,0-3.146,2.682,2.992,2.992,0,0,0,2.976,3.3h.8a15.454,15.454,0,0,0,17.763,12.962,15.558,15.558,0,0,1-12.816-12.023,2.369,2.369,0,0,1,1.139-2.547,75.651,75.651,0,0,0,16.114-12.3A18.19,18.19,0,0,0,153.439,74.323Z" transform="translate(-49.431 -63.554)" fill="#e3aa75"/>
        <path id="Trazado_236386" data-name="Trazado 236386" d="M227.753,226.557a6.4,6.4,0,0,1-4.43-1.541,1.2,1.2,0,0,1,1.68-1.7,4.863,4.863,0,0,0,5.5,0,1.2,1.2,0,1,1,1.68,1.7A6.4,6.4,0,0,1,227.753,226.557Z" transform="translate(-134.169 -190.662)" fill="#b67f5f"/>
        <g id="Grupo_183937" data-name="Grupo 183937" transform="translate(85.208 23.93)">
          <path id="Trazado_236387" data-name="Trazado 236387" d="M199.391,168.75a1.2,1.2,0,0,1-1.2-1.2v-1.2a1.2,1.2,0,1,1,2.393,0v1.2A1.2,1.2,0,0,1,199.391,168.75Z" transform="translate(-198.194 -165.161)" fill="#5a4650"/>
          <path id="Trazado_236388" data-name="Trazado 236388" d="M298.486,168.75a1.2,1.2,0,0,1-1.2-1.2v-1.2a1.2,1.2,0,1,1,2.393,0v1.2A1.2,1.2,0,0,1,298.486,168.75Z" transform="translate(-282.932 -165.161)" fill="#5a4650"/>
        </g>
        <path id="Trazado_236389" data-name="Trazado 236389" d="M157.666,147.046l-.756-5.293a1.2,1.2,0,0,1,1.185-1.366h10.769a1.2,1.2,0,0,1,1.185,1.366l-.61,4.266a6.012,6.012,0,0,1-5.922,5.137H162.4A4.81,4.81,0,0,1,157.666,147.046Zm1.809-4.266.561,3.927a2.4,2.4,0,0,0,2.369,2.055h1.112a3.605,3.605,0,0,0,3.552-3.082l.415-2.9Z" transform="translate(-77.673 -120.046)" fill="#fff"/>
        <path id="Trazado_236390" data-name="Trazado 236390" d="M292.622,16.516h-3.589v9.572c5.733,12.613,13.162,12.566,13.162,12.566V26.088A9.572,9.572,0,0,0,292.622,16.516Z" transform="translate(-190.662 -14.123)" fill="#a06e50"/>
        <path id="Trazado_236391" data-name="Trazado 236391" d="M145.77,2.572A6.483,6.483,0,0,0,142.55.323,7.176,7.176,0,0,0,140.415,0h-2.393c-9.852,0-19.393,8.376-19.393,19.144a70.281,70.281,0,0,1-.584,9.9,1.122,1.122,0,0,0,1.553,1.2,76.3,76.3,0,0,0,23.568-15.915A15.919,15.919,0,0,0,146.5,9.3,6.772,6.772,0,0,0,145.77,2.572Z" transform="translate(-44.438)" fill="#8c5f4b"/>
        <g id="Grupo_183938" data-name="Grupo 183938" transform="translate(67.079 57.036)">
          <path id="Trazado_236392" data-name="Trazado 236392" d="M375.225,400.889l6.142-5.406a7.17,7.17,0,0,0-1.544-1.831l-6.18,5.439a5.979,5.979,0,0,0-2.031,4.492V410.8h2.393v-7.216A3.586,3.586,0,0,1,375.225,400.889Z" transform="translate(-328.357 -393.652)" fill="#ffe17d"/>
          <path id="Trazado_236393" data-name="Trazado 236393" d="M79.209,400.889l-6.142-5.406a7.169,7.169,0,0,1,1.544-1.831l6.18,5.439a5.979,5.979,0,0,1,2.031,4.492V410.8H80.428v-7.216A3.586,3.586,0,0,0,79.209,400.889Z" transform="translate(-73.067 -393.652)" fill="#ffe17d"/>
        </g>
        <path id="Trazado_236394" data-name="Trazado 236394" d="M271.911,151.155H270.8a6.012,6.012,0,0,1-5.922-5.137l-.61-4.266a1.2,1.2,0,0,1,1.185-1.366H276.22a1.2,1.2,0,0,1,1.185,1.366l-.756,5.293A4.81,4.81,0,0,1,271.911,151.155Zm-5.079-8.376.415,2.9a3.605,3.605,0,0,0,3.552,3.082h1.112a2.4,2.4,0,0,0,2.369-2.055l.561-3.927Z" transform="translate(-169.475 -120.045)" fill="#fff"/>
      </g>
    </g>
    <g id="facebook_1_" data-name="facebook(1)" transform="translate(810.921 2497.645)">
      <g id="Grupo_184152" data-name="Grupo 184152" transform="translate(66.783 28.85)">
        <g id="Grupo_184146" data-name="Grupo 184146" transform="translate(11.778 6.672)">
          <path id="Trazado_237129" data-name="Trazado 237129" d="M408.68,384.467l3.807-.686a1.453,1.453,0,0,0,1.172-1.688v0a1.453,1.453,0,0,0-1.688-1.172l-3.807.686Z" transform="translate(-408.164 -380.894)" fill="#ffd064"/>
        </g>
        <g id="Grupo_184147" data-name="Grupo 184147" transform="translate(1.645)">
          <path id="Trazado_237130" data-name="Trazado 237130" d="M313.432,325.387l-.911-1.578a6.809,6.809,0,0,1-.912-3.4V314.44a5.091,5.091,0,1,0-10.182,0V320.4a6.81,6.81,0,0,1-.912,3.4l-.911,1.578a.653.653,0,0,0,.566.98h2.682a1.561,1.561,0,0,1,1.257.655,2.98,2.98,0,0,0,4.819,0,1.56,1.56,0,0,1,1.257-.655h2.682a.653.653,0,0,0,.566-.98Z" transform="translate(-299.515 -309.349)" fill="#ffe07d"/>
        </g>
        <g id="Grupo_184149" data-name="Grupo 184149" transform="translate(7.47)">
          <g id="Grupo_184148" data-name="Grupo 184148">
            <path id="Trazado_237131" data-name="Trazado 237131" d="M370.067,325.387l-.911-1.578a6.809,6.809,0,0,1-.912-3.4V314.44a5.09,5.09,0,0,0-6.269-4.952,5.092,5.092,0,0,1,3.913,4.952V320.4a6.81,6.81,0,0,0,.912,3.4l.911,1.578a.653.653,0,0,1-.566.98H369.5A.653.653,0,0,0,370.067,325.387Z" transform="translate(-361.974 -309.349)" fill="#ffd064"/>
          </g>
        </g>
        <g id="Grupo_184150" data-name="Grupo 184150" transform="translate(11.778 6.672)">
          <path id="Trazado_237132" data-name="Trazado 237132" d="M408.68,384.467l3.807-.686a1.453,1.453,0,0,0,1.172-1.688v0a1.453,1.453,0,0,0-1.688-1.172l-3.807.686Z" transform="translate(-408.164 -380.894)" fill="#ffd064"/>
        </g>
        <g id="Grupo_184151" data-name="Grupo 184151" transform="translate(0 6.672)">
          <path id="Trazado_237133" data-name="Trazado 237133" d="M286.876,384.467l-3.807-.686a1.453,1.453,0,0,1-1.172-1.688v0a1.453,1.453,0,0,1,1.688-1.172l3.807.686Z" transform="translate(-281.873 -380.894)" fill="#ffe07d"/>
        </g>
      </g>
      <g id="Grupo_184158" data-name="Grupo 184158" transform="translate(51.812 0)">
        <g id="Grupo_184153" data-name="Grupo 184153" transform="translate(0 0)">
          <path id="Trazado_237134" data-name="Trazado 237134" d="M130.453,4.409h1.083a.28.28,0,0,0,.28-.28V.28a.28.28,0,0,0-.28-.28h-1.083A6.749,6.749,0,0,0,123.7,6.749v.982a.187.187,0,0,1-.187.187h-1.886a.28.28,0,0,0-.28.28v3.849a.28.28,0,0,0,.28.28h1.886a.187.187,0,0,1,.187.187V20.1a.28.28,0,0,0,.28.28h3.849a.28.28,0,0,0,.28-.28V12.514a.187.187,0,0,1,.187-.187h1.886a.28.28,0,0,0,.28-.28V8.2a.28.28,0,0,0-.28-.28H128.3a.187.187,0,0,1-.187-.187V6.749A2.34,2.34,0,0,1,130.453,4.409Z" transform="translate(-121.351 0)" fill="#f2f4ff"/>
        </g>
        <g id="Grupo_184157" data-name="Grupo 184157" transform="translate(5.117 0)">
          <g id="Grupo_184154" data-name="Grupo 184154" transform="translate(0 12.327)">
            <path id="Trazado_237135" data-name="Trazado 237135" d="M176.5,132.369v7.589a.28.28,0,0,1-.28.28h1.365a.28.28,0,0,0,.28-.28v-7.589a.187.187,0,0,1,.187-.187h-1.365A.187.187,0,0,0,176.5,132.369Z" transform="translate(-176.215 -132.182)" fill="#c3cbff"/>
          </g>
          <g id="Grupo_184155" data-name="Grupo 184155" transform="translate(2.353 7.918)">
            <path id="Trazado_237136" data-name="Trazado 237136" d="M202.808,84.905h-1.365a.28.28,0,0,1,.28.28v3.849a.28.28,0,0,1-.28.28h1.365a.28.28,0,0,0,.28-.28V85.185a.28.28,0,0,0-.28-.28Z" transform="translate(-201.443 -84.905)" fill="#c3cbff"/>
          </g>
          <g id="Grupo_184156" data-name="Grupo 184156" transform="translate(0.28)">
            <path id="Trazado_237137" data-name="Trazado 237137" d="M184.007,0h-1.083c-.076,0-.15,0-.225.006a.28.28,0,0,1,.224.274V4.129a.28.28,0,0,1-.28.28h-1.083a2.34,2.34,0,0,0-2.34,2.34v.982a.187.187,0,0,0,.187.187h1.365a.187.187,0,0,1-.187-.187V6.749a2.34,2.34,0,0,1,2.34-2.34h1.083a.28.28,0,0,0,.28-.28V.28a.28.28,0,0,0-.28-.28Z" transform="translate(-179.218 0)" fill="#c3cbff"/>
          </g>
        </g>
      </g>
      <g id="Grupo_184163" data-name="Grupo 184163" transform="translate(64.507 7.885)">
        <g id="Grupo_184159" data-name="Grupo 184159" transform="translate(0)">
          <path id="Trazado_237138" data-name="Trazado 237138" d="M271.361,101.645H260.688a3.213,3.213,0,0,1-3.213-3.213V87.759a3.213,3.213,0,0,1,3.213-3.213h10.673a3.213,3.213,0,0,1,3.213,3.213V98.432A3.213,3.213,0,0,1,271.361,101.645Z" transform="translate(-257.475 -84.546)" fill="#eaaadd"/>
        </g>
        <g id="Grupo_184160" data-name="Grupo 184160" transform="translate(0.189 0.189)">
          <path id="Trazado_237139" data-name="Trazado 237139" d="M274.281,86.572a3.209,3.209,0,0,1,.189,1.087V98.326a3.216,3.216,0,0,1-3.216,3.216H260.586a3.21,3.21,0,0,1-1.087-.189,3.217,3.217,0,0,0,3.027,2.129h10.667a3.216,3.216,0,0,0,3.216-3.216V89.6A3.216,3.216,0,0,0,274.281,86.572Z" transform="translate(-259.499 -86.572)" fill="#e490d0"/>
        </g>
        <g id="Grupo_184161" data-name="Grupo 184161" transform="translate(4.452 4.452)">
          <path id="Trazado_237140" data-name="Trazado 237140" d="M309.313,140.483a4.1,4.1,0,1,1,4.1-4.1A4.1,4.1,0,0,1,309.313,140.483Zm0-6.794a2.7,2.7,0,1,0,2.7,2.7A2.7,2.7,0,0,0,309.313,133.688Z" transform="translate(-305.216 -132.288)" fill="#ecf4ff"/>
        </g>
        <g id="Grupo_184162" data-name="Grupo 184162" transform="translate(12.365 2.756)">
          <circle id="Elipse_6341" data-name="Elipse 6341" cx="0.989" cy="0.989" r="0.989" fill="#ecf4ff"/>
        </g>
      </g>
      <g id="Grupo_184164" data-name="Grupo 184164" transform="translate(44.66 23.775)">
        <path id="Trazado_237141" data-name="Trazado 237141" d="M62,265.526a8.355,8.355,0,0,1-.9-.049.139.139,0,0,1-.084-.235l0,0a8.387,8.387,0,0,0,1.436-9.685.28.28,0,0,0-.485-.026,8.384,8.384,0,0,1-6.03,3.813.094.094,0,0,1-.1-.089,4.563,4.563,0,0,0-8.6-1.868.187.187,0,0,1-.166.1H44.888a.187.187,0,0,0-.167.27,3.165,3.165,0,0,0,.985,1.153.093.093,0,0,1-.015.16l-.923.429a.187.187,0,0,0-.037.316,3.132,3.132,0,0,0,1.952.681.186.186,0,0,1,.179.143,4.572,4.572,0,0,0,2.455,2.979.283.283,0,0,1,.152.182A8.387,8.387,0,0,0,65,265.49a.28.28,0,0,0-.34-.395A8.365,8.365,0,0,1,62,265.526Z" transform="translate(-44.66 -254.934)" fill="#b1e4f9"/>
      </g>
      <g id="Grupo_184166" data-name="Grupo 184166" transform="translate(54.099 33.919)">
        <g id="Grupo_184165" data-name="Grupo 184165" transform="translate(0)">
          <path id="Trazado_237142" data-name="Trazado 237142" d="M153.937,364.152a8.377,8.377,0,0,1-7.012,3.787,8.47,8.47,0,0,1-1.054-.066,8.391,8.391,0,0,0,10.9-3.754.28.28,0,0,0-.334-.4,8.37,8.37,0,0,1-2.5.431Z" transform="translate(-145.871 -363.706)" fill="#90d8f9"/>
        </g>
      </g>
    </g>
  </g>
</svg>
