<svg id="Grupo_181822" data-name="Grupo 181822" xmlns="http://www.w3.org/2000/svg" width="81.394" height="24.117" viewBox="0 0 81.394 24.117">
  <path id="Polígono_4" data-name="Polígono 4" d="M5.527,0l5.527,7.034H0Z" transform="translate(7.034 0) rotate(90)" fill="#eeac3a"/>
  <path id="Polígono_13" data-name="Polígono 13" d="M5.527,0l5.527,7.034H0Z" transform="translate(18.088 0) rotate(90)" fill="#eeac3a"/>
  <path id="Polígono_18" data-name="Polígono 18" d="M5.527,0l5.527,8.039H0Z" transform="translate(32.156 0) rotate(90)" fill="#eeac3a"/>
  <path id="Polígono_5" data-name="Polígono 5" d="M5.527,0l5.527,7.034H0Z" transform="translate(7.034 13.063) rotate(90)" fill="#eeac3a"/>
  <path id="Polígono_12" data-name="Polígono 12" d="M5.527,0l5.527,7.034H0Z" transform="translate(18.088 13.063) rotate(90)" fill="#eeac3a"/>
  <path id="Polígono_17" data-name="Polígono 17" d="M5.527,0l5.527,8.039H0Z" transform="translate(32.156 13.063) rotate(90)" fill="#eeac3a"/>
  <path id="Polígono_4-2" data-name="Polígono 4" d="M5.527,0l5.527,7.034H0Z" transform="translate(43.209 0) rotate(90)" fill="#eeac3a"/>
  <path id="Polígono_13-2" data-name="Polígono 13" d="M5.527,0l5.527,7.034H0Z" transform="translate(56.272 0) rotate(90)" fill="#eeac3a"/>
  <path id="Polígono_18-2" data-name="Polígono 18" d="M5.527,0l5.527,8.039H0Z" transform="translate(68.331 0) rotate(90)" fill="#eeac3a"/>
  <path id="Polígono_26" data-name="Polígono 26" d="M5.527,0l5.527,8.039H0Z" transform="translate(81.394 0) rotate(90)" fill="#eeac3a"/>
  <path id="Polígono_5-2" data-name="Polígono 5" d="M5.527,0l5.527,7.034H0Z" transform="translate(43.209 13.063) rotate(90)" fill="#eeac3a"/>
  <path id="Polígono_12-2" data-name="Polígono 12" d="M5.527,0l5.527,7.034H0Z" transform="translate(56.272 13.063) rotate(90)" fill="#eeac3a"/>
  <path id="Polígono_17-2" data-name="Polígono 17" d="M5.527,0l5.527,8.039H0Z" transform="translate(68.331 13.063) rotate(90)" fill="#eeac3a"/>
  <path id="Polígono_27" data-name="Polígono 27" d="M5.527,0l5.527,8.039H0Z" transform="translate(81.394 13.063) rotate(90)" fill="#eeac3a"/>
</svg>
