<svg xmlns="http://www.w3.org/2000/svg" width="154.667" height="113.265" viewBox="0 0 154.667 113.265">
  <g id="Grupo_184192" data-name="Grupo 184192" transform="translate(11518.507 12264.307)">
    <g id="Grupo_184187" data-name="Grupo 184187" transform="translate(-12728.507 -12529.933)">
      <g id="Grupo_177193" data-name="Grupo 177193" transform="translate(1210 265.627)">
        <g id="Grupo_177075" data-name="Grupo 177075">
          <g id="Grupo_172887" data-name="Grupo 172887">
            <g id="Grupo_172852" data-name="Grupo 172852">
              <g id="Grupo_156170" data-name="Grupo 156170">
                <g id="Grupo_156148" data-name="Grupo 156148">
                  <path id="Trazado_196507" data-name="Trazado 196507" d="M176.541,380.094c0-28.831.336-53.938,0-81.005-40.4,0-81,1.174-121.695.746-.389,27.586,0,53.534,0,80.356Q115.861,380.19,176.541,380.094Z" transform="translate(-53.888 -298.303)" fill="#fff"/>
                  <path id="Trazado_196508" data-name="Trazado 196508" d="M55.109,381.238a.786.786,0,0,1-.785-.784c0-8.942-.044-17.936-.086-26.632-.084-17.375-.173-35.34.086-53.734a.787.787,0,0,1,.794-.775c23.5.247,47.347-.044,70.4-.327,16.825-.207,34.221-.419,51.282-.419a.786.786,0,0,1,.785.775c.223,17.859.152,34.756.078,52.645-.038,9.123-.078,18.558-.078,28.372a.784.784,0,0,1-.784.785c-20.21,0-40.792.024-60.694.048C96.133,381.214,75.475,381.238,55.109,381.238Zm.775-80.347c-.247,18.108-.16,35.8-.077,52.923.042,8.443.084,17.167.087,25.854,20.109,0,40.493-.024,60.215-.048,19.645-.022,39.952-.047,59.91-.047,0-9.536.041-18.713.077-27.6.074-17.622.143-34.281-.068-51.842-16.8.008-33.922.217-50.487.42C102.731,300.836,79.151,301.124,55.884,300.891Z" transform="translate(-54.152 -298.567)"/>
                </g>
                <g id="Grupo_156149" data-name="Grupo 156149">
                  <path id="Trazado_196509" data-name="Trazado 196509" d="M176.541,380.094c0-28.831.336-53.938,0-81.005-40.4,0-81,1.174-121.695.746-.389,27.586,0,53.534,0,80.356Q115.861,380.19,176.541,380.094Z" transform="translate(-53.888 -298.303)" fill="#fff"/>
                  <path id="Trazado_196510" data-name="Trazado 196510" d="M55.109,381.238a.786.786,0,0,1-.785-.784c0-8.942-.044-17.936-.086-26.632-.084-17.375-.173-35.34.086-53.734a.787.787,0,0,1,.794-.775c23.5.247,47.347-.044,70.4-.327,16.825-.207,34.221-.419,51.282-.419a.786.786,0,0,1,.785.775c.223,17.859.152,34.756.078,52.645-.038,9.123-.078,18.558-.078,28.372a.784.784,0,0,1-.784.785c-20.21,0-40.792.024-60.694.048C96.133,381.214,75.475,381.238,55.109,381.238Zm.775-80.347c-.247,18.108-.16,35.8-.077,52.923.042,8.443.084,17.167.087,25.854,20.109,0,40.493-.024,60.215-.048,19.645-.022,39.952-.047,59.91-.047,0-9.536.041-18.713.077-27.6.074-17.622.143-34.281-.068-51.842-16.8.008-33.922.217-50.487.42C102.731,300.836,79.151,301.124,55.884,300.891Z" transform="translate(-54.152 -298.567)"/>
                </g>
                <g id="Grupo_156150" data-name="Grupo 156150" transform="translate(73.7 27.73)">
                  <path id="Trazado_196511" data-name="Trazado 196511" d="M96.286,320.787c-.916,0-1.66-.351-1.663-.784s.744-.785,1.663-.787l36.236-.014h0c.916,0,1.66.351,1.663.784s-.744.785-1.663.785l-36.236.015Z" transform="translate(-94.623 -319.203)"/>
                </g>
                <g id="Grupo_172863" data-name="Grupo 172863" transform="translate(73.7 17.556)">
                  <path id="Trazado_196511-2" data-name="Trazado 196511" d="M96.286,320.787c-.916,0-1.66-.351-1.663-.784s.744-.785,1.663-.787l36.236-.014h0c.916,0,1.66.351,1.663.784s-.744.785-1.663.785l-36.236.015Z" transform="translate(-94.623 -319.203)"/>
                </g>
                <g id="Grupo_156151" data-name="Grupo 156151" transform="translate(73.7 37.903)">
                  <path id="Trazado_196512" data-name="Trazado 196512" d="M96.243,330.975c-.892,0-1.617-.351-1.62-.784s.724-.785,1.62-.785l37.306-.015h0c.892,0,1.617.351,1.617.784s-.721.785-1.617.785l-37.306.015Z" transform="translate(-94.623 -329.391)"/>
                </g>
                <g id="Grupo_177078" data-name="Grupo 177078" transform="translate(73.7 48.077)">
                  <path id="Trazado_196512-2" data-name="Trazado 196512" d="M96.243,330.975c-.892,0-1.617-.351-1.62-.784s.724-.785,1.62-.785l37.306-.015h0c.892,0,1.617.351,1.617.784s-.721.785-1.617.785l-37.306.015Z" transform="translate(-94.623 -329.391)"/>
                </g>
                <g id="Grupo_156153" data-name="Grupo 156153" transform="translate(83.531 42.129)">
                  <circle id="Elipse_6030" data-name="Elipse 6030" cx="25.15" cy="25.15" r="25.15" transform="translate(0 35.568) rotate(-45)" fill="#fff"/>
                  <path id="Trazado_196514" data-name="Trazado 196514" d="M141.89,360.129a25.936,25.936,0,1,1,25.936-25.936A25.965,25.965,0,0,1,141.89,360.129Zm0-50.3a24.366,24.366,0,1,0,24.366,24.365A24.393,24.393,0,0,0,141.89,309.829Z" transform="translate(-106.322 -298.626)"/>
                </g>
                <g id="Grupo_156165" data-name="Grupo 156165" transform="translate(108.189 3.486)">
                  <g id="Grupo_172861" data-name="Grupo 172861" transform="translate(0 0)">
                    <g id="Grupo_156163" data-name="Grupo 156163" transform="translate(0)">
                      <path id="Trazado_196526" data-name="Trazado 196526" d="M86.562,318.876a.2.2,0,0,1-.124-.04c-2.984-2.156-5.934-4.443-8.767-6.8a.211.211,0,1,1,.269-.325c2.826,2.348,5.768,4.629,8.745,6.78a.21.21,0,0,1,.048.295A.207.207,0,0,1,86.562,318.876Z" transform="translate(-77.594 -311.665)"/>
                    </g>
                    <g id="Grupo_156164" data-name="Grupo 156164" transform="translate(5.653 0.076)">
                      <path id="Trazado_196527" data-name="Trazado 196527" d="M85.716,314.7a.212.212,0,0,1-.138-.051c-1.04-.888-2.136-1.743-3.254-2.541a.211.211,0,1,1,.245-.345c1.129.805,2.234,1.669,3.285,2.565a.211.211,0,0,1-.138.371Z" transform="translate(-82.235 -311.727)"/>
                    </g>
                  </g>
                </g>
                <g id="Grupo_156169" data-name="Grupo 156169" transform="translate(96.918 84.531)">
                  <g id="Grupo_156167" data-name="Grupo 156167" opacity="0.129">
                    <path id="Trazado_196529" data-name="Trazado 196529" d="M164.255,330.05c-.992-.283-1.459.618-1.91,1.312-.7.968-1.354,1.968-2.082,2.915l-.047.06A14.015,14.015,0,0,1,159,335.759a17.425,17.425,0,0,0-2.052,1.979c-.381.424-.787.822-1.207,1.206l-.121.071a2.285,2.285,0,0,0-.229.148c.011-.008-.029.018-.163.11-1.287.849-2.572,1.714-3.922,2.462a28.928,28.928,0,0,1-6.955,2c-3.726.3-4.667-.062-8.065-.782a29.216,29.216,0,0,1-5.3-1.783c-.225-.1-.369-.155-.4-.166a33.969,33.969,0,0,1-4.556-2.234c-1.521-.814-2.02-1.7-3.883-3.169-.038-.03-.077-.059-.115-.09l-.021-.017.017.014c-.608-.506-1.174-1.161-1.994-1.174a1.609,1.609,0,0,0-1.129,2.724c1.821,1.441,3.126,3.434,5.13,4.66a57.49,57.49,0,0,0,7.637,4.2,32.761,32.761,0,0,0,8.811,1.895,21.418,21.418,0,0,0,6.4-.861,24.777,24.777,0,0,0,7.506-3.2,12.809,12.809,0,0,0,3.232-2.57,32.581,32.581,0,0,0,2.6-2.906,38.61,38.61,0,0,0,3.977-5.15,5.127,5.127,0,0,0,.959-1.69A1.244,1.244,0,0,0,164.255,330.05Z" transform="translate(-118.445 -329.997)"/>
                  </g>
                  <g id="Grupo_156168" data-name="Grupo 156168" transform="translate(3.583 5.509)" opacity="0.129">
                    <path id="Trazado_196530" data-name="Trazado 196530" d="M120.941,333.744c.065.051.128.1.193.148l-.312-.241,0,0Z" transform="translate(-120.822 -333.651)"/>
                  </g>
                </g>
              </g>
            </g>
            <g id="Grupo_156154" data-name="Grupo 156154" transform="translate(100.236 60.5)">
              <path id="Trazado_196515" data-name="Trazado 196515" d="M124.4,330.044l5.562-5.562,8.558,11.952,12.249-20.382,6.829,5.172L139.289,349.78Z" transform="translate(-123.329 -314.985)" fill="#e5c9b0"/>
              <path id="Trazado_196516" data-name="Trazado 196516" d="M139.835,351.4a1.071,1.071,0,0,1-.851-.425l-14.891-19.736a1.067,1.067,0,0,1,.1-1.4l5.561-5.561a1.068,1.068,0,0,1,1.625.133l7.611,10.63L150.4,316.049a1.067,1.067,0,0,1,1.561-.3l6.829,5.172a1.07,1.07,0,0,1,.254,1.428L140.736,350.9a1.067,1.067,0,0,1-.859.49ZM126.358,330.69l13.408,17.771,16.944-26.434-5.094-3.857-11.637,19.361a1.067,1.067,0,0,1-1.783.072l-7.824-10.928Z" transform="translate(-123.876 -315.532)" fill="#636363"/>
            </g>
          </g>
        </g>
      </g>
      <g id="feedback" transform="translate(1219.565 278.502)">
        <g id="Grupo_179085" data-name="Grupo 179085" transform="translate(0)">
          <g id="Grupo_179084" data-name="Grupo 179084" transform="translate(0)">
            <path id="Trazado_229599" data-name="Trazado 229599" d="M54.442,5.749H35.278V3.833A3.844,3.844,0,0,0,31.445,0H4.617A3.844,3.844,0,0,0,.784,3.833v21.08c0,10.54,10.061,10.54,13.414,10.54a.958.958,0,1,0,0-1.916A3.844,3.844,0,0,1,10.366,29.7V29.32a4.03,4.03,0,0,1,4.024-3.449H27.613v1.916H18.989a.905.905,0,0,0-.958.958,8.6,8.6,0,0,0,2.3,5.845,9.263,9.263,0,0,0-.383,2.779A9.683,9.683,0,0,0,25.7,46.184c0,.575-.287,1.725-2.875,1.725A4.744,4.744,0,0,0,18.031,52.7V57.49h1.916V52.7a2.846,2.846,0,0,1,2.683-2.875l4.7,2.3a6.653,6.653,0,0,0,1.246.479V57.49h1.916V52.6a4.744,4.744,0,0,0,1.246-.383l4.7-2.3A2.846,2.846,0,0,1,39.111,52.8v4.791h1.916V52.8A4.744,4.744,0,0,0,36.236,48c-2.587,0-2.875-1.15-2.875-1.725a9.537,9.537,0,0,0,5.749-9.1v-.671a7.593,7.593,0,0,0-.958-3.833h6.42A4.03,4.03,0,0,1,48.6,36.123a3.866,3.866,0,0,1-3.449,4.216h-.383a.958.958,0,1,0,0,1.916c3.354,0,13.414,0,13.414-10.54V9.582A3.7,3.7,0,0,0,54.442,5.749ZM14.39,23.954a5.991,5.991,0,0,0-5.941,5.174A6.025,6.025,0,0,0,9.6,33.153c-4.7-.958-6.9-3.545-6.9-8.24V3.833A1.922,1.922,0,0,1,4.617,1.916H31.445a1.922,1.922,0,0,1,1.916,1.916V22.038a1.922,1.922,0,0,1-1.916,1.916ZM20.043,29.7H30.487A6.7,6.7,0,0,1,37.1,35.452H26.655A6.7,6.7,0,0,1,20.043,29.7ZM32.116,44.555a.92.92,0,0,0-.671.862v.575a3.372,3.372,0,0,0,1.916,3.258L30.871,50.5a3.5,3.5,0,0,1-2.779,0L25.7,49.25a3.372,3.372,0,0,0,1.916-3.258v-.479a.92.92,0,0,0-.671-.862,7.759,7.759,0,0,1-5.078-7.282,5.892,5.892,0,0,1,.1-1.341,8.677,8.677,0,0,0,4.7,1.341h10.54A7.544,7.544,0,0,1,32.116,44.555ZM56.358,31.62c0,4.7-2.2,7.282-6.9,8.24a6.025,6.025,0,0,0,1.15-4.024,5.92,5.92,0,0,0-5.941-5.174H36.907a8.566,8.566,0,0,0-6.42-2.875h-.958V25.871h1.916a3.844,3.844,0,0,0,3.833-3.833V7.665H54.442a1.922,1.922,0,0,1,1.916,1.916Z" transform="translate(-0.784)"/>
          </g>
        </g>
        <g id="Grupo_179087" data-name="Grupo 179087" transform="translate(7.665 3.833)">
          <g id="Grupo_179086" data-name="Grupo 179086">
            <path id="Trazado_229600" data-name="Trazado 229600" d="M79.157,38.707H78.2a.905.905,0,0,1-.958-.958V34.875a2.875,2.875,0,1,0-5.749,0v2.875a.905.905,0,0,1-.958.958.905.905,0,0,0-.958-.958H65.742a.905.905,0,0,0-.958.958v10.54a.905.905,0,0,0,.958.958h3.833a.905.905,0,0,0,.958-.958h8.624a2.823,2.823,0,0,0,2.875-2.875V41.582A2.823,2.823,0,0,0,79.157,38.707Zm-10.54,9.582H66.7V39.665h1.916Zm11.5-1.916a.905.905,0,0,1-.958.958H70.533V40.624a2.823,2.823,0,0,0,2.875-2.875V34.875a.958.958,0,0,1,1.916,0v2.875A2.823,2.823,0,0,0,78.2,40.624h.958a.905.905,0,0,1,.958.958Z" transform="translate(-64.784 -32)"/>
          </g>
        </g>
        <g id="Grupo_179089" data-name="Grupo 179089" transform="translate(36.411 9.582)">
          <g id="Grupo_179088" data-name="Grupo 179088">
            <path id="Trazado_229601" data-name="Trazado 229601" d="M321.073,80H317.24a.905.905,0,0,0-.958.958h-8.623a2.823,2.823,0,0,0-2.875,2.874v4.791a2.823,2.823,0,0,0,2.875,2.875h.958a.905.905,0,0,1,.958.958v2.875a2.875,2.875,0,1,0,5.749,0V92.456a.905.905,0,0,1,.958-.958.905.905,0,0,0,.958.958h3.833a.905.905,0,0,0,.958-.958V80.958A.905.905,0,0,0,321.073,80Zm-4.791,9.582a2.823,2.823,0,0,0-2.875,2.875v2.875a.958.958,0,1,1-1.916,0V92.456a2.823,2.823,0,0,0-2.875-2.875h-.958a.905.905,0,0,1-.958-.958V83.833a.905.905,0,0,1,.958-.958h8.623Zm3.833.958H318.2V81.916h1.916Z" transform="translate(-304.784 -80)"/>
          </g>
        </g>
        <g id="Grupo_179091" data-name="Grupo 179091" transform="translate(35.452 24.912)">
          <g id="Grupo_179090" data-name="Grupo 179090">
            <rect id="Rectángulo_58538" data-name="Rectángulo 58538" width="3.833" height="1.916"/>
          </g>
        </g>
        <g id="Grupo_179093" data-name="Grupo 179093" transform="translate(22.996 3.833)">
          <g id="Grupo_179092" data-name="Grupo 179092">
            <path id="Trazado_229602" data-name="Trazado 229602" d="M195.659,32.958V32h-1.916v.958h-.958v1.916h.958v.958h1.916v-.958h.958V32.958Z" transform="translate(-192.784 -32)"/>
          </g>
        </g>
      </g>
    </g>
  </g>
</svg>
