<?xml version="1.0" encoding="utf-8"?>
<!-- Generator: Adobe Illustrator 26.2.1, SVG Export Plug-In . SVG Version: 6.00 Build 0)  -->
<svg version="1.1" id="Layer_1" xmlns="http://www.w3.org/2000/svg" xmlns:xlink="http://www.w3.org/1999/xlink" x="0px" y="0px"
	 viewBox="0 0 100.4 102" style="enable-background:new 0 0 100.4 102;" xml:space="preserve">
<style type="text/css">
	.st0{fill:#FFFFFF;}
	.st1{fill:#FFFFFF;stroke:#000000;stroke-miterlimit:10;}
	.st2{opacity:0.129;}
	.st3{clip-path:url(#SVGID_00000153663908148701186920000008110132440077901999_);}
	.st4{clip-path:url(#SVGID_00000101819156447323245190000004389663760966751134_);}
</style>
<g>
	<path id="Trazado_213565" class="st0" d="M40.4,65.9L25.2,80.9c-2.6,2.7-5.4,5.2-8.3,7.5c-1.4,1.3-3.3,2.2-5.2,2.4
		c-2.1,0-3.8-1.7-3.9-3.8c0.2-1.6,1-3.1,2.3-4.2c8.1-8.5,16.5-16.5,25.2-24.1C36.9,61.1,38.5,63.4,40.4,65.9"/>
	<path id="Trazado_213566" d="M11.7,91.5L11.7,91.5c2.1-0.2,4.1-1.1,5.7-2.5c2.9-2.4,5.7-4.9,8.3-7.6l15.2-14.9
		c0.3-0.2,0.3-0.6,0.1-0.9c-1.9-2.5-3.5-4.9-5.1-7.2c-0.2-0.3-0.7-0.4-1-0.2c0,0,0,0,0,0c0,0,0,0-0.1,0.1
		c-8.7,7.6-17.2,15.7-25.3,24.2c-1.4,1.2-2.3,2.9-2.5,4.7c0,1.1,0.5,2.2,1.3,3C9.3,91,10.5,91.5,11.7,91.5 M39.5,65.9L24.7,80.4
		c-2.6,2.6-5.3,5.1-8.2,7.5c-1.3,1.2-3,2-4.8,2.2c-0.9,0-1.7-0.4-2.3-1c-0.6-0.5-0.9-1.3-0.9-2c0.2-1.4,0.9-2.8,2.1-3.7
		c7.8-8.2,16.1-16.2,24.6-23.6C36.5,61.7,37.9,63.8,39.5,65.9"/>
	<path id="Trazado_213573" d="M23.4,80.4c0.1,0,0.2-0.1,0.2-0.2l0.3-8.4c0-0.1-0.1-0.2-0.2-0.2c-0.1,0-0.2,0.1-0.2,0.2l-0.3,8.4
		C23.1,80.2,23.2,80.3,23.4,80.4L23.4,80.4z"/>
	<path id="Trazado_213574" d="M19.9,83.4c0.1,0,0.2-0.1,0.2-0.2l0.4-7.9c0-0.1-0.1-0.2-0.2-0.2c-0.1,0-0.2,0.1-0.2,0.2l0,0l-0.4,7.9
		C19.7,83.2,19.8,83.3,19.9,83.4L19.9,83.4z"/>
	<path id="Trazado_213575" d="M16.6,86.1c0.1,0,0.2-0.1,0.2-0.2l0.6-7.7c0-0.1-0.1-0.2-0.2-0.3l0,0c-0.1,0-0.2,0.1-0.3,0.2
		c0,0,0,0,0,0v0l-0.6,7.7C16.3,86,16.4,86.1,16.6,86.1L16.6,86.1z"/>
	<path id="Trazado_213576" d="M13.3,88.6c0.1,0,0.2-0.1,0.2-0.2l0.7-6.7c0-0.1-0.1-0.2-0.2-0.3c-0.1,0-0.2,0.1-0.3,0.2l-0.7,6.7
		C13.1,88.5,13.2,88.6,13.3,88.6L13.3,88.6z"/>
	<path id="Trazado_213577" d="M10.2,88.3c0.1,0,0.2-0.1,0.2-0.2l0.5-3c0-0.1-0.1-0.2-0.3-0.2c-0.1,0-0.2,0.1-0.2,0.2L10,88
		C10,88.1,10,88.2,10.2,88.3L10.2,88.3z"/>
	<circle class="st1" cx="60.6" cy="43.1" r="32.6"/>
	<circle class="st1" cx="60.6" cy="43.1" r="23.9"/>
	<path id="Trazado_213569" d="M36.3,66.8C36.4,66.8,36.4,66.8,36.3,66.8c0.2,0,0.3-0.2,0.2-0.3L36,64.6c0-0.1-0.2-0.2-0.3-0.2
		c-0.1,0-0.2,0.2-0.2,0.3l0.6,1.9C36.1,66.8,36.2,66.8,36.3,66.8"/>
	<path id="Trazado_213570" d="M33.7,70.2L33.7,70.2c0.2,0,0.2-0.1,0.2-0.3l0,0c-0.3-2.3-0.7-4.6-1.1-6.8c0-0.1-0.1-0.2-0.3-0.2
		c-0.1,0-0.2,0.1-0.2,0.3c0.4,2.2,0.8,4.5,1.1,6.8C33.5,70.1,33.6,70.2,33.7,70.2"/>
	<path id="Trazado_213571" d="M30.2,73.5c0.1,0,0.2-0.1,0.2-0.2c0,0,0,0,0,0l0,0c0-1.1-0.2-3-0.3-4.7c-0.1-1-0.2-1.9-0.2-2.5
		c0-0.1-0.1-0.2-0.2-0.2h0c-0.1,0-0.2,0.1-0.2,0.2c0,0.6,0.1,1.4,0.2,2.5c0.2,1.7,0.3,3.6,0.3,4.7C30,73.4,30.1,73.5,30.2,73.5"/>
	<path id="Trazado_213572" d="M26.7,76.8c0.1,0,0.2-0.1,0.2-0.2l0.2-8.1c0-0.1-0.1-0.2-0.2-0.2c-0.1,0-0.2,0.1-0.2,0.2c0,0,0,0,0,0
		v0l-0.2,8.1C26.5,76.7,26.6,76.8,26.7,76.8C26.7,76.8,26.7,76.8,26.7,76.8L26.7,76.8z"/>
	<g id="Grupo_172879" transform="translate(28.776 23.856)" class="st2">
		<g id="Grupo_172878">
			<g>
				<defs>
					<rect id="SVGID_1_" x="8" y="15.2" width="47.4" height="27.4"/>
				</defs>
				<clipPath id="SVGID_00000166654287599828320000000000559829933083072643_">
					<use xlink:href="#SVGID_1_"  style="overflow:visible;"/>
				</clipPath>
				<g id="Grupo_172877" style="clip-path:url(#SVGID_00000166654287599828320000000000559829933083072643_);">
					<path id="Trazado_213578" d="M9,26.2c0.7,0.8,1.3,1.6,1.8,2.5c0.8,1,1.7,2,2.7,2.9c0.8,0.7,1.6,1.3,2.3,1.9
						c0.1,0,0.3,0.1,0.4,0.2c3.5,2.6,7.6,4.2,11.9,4.8c2.9,0.6,5.9,0.6,8.8-0.1c2.4-0.6,4.7-1.6,6.6-3.2c2-1.5,3.9-3.3,5.5-5.2
						c1.3-1.8,2.3-3.8,2.9-5.9c0.4-1.1,0.7-2.1,1-3.2c0.4-1,0.6-2.2,0.6-3.3c0.3-0.8,0.6-1.6,0.8-2.4c0.2-0.1,0.5-0.2,0.7-0.1
						c0.4,3.2,0.4,6.5-0.1,9.8c-0.6,3.3-2.1,6.3-4.3,8.9c-1.4,1.5-2.9,2.8-4.6,4c-2.1,1.6-4.5,2.9-7,3.8c-1.4,0.4-2.8,0.6-4.3,0.7h0
						c-1.6,0.3-3.2,0.3-4.8,0.1c-1.2-0.2-2.4-0.4-3.6-0.8c-2.5-0.6-4.9-1.4-7.2-2.6c-0.6-0.3-1.1-0.7-1.7-1.1
						c-2.6-1.6-5-3.6-7.1-5.8c-0.4-0.8-0.8-1.6-1.1-2.4c-0.4-1.2-0.9-2.4-1.3-3.6C8.3,26,8.7,26.1,9,26.2"/>
				</g>
			</g>
		</g>
	</g>
	<g id="Grupo_172882" transform="translate(24.202 41.456)" class="st2">
		<g id="Grupo_172881" transform="translate(0)">
			<g>
				<defs>
					<rect id="SVGID_00000063612925225477682520000014399219416893409444_" x="7" y="18.8" width="8.6" height="8.5"/>
				</defs>
				<clipPath id="SVGID_00000016773071672853499090000014122561433701281409_">
					<use xlink:href="#SVGID_00000063612925225477682520000014399219416893409444_"  style="overflow:visible;"/>
				</clipPath>
				
					<g id="Grupo_172880" transform="translate(0)" style="clip-path:url(#SVGID_00000016773071672853499090000014122561433701281409_);">
					<path id="Trazado_213579" d="M8.5,18.9c1.2-0.3,2,0.5,2.6,1.4l0.1,0.1c1,1,2,1.9,3.1,2.7l0,0c0.4,0.2,0.7,0.5,1,0.8
						c0.7,0.9,0.5,2.3-0.4,3c-0.7,0.5-1.6,0.6-2.3,0.2c-1.4-0.8-2.6-1.8-3.5-3.1c-0.6-0.7-1.2-1.4-1.7-2.1c-0.5-1-0.2-2.2,0.7-2.7
						C8.2,19,8.3,19,8.5,18.9"/>
				</g>
			</g>
		</g>
	</g>
	<g id="carrito-de-compras_1_" transform="translate(-11786.819 -11767.895)">
		<path id="Trazado_229619" d="M11858.8,11819.2c-21.3,0-20.4,0-20.4,0c-0.1-0.6-0.2-1.2-0.2-1.8c10.2-0.1-14.2,0,18.9,0
			c1.3,0,2.4-1,2.4-2.3c0,0,0-0.1,0-0.1v-10.4c0-1-0.8-1.8-1.8-1.8l-6.4,0v-1.6c0-0.9-0.7-1.6-1.6-1.6h-1.5c-0.9,0-1.6,0.7-1.6,1.6
			v1.6l-6.8,0l-0.5-2.8c-0.1-0.8-0.8-1.3-1.6-1.3h-3.5c-0.4,0-0.8,0.3-0.8,0.8s0.3,0.8,0.8,0.8c3.7,0,3.5,0,3.6,0
			c0.8,4.6,0.3,1.4,2.5,15.7l-2,0c-0.9,0-1.5,0.7-1.5,1.6c0,0.1,0,0.1,0,0.2l0.2,1.7c0.1,0.8,0.8,1.4,1.5,1.4h1.4
			c-0.7,1.4-0.2,3.1,1.2,3.8s3.1,0.2,3.8-1.2c0.4-0.8,0.4-1.8,0-2.6h7.3c-0.7,1.4-0.2,3.1,1.2,3.8c1.4,0.7,3.1,0.2,3.8-1.2
			c0.4-0.8,0.4-1.8,0-2.6h1.6c0.4,0,0.8-0.3,0.8-0.8C11859.6,11819.5,11859.3,11819.2,11858.8,11819.2z M11848.1,11801.1
			c0-0.1,0-0.1,0.1-0.1l0,0h1.5c0.1,0,0.1,0,0.1,0.1l0,0v5.7c0,0.4,0.3,0.8,0.8,0.8c0,0,0,0,0,0h1.1l-2.4,2.4
			c-0.2,0.2-0.6,0.2-0.8,0c0,0,0,0,0,0l-2.4-2.4h1.1c0.4,0,0.8-0.3,0.8-0.8l0,0V11801.1z M11846.5,11804.2v1.8h-1.3
			c-0.6,0-1.2,0.5-1.2,1.2c0,0.3,0.1,0.6,0.3,0.8l3,3c0.8,0.8,2.1,0.8,2.9,0c0,0,0,0,0,0l3-3c0.5-0.5,0.5-1.2,0-1.6
			c-0.2-0.2-0.5-0.3-0.8-0.3h-1.3v-1.8l6.4,0c0.2,0,0.3,0.1,0.3,0.3v10.4c0,0.5-0.3,0.9-0.8,0.9c0,0-0.1,0-0.1,0h-15.4l-1.8-11.6
			L11846.5,11804.2z M11843.6,11822c0,0.7-0.6,1.3-1.3,1.3c-0.7,0-1.3-0.6-1.3-1.3c0-0.7,0.6-1.3,1.3-1.3
			C11843.1,11820.7,11843.6,11821.3,11843.6,11822z M11856,11822c0,0.7-0.6,1.3-1.3,1.3s-1.3-0.6-1.3-1.3c0-0.7,0.6-1.3,1.3-1.3
			C11855.4,11820.7,11856,11821.3,11856,11822L11856,11822z"/>
	</g>
</g>
</svg>
