<svg xmlns="http://www.w3.org/2000/svg" width="62.174" height="62.174" viewBox="0 0 62.174 62.174">
  <g id="Grupo_184193" data-name="Grupo 184193" transform="translate(11518.507 12115.456)">
    <g id="Grupo_184188" data-name="Grupo 184188" transform="translate(-12760.507 -12592.456)">
      <circle id="Elipse_6031" data-name="Elipse 6031" cx="18" cy="18" r="18" transform="translate(1266.333 478)" fill="#fff"/>
      <circle id="Elipse_6032" data-name="Elipse 6032" cx="18" cy="18" r="18" transform="translate(1243.333 502)" fill="#fff"/>
      <g id="emoticons" transform="translate(1242 477)">
        <g id="Grupo_179097" data-name="Grupo 179097" transform="translate(0 0)">
          <path id="Trazado_229611" data-name="Trazado 229611" d="M112.88,383.938a1.214,1.214,0,0,0,1.717,1.717,5.221,5.221,0,0,1,7.384,0,1.214,1.214,0,1,0,1.717-1.717,7.65,7.65,0,0,0-10.819,0Z" transform="translate(-98.86 -335.346)"/>
          <path id="Trazado_229612" data-name="Trazado 229612" d="M69.877,313.4a5.011,5.011,0,0,0,1.3.172,4.989,4.989,0,0,0,4.8-3.695,1.214,1.214,0,0,0-2.346-.629,2.553,2.553,0,0,1-3.127,1.806,1.214,1.214,0,1,0-.629,2.346Z" transform="translate(-60.601 -270.902)"/>
          <path id="Trazado_229613" data-name="Trazado 229613" d="M195.381,312.9a4.953,4.953,0,0,0,2.483.67,5.01,5.01,0,0,0,1.3-.172,1.214,1.214,0,1,0-.629-2.346,2.553,2.553,0,0,1-3.127-1.806,1.214,1.214,0,0,0-2.346.629A4.95,4.95,0,0,0,195.381,312.9Z" transform="translate(-169.579 -270.903)"/>
          <path id="Trazado_229614" data-name="Trazado 229614" d="M42.745,0A19.429,19.429,0,0,0,23.817,23.815a19.47,19.47,0,0,0-13.435,1.733A1.214,1.214,0,1,0,11.514,27.7a16.995,16.995,0,1,1-7.134,7.134A1.214,1.214,0,0,0,2.232,33.7a19.428,19.428,0,1,0,36.127,4.659A19.429,19.429,0,1,0,42.745,0Zm0,36.43A16.962,16.962,0,0,1,37.5,35.6,19.537,19.537,0,0,0,26.575,24.677,17,17,0,1,1,42.745,36.43Z" transform="translate(0 0)"/>
          <path id="Trazado_229615" data-name="Trazado 229615" d="M313.983,190.051a5.221,5.221,0,0,1-7.384,0,1.214,1.214,0,0,0-1.718,1.717,7.65,7.65,0,0,0,10.819,0,1.214,1.214,0,1,0-1.717-1.717Z" transform="translate(-267.546 -166.66)"/>
          <path id="Trazado_229616" data-name="Trazado 229616" d="M266.856,130.237a1.214,1.214,0,0,0,.859-2.073,4.982,4.982,0,0,0-7.046,0,1.214,1.214,0,1,0,1.717,1.717,2.553,2.553,0,0,1,3.611,0A1.21,1.21,0,0,0,266.856,130.237Z" transform="translate(-228.703 -111.319)"/>
          <path id="Trazado_229617" data-name="Trazado 229617" d="M383.69,126.706a4.949,4.949,0,0,0-3.523,1.459,1.214,1.214,0,0,0,1.717,1.717,2.553,2.553,0,0,1,3.611,0,1.214,1.214,0,1,0,1.717-1.717,4.949,4.949,0,0,0-3.523-1.459Z" transform="translate(-333.69 -111.32)"/>
          <path id="Trazado_229618" data-name="Trazado 229618" d="M45.145,238.366a1.214,1.214,0,1,0-.858-2.073h0a1.214,1.214,0,0,0,.859,2.073Z" transform="translate(-38.596 -207.286)"/>
        </g>
      </g>
    </g>
  </g>
</svg>
