<svg xmlns="http://www.w3.org/2000/svg" xmlns:xlink="http://www.w3.org/1999/xlink" width="76.322" height="56.09" viewBox="0 0 76.322 56.09">
  <defs>
    <clipPath id="clip-path">
      <rect id="Rect치ngulo_53201" data-name="Rect치ngulo 53201" width="76.322" height="56.09" fill="none"/>
    </clipPath>
    <clipPath id="clip-path-3">
      <rect id="Rect치ngulo_53198" data-name="Rect치ngulo 53198" width="74.268" height="2.933" fill="none"/>
    </clipPath>
  </defs>
  <g id="Grupo_184195" data-name="Grupo 184195" transform="translate(11873.623 12057.588)">
    <g id="Grupo_184190" data-name="Grupo 184190" transform="translate(-12788.623 -12404.088)">
      <g id="Grupo_177192" data-name="Grupo 177192" transform="translate(915 346.5)">
        <g id="Grupo_168902" data-name="Grupo 168902" transform="translate(0)">
          <g id="Grupo_172839" data-name="Grupo 172839" clip-path="url(#clip-path)">
            <g id="Grupo_172838" data-name="Grupo 172838">
              <g id="Grupo_172837" data-name="Grupo 172837" clip-path="url(#clip-path)">
                <path id="Trazado_213506" data-name="Trazado 213506" d="M76.142,60.021c0-17.8.209-33.309,0-50.024-24.945,0-50.018.725-75.151.461-.241,17.036,0,33.059,0,49.623q37.678,0,75.151-.06" transform="translate(-0.396 -4.476)" fill="#fff"/>
                <path id="Trazado_213507" data-name="Trazado 213507" d="M.594,60.173a.485.485,0,0,1-.485-.485c0-5.522-.027-11.076-.055-16.446C0,32.512-.053,21.417.109,10.058a.484.484,0,0,1,.485-.478h0c14.516.152,29.239-.028,43.478-.2,10.39-.128,21.133-.259,31.668-.259a.485.485,0,0,1,.485.478c.137,11.028.094,21.46.047,32.506-.023,5.636-.047,11.463-.047,17.525a.485.485,0,0,1-.485.485c-12.481,0-25.189.015-37.48.03-12.338.015-25.1.03-37.671.03m.478-49.619C.92,21.736.973,32.663,1.026,43.237c.025,5.215.052,10.6.055,15.966,12.419,0,25.007-.015,37.185-.029,12.132-.015,24.672-.03,37-.03,0-5.89.024-11.559.047-17.046.046-10.879.087-21.167-.042-32.01-10.378,0-20.949.134-31.178.26-14.09.172-28.652.352-43.022.207Z" transform="translate(0 -4.083)"/>
                <path id="Trazado_213508" data-name="Trazado 213508" d="M1.234,1.21c-.083,2.077-.064,4.048-.158,6.429,25.154.055,50.076.022,75.151-.059,0-2.149-.064-4.955-.064-6.7Z" transform="translate(-0.482 -0.394)" fill="#12263f"/>
                <path id="Trazado_213509" data-name="Trazado 213509" d="M26.108,7.756c-8.732,0-17.184-.009-25.428-.027A.485.485,0,0,1,.2,7.244V7.226C.246,6,.264,4.884.282,3.8.3,2.777.315,1.807.356.8A.486.486,0,0,1,.838.331L75.766,0h0a.485.485,0,0,1,.484.485c0,.828.015,1.89.03,3.009.017,1.257.034,2.559.034,3.691a.485.485,0,0,1-.483.485c-17.7.059-34.154.087-49.725.087M1.185,6.762c22.664.049,46.935.028,74.164-.055,0-1.006-.019-2.117-.034-3.2C75.3,2.6,75.29,1.718,75.286.976L1.308,1.3c-.028.837-.042,1.657-.055,2.522-.015.933-.031,1.9-.07,2.937Z" transform="translate(-0.088)"/>
                <path id="Trazado_213510" data-name="Trazado 213510" d="M96.087,7.236a.485.485,0,0,1-.008-.97l3.46-.061h.008a.485.485,0,0,1,.008.97L96.1,7.236Z" transform="translate(-42.805 -2.778)"/>
                <path id="Trazado_213511" data-name="Trazado 213511" d="M109.946,7.345a.485.485,0,0,1-.008-.969l3.459-.061h.009a.485.485,0,0,1,.008.97l-3.46.061Z" transform="translate(-49.01 -2.828)"/>
                <path id="Trazado_213512" data-name="Trazado 213512" d="M123.357,7.121a.485.485,0,1,1-.008-.969l3.46-.061h.008a.485.485,0,1,1,.008.97l-3.459.061Z" transform="translate(-55.015 -2.727)"/>
                <path id="Trazado_213514" data-name="Trazado 213514" d="M18.19,50.291c-.374,0-.681-.211-.686-.479s.295-.488.669-.491l15.716-.286h.017c.374,0,.671.226.664.494s-.29.464-.647.475l-15.716.287Z" transform="translate(-10.216 -18.467)"/>
                <path id="Trazado_224651" data-name="Trazado 224651" d="M18,50.291a.485.485,0,1,1-.012-.97l11.361-.286h.012a.485.485,0,0,1,.012.969l-11.36.287Z" transform="translate(-10.216 -25.436)"/>
                <path id="Trazado_213515" data-name="Trazado 213515" d="M17.617,67.989c-.194,0-.353-.214-.354-.482s.155-.487.349-.489l16.493-.286h0c.194,0,.352.214.353.482s-.155.486-.349.488l-16.493.287Z" transform="translate(-10.109 -29.247)"/>
                <path id="Trazado_213516" data-name="Trazado 213516" d="M17.675,82.906a.492.492,0,0,1-.006-.97l19.21-.286h.006a.492.492,0,0,1,0,.969l-19.21.287Z" transform="translate(-10.109 -36.561)"/>
                <g id="Grupo_172833" data-name="Grupo 172833" transform="translate(0.705 6.935)" opacity="0.129">
                  <g id="Grupo_172832" data-name="Grupo 172832">
                    <g id="Grupo_172831" data-name="Grupo 172831" clip-path="url(#clip-path-3)">
                      <path id="Trazado_213517" data-name="Trazado 213517" d="M73.855,12.849a26.192,26.192,0,0,0-4.928-.1c-6.836-.03-13.678-.232-20.528-.186-7.761.034-15.51.288-23.271.179-4.43-.067-8.866-.012-13.3-.05q-2.554-.022-5.11-.014a22.529,22.529,0,0,0-3.333.11c-1.779.28-2.595,1.03-1.822,1.676a5.57,5.57,0,0,0,3.176.767c11.235.019,22.459.331,33.694.241,11.193-.175,22.418.013,33.588-.281l.085,0a8.39,8.39,0,0,0,2.444-.368c1.347-.5,1.315-1.307-.072-1.8a5.284,5.284,0,0,0-.629-.176" transform="translate(-1.276 -12.558)"/>
                    </g>
                  </g>
                </g>
                <path id="Trazado_213534" data-name="Trazado 213534" d="M112.068,24.075h-9.663A3.359,3.359,0,0,0,99.05,27.43v7.18a3.36,3.36,0,0,0,2.975,3.334v1.743a.67.67,0,0,0,1.145.474l2.2-2.2h6.7a3.359,3.359,0,0,0,3.355-3.355V27.43A3.359,3.359,0,0,0,112.068,24.075Zm2.013,10.535a2.016,2.016,0,0,1-2.013,2.013h-6.979a.671.671,0,0,0-.474.2l-1.248,1.248v-.774a.671.671,0,0,0-.672-.671h-.29a2.016,2.016,0,0,1-2.013-2.013V27.43a2.016,2.016,0,0,1,2.013-2.013h9.663a2.016,2.016,0,0,1,2.013,2.013Z" transform="translate(-44.35 -10.78)" fill="none" stroke="#fff" stroke-miterlimit="10" stroke-width="0.75"/>
              </g>
            </g>
          </g>
        </g>
      </g>
      <g id="bolsa-de-la-compra_3_" data-name="bolsa-de-la-compra (3)" transform="translate(949.598 358.237)">
        <g id="Grupo_179102" data-name="Grupo 179102" transform="translate(12.438)">
          <g id="Grupo_179101" data-name="Grupo 179101" transform="translate(0)">
            <path id="Trazado_229620" data-name="Trazado 229620" d="M87.322,5.055A5.894,5.894,0,0,0,76.727,2.42a.693.693,0,1,0,1.119.818,4.507,4.507,0,0,1,8.1,2.012.694.694,0,0,0,.686.6.742.742,0,0,0,.1-.007A.694.694,0,0,0,87.322,5.055Z" transform="translate(-76.593)"/>
          </g>
        </g>
        <g id="Grupo_179104" data-name="Grupo 179104" transform="translate(1.387 9.013)">
          <g id="Grupo_179103" data-name="Grupo 179103" transform="translate(0)">
            <path id="Trazado_229621" data-name="Trazado 229621" d="M53.978,48.175,51.9,44.709a.692.692,0,0,0-.595-.337H49.311a.693.693,0,1,0,0,1.386h1.6l1.248,2.08H24.1l1.248-2.08h.734a.693.693,0,0,0,0-1.386H24.958a.692.692,0,0,0-.595.337l-2.08,3.467a.694.694,0,0,0,.595,1.05H53.384a.694.694,0,0,0,.595-1.05Z" transform="translate(-22.185 -44.372)"/>
          </g>
        </g>
        <g id="Grupo_179106" data-name="Grupo 179106" transform="translate(18.277 3.885)">
          <g id="Grupo_179105" data-name="Grupo 179105" transform="translate(0)">
            <path id="Trazado_229622" data-name="Trazado 229622" d="M116.79,21.664a.692.692,0,0,0-.431-.31l-9.451-2.211a.693.693,0,0,0-.833.517l-.713,3.047a.693.693,0,0,0,1.35.315l.555-2.371,8.1,1.895-1.273,5.443a.693.693,0,0,0,.517.833.7.7,0,0,0,.159.018.692.692,0,0,0,.674-.535l1.431-6.117A.69.69,0,0,0,116.79,21.664Z" transform="translate(-105.343 -19.126)"/>
          </g>
        </g>
        <g id="Grupo_179108" data-name="Grupo 179108" transform="translate(4.09 2.107)">
          <g id="Grupo_179107" data-name="Grupo 179107" transform="translate(0)">
            <path id="Trazado_229623" data-name="Trazado 229623" d="M49.1,16.329l-.632-5.343a.694.694,0,0,0-.77-.607l-11.6,1.371a.693.693,0,0,0-.607.77l1.053,8.911a.694.694,0,0,0,.688.612.757.757,0,0,0,.082,0,.694.694,0,0,0,.607-.77l-.972-8.223,10.219-1.208.55,4.654a.693.693,0,0,0,1.377-.162Z" transform="translate(-35.494 -10.374)"/>
          </g>
        </g>
        <g id="Grupo_179110" data-name="Grupo 179110" transform="translate(9.27 6.656)">
          <g id="Grupo_179109" data-name="Grupo 179109" transform="translate(0)">
            <path id="Trazado_229624" data-name="Trazado 229624" d="M74.909,39.023,73.533,33.3a.693.693,0,0,0-.836-.512L61.528,35.474a.693.693,0,0,0-.512.836l.688,2.86a.693.693,0,1,0,1.348-.324l-.526-2.186L72.347,34.3l1.214,5.048a.694.694,0,0,0,1.349-.325Z" transform="translate(-60.997 -32.769)"/>
          </g>
        </g>
        <g id="Grupo_179112" data-name="Grupo 179112" transform="translate(0 12.48)">
          <g id="Grupo_179111" data-name="Grupo 179111" transform="translate(0)">
            <path id="Trazado_229625" data-name="Trazado 229625" d="M48.637,62.1a.694.694,0,0,0-.693-.658H17.439a.693.693,0,0,0-.693.658L15.359,89.138a.693.693,0,0,0,.692.729H49.33a.693.693,0,0,0,.693-.729ZM16.781,88.48,18.1,62.827H47.285L48.6,88.48Z" transform="translate(-15.359 -61.441)"/>
          </g>
        </g>
        <g id="Grupo_179114" data-name="Grupo 179114" transform="translate(20.453 15.253)">
          <g id="Grupo_179113" data-name="Grupo 179113" transform="translate(0)">
            <path id="Trazado_229626" data-name="Trazado 229626" d="M118.132,75.093a2.08,2.08,0,1,0,2.08,2.08A2.082,2.082,0,0,0,118.132,75.093Zm0,2.773a.693.693,0,1,1,.693-.693A.694.694,0,0,1,118.132,77.866Z" transform="translate(-116.052 -75.093)"/>
          </g>
        </g>
        <g id="Grupo_179116" data-name="Grupo 179116" transform="translate(10.053 15.253)">
          <g id="Grupo_179115" data-name="Grupo 179115" transform="translate(0)">
            <path id="Trazado_229627" data-name="Trazado 229627" d="M66.932,75.093a2.08,2.08,0,1,0,2.08,2.08A2.082,2.082,0,0,0,66.932,75.093Zm0,2.773a.693.693,0,1,1,.693-.693A.694.694,0,0,1,66.932,77.866Z" transform="translate(-64.852 -75.093)"/>
          </g>
        </g>
        <g id="Grupo_179118" data-name="Grupo 179118" transform="translate(11.44 17.333)">
          <g id="Grupo_179117" data-name="Grupo 179117" transform="translate(0)">
            <path id="Trazado_229628" data-name="Trazado 229628" d="M82.772,85.333h-.053a.694.694,0,0,0-.693.693.685.685,0,0,0,.053.267v3.546a4.507,4.507,0,0,1-9.013,0V86.026a.693.693,0,0,0-1.386,0V89.84a5.893,5.893,0,1,0,11.786,0V86.026A.694.694,0,0,0,82.772,85.333Z" transform="translate(-71.679 -85.333)"/>
          </g>
        </g>
      </g>
    </g>
  </g>
</svg>
