<svg xmlns="http://www.w3.org/2000/svg" xmlns:xlink="http://www.w3.org/1999/xlink" width="134.937" height="39.141" viewBox="0 0 134.937 39.141">
  <defs>
    <clipPath id="clip-path">
      <rect id="Rectángulo_58539" data-name="Rectángulo 58539" width="134.937" height="39.141" transform="translate(0 0)" fill="none"/>
    </clipPath>
  </defs>
  <g id="Grupo_184194" data-name="Grupo 184194" transform="translate(11722.27 12148.026)">
    <g id="Grupo_184189" data-name="Grupo 184189" transform="translate(-12712.603 -12562.026)">
      <g id="Grupo_179121" data-name="Grupo 179121" transform="translate(990.333 414)">
        <g id="Grupo_179120" data-name="Grupo 179120" clip-path="url(#clip-path)">
          <path id="Trazado_229629" data-name="Trazado 229629" d="M1.44,38.1l10.2-6.274,116.142.532s5.271,1.276,6.155-5.8-2.7-24.381-2.7-24.381S86.27,2.089,73.6,1.6s-33.5,0-33.5,0H6.106S1.2.716.7,8.672,1.44,38.1,1.44,38.1" fill="#fff"/>
          <path id="Trazado_229630" data-name="Trazado 229630" d="M30.673,2.822h1.411a1.411,1.411,0,0,0,0-2.822H30.673a1.411,1.411,0,1,0,0,2.822" fill="#060708"/>
          <path id="Trazado_229631" data-name="Trazado 229631" d="M25.025.375H6.741A6.751,6.751,0,0,0,0,7.06V38.1a1.036,1.036,0,0,0,1.542.9L11.358,33.5H128.193a6.753,6.753,0,0,0,6.743-6.685V7.057A6.75,6.75,0,0,0,128.2.375H36.743a1.036,1.036,0,1,0,0,2.071h91.462a4.671,4.671,0,0,1,4.659,4.605V26.814a4.673,4.673,0,0,1-4.663,4.61H11.089a1.035,1.035,0,0,0-.506.132L2.072,36.335V7.057A4.687,4.687,0,0,1,6.784,2.446H25.025a1.036,1.036,0,1,0,0-2.071" fill="#060708"/>
          <path id="Trazado_229632" data-name="Trazado 229632" d="M27.154,14.195a1.03,1.03,0,0,0-.566-.281l-5.3-.816L18.91,8.029a1.03,1.03,0,0,0-.586-.536,1.043,1.043,0,0,0-.352-.061,1.016,1.016,0,0,0-.44.1,1.032,1.032,0,0,0-.5.5L14.649,13.1l-5.3.816a1.035,1.035,0,0,0-.588,1.747l3.862,3.965-.915,5.612a1.036,1.036,0,0,0,.856,1.188,1.043,1.043,0,0,0,.667-.115L17.967,23.7,22.7,26.311a1.037,1.037,0,0,0,1.523-1.073l-.916-5.612,3.869-3.965a1.038,1.038,0,0,0-.021-1.466m-5.691,4.358a1.042,1.042,0,0,0-.281.892l.656,4.021L18.472,21.6a1.025,1.025,0,0,0-1,0l-3.364,1.854.649-4.017a1.045,1.045,0,0,0-.281-.892L11.65,15.656l3.856-.592a1.034,1.034,0,0,0,.781-.587l1.68-3.577,1.678,3.577a1.04,1.04,0,0,0,.782.589l3.854.59Z" fill="#060708"/>
          <path id="Trazado_229633" data-name="Trazado 229633" d="M51.413,14.607h0a1.031,1.031,0,0,0-.824-.692L45.284,13.1,42.9,8.024a1.036,1.036,0,0,0-1.875,0L38.638,13.1l-5.3.811a1.035,1.035,0,0,0-.588,1.747l3.868,3.965L35.7,25.233a1.036,1.036,0,0,0,.857,1.188,1.055,1.055,0,0,0,.667-.115l4.732-2.615,4.732,2.615a1.036,1.036,0,0,0,1.529-1.07L47.3,19.625,51.17,15.66a1.034,1.034,0,0,0,.243-1.053m-5.958,3.945a1.035,1.035,0,0,0-.28.89l.655,4.022L42.465,21.6a1.033,1.033,0,0,0-1,0L38.1,23.457l.656-4.02a1.046,1.046,0,0,0-.281-.892l-2.82-2.893,3.856-.591a1.034,1.034,0,0,0,.78-.586l1.68-3.577,1.679,3.576a1.038,1.038,0,0,0,.782.589l3.854.591Z" fill="#060708"/>
          <path id="Trazado_229634" data-name="Trazado 229634" d="M75.4,14.609l-.028-.084a1.03,1.03,0,0,0-.793-.611L69.278,13.1,66.893,8.024a1.036,1.036,0,0,0-1.875,0L62.632,13.1l-5.3.811a1.036,1.036,0,0,0-.588,1.747l3.868,3.965-.915,5.612a1.036,1.036,0,0,0,.857,1.188,1.05,1.05,0,0,0,.667-.115l4.732-2.615,4.732,2.615a1.027,1.027,0,0,0,.789.093,1.035,1.035,0,0,0,.74-1.163l-.915-5.612,3.87-3.964a1.033,1.033,0,0,0,.239-1.052m-5.955,3.944a1.039,1.039,0,0,0-.281.891l.656,4.021L66.459,21.6a1.025,1.025,0,0,0-1,0l-3.367,1.854.656-4.02a1.046,1.046,0,0,0-.281-.892L59.64,15.653l3.858-.592a1.034,1.034,0,0,0,.78-.586l1.68-3.578,1.679,3.577a1.038,1.038,0,0,0,.782.589l3.854.59Z" fill="#060708"/>
          <path id="Trazado_229635" data-name="Trazado 229635" d="M99.408,14.609l-.023-.072a1.035,1.035,0,0,0-.8-.623L93.281,13.1,90.9,8.024a1.036,1.036,0,0,0-1.875,0L86.635,13.1l-5.3.811a1.036,1.036,0,0,0-.588,1.747l3.867,3.965-.915,5.612a1.036,1.036,0,0,0,.857,1.188,1.049,1.049,0,0,0,.667-.115l4.732-2.615,4.732,2.615a1.036,1.036,0,0,0,1.412-.4,1.048,1.048,0,0,0,.117-.67L95.3,19.625l3.871-3.964a1.034,1.034,0,0,0,.24-1.052m-5.956,3.944a1.04,1.04,0,0,0-.281.891l.656,4.021L90.462,21.6a1.025,1.025,0,0,0-1,0l-3.367,1.854.656-4.02a1.046,1.046,0,0,0-.281-.892l-2.826-2.893,3.858-.592a1.034,1.034,0,0,0,.78-.586l1.68-3.578,1.679,3.577a1.038,1.038,0,0,0,.782.589l3.854.59Z" fill="#060708"/>
          <path id="Trazado_229636" data-name="Trazado 229636" d="M123.6,14.609l-.033-.1a1.034,1.034,0,0,0-.786-.6l-5.3-.816-2.387-5.074a1.032,1.032,0,0,0-1.377-.5,1.041,1.041,0,0,0-.5.5L110.826,13.1l-5.3.811a1.036,1.036,0,0,0-.588,1.747l3.869,3.965-.915,5.612a1.036,1.036,0,0,0,.856,1.188,1.048,1.048,0,0,0,.667-.115l4.733-2.615,4.732,2.615a1.037,1.037,0,0,0,1.529-1.07l-.915-5.611,3.867-3.965a1.033,1.033,0,0,0,.24-1.052m-5.951,3.943a1.036,1.036,0,0,0-.282.891l.657,4.022L114.653,21.6a1.023,1.023,0,0,0-1,0l-3.367,1.854.656-4.02a1.047,1.047,0,0,0-.281-.892l-2.826-2.893,3.857-.592a1.034,1.034,0,0,0,.781-.587l1.68-3.577,1.679,3.577a1.04,1.04,0,0,0,.782.589l3.854.59Z" fill="#060708"/>
        </g>
      </g>
    </g>
  </g>
</svg>
