<svg xmlns="http://www.w3.org/2000/svg" width="49.208" height="38" viewBox="0 0 49.208 38">
  <g id="Grupo_181601" data-name="Grupo 181601" transform="translate(0 60.769) rotate(-90)">
    <rect id="Rectángulo_45220" data-name="Rectángulo 45220" width="28.614" height="28.408" transform="translate(60.769 28.408) rotate(180)" fill="#8c5be1"/>
    <g id="Grupo_152581" data-name="Grupo 152581" transform="translate(22.769 21.164)">
      <g id="Grupo_152556" data-name="Grupo 152556" transform="translate(0 15.183)">
        <rect id="Rectángulo_45221" data-name="Rectángulo 45221" width="2.45" height="2.45" transform="translate(26.03 10.412)" fill="#43a99b"/>
        <rect id="Rectángulo_45222" data-name="Rectángulo 45222" width="2.45" height="2.45" transform="translate(20.824 10.412)" fill="#43a99b"/>
        <rect id="Rectángulo_45223" data-name="Rectángulo 45223" width="2.45" height="2.45" transform="translate(15.618 10.412)" fill="#43a99b"/>
        <rect id="Rectángulo_45224" data-name="Rectángulo 45224" width="2.45" height="2.45" transform="translate(10.412 10.412)" fill="#43a99b"/>
        <rect id="Rectángulo_45225" data-name="Rectángulo 45225" width="2.45" height="2.45" transform="translate(5.206 10.412)" fill="#43a99b"/>
        <rect id="Rectángulo_45226" data-name="Rectángulo 45226" width="2.45" height="2.45" transform="translate(0 10.412)" fill="#43a99b"/>
        <rect id="Rectángulo_45232" data-name="Rectángulo 45232" width="2.45" height="2.45" transform="translate(26.03 5.206)" fill="#43a99b"/>
        <rect id="Rectángulo_45233" data-name="Rectángulo 45233" width="2.45" height="2.45" transform="translate(20.824 5.206)" fill="#43a99b"/>
        <rect id="Rectángulo_45234" data-name="Rectángulo 45234" width="2.45" height="2.45" transform="translate(15.618 5.206)" fill="#43a99b"/>
        <rect id="Rectángulo_45235" data-name="Rectángulo 45235" width="2.45" height="2.45" transform="translate(10.412 5.206)" fill="#43a99b"/>
        <rect id="Rectángulo_45236" data-name="Rectángulo 45236" width="2.45" height="2.45" transform="translate(5.206 5.206)" fill="#43a99b"/>
        <rect id="Rectángulo_45237" data-name="Rectángulo 45237" width="2.45" height="2.45" transform="translate(0 5.206)" fill="#43a99b"/>
        <rect id="Rectángulo_45243" data-name="Rectángulo 45243" width="2.45" height="2.45" transform="translate(26.03)" fill="#43a99b"/>
        <rect id="Rectángulo_45244" data-name="Rectángulo 45244" width="2.45" height="2.45" transform="translate(20.824)" fill="#43a99b"/>
        <rect id="Rectángulo_45245" data-name="Rectángulo 45245" width="2.45" height="2.45" transform="translate(15.618)" fill="#43a99b"/>
        <rect id="Rectángulo_45246" data-name="Rectángulo 45246" width="2.45" height="2.45" transform="translate(10.412)" fill="#43a99b"/>
        <rect id="Rectángulo_45247" data-name="Rectángulo 45247" width="2.45" height="2.45" transform="translate(5.206)" fill="#43a99b"/>
        <rect id="Rectángulo_45248" data-name="Rectángulo 45248" width="2.45" height="2.45" fill="#43a99b"/>
      </g>
      <g id="Grupo_152580" data-name="Grupo 152580" transform="translate(0)">
        <rect id="Rectángulo_45221-2" data-name="Rectángulo 45221" width="2.45" height="2.45" transform="translate(26.03 10.412)" fill="#43a99b"/>
        <rect id="Rectángulo_45222-2" data-name="Rectángulo 45222" width="2.45" height="2.45" transform="translate(20.824 10.412)" fill="#43a99b"/>
        <rect id="Rectángulo_45223-2" data-name="Rectángulo 45223" width="2.45" height="2.45" transform="translate(15.618 10.412)" fill="#43a99b"/>
        <rect id="Rectángulo_45224-2" data-name="Rectángulo 45224" width="2.45" height="2.45" transform="translate(10.412 10.412)" fill="#43a99b"/>
        <rect id="Rectángulo_45225-2" data-name="Rectángulo 45225" width="2.45" height="2.45" transform="translate(5.206 10.412)" fill="#43a99b"/>
        <rect id="Rectángulo_45226-2" data-name="Rectángulo 45226" width="2.45" height="2.45" transform="translate(0 10.412)" fill="#43a99b"/>
        <rect id="Rectángulo_45232-2" data-name="Rectángulo 45232" width="2.45" height="2.45" transform="translate(26.03 5.206)" fill="#43a99b"/>
        <rect id="Rectángulo_45233-2" data-name="Rectángulo 45233" width="2.45" height="2.45" transform="translate(20.824 5.206)" fill="#43a99b"/>
        <rect id="Rectángulo_45234-2" data-name="Rectángulo 45234" width="2.45" height="2.45" transform="translate(15.618 5.206)" fill="#43a99b"/>
        <rect id="Rectángulo_45235-2" data-name="Rectángulo 45235" width="2.45" height="2.45" transform="translate(10.412 5.206)" fill="#43a99b"/>
        <rect id="Rectángulo_45236-2" data-name="Rectángulo 45236" width="2.45" height="2.45" transform="translate(5.206 5.206)" fill="#43a99b"/>
        <rect id="Rectángulo_45237-2" data-name="Rectángulo 45237" width="2.45" height="2.45" transform="translate(0 5.206)" fill="#43a99b"/>
        <rect id="Rectángulo_45243-2" data-name="Rectángulo 45243" width="2.45" height="2.45" transform="translate(26.03)" fill="#43a99b"/>
        <rect id="Rectángulo_45244-2" data-name="Rectángulo 45244" width="2.45" height="2.45" transform="translate(20.824)" fill="#43a99b"/>
        <rect id="Rectángulo_45245-2" data-name="Rectángulo 45245" width="2.45" height="2.45" transform="translate(15.618)" fill="#43a99b"/>
        <rect id="Rectángulo_45246-2" data-name="Rectángulo 45246" width="2.45" height="2.45" transform="translate(10.412)" fill="#43a99b"/>
        <rect id="Rectángulo_45247-2" data-name="Rectángulo 45247" width="2.45" height="2.45" transform="translate(5.206)" fill="#43a99b"/>
        <rect id="Rectángulo_45248-2" data-name="Rectángulo 45248" width="2.45" height="2.45" fill="#43a99b"/>
      </g>
    </g>
  </g>
</svg>
