<svg xmlns="http://www.w3.org/2000/svg" xmlns:xlink="http://www.w3.org/1999/xlink" width="49" height="50" viewBox="0 0 49 50">
  <defs>
    <clipPath id="clip-path">
      <rect id="Rectángulo_62491" data-name="Rectángulo 62491" width="49" height="50" transform="translate(776 1727)" fill="#eeac3a"/>
    </clipPath>
  </defs>
  <g id="Grupo_184429" data-name="Grupo 184429" transform="translate(-1024 -1889)">
    <g id="Enmascarar_grupo_74" data-name="Enmascarar grupo 74" transform="translate(248 162)" clip-path="url(#clip-path)">
      <g id="clasificacion_1_" data-name="clasificacion (1)" transform="translate(775.5 1727)">
        <g id="Grupo_180941" data-name="Grupo 180941">
          <g id="Grupo_180939" data-name="Grupo 180939">
            <g id="Grupo_180938" data-name="Grupo 180938">
              <g id="Grupo_180931" data-name="Grupo 180931">
                <g id="Grupo_180930" data-name="Grupo 180930">
                  <g id="Grupo_180929" data-name="Grupo 180929">
                    <g id="Grupo_180926" data-name="Grupo 180926">
                      <g id="Grupo_180925" data-name="Grupo 180925">
                        <g id="Grupo_180924" data-name="Grupo 180924">
                          <g id="Grupo_180922" data-name="Grupo 180922">
                            <path id="Trazado_232015" data-name="Trazado 232015" d="M29.174,25.227v-6H20.826v6a2.183,2.183,0,0,1-1.7,2.126s.221,4.931,5.869,4.931,6.226-4.859,6.226-4.859l-.281-.054a2.183,2.183,0,0,1-1.771-2.144Z" fill="#ffddce"/>
                            <path id="Trazado_232016" data-name="Trazado 232016" d="M37.738,43.377V40.409a13.485,13.485,0,0,0-7.969-12.3L25,30.327s-5.919-2.96-5.945-2.955l-2.315.445A12.9,12.9,0,0,0,6.281,40.481V43.32A3.161,3.161,0,0,0,9.442,46.48H35.571a3.305,3.305,0,0,0,2.167-3.1Z" fill="#43a99b"/>
                            <g id="Grupo_180919" data-name="Grupo 180919">
                              <path id="Trazado_232017" data-name="Trazado 232017" d="M33.259,27.817l-2.033-.391-2.271,1.058a12.9,12.9,0,0,1,8.161,12V43.32a3.161,3.161,0,0,1-3.161,3.161h6.6a3.161,3.161,0,0,0,3.161-3.161V40.481A12.9,12.9,0,0,0,33.259,27.817Z" fill="#258679"/>
                            </g>
                          </g>
                        </g>
                      </g>
                    </g>
                    <g id="Grupo_180928" data-name="Grupo 180928">
                      <path id="Trazado_232018" data-name="Trazado 232018" d="M18.135,26.729l-1.977,1.212,4.565,4.572a1.185,1.185,0,0,0,1.586.06L25,30.327l-5.656-3.588A1.142,1.142,0,0,0,18.135,26.729Z" fill="#258679"/>
                      <g id="Grupo_180927" data-name="Grupo 180927">
                        <path id="Trazado_232019" data-name="Trazado 232019" d="M31.865,26.729l1.977,1.212-4.565,4.572a1.185,1.185,0,0,1-1.586.06L25,30.327l5.656-3.588a1.142,1.142,0,0,1,1.209-.009Z" fill="#258679"/>
                      </g>
                    </g>
                  </g>
                </g>
              </g>
              <g id="Grupo_180937" data-name="Grupo 180937">
                <g id="Grupo_180932" data-name="Grupo 180932">
                  <path id="Trazado_232020" data-name="Trazado 232020" d="M26.841,23.05a8.316,8.316,0,0,0,2.745-6.121l-.029-7.414c-.013-3.055-2.473-6.19-5.235-8.059a8.307,8.307,0,0,0-7.766,8.28l.032,7.111A7.974,7.974,0,0,0,19.27,22.7a8.834,8.834,0,0,0,4.647,2.134,9.536,9.536,0,0,0,2.924-1.779Z" fill="#ffddce"/>
                </g>
                <path id="Trazado_232021" data-name="Trazado 232021" d="M26.468,22.708a9.061,9.061,0,0,1-3.5,1.941,8.462,8.462,0,0,0,7.83-2,7.976,7.976,0,0,0,2.633-5.871L33.4,9.664a8.339,8.339,0,0,0-8.458-8.24,8.852,8.852,0,0,0-1.385.131c2.853,1.753,5.516,4.963,5.529,8.086l.028,7.157a8.028,8.028,0,0,1-2.65,5.909Z" fill="#ffcbbe"/>
                <g id="Grupo_180935" data-name="Grupo 180935">
                  <g id="Grupo_180933" data-name="Grupo 180933">
                    <path id="Trazado_232022" data-name="Trazado 232022" d="M33.426,10.583v6.365h1.69a1.716,1.716,0,0,0,1.716-1.716V12.3a1.716,1.716,0,0,0-1.716-1.716Z" fill="#9bc4f9"/>
                  </g>
                  <g id="Grupo_180934" data-name="Grupo 180934">
                    <path id="Trazado_232023" data-name="Trazado 232023" d="M16.574,10.583v6.365h-1.69a1.716,1.716,0,0,1-1.716-1.716V12.3a1.716,1.716,0,0,1,1.716-1.716Z" fill="#9bc4f9"/>
                  </g>
                </g>
                <path id="Trazado_232024" data-name="Trazado 232024" d="M35.324,16.935v1.042a1.61,1.61,0,0,1-1.608,1.609H30.864a.754.754,0,0,0,0,1.508h2.852a3.12,3.12,0,0,0,3.117-3.117V15.231a1.716,1.716,0,0,1-1.508,1.7Z" fill="#dbe8f9"/>
                <path id="Trazado_232025" data-name="Trazado 232025" d="M30.827,21.64H28.889a1.338,1.338,0,0,1,0-2.677h1.938a1.338,1.338,0,0,1,0,2.677Z" fill="#eeac3a"/>
                <g id="Grupo_180936" data-name="Grupo 180936">
                  <path id="Trazado_232026" data-name="Trazado 232026" d="M27.52,6.728a4.073,4.073,0,0,1,1.32-.177,13.381,13.381,0,0,0-5.01-5.412s-1.289-.228-1.554-.3a2.274,2.274,0,0,0-.585-.076,2.195,2.195,0,0,0-1.789.891.739.739,0,0,1-.544.3,2.114,2.114,0,0,0-1.9,1.49.874.874,0,0,1-.539.581A2.575,2.575,0,0,0,15.2,6.416a.722.722,0,0,1-.214.51,1.926,1.926,0,0,0-.567,1.357V10.43a1.1,1.1,0,0,0,1.078,1.1,1.1,1.1,0,0,1,1.078,1.1V13.8h1.151a1.367,1.367,0,0,0,1.367-1.37l-.007-3.644c0-2.052,1.693-2.557,3.394-2.054a9.605,9.605,0,0,0,5.041,0Z" fill="#756e78"/>
                </g>
                <path id="Trazado_232027" data-name="Trazado 232027" d="M28.3,6.57a2.105,2.105,0,0,1,2.618,2.212l-.007,3.644a1.367,1.367,0,0,0,1.367,1.37h1.151V12.635a1.1,1.1,0,0,1,1.078-1.1,1.1,1.1,0,0,0,1.078-1.1V8.283a1.926,1.926,0,0,0-.567-1.357.722.722,0,0,1-.214-.51,2.575,2.575,0,0,0-1.719-2.39.874.874,0,0,1-.539-.581,2.114,2.114,0,0,0-1.9-1.49.739.739,0,0,1-.544-.3A2.194,2.194,0,0,0,28.308.765a2.273,2.273,0,0,0-.585.076.884.884,0,0,1-.847-.214A2.392,2.392,0,0,0,25,0h0a2.36,2.36,0,0,0-1.875.627.884.884,0,0,1-.847.214Q22.2.822,22.13.807A13.092,13.092,0,0,1,28.3,6.57Z" fill="#665e66"/>
              </g>
            </g>
          </g>
          <g id="Grupo_180940" data-name="Grupo 180940">
            <path id="Trazado_232028" data-name="Trazado 232028" d="M40.028,50a2.037,2.037,0,0,0,2.037-2.037V38.99a2.037,2.037,0,0,0-2.037-2.037H3.779A2.037,2.037,0,0,0,1.742,38.99v8.973A2.037,2.037,0,0,0,3.779,50Z" fill="#8c5be1"/>
            <path id="Trazado_232029" data-name="Trazado 232029" d="M46.221,36.953H39.626a2.037,2.037,0,0,1,2.037,2.037v8.973A2.037,2.037,0,0,1,39.626,50h6.595a2.037,2.037,0,0,0,2.037-2.037V38.99A2.037,2.037,0,0,0,46.221,36.953Z" fill="#6a3fb5"/>
          </g>
        </g>
        <g id="Grupo_180943" data-name="Grupo 180943">
          <g id="Grupo_180942" data-name="Grupo 180942">
            <path id="Trazado_232030" data-name="Trazado 232030" d="M9.876,40.16l.724,1.728a.429.429,0,0,0,.361.262l1.867.154a.429.429,0,0,1,.245.753L11.652,44.28a.429.429,0,0,0-.138.424l.43,1.823a.429.429,0,0,1-.641.465L9.7,46.02a.43.43,0,0,0-.446,0l-1.6.973a.429.429,0,0,1-.641-.465l.43-1.823a.429.429,0,0,0-.138-.424L5.888,43.058a.429.429,0,0,1,.245-.753L8,42.15a.429.429,0,0,0,.361-.262l.724-1.728A.429.429,0,0,1,9.876,40.16Z" fill="#ffe07d"/>
            <path id="Trazado_232031" data-name="Trazado 232031" d="M20.223,40.16l.724,1.728a.429.429,0,0,0,.361.262l1.867.154a.429.429,0,0,1,.245.753L22,44.28a.429.429,0,0,0-.138.424l.43,1.823a.429.429,0,0,1-.641.465l-1.6-.972a.43.43,0,0,0-.446,0l-1.6.972a.429.429,0,0,1-.641-.465l.43-1.823a.429.429,0,0,0-.138-.424l-1.419-1.222a.429.429,0,0,1,.245-.753l1.867-.154a.429.429,0,0,0,.361-.262l.724-1.728a.429.429,0,0,1,.792,0Z" fill="#ffe07d"/>
            <path id="Trazado_232032" data-name="Trazado 232032" d="M30.569,40.16l.724,1.728a.429.429,0,0,0,.361.262l1.867.154a.429.429,0,0,1,.245.753L32.345,44.28a.429.429,0,0,0-.138.424l.43,1.823a.429.429,0,0,1-.641.465l-1.6-.972a.43.43,0,0,0-.446,0l-1.6.972a.429.429,0,0,1-.641-.465l.43-1.823A.429.429,0,0,0,28,44.28l-1.419-1.222a.429.429,0,0,1,.245-.753l1.867-.154a.429.429,0,0,0,.361-.262l.724-1.728A.429.429,0,0,1,30.569,40.16Z" fill="#ffe07d"/>
            <path id="Trazado_232033" data-name="Trazado 232033" d="M40.916,40.16l.724,1.728A.429.429,0,0,0,42,42.15l1.867.154a.429.429,0,0,1,.245.753L42.692,44.28a.429.429,0,0,0-.138.424l.43,1.823a.429.429,0,0,1-.641.465l-1.6-.972a.43.43,0,0,0-.446,0l-1.6.972a.429.429,0,0,1-.641-.465l.43-1.823a.429.429,0,0,0-.138-.424l-1.419-1.222a.429.429,0,0,1,.245-.753l1.867-.154a.429.429,0,0,0,.361-.262l.724-1.728a.429.429,0,0,1,.792,0Z" fill="#ffe07d"/>
          </g>
          <path id="Trazado_232034" data-name="Trazado 232034" d="M43.867,42.3,42,42.15a.429.429,0,0,1-.337-.215v4.643l.681.413a.429.429,0,0,0,.641-.465l-.43-1.823a.429.429,0,0,1,.138-.424l1.419-1.222a.429.429,0,0,0-.245-.753Z" fill="#ffd064"/>
        </g>
      </g>
    </g>
  </g>
</svg>
