<svg xmlns="http://www.w3.org/2000/svg" xmlns:xlink="http://www.w3.org/1999/xlink" width="49" height="50" viewBox="0 0 49 50">
  <defs>
    <clipPath id="clip-path">
      <rect id="Rectángulo_62493" data-name="Rectángulo 62493" width="49" height="50" transform="translate(1272 1727)" fill="#eeac3a"/>
    </clipPath>
  </defs>
  <g id="Grupo_184430" data-name="Grupo 184430" transform="translate(-1272 -1889)">
    <g id="Enmascarar_grupo_75" data-name="Enmascarar grupo 75" transform="translate(0 162)" clip-path="url(#clip-path)">
      <g id="apoyo-tecnico" transform="translate(1272 1727.5)">
        <g id="Grupo_180963" data-name="Grupo 180963">
          <g id="Grupo_180962" data-name="Grupo 180962">
            <g id="Grupo_180961" data-name="Grupo 180961">
              <g id="Grupo_180960" data-name="Grupo 180960">
                <g id="Grupo_180952" data-name="Grupo 180952">
                  <path id="Trazado_232035" data-name="Trazado 232035" d="M23.878,32.724V9.766a6.519,6.519,0,0,0-4.889-6.311A10.859,10.859,0,0,0,8.206,14.314s0,15.923,0,18.41H23.878Z" fill="#756e78"/>
                  <g id="Grupo_180944" data-name="Grupo 180944">
                    <path id="Trazado_232036" data-name="Trazado 232036" d="M23.467,9.951V21.968l-1.622.559v10.2h8.084c0-2.487,0-18.41,0-18.41A10.862,10.862,0,0,0,17.766,3.532a6.465,6.465,0,0,1,5.7,6.419Z" fill="#665e66"/>
                  </g>
                  <g id="Grupo_180950" data-name="Grupo 180950">
                    <g id="Grupo_180949" data-name="Grupo 180949">
                      <g id="Grupo_180948" data-name="Grupo 180948">
                        <g id="Grupo_180945" data-name="Grupo 180945">
                          <path id="Trazado_232037" data-name="Trazado 232037" d="M28.7,32.3s-4.071-2.334-4.095-2.339a2.06,2.06,0,0,1-1.6-2.006V22.3H15.124v5.658a2.06,2.06,0,0,1-1.6,2.006C13.5,29.97,9.43,32.3,9.43,32.3Z" fill="#ffddce"/>
                          <path id="Trazado_232038" data-name="Trazado 232038" d="M28.7,31.416H9.43A10.962,10.962,0,0,0,.539,42.18v3.673a2.982,2.982,0,0,0,2.982,2.982H34.609a2.982,2.982,0,0,0,2.982-2.982V42.18A10.962,10.962,0,0,0,28.7,31.416Z" fill="#43a99b"/>
                          <path id="Trazado_232039" data-name="Trazado 232039" d="M23.878,11.362a7.715,7.715,0,0,1-.719-1.593.411.411,0,0,0-.751-.072c-1.683,3.029-5.033,4.394-8.891,4.394h-2.2V19a7.747,7.747,0,0,0,7.746,7.63h.055A4.815,4.815,0,0,0,23.878,21.8Z" fill="#ffddce"/>
                          <path id="Trazado_232040" data-name="Trazado 232040" d="M23.467,10.571V19a7.75,7.75,0,0,1-6.074,7.447A7.745,7.745,0,0,0,26.811,19V14.092a7.176,7.176,0,0,1-3.344-3.521Z" fill="#ffcbbe"/>
                        </g>
                        <path id="Trazado_232041" data-name="Trazado 232041" d="M29.205,14.092H26.811V19q0,.022,0,.045c0,.007,0,.014,0,.021s0,.013,0,.02a7.786,7.786,0,0,1-.117,1.162h2.514A1.547,1.547,0,0,0,30.752,18.7V15.638a1.547,1.547,0,0,0-1.547-1.547Z" fill="#9bc4f9"/>
                        <g id="Grupo_180947" data-name="Grupo 180947">
                          <g id="Grupo_180946" data-name="Grupo 180946">
                            <path id="Trazado_232042" data-name="Trazado 232042" d="M30.752,18.7a1.547,1.547,0,0,1-1.478,1.545v1.6a1.546,1.546,0,0,1-1.544,1.544H23.135a.739.739,0,0,0,0,1.479H27.73a3.027,3.027,0,0,0,3.023-3.023Z" fill="#dbe8f9"/>
                            <path id="Trazado_232043" data-name="Trazado 232043" d="M24.122,25.3H22.249a1.294,1.294,0,1,1,0-2.588h1.873a1.294,1.294,0,1,1,0,2.588Z" fill="#db636e"/>
                          </g>
                        </g>
                      </g>
                    </g>
                  </g>
                  <g id="Grupo_180951" data-name="Grupo 180951" transform="translate(1.533 1.413)">
                    <path id="Trazado_232044" data-name="Trazado 232044" d="M26.842,32.071a2.089,2.089,0,0,0-2.084-2.2H5.324a2.089,2.089,0,0,0-2.086,2.2l.733,13.508H26.108Z" transform="translate(-0.26 0)" fill="#fff"/>
                    <path id="Trazado_232045" data-name="Trazado 232045" d="M32.105,29.869H26.177a2.089,2.089,0,0,1,2.086,2.2L27.53,45.579h5.928l.733-13.508A2.089,2.089,0,0,0,32.105,29.869Z" transform="translate(-2.104 0)" fill="#dbe8f9"/>
                    <path id="Trazado_232046" data-name="Trazado 232046" d="M29.322,47.239V46.157l-.2-.382H1.463a1.463,1.463,0,1,0,0,2.927h26.4a1.463,1.463,0,0,0,1.463-1.463Z" transform="translate(0 -1.279)" fill="#9bc4f9"/>
                    <path id="Trazado_232047" data-name="Trazado 232047" d="M36.019,45.775H31.544v1.463A1.463,1.463,0,0,1,30.081,48.7h5.939a1.463,1.463,0,0,0,0-2.927Z" transform="translate(-2.418 -1.279)" fill="#7fb2f9"/>
                  </g>
                </g>
                <g id="Grupo_180959" data-name="Grupo 180959">
                  <path id="Trazado_232048" data-name="Trazado 232048" d="M41.108.042H34.4A2.152,2.152,0,0,0,32.25,2.194V8.419A2.152,2.152,0,0,0,34.4,10.571c.475,0,.821,0,.98.247h4.162c.147-.147.222-.247.932-.247h.665a2.249,2.249,0,0,0,1.844-2.152V2.194A2.234,2.234,0,0,0,41.108.042Z" fill="#af86f6"/>
                  <path id="Trazado_232049" data-name="Trazado 232049" d="M46.848.042H40.4a2.152,2.152,0,0,1,2.152,2.152V8.419a2.152,2.152,0,0,1-2.076,2.151h6.37A2.152,2.152,0,0,0,49,8.419V2.194A2.152,2.152,0,0,0,46.848.042Z" fill="#8c5be1"/>
                  <g id="Grupo_180958" data-name="Grupo 180958">
                    <g id="Grupo_180955" data-name="Grupo 180955">
                      <g id="Grupo_180953" data-name="Grupo 180953">
                        <path id="Trazado_232050" data-name="Trazado 232050" d="M45.687,4.427H39.23a.739.739,0,1,1,0-1.479h6.457a.739.739,0,0,1,0,1.479Z" fill="#f2f9ff"/>
                      </g>
                      <g id="Grupo_180954" data-name="Grupo 180954">
                        <path id="Trazado_232051" data-name="Trazado 232051" d="M36.35,4.427h-.787a.739.739,0,1,1,0-1.479h.787a.739.739,0,0,1,0,1.479Z" fill="#f2f9ff"/>
                      </g>
                    </g>
                    <g id="Grupo_180957" data-name="Grupo 180957">
                      <g id="Grupo_180956" data-name="Grupo 180956">
                        <path id="Trazado_232052" data-name="Trazado 232052" d="M45.687,7.9H35.563a.739.739,0,0,1,0-1.479H45.687a.739.739,0,1,1,0,1.479Z" fill="#f2f9ff"/>
                      </g>
                    </g>
                  </g>
                </g>
              </g>
              <path id="Trazado_232054" data-name="Trazado 232054" d="M11.322,19.118s0,0,0,0c-.005-.163,0-.381,0-5.023H8.925a1.547,1.547,0,0,0-1.547,1.547V18.7a1.547,1.547,0,0,0,1.547,1.547h2.514a7.779,7.779,0,0,1-.116-1.126Z" fill="#9bc4f9"/>
            </g>
          </g>
        </g>
        <g id="Grupo_180964" data-name="Grupo 180964">
          <path id="Trazado_232055" data-name="Trazado 232055" d="M40.415,10.571H34.4a1.257,1.257,0,0,1,1.257,1.257v3.849a.482.482,0,0,0,.9.248L39.4,11.182a1.257,1.257,0,0,1,1.017-.609v0Z" fill="#8c5be1"/>
        </g>
      </g>
    </g>
  </g>
</svg>
