<svg xmlns="http://www.w3.org/2000/svg" xmlns:xlink="http://www.w3.org/1999/xlink" width="49" height="50" viewBox="0 0 49 50">
  <defs>
    <clipPath id="clip-path">
      <rect id="Rectángulo_62494" data-name="Rectángulo 62494" width="49" height="50" transform="translate(280 1727)" fill="#eeac3a"/>
    </clipPath>
  </defs>
  <g id="Grupo_184426" data-name="Grupo 184426" transform="translate(-280 -1889)">
    <g id="Enmascarar_grupo_72" data-name="Enmascarar grupo 72" transform="translate(0 162)" clip-path="url(#clip-path)">
      <g id="atencion-al-cliente_1_" data-name="atencion-al-cliente (1)" transform="translate(280 1727.5)">
        <g id="Grupo_180904" data-name="Grupo 180904">
          <g id="Grupo_180903" data-name="Grupo 180903">
            <g id="Grupo_180902" data-name="Grupo 180902">
              <g id="Grupo_180900" data-name="Grupo 180900">
                <g id="Grupo_180888" data-name="Grupo 180888">
                  <path id="Trazado_231967" data-name="Trazado 231967" d="M37.608,6.229a3.675,3.675,0,0,0-2.552-3.5A7.79,7.79,0,0,0,28.2,10.464s0,11.421,0,13.2h9.409Z" fill="#756e78"/>
                  <g id="Grupo_180866" data-name="Grupo 180866">
                    <path id="Trazado_231968" data-name="Trazado 231968" d="M43.78,10.464a7.783,7.783,0,0,0-9.144-7.669,3.633,3.633,0,0,1,2.705,3.512V23.668h6.441c0-1.784,0-13.2,0-13.2Z" fill="#665e66"/>
                  </g>
                  <g id="Grupo_180867" data-name="Grupo 180867">
                    <path id="Trazado_231969" data-name="Trazado 231969" d="M42,18.242H38.7a.739.739,0,1,1,0-1.479H42a.9.9,0,0,0,.9-.9V12.9h1.479v2.961A2.38,2.38,0,0,1,42,18.242Z" fill="#dbe8f9"/>
                  </g>
                  <g id="Grupo_180869" data-name="Grupo 180869">
                    <g id="Grupo_180868" data-name="Grupo 180868">
                      <path id="Trazado_231970" data-name="Trazado 231970" d="M40.659,10.3v4.413h2.6a1.109,1.109,0,0,0,1.109-1.109V11.414A1.109,1.109,0,0,0,43.264,10.3Z" fill="#9bc4f9"/>
                    </g>
                  </g>
                  <g id="Grupo_180871" data-name="Grupo 180871">
                    <g id="Grupo_180870" data-name="Grupo 180870">
                      <path id="Trazado_231971" data-name="Trazado 231971" d="M31.322,10.3v4.413h-2.6a1.109,1.109,0,0,1-1.109-1.109V11.414A1.109,1.109,0,0,1,28.717,10.3Z" fill="#9bc4f9"/>
                    </g>
                  </g>
                  <g id="Grupo_180879" data-name="Grupo 180879">
                    <g id="Grupo_180875" data-name="Grupo 180875">
                      <g id="Grupo_180874" data-name="Grupo 180874">
                        <g id="Grupo_180873" data-name="Grupo 180873">
                          <path id="Trazado_231972" data-name="Trazado 231972" d="M42.146,25.927l-1.828-4.018-.055-.013a1.588,1.588,0,0,1-1.233-1.546V15.987H32.952v4.362A1.588,1.588,0,0,1,31.719,21.9l-.055.013-1.828,4.018Z" fill="#ffddce"/>
                          <path id="Trazado_231973" data-name="Trazado 231973" d="M42.492,22.452l-.042.037a8.232,8.232,0,0,1-12.918,0l-.046-.036a8.452,8.452,0,0,0-6.5,8.224v5.131H49V30.677a8.452,8.452,0,0,0-6.508-8.225Z" fill="#dbe8f9"/>
                          <g id="Grupo_180872" data-name="Grupo 180872">
                            <path id="Trazado_231974" data-name="Trazado 231974" d="M43.126,30.677a8.445,8.445,0,0,0-2.887-6.36s-.252-.189-.623-.48a33.774,33.774,0,0,1-.586,11.971h4.1Z" fill="#7fb2f9"/>
                          </g>
                          <path id="Trazado_231975" data-name="Trazado 231975" d="M42.146,22.378l-1.828-.469-.055-.013a1.59,1.59,0,0,1-1.135-1l.24,1.34c.124.691.223,1.385.3,2.08a8.445,8.445,0,0,1,2.887,6.36v5.131H49V30.677A8.452,8.452,0,0,0,42.146,22.378Z" fill="#60a0f7"/>
                          <path id="Trazado_231976" data-name="Trazado 231976" d="M32.614,22.237l.24-1.34a1.59,1.59,0,0,1-1.135,1l-.055.013-1.828.469a8.452,8.452,0,0,0-6.854,8.3v5.131h9.97a33.771,33.771,0,0,1-.339-13.571Z" fill="#7fb2f9"/>
                        </g>
                      </g>
                    </g>
                    <g id="Grupo_180878" data-name="Grupo 180878">
                      <g id="Grupo_180876" data-name="Grupo 180876">
                        <path id="Trazado_231977" data-name="Trazado 231977" d="M27.109,36.548a.739.739,0,0,1-.739-.739V32.95a.739.739,0,0,1,1.479,0v2.858A.739.739,0,0,1,27.109,36.548Z" fill="#9bc4f9"/>
                      </g>
                      <g id="Grupo_180877" data-name="Grupo 180877">
                        <path id="Trazado_231978" data-name="Trazado 231978" d="M44.873,36.548a.739.739,0,0,1-.739-.739V32.95a.739.739,0,0,1,1.479,0v2.858A.739.739,0,0,1,44.873,36.548Z" fill="#9bc4f9"/>
                      </g>
                    </g>
                    <path id="Trazado_231979" data-name="Trazado 231979" d="M42.93,30.4H45.3a.789.789,0,0,0,.789-.789V28.455a.789.789,0,0,0-.789-.789H42.93a.789.789,0,0,0-.789.789V29.61A.789.789,0,0,0,42.93,30.4Z" fill="#eaf2ff"/>
                  </g>
                  <g id="Grupo_180887" data-name="Grupo 180887">
                    <g id="Grupo_180886" data-name="Grupo 180886">
                      <g id="Grupo_180885" data-name="Grupo 180885">
                        <g id="Grupo_180884" data-name="Grupo 180884">
                          <g id="Grupo_180883" data-name="Grupo 180883">
                            <g id="Grupo_180880" data-name="Grupo 180880">
                              <path id="Trazado_231980" data-name="Trazado 231980" d="M32.012,10.3H30.435v3.519A5.56,5.56,0,0,0,34.1,18.965a5.689,5.689,0,0,0,3.51-5.135V8.23A7.453,7.453,0,0,1,32.012,10.3Z" fill="#ffddce"/>
                            </g>
                            <path id="Trazado_231981" data-name="Trazado 231981" d="M38.928,7.2a.3.3,0,0,0-.539-.051A5.49,5.49,0,0,1,37.342,8.5v5.327a5.559,5.559,0,0,1-3.453,5.06,5.558,5.558,0,0,0,7.658-5.06V10.3a5.212,5.212,0,0,1-2.619-3.1Z" fill="#ffcbbe"/>
                            <g id="Grupo_180882" data-name="Grupo 180882">
                              <g id="Grupo_180881" data-name="Grupo 180881">
                                <path id="Trazado_231982" data-name="Trazado 231982" d="M39.789,18.58H38.1a1.165,1.165,0,1,1,0-2.329h1.686a1.165,1.165,0,1,1,0,2.329Z" fill="#db636e"/>
                              </g>
                            </g>
                          </g>
                        </g>
                      </g>
                    </g>
                  </g>
                </g>
                <path id="Trazado_231983" data-name="Trazado 231983" d="M41.128,46.326a2,2,0,0,0,2-2V35.177H10.789V46.326Z" fill="#eaf2ff"/>
                <path id="Trazado_231984" data-name="Trazado 231984" d="M42.559,35.177v9.151a2,2,0,0,1-2,2H47a2,2,0,0,0,2-2V35.177Z" fill="#dbe8f9"/>
                <g id="Grupo_180899" data-name="Grupo 180899">
                  <g id="Grupo_180898" data-name="Grupo 180898">
                    <g id="Grupo_180897" data-name="Grupo 180897">
                      <g id="Grupo_180896" data-name="Grupo 180896">
                        <g id="Grupo_180895" data-name="Grupo 180895">
                          <g id="Grupo_180894" data-name="Grupo 180894">
                            <g id="Grupo_180893" data-name="Grupo 180893">
                              <g id="Grupo_180892" data-name="Grupo 180892">
                                <g id="Grupo_180891" data-name="Grupo 180891">
                                  <g id="Grupo_180890" data-name="Grupo 180890">
                                    <path id="Trazado_231985" data-name="Trazado 231985" d="M17.411,30.162V25.6H11.062v4.561a1.66,1.66,0,0,1-1.289,1.617s.168,3.75,4.464,3.75a4.419,4.419,0,0,0,4.735-3.7l-.214-.041A1.661,1.661,0,0,1,17.411,30.162Z" fill="#ffddce"/>
                                    <path id="Trazado_231986" data-name="Trazado 231986" d="M4.765,46.006h1.15l.17.319H22.371l.175-.319c0-1.361,0-3.013,0-4.208a10.388,10.388,0,0,0-5.031-8.9A6.589,6.589,0,0,1,9.826,31.83l-.053-.051-.058.014-1.76.339A9.808,9.808,0,0,0,0,41.763v2.159a2.4,2.4,0,0,0,2.4,2.4h2.2Z" fill="#ad86f0"/>
                                    <path id="Trazado_231987" data-name="Trazado 231987" d="M20.518,32.131l-1.546-.3a6.566,6.566,0,0,1-2.024,1.332,9.809,9.809,0,0,1,5.087,8.6v4.563h.336l.175-.319H23.67l.179.319h2.219a2.4,2.4,0,0,0,2.4-2.4V41.762a9.808,9.808,0,0,0-7.955-9.631Z" fill="#8c5be1"/>
                                  </g>
                                </g>
                              </g>
                            </g>
                          </g>
                        </g>
                      </g>
                    </g>
                  </g>
                  <path id="Trazado_231988" data-name="Trazado 231988" d="M12.725,28.433a5.867,5.867,0,0,0,1.03-1.187h0a6.151,6.151,0,0,0,.358-.621A8.937,8.937,0,0,1,8.943,24.9l-.054-.04a3.615,3.615,0,0,1-1.234-1.706c-.025-.071-.154-.142-.318-.212q.024.047.048.094a4.082,4.082,0,0,1,.461,1.413,6.038,6.038,0,0,0,2,3.837,6.778,6.778,0,0,0,1.3.9l.521.026a7.523,7.523,0,0,0,1.051-.776Z" fill="#ffddce"/>
                  <path id="Trazado_231989" data-name="Trazado 231989" d="M22.292,17.321l-.007-.046a1.465,1.465,0,0,0-.431-1.032.549.549,0,0,1-.163-.388,1.958,1.958,0,0,0-1.308-1.818.665.665,0,0,1-.41-.442,1.609,1.609,0,0,0-1.454-1.133.549.549,0,0,1-.408-.228,1.669,1.669,0,0,0-1.36-.677,1.732,1.732,0,0,0-.445.058.672.672,0,0,1-.644-.163,1.819,1.819,0,0,0-1.426-.477h0a1.8,1.8,0,0,0-1.426.477.672.672,0,0,1-.644.163,1.742,1.742,0,0,0-1.006.035,1.678,1.678,0,0,1,.489.283c.319.259.336.5.693.529a1.71,1.71,0,0,1,.827.282c.773.519.457,1.074,1.037,1.293a1.958,1.958,0,0,1,1.308,1.818c0,.484.641.41.643,2.009,0,1.28-.267.454-.79,3.816-.192,1.236-.757,1.507-.9,2.71A6.039,6.039,0,0,1,12.5,28.243a7.24,7.24,0,0,1-1.342.939,6.586,6.586,0,0,0,3.116.791,6.713,6.713,0,0,0,4.4-1.73,6.038,6.038,0,0,0,1.972-3.854,3.906,3.906,0,0,1,.455-1.4l0-.008a4.036,4.036,0,0,0,.438-1.3,17.3,17.3,0,0,1,.455-2.3,3.579,3.579,0,0,0,.293-2.057Z" fill="#ffcbbe"/>
                  <path id="Trazado_231990" data-name="Trazado 231990" d="M14.692,24.854c.02-.117.039-.242.053-.369.143-1.232.722-1.51.919-2.776.536-3.444.81-2.6.809-3.909,0-1.638-.661-1.563-.659-2.058a2.006,2.006,0,0,0-1.339-1.862c-.594-.225-.271-.793-1.062-1.325a1.751,1.751,0,0,0-.847-.289c-.366-.026-.383-.276-.71-.542l-.7-.074a1.576,1.576,0,0,0-.8.584.55.55,0,0,1-.408.228A1.608,1.608,0,0,0,8.5,13.6a.665.665,0,0,1-.41.442,1.958,1.958,0,0,0-1.308,1.818.549.549,0,0,1-.163.388,1.465,1.465,0,0,0-.431,1.032l-.007.046a3.579,3.579,0,0,0,.3,2.075,17.887,17.887,0,0,1,.48,2.376,4.025,4.025,0,0,0,.424,1.261,4.362,4.362,0,0,1,.269.611,3.615,3.615,0,0,0,1.234,1.706l.054.04a8.912,8.912,0,0,0,4.9,1.719,6.679,6.679,0,0,0,.852-2.254Z" fill="#756e78"/>
                  <path id="Trazado_231991" data-name="Trazado 231991" d="M22.292,17.321l-.007-.046a1.465,1.465,0,0,0-.431-1.032.549.549,0,0,1-.163-.388,1.958,1.958,0,0,0-1.308-1.818.665.665,0,0,1-.41-.442,1.609,1.609,0,0,0-1.454-1.133.549.549,0,0,1-.408-.228,1.669,1.669,0,0,0-1.359-.676,1.732,1.732,0,0,0-.445.058.672.672,0,0,1-.644-.163,1.819,1.819,0,0,0-1.426-.477h0a1.8,1.8,0,0,0-1.426.477.672.672,0,0,1-.644.163,1.742,1.742,0,0,0-1.006.035,1.678,1.678,0,0,1,.489.283c.319.259.336.5.693.529a1.71,1.71,0,0,1,.827.282c.773.519.457,1.074,1.037,1.293a1.958,1.958,0,0,1,1.308,1.818c0,.484.641.41.643,2.009,0,1.28-.267.454-.79,3.816-.192,1.236-.757,1.507-.9,2.71a6.216,6.216,0,0,1-.969,2.695c.252.021.51.034.777.036a8.935,8.935,0,0,0,5.316-1.77l.012-.009a3.546,3.546,0,0,0,1.215-1.711,4.173,4.173,0,0,1,.282-.644l0-.008a4.036,4.036,0,0,0,.438-1.3,17.3,17.3,0,0,1,.455-2.3,3.577,3.577,0,0,0,.293-2.057Z" fill="#665e66"/>
                </g>
              </g>
              <g id="Grupo_180901" data-name="Grupo 180901">
                <path id="Trazado_231992" data-name="Trazado 231992" d="M6.085,46.326V42.966a.739.739,0,1,0-1.479,0v3.359Z" fill="#733ecd"/>
                <path id="Trazado_231993" data-name="Trazado 231993" d="M23.849,46.326V42.966a.739.739,0,1,0-1.479,0v3.359Z" fill="#733ecd"/>
              </g>
            </g>
          </g>
        </g>
      </g>
    </g>
  </g>
</svg>
