<svg xmlns="http://www.w3.org/2000/svg" xmlns:xlink="http://www.w3.org/1999/xlink" width="49" height="50" viewBox="0 0 49 50">
  <defs>
    <clipPath id="clip-path">
      <rect id="Rectángulo_62176" data-name="Rectángulo 62176" width="49" height="50" transform="translate(528 1727)" fill="#eeac3a"/>
    </clipPath>
  </defs>
  <g id="Grupo_184427" data-name="Grupo 184427" transform="translate(-528 -1889)">
    <g id="Enmascarar_grupo_73" data-name="Enmascarar grupo 73" transform="translate(0 162)" clip-path="url(#clip-path)">
      <g id="servicios-de-apoyo" transform="translate(528 1727.5)">
        <g id="Grupo_180918" data-name="Grupo 180918">
          <g id="Grupo_180906" data-name="Grupo 180906">
            <g id="Grupo_180905" data-name="Grupo 180905">
              <path id="Trazado_231994" data-name="Trazado 231994" d="M37.685,16.163H5.41A2.04,2.04,0,0,0,3.37,18.2V43.45H39.725V18.2A2.04,2.04,0,0,0,37.685,16.163Z" fill="#c9e0fd"/>
              <path id="Trazado_231995" data-name="Trazado 231995" d="M43.59,16.163H37.128a2.04,2.04,0,0,1,2.04,2.04V43.45H45.63V18.2A2.04,2.04,0,0,0,43.59,16.163Z" fill="#bcd6f9"/>
              <path id="Trazado_231996" data-name="Trazado 231996" d="M39.725,20.107H8.668a1.354,1.354,0,0,0-1.354,1.354V42.2H39.725V20.107Z" fill="#eaf2ff"/>
              <path id="Trazado_231997" data-name="Trazado 231997" d="M41.686,42.2V21.462a1.354,1.354,0,0,0-1.354-1.354H39.168V42.2Z" fill="#dbe8f9"/>
              <path id="Trazado_231998" data-name="Trazado 231998" d="M38.753,47.822a4.4,4.4,0,0,0,4.4-4.4V42.2H1.224A1.224,1.224,0,0,0,0,43.425a4.4,4.4,0,0,0,4.4,4.4Z" fill="#9bc4f9"/>
              <path id="Trazado_231999" data-name="Trazado 231999" d="M47.776,42.2H42.559v1.224a4.4,4.4,0,0,1-4.4,4.4H44.6a4.4,4.4,0,0,0,4.4-4.4A1.224,1.224,0,0,0,47.776,42.2Z" fill="#7fb2f9"/>
              <path id="Trazado_232000" data-name="Trazado 232000" d="M17.034,42.2a2.811,2.811,0,0,0,2.811,2.811h9.311A2.811,2.811,0,0,0,31.966,42.2Z" fill="#60a0f7"/>
            </g>
          </g>
          <g id="Grupo_180917" data-name="Grupo 180917">
            <g id="Grupo_180916" data-name="Grupo 180916">
              <g id="Grupo_180915" data-name="Grupo 180915">
                <g id="Grupo_180908" data-name="Grupo 180908">
                  <path id="Trazado_232001" data-name="Trazado 232001" d="M29.759,8.067a7.191,7.191,0,0,0-6.032-6.861,10.389,10.389,0,0,0-9.615,10.36s0,2.947,0,8.34A4.687,4.687,0,0,0,17.3,24.349l3.691,1.242h7.015l.36-.121a2.043,2.043,0,0,0,1.391-1.936V8.067Z" fill="#756e78"/>
                  <g id="Grupo_180907" data-name="Grupo 180907">
                    <path id="Trazado_232002" data-name="Trazado 232002" d="M29.29,8.067v7.979a7.383,7.383,0,0,1-1.712,4.626v3.963a2.084,2.084,0,0,0,.233.956h.2L31.7,24.349a4.687,4.687,0,0,0,3.192-4.444c0-5.394,0-8.34,0-8.34A10.388,10.388,0,0,0,24.5,1.178a10.5,10.5,0,0,0-1.162.065A6.89,6.89,0,0,1,29.29,8.067Z" fill="#665e66"/>
                  </g>
                  <path id="Trazado_232003" data-name="Trazado 232003" d="M32.631,27.315,30.216,26.7c-.025,0-.049-.012-.073-.017a2.1,2.1,0,0,1-1.629-2.043V18.872H20.485v5.763a2.1,2.1,0,0,1-1.629,2.043c-.024.006-.048.013-.073.017l-2.415.619c-2.628.506,2.751,5.368,8.131,5.368s10.759-4.863,8.131-5.368Z" fill="#ffddce"/>
                  <path id="Trazado_232004" data-name="Trazado 232004" d="M19.544,42.2h9.912a47.481,47.481,0,0,0,.29-11.954,10.89,10.89,0,0,1-10.493,0A47.481,47.481,0,0,0,19.544,42.2Z" fill="#ffe07d"/>
                  <path id="Trazado_232005" data-name="Trazado 232005" d="M29.077,42.2H41.686V38.279a11.166,11.166,0,0,0-9.055-10.964L30.216,26.7c-.025,0-.049-.012-.073-.017a2.1,2.1,0,0,1-1.5-1.319l.317,1.771A44.614,44.614,0,0,1,29.077,42.2Z" fill="#43a99b"/>
                  <path id="Trazado_232006" data-name="Trazado 232006" d="M32.631,27.315,30.216,26.7c-.025,0-.049-.012-.073-.017a2.1,2.1,0,0,1-1.5-1.319l.317,1.771q.3,1.695.473,3.4a11.168,11.168,0,0,1,5.811,9.8V42.2h6.44V38.279a11.165,11.165,0,0,0-9.055-10.964Z" fill="#43a99b"/>
                  <path id="Trazado_232007" data-name="Trazado 232007" d="M19.923,42.2a44.617,44.617,0,0,1,.115-15.072l.317-1.771a2.1,2.1,0,0,1-1.5,1.319c-.024.006-.048.013-.073.017l-2.415.619A11.166,11.166,0,0,0,7.314,38.279V42.2Z" fill="#43a99b"/>
                  <path id="Trazado_232008" data-name="Trazado 232008" d="M29.669,17.1v0a7.506,7.506,0,0,0,.09-1.051V9.661a7.226,7.226,0,0,1-1.343-2.443A.393.393,0,0,0,27.7,7.15c-1.61,2.9-4.815,4.2-8.505,4.2h-2.1v4.693a7.412,7.412,0,0,0,6.724,7.267A8,8,0,0,0,29.669,17.1Z" fill="#ffddce"/>
                  <path id="Trazado_232009" data-name="Trazado 232009" d="M29.29,9.036v7.01a7.412,7.412,0,0,1-6.1,7.181,7.4,7.4,0,0,0,8.719-7.181V11.353A6.81,6.81,0,0,1,29.29,9.036Z" fill="#ffcbbe"/>
                </g>
              </g>
            </g>
            <path id="Trazado_232014" data-name="Trazado 232014" d="M33.443,36.471H36.66a.816.816,0,0,0,.816-.816v-1.37a.816.816,0,0,0-.816-.816H33.443a.816.816,0,0,0-.816.816v1.37A.817.817,0,0,0,33.443,36.471Z" fill="#eaf2ff"/>
          </g>
        </g>
      </g>
    </g>
    <g id="bolsas-de-compra_1_" data-name="bolsas-de-compra (1)" transform="translate(538.536 1910.091)">
      <path id="Trazado_232058" data-name="Trazado 232058" d="M.75,11.43H17V32.252H.75Z" transform="translate(0 -4.76)" fill="#db961f"/>
      <path id="Trazado_232059" data-name="Trazado 232059" d="M18.758,11.43V30.879H7.777A2.818,2.818,0,0,1,4.96,28.061V11.43Z" transform="translate(-1.76 -4.76)" fill="#eeac3a"/>
      <path id="Trazado_232060" data-name="Trazado 232060" d="M13.91,21.06h19.4V36.278H13.91Z" transform="translate(-5.501 -8.786)" fill="#6a3eb6"/>
      <path id="Trazado_232061" data-name="Trazado 232061" d="M35.067,21.06V34.9H20.926a2.818,2.818,0,0,1-2.818-2.818V21.06Z" transform="translate(-7.256 -8.786)" fill="#8c5be1"/>
      <g id="Grupo_180973" data-name="Grupo 180973" transform="translate(4.192 0.044)">
        <path id="Trazado_232062" data-name="Trazado 232062" d="M15.589,8.353H15.37V4.068a4.024,4.024,0,0,0-8.047,0V8.353H7.1a.436.436,0,0,0,0,.873H8.414a.436.436,0,1,0,0-.873H8.2V4.068a3.151,3.151,0,1,1,6.3,0V8.353h-.219a.436.436,0,0,0,0,.873h1.309a.436.436,0,1,0,0-.873Z" transform="translate(16.026 16.965) rotate(180)" fill="#51454e"/>
        <path id="Trazado_232063" data-name="Trazado 232063" d="M31.421,24.327H30.153a.436.436,0,1,0,0,.873h.2V26a3.03,3.03,0,1,1-6.06,0v-.8h.2a.436.436,0,0,0,0-.873H23.22a.436.436,0,0,0,0,.873h.2V26a3.9,3.9,0,1,0,7.806,0v-.8h.2a.436.436,0,0,0,0-.873Z" transform="translate(-13.403 -10.195)" fill="#51454e"/>
      </g>
    </g>
  </g>
</svg>
