<svg xmlns="http://www.w3.org/2000/svg" xmlns:xlink="http://www.w3.org/1999/xlink" width="85" height="85" viewBox="0 0 85 85">
  <defs>
    <clipPath id="clip-path">
      <circle id="Elipse_6339" data-name="Elipse 6339" cx="42.5" cy="42.5" r="42.5" transform="translate(-8881.459 -8760.25)" fill="#967dc0"/>
    </clipPath>
  </defs>
  <g id="Grupo_184180" data-name="Grupo 184180" transform="translate(8881.459 8760.25)">
    <circle id="Elipse_6333" data-name="Elipse 6333" cx="42.5" cy="42.5" r="42.5" transform="translate(-8881.459 -8760.25)" fill="#967dc0"/>
    <g id="Enmascarar_grupo_102" data-name="Enmascarar grupo 102" clip-path="url(#clip-path)">
      <g id="mujer_1_" data-name="mujer(1)" transform="translate(-8943.982 -8750.25)">
        <path id="Trazado_236487" data-name="Trazado 236487" d="M149.035,19.087a19.7,19.7,0,0,0-39.387,0l-.991,16.32c-.746,12.278,8.73,22.658,20.685,22.658h0c11.955,0,21.431-10.38,20.685-22.658Z" transform="translate(-36.568)" fill="#8c5f4b"/>
        <path id="Trazado_236488" data-name="Trazado 236488" d="M114.835,311.907l-11.994-4.233a4.645,4.645,0,0,1-3.1-4.38v-6H85.806v6a4.645,4.645,0,0,1-3.1,4.38l-11.994,4.233a6.968,6.968,0,0,0-4.649,6.57V324a3.484,3.484,0,0,0,3.484,3.484H116A3.484,3.484,0,0,0,119.483,324v-5.522A6.968,6.968,0,0,0,114.835,311.907Z" transform="translate(0 -255.484)" fill="#e3aa75"/>
        <path id="Trazado_236489" data-name="Trazado 236489" d="M206.451,300.449a17.079,17.079,0,0,0,13.935,0V297.29H206.451v3.159Z" transform="translate(-120.645 -255.484)" fill="#d29b6e"/>
        <path id="Trazado_236490" data-name="Trazado 236490" d="M173.032,99.1H154.451a5.806,5.806,0,0,0-5.806,5.806v8.864a15.378,15.378,0,0,0,14.367,15.506,15.1,15.1,0,0,0,15.827-15.08V104.9A5.806,5.806,0,0,0,173.032,99.1Z" transform="translate(-70.968 -85.161)" fill="#f5b97d"/>
        <g id="Grupo_183958" data-name="Grupo 183958" transform="translate(77.677 13.936)">
          <rect id="Rect치ngulo_64543" data-name="Rect치ngulo 64543" width="6.968" height="2.323" transform="translate(4.646 10.452)" fill="#e3aa75"/>
          <rect id="Rect치ngulo_64544" data-name="Rect치ngulo 64544" width="6.968" height="2.323" transform="translate(18.58 10.452)" fill="#e3aa75"/>
          <path id="Trazado_236491" data-name="Trazado 236491" d="M153.29,113.767v-6.541a5.806,5.806,0,0,1,5.806-5.806h11.613a2.323,2.323,0,0,0,2.323-2.323H154.451a5.806,5.806,0,0,0-5.806,5.806v8.831a15.469,15.469,0,0,0,10.873,14.953,14.986,14.986,0,0,0,6.549.42A15.452,15.452,0,0,1,153.29,113.767Z" transform="translate(-148.645 -99.097)" fill="#e3aa75"/>
        </g>
        <g id="Grupo_183959" data-name="Grupo 183959" transform="translate(84.645 23.226)">
          <path id="Trazado_236492" data-name="Trazado 236492" d="M198.194,165.161v2.424a1.161,1.161,0,1,0,2.323,0v-2.424Z" transform="translate(-198.194 -165.161)" fill="#5a4650"/>
          <path id="Trazado_236493" data-name="Trazado 236493" d="M297.29,165.161v2.424a1.161,1.161,0,1,0,2.323,0v-2.424Z" transform="translate(-283.355 -165.161)" fill="#5a4650"/>
        </g>
        <path id="Trazado_236494" data-name="Trazado 236494" d="M227.612,242.965a6.215,6.215,0,0,1-4.3-1.5,1.161,1.161,0,0,1,1.631-1.653,4.72,4.72,0,0,0,5.337,0,1.161,1.161,0,0,1,1.631,1.653A6.214,6.214,0,0,1,227.612,242.965Z" transform="translate(-134.839 -205.804)" fill="#b67f5f"/>
        <g id="Grupo_183960" data-name="Grupo 183960" transform="translate(76.516 22.064)">
          <path id="Trazado_236495" data-name="Trazado 236495" d="M145.032,159.226h-3.484a1.161,1.161,0,1,1,0-2.323h3.484a1.161,1.161,0,0,1,0,2.323Z" transform="translate(-140.387 -156.903)" fill="#5a4650"/>
          <path id="Trazado_236496" data-name="Trazado 236496" d="M334.968,159.226h-3.484a1.161,1.161,0,1,1,0-2.323h3.484a1.161,1.161,0,1,1,0,2.323Z" transform="translate(-303.613 -156.903)" fill="#5a4650"/>
          <path id="Trazado_236497" data-name="Trazado 236497" d="M237.032,167.484h-4.645a1.161,1.161,0,0,1,0-2.323h4.645a1.161,1.161,0,1,1,0,2.323Z" transform="translate(-218.452 -164)" fill="#5a4650"/>
        </g>
        <g id="Grupo_183961" data-name="Grupo 183961" transform="translate(83.483 17.998)">
          <path id="Trazado_236498" data-name="Trazado 236498" d="M191.094,130.893a1.161,1.161,0,0,1-.28-2.288l2.323-.581a1.161,1.161,0,0,1,.563,2.253l-2.323.581A1.146,1.146,0,0,1,191.094,130.893Z" transform="translate(-189.934 -127.988)" fill="#8c5f4b"/>
          <path id="Trazado_236499" data-name="Trazado 236499" d="M292.517,130.891a1.155,1.155,0,0,1-.282-.035l-2.323-.581a1.161,1.161,0,0,1,.562-2.253l2.323.581a1.161,1.161,0,0,1-.28,2.288Z" transform="translate(-275.096 -127.986)" fill="#8c5f4b"/>
        </g>
        <path id="Trazado_236500" data-name="Trazado 236500" d="M218.531,11.613h13.188A19.7,19.7,0,0,0,213.885,0a19.161,19.161,0,0,0-6.891,1.294A11.611,11.611,0,0,0,218.531,11.613Z" transform="translate(-121.112)" fill="#a06e50"/>
        <path id="Trazado_236501" data-name="Trazado 236501" d="M69.55,407.952H116a3.484,3.484,0,0,0,3.484-3.484v-9.522a6.968,6.968,0,0,0-4.649-6.57l-5.962-2.1a45.516,45.516,0,0,1-14.718,11.3,3.29,3.29,0,0,1-2.761,0,45.517,45.517,0,0,1-14.719-11.3l-5.962,2.1a6.968,6.968,0,0,0-4.649,6.57v5.522C66.066,402.393,67.626,407.952,69.55,407.952Z" transform="translate(-0.002 -331.952)" fill="#b4f09b"/>
        <path id="Trazado_236502" data-name="Trazado 236502" d="M125.618,387.676l.041.054.044.052a47.863,47.863,0,0,0,15.509,11.9,5.611,5.611,0,0,0,4.71,0,47.864,47.864,0,0,0,15.509-11.9l.044-.052.041-.054.449-.592-2.3-.812a45.517,45.517,0,0,1-14.718,11.3,3.289,3.289,0,0,1-2.761,0,45.517,45.517,0,0,1-14.719-11.3l-2.3.812Z" transform="translate(-50.793 -331.953)" fill="#9bdc9b"/>
        <g id="Grupo_183962" data-name="Grupo 183962" transform="translate(80 22.065)">
          <path id="Trazado_236503" data-name="Trazado 236503" d="M270.064,166.194a5.813,5.813,0,0,1-5.806-5.806v-2.323a1.161,1.161,0,0,1,1.161-1.161h9.29a1.161,1.161,0,0,1,1.161,1.161v2.323A5.813,5.813,0,0,1,270.064,166.194Zm-3.484-6.968v1.161a3.484,3.484,0,1,0,6.968,0v-1.161Z" transform="translate(-250.323 -156.904)" fill="#64505a"/>
          <path id="Trazado_236504" data-name="Trazado 236504" d="M170.968,166.194a5.813,5.813,0,0,1-5.806-5.806v-2.323a1.161,1.161,0,0,1,1.161-1.161h9.29a1.161,1.161,0,0,1,1.161,1.161v2.323A5.813,5.813,0,0,1,170.968,166.194Zm-3.484-6.968v1.161a3.484,3.484,0,0,0,6.968,0v-1.161Z" transform="translate(-165.162 -156.904)" fill="#64505a"/>
        </g>
      </g>
    </g>
    <g id="tendencias" transform="translate(-8836.22 -8740.44)">
      <g id="Grupo_184168" data-name="Grupo 184168" transform="translate(22.233 27.946)">
        <path id="Trazado_237161" data-name="Trazado 237161" d="M190,322h5.915v10.606H190Z" transform="translate(-190 -322)" fill="#fdf3e1"/>
      </g>
      <g id="Grupo_184170" data-name="Grupo 184170" transform="translate(29.627 22.643)">
        <path id="Trazado_237163" data-name="Trazado 237163" d="M290,242h5.915v15.909H290Z" transform="translate(-290 -242)" fill="#decafd"/>
      </g>
      <g id="Grupo_184171" data-name="Grupo 184171" transform="translate(14.839 33.249)">
        <path id="Trazado_237164" data-name="Trazado 237164" d="M90,402h5.915v5.3H90Z" transform="translate(-90 -402)" fill="#80d6fb"/>
      </g>
      <g id="Grupo_184172" data-name="Grupo 184172" transform="translate(10 10)">
        <path id="Trazado_237165" data-name="Trazado 237165" d="M11.21,38.551V10H10V39.761H39.761v-1.21Z" transform="translate(-10 -10)" fill="#fff"/>
      </g>
      <path id="Trazado_237166" data-name="Trazado 237166" d="M97.269,83v1.21h1.564l-15.9,15.9.855.855,15.9-15.9v1.564h1.21V83Z" transform="matrix(0.985, 0.174, -0.174, 0.985, -51.148, -83.147)" fill="#fff"/>
      <g id="Grupo_184175" data-name="Grupo 184175" transform="translate(13.752 10)">
        <g id="Grupo_184173" data-name="Grupo 184173" transform="translate(0 0)">
          <path id="Trazado_237167" data-name="Trazado 237167" d="M80.495,18.408a4.234,4.234,0,0,1-4.313,4.234,4.28,4.28,0,0,1-4.149-4.508C72.215,14.161,76.26,10,76.26,10v6.092a.864.864,0,0,0,1.632.395l.908-1.769A6.506,6.506,0,0,1,80.495,18.408Z" transform="translate(-72.028 -10)" fill="#ffe352"/>
        </g>
        <g id="Grupo_184174" data-name="Grupo 184174" transform="translate(2.646 8.408)">
          <path id="Trazado_237168" data-name="Trazado 237168" d="M117.349,149a4.1,4.1,0,0,1,1.588,2.646,1.588,1.588,0,0,1-1.588,1.588h0a1.588,1.588,0,0,1-1.588-1.588A4.1,4.1,0,0,1,117.351,149Z" transform="translate(-115.763 -149)" fill="#ffb236"/>
        </g>
      </g>
    </g>
  </g>
</svg>
