<svg xmlns="http://www.w3.org/2000/svg" xmlns:xlink="http://www.w3.org/1999/xlink" width="85" height="85" viewBox="0 0 85 85">
  <defs>
    <clipPath id="clip-path">
      <circle id="Elipse_6340" data-name="Elipse 6340" cx="42.5" cy="42.5" r="42.5" transform="translate(-8881.459 -8985.25)" fill="#967dc0"/>
    </clipPath>
  </defs>
  <g id="Grupo_184179" data-name="Grupo 184179" transform="translate(8881.459 8985.25)">
    <circle id="Elipse_6335" data-name="Elipse 6335" cx="42.5" cy="42.5" r="42.5" transform="translate(-8881.459 -8985.25)" fill="#967dc0"/>
    <g id="Enmascarar_grupo_101" data-name="Enmascarar grupo 101" clip-path="url(#clip-path)">
      <g id="hombre_1_" data-name="hombre(1)" transform="translate(-8939.265 -8973.125)">
        <path id="Trazado_236443" data-name="Trazado 236443" d="M109.164,285.132l-12.388-3.644a3.526,3.526,0,0,1-2.531-3.383v-5.589H77.789v5.589a3.526,3.526,0,0,1-2.531,3.383L62.87,285.132a7.052,7.052,0,0,0-5.063,6.766v8.828c0,1.947,1.579,5.877,3.526,5.877H110.7c1.947,0,3.526-3.93,3.526-5.877V291.9A7.052,7.052,0,0,0,109.164,285.132Z" transform="translate(-0.001 -233.728)" fill="#f7d291"/>
        <path id="Trazado_236444" data-name="Trazado 236444" d="M109.163,339.169l-12.388-3.644a9.941,9.941,0,0,0,.995.431l-11.755,3.526-11.754-3.526a9.926,9.926,0,0,0,.995-.431l-12.388,3.644a7.053,7.053,0,0,0-5.063,6.766v11.179a3.526,3.526,0,0,0,3.526,3.526H110.7a3.526,3.526,0,0,0,3.526-3.526V345.935A7.052,7.052,0,0,0,109.163,339.169Z" transform="translate(0 -287.765)" fill="#cd916e"/>
        <path id="Trazado_236445" data-name="Trazado 236445" d="M182.361,343.818l-1.4-1.4-9.949,1.8-9.949-1.8-1.4,1.4a9.4,9.4,0,0,0-2.754,6.649v16.087h28.21V350.467A9.4,9.4,0,0,0,182.361,343.818Z" transform="translate(-84.994 -293.679)" fill="#edebed"/>
        <path id="Trazado_236446" data-name="Trazado 236446" d="M190.124,343.818l-1.4-1.4-9.949,1.8-9.949-1.8-1.4,1.4a9.375,9.375,0,0,0-1.466,1.919L170.3,350.7a3.526,3.526,0,0,0,5.147.171l3.326-3.326,3.326,3.326a3.526,3.526,0,0,0,5.147-.172l4.343-4.963A9.393,9.393,0,0,0,190.124,343.818Z" transform="translate(-92.757 -293.679)" fill="#dbd9dc"/>
        <path id="Trazado_236447" data-name="Trazado 236447" d="M233.056,396.387l-1.829,16.456h7.052l-1.828-16.456Z" transform="translate(-148.737 -339.968)" fill="#e3aa75"/>
        <path id="Trazado_236448" data-name="Trazado 236448" d="M229.174,362.148h-3.007a1.175,1.175,0,0,1-1.115-.8l-2.083-6.249h9.4l-2.083,6.249A1.175,1.175,0,0,1,229.174,362.148Z" transform="translate(-141.655 -304.554)" fill="#d29b6e"/>
        <path id="Trazado_236449" data-name="Trazado 236449" d="M198.2,275.14a17.323,17.323,0,0,0,16.456,0v-2.623H198.2Z" transform="translate(-120.407 -233.729)" fill="#f0c382"/>
        <g id="Grupo_183947" data-name="Grupo 183947" transform="translate(61.5 5.877)">
          <path id="Trazado_236450" data-name="Trazado 236450" d="M84.234,59.774l2.606,3.475a1.155,1.155,0,0,1,.22.911,8.3,8.3,0,0,1-.351,1.2A2.343,2.343,0,0,0,87.9,68.257a24.862,24.862,0,0,0,8.623,2.418V41.29c-8.785,2.928-11.9,13.153-12.7,16.535A2.341,2.341,0,0,0,84.234,59.774Z" transform="translate(-83.762 -41.29)" fill="#b7b2b8"/>
          <path id="Trazado_236451" data-name="Trazado 236451" d="M350.872,59.774l-2.606,3.475a1.155,1.155,0,0,0-.22.911,8.306,8.306,0,0,0,.351,1.2,2.343,2.343,0,0,1-1.191,2.894,24.862,24.862,0,0,1-8.623,2.418V41.29c8.785,2.928,11.9,13.153,12.7,16.535A2.34,2.34,0,0,1,350.872,59.774Z" transform="translate(-302.312 -41.29)" fill="#b7b2b8"/>
        </g>
        <path id="Trazado_236452" data-name="Trazado 236452" d="M159.134,21.216V16.456a16.456,16.456,0,0,0-32.911,0v4.761a2.939,2.939,0,0,0,.588,5.818h.647a15.265,15.265,0,0,0,30.442,0h.647a2.939,2.939,0,0,0,.588-5.818Z" transform="translate(-56.663)" fill="#ffe1a0"/>
        <g id="Grupo_183948" data-name="Grupo 183948" transform="translate(67.209)">
          <rect id="Rectángulo_64539" data-name="Rectángulo 64539" width="5.877" height="2.913" transform="translate(9.404 19.982)" fill="#f7d291"/>
          <rect id="Rectángulo_64540" data-name="Rectángulo 64540" width="5.877" height="2.913" transform="translate(22.332 19.982)" fill="#f7d291"/>
          <path id="Trazado_236453" data-name="Trazado 236453" d="M133.275,25.859V15.28a15.279,15.279,0,0,1,12.382-15,16.4,16.4,0,0,0-19.434,16.173v4.761a2.939,2.939,0,0,0,.588,5.818h.647a15.276,15.276,0,0,0,18.175,13.818A15.28,15.28,0,0,1,133.275,25.859Z" transform="translate(-123.872)" fill="#f7d291"/>
        </g>
        <path id="Trazado_236454" data-name="Trazado 236454" d="M203.5,143.913a1.175,1.175,0,0,1-1.175-1.175v-1.175a1.175,1.175,0,0,1,2.351,0v1.175A1.175,1.175,0,0,1,203.5,143.913Z" transform="translate(-123.948 -120.405)" fill="#6e5a64"/>
        <path id="Trazado_236455" data-name="Trazado 236455" d="M227.67,209.981a6.29,6.29,0,0,1-4.352-1.514,1.175,1.175,0,0,1,1.651-1.674,4.777,4.777,0,0,0,5.4,0,1.175,1.175,0,0,1,1.65,1.674A6.289,6.289,0,0,1,227.67,209.981Z" transform="translate(-141.654 -177.069)" fill="#e3aa75"/>
        <path id="Trazado_236456" data-name="Trazado 236456" d="M194.639,109.706h-3.526a1.175,1.175,0,0,1,0-2.351h3.526a1.175,1.175,0,0,1,0,2.351Z" transform="translate(-113.324 -92.075)" fill="#9c969e"/>
        <path id="Trazado_236457" data-name="Trazado 236457" d="M294.338,143.913a1.175,1.175,0,0,1-1.175-1.175v-1.175a1.175,1.175,0,0,1,2.351,0v1.175A1.175,1.175,0,0,1,294.338,143.913Z" transform="translate(-201.858 -120.405)" fill="#6e5a64"/>
        <path id="Trazado_236458" data-name="Trazado 236458" d="M285.477,109.706H281.95a1.175,1.175,0,0,1,0-2.351h3.526a1.175,1.175,0,1,1,0,2.351Z" transform="translate(-191.233 -92.075)" fill="#9c969e"/>
        <g id="Grupo_183949" data-name="Grupo 183949" transform="translate(68.385 19.982)">
          <path id="Trazado_236459" data-name="Trazado 236459" d="M139.182,142.738h-5.877a1.175,1.175,0,1,1,0-2.351h5.877a1.175,1.175,0,0,1,0,2.351Z" transform="translate(-132.13 -140.387)" fill="#5d5360"/>
          <path id="Trazado_236460" data-name="Trazado 236460" d="M329.119,142.738h-5.877a1.175,1.175,0,1,1,0-2.351h5.877a1.175,1.175,0,0,1,0,2.351Z" transform="translate(-295.033 -140.387)" fill="#5d5360"/>
          <path id="Trazado_236461" data-name="Trazado 236461" d="M237.1,145.089a1.175,1.175,0,0,1-1.175-1.175,1.175,1.175,0,0,0-2.351,0,1.175,1.175,0,1,1-2.351,0,3.526,3.526,0,0,1,7.052,0A1.175,1.175,0,0,1,237.1,145.089Z" transform="translate(-217.122 -140.387)" fill="#5d5360"/>
        </g>
        <path id="Trazado_236462" data-name="Trazado 236462" d="M234.753,263.052h0a3.526,3.526,0,0,1-3.526-3.526v-2.351A1.175,1.175,0,0,1,232.4,256h4.7a1.175,1.175,0,0,1,1.175,1.175v2.351A3.526,3.526,0,0,1,234.753,263.052Z" transform="translate(-148.737 -219.563)" fill="#9c969e"/>
        <g id="Grupo_183950" data-name="Grupo 183950" transform="translate(73.906 45.535)">
          <path id="Trazado_236463" data-name="Trazado 236463" d="M174.015,319.917l-3.1,3.761,5.406,6.178a1.175,1.175,0,0,0,1.716.057l4.989-4.988Z" transform="translate(-170.918 -319.917)" fill="#fff"/>
          <path id="Trazado_236464" data-name="Trazado 236464" d="M265.014,319.917l3.1,3.761-5.406,6.178a1.175,1.175,0,0,1-1.716.057L256,324.924Z" transform="translate(-243.891 -319.917)" fill="#fff"/>
        </g>
        <g id="Grupo_183951" data-name="Grupo 183951" transform="translate(63.907 42.314)">
          <path id="Trazado_236465" data-name="Trazado 236465" d="M102.8,327.851l-2.071-9.319a2.351,2.351,0,0,1,.633-2.172l3.789-3.789-1.743-2.615a2.4,2.4,0,0,1-.265-2.091c2.8-8.423,11.411-10.575,11.411-10.575v2.267a5.877,5.877,0,0,1-1.721,4.156l-1.4,1.4a9.4,9.4,0,0,0-2.754,6.649v16.087" transform="translate(-100.672 -297.29)" fill="#b67f5f"/>
          <path id="Trazado_236466" data-name="Trazado 236466" d="M325.562,327.851l2.071-9.319a2.351,2.351,0,0,0-.633-2.172l-3.789-3.789,1.743-2.615a2.4,2.4,0,0,0,.265-2.091c-2.8-8.423-11.411-10.575-11.411-10.575v2.267a5.877,5.877,0,0,0,1.721,4.156l1.4,1.4a9.4,9.4,0,0,1,2.754,6.649v16.087" transform="translate(-283.472 -297.29)" fill="#b67f5f"/>
        </g>
        <g id="Grupo_183952" data-name="Grupo 183952" transform="translate(74.262 18.806)">
          <path id="Trazado_236467" data-name="Trazado 236467" d="M180.473,140.357h-3.526a3.53,3.53,0,0,1-3.526-3.526V133.3a1.175,1.175,0,0,1,1.175-1.175h8.228A1.175,1.175,0,0,1,184,133.3v3.526A3.53,3.53,0,0,1,180.473,140.357Zm-4.7-5.877v2.351a1.176,1.176,0,0,0,1.175,1.175h3.526a1.176,1.176,0,0,0,1.175-1.175V134.48Z" transform="translate(-173.421 -132.129)" fill="#6f6571"/>
          <path id="Trazado_236468" data-name="Trazado 236468" d="M271.311,140.357h-3.526a3.53,3.53,0,0,1-3.526-3.526V133.3a1.175,1.175,0,0,1,1.175-1.175h8.228a1.175,1.175,0,0,1,1.175,1.175v3.526A3.53,3.53,0,0,1,271.311,140.357Zm-4.7-5.877v2.351a1.176,1.176,0,0,0,1.175,1.175h3.526a1.176,1.176,0,0,0,1.175-1.175V134.48Z" transform="translate(-251.33 -132.129)" fill="#6f6571"/>
        </g>
      </g>
    </g>
    <g id="like" transform="translate(-8826.22 -8965.182)">
      <path id="Trazado_237159" data-name="Trazado 237159" d="M130.571,25.378a2.55,2.55,0,0,1,.21,2.738,2.57,2.57,0,0,1-.759.868,2.554,2.554,0,0,1-.548,3.606,2.556,2.556,0,0,1-2.046,4.09h-8.051a10.987,10.987,0,0,1-3.87-.7l-4.027-1.51V23.824h.216c3.028-3.2,6.317-6.835,6.815-7.631V13.225A1.086,1.086,0,0,1,119.6,12.14a4.48,4.48,0,0,1,4.475,4.474v1.339l-.81,2.795h5.814a2.556,2.556,0,0,1,1.5,4.629Z" transform="translate(-105.871)" fill="#ffbd86"/>
      <path id="Trazado_237160" data-name="Trazado 237160" d="M129.474,334.124a2.556,2.556,0,0,1-2.046,4.09h-8.051a10.988,10.988,0,0,1-3.87-.7L111.48,336V329.65h19.3a2.57,2.57,0,0,1-.759.868,2.554,2.554,0,0,1-.548,3.606Z" transform="translate(-105.871 -301.535)" fill="#f6a96c"/>
      <rect id="Rectángulo_64654" data-name="Rectángulo 64654" width="7.118" height="15.935" transform="translate(0 20.251)" fill="#def2f4"/>
      <rect id="Rectángulo_64655" data-name="Rectángulo 64655" width="7.118" height="8.071" transform="translate(0 28.115)" fill="#9bccd1"/>
    </g>
    <path id="Trazado_237180" data-name="Trazado 237180" d="M-8818.894-8955.658l-5.726-5.725" transform="translate(0.44 1.324)" fill="none" stroke="#fff" stroke-linecap="round" stroke-width="1"/>
    <path id="Trazado_237182" data-name="Trazado 237182" d="M-8820.442-8958.637l-4.177-2.746" transform="matrix(-0.087, 0.996, -0.996, -0.087, -18501.082, -949.816)" fill="none" stroke="#fff" stroke-linecap="round" stroke-width="1"/>
    <path id="Trazado_237181" data-name="Trazado 237181" d="M-8816.723-8954.526l-7.9-6.857" transform="matrix(0.602, 0.799, -0.799, 0.602, -10659.067, 3473.804)" fill="none" stroke="#fff" stroke-linecap="round" stroke-width="1"/>
  </g>
</svg>
