<svg xmlns="http://www.w3.org/2000/svg" xmlns:xlink="http://www.w3.org/1999/xlink" width="85" height="85" viewBox="0 0 85 85">
  <defs>
    <clipPath id="clip-path">
      <circle id="Elipse_6338" data-name="Elipse 6338" cx="42.5" cy="42.5" r="42.5" transform="translate(-8881.459 -8535.25)" fill="#967dc0"/>
    </clipPath>
  </defs>
  <g id="Grupo_184181" data-name="Grupo 184181" transform="translate(8881.459 8535.25)">
    <circle id="Elipse_6337" data-name="Elipse 6337" cx="42.5" cy="42.5" r="42.5" transform="translate(-8881.459 -8535.25)" fill="#967dc0"/>
    <g id="Enmascarar_grupo_103" data-name="Enmascarar grupo 103" clip-path="url(#clip-path)">
      <g id="hombre_2_" data-name="hombre(2)" transform="translate(-8941.015 -8523.908)">
        <path id="Trazado_236505" data-name="Trazado 236505" d="M126.761,27.325h34.362l1.466-9.532A15.445,15.445,0,0,0,147.324,0h-6.765a15.444,15.444,0,0,0-15.265,17.793Z" transform="translate(-57.622)" fill="#5a4650"/>
        <path id="Trazado_236506" data-name="Trazado 236506" d="M109.716,293.525l-12.521-3.683a3.564,3.564,0,0,1-2.558-3.419v-5.649H78v5.649a3.564,3.564,0,0,1-2.558,3.419l-12.521,3.683a7.128,7.128,0,0,0-5.117,6.839v10.111a3.564,3.564,0,0,0,3.564,3.564h49.9a3.564,3.564,0,0,0,3.564-3.564V300.364A7.128,7.128,0,0,0,109.716,293.525Z" transform="translate(0 -240.381)" fill="#b67f5f"/>
        <path id="Trazado_236507" data-name="Trazado 236507" d="M109.716,347.466l-12.521-3.683a10.049,10.049,0,0,0,1.006.436l-11.881,3.564-11.88-3.564a10.026,10.026,0,0,0,1.006-.436l-12.521,3.683a7.128,7.128,0,0,0-5.117,6.839v10.111a3.564,3.564,0,0,0,3.564,3.564h49.9a3.564,3.564,0,0,0,3.564-3.564V354.305A7.128,7.128,0,0,0,109.716,347.466Z" transform="translate(0 -294.322)" fill="#5a4650"/>
        <path id="Trazado_236508" data-name="Trazado 236508" d="M182.632,352.091l-1.417-1.417L171.159,352.5,161.1,350.674l-1.417,1.417a9.5,9.5,0,0,0-2.784,6.721v15.072h28.513V358.811A9.5,9.5,0,0,0,182.632,352.091Z" transform="translate(-84.84 -300.225)" fill="#a5cdff"/>
        <path id="Trazado_236509" data-name="Trazado 236509" d="M190.382,352.091l-1.417-1.417L178.909,352.5l-10.056-1.824-1.417,1.417a9.476,9.476,0,0,0-1.482,1.94l4.39,5.017a3.564,3.564,0,0,0,5.2.173l3.362-3.362,3.362,3.362a3.564,3.564,0,0,0,5.2-.173l4.39-5.017A9.488,9.488,0,0,0,190.382,352.091Z" transform="translate(-92.589 -300.225)" fill="#8cb4eb"/>
        <path id="Trazado_236510" data-name="Trazado 236510" d="M233.075,404.645l-1.848,15.444h7.128l-1.848-15.444Z" transform="translate(-148.471 -346.431)" fill="#5a4650"/>
        <path id="Trazado_236511" data-name="Trazado 236511" d="M229.24,370.482H226.2a1.188,1.188,0,0,1-1.127-.812l-2.105-6.316h9.5l-2.105,6.316A1.188,1.188,0,0,1,229.24,370.482Z" transform="translate(-141.4 -311.081)" fill="#64505a"/>
        <path id="Trazado_236512" data-name="Trazado 236512" d="M198.195,283.426a17.509,17.509,0,0,0,16.632,0v-2.651H198.195Z" transform="translate(-120.191 -240.382)" fill="#a06e50"/>
        <g id="Grupo_183963" data-name="Grupo 183963" transform="translate(74.08 47.212)">
          <path id="Trazado_236513" data-name="Trazado 236513" d="M174.048,328.175l-3.13,3.8,5.464,6.244a1.188,1.188,0,0,0,1.734.058l5.042-5.042Z" transform="translate(-170.918 -328.175)" fill="#a5cdff"/>
          <path id="Trazado_236514" data-name="Trazado 236514" d="M265.11,328.175l3.13,3.8-5.464,6.244a1.188,1.188,0,0,1-1.734.058L256,333.236Z" transform="translate(-243.76 -328.175)" fill="#a5cdff"/>
        </g>
        <g id="Grupo_183964" data-name="Grupo 183964" transform="translate(63.974 43.957)">
          <path id="Trazado_236515" data-name="Trazado 236515" d="M102.821,335.249l-2.093-8.231a2.376,2.376,0,0,1,.639-2.2l3.83-3.83-1.762-2.643a2.426,2.426,0,0,1-.268-2.113C106,307.723,114.7,305.548,114.7,305.548v2.292a5.94,5.94,0,0,1-1.74,4.2l-1.417,1.417a9.5,9.5,0,0,0-2.784,6.721v15.072" transform="translate(-100.671 -305.548)" fill="#64505a"/>
          <path id="Trazado_236516" data-name="Trazado 236516" d="M325.687,335.249l2.093-8.231a2.376,2.376,0,0,0-.639-2.2l-3.83-3.83,1.762-2.643a2.426,2.426,0,0,0,.268-2.113c-2.833-8.513-11.534-10.688-11.534-10.688v2.292a5.94,5.94,0,0,0,1.74,4.2l1.417,1.417a9.5,9.5,0,0,1,2.784,6.721v15.072" transform="translate(-283.145 -305.548)" fill="#64505a"/>
        </g>
        <path id="Trazado_236517" data-name="Trazado 236517" d="M158.814,93.273h-.051a2.258,2.258,0,0,1-2.2-2.748h0a6.528,6.528,0,0,0-6.373-7.945H135.574a6.528,6.528,0,0,0-6.373,7.945h0a2.258,2.258,0,0,1-2.2,2.748h-.051a3.038,3.038,0,0,0-2.966,2.164,2.979,2.979,0,0,0,2.862,3.777h.654a15.429,15.429,0,0,0,30.769,0h.654a2.979,2.979,0,0,0,2.862-3.777A3.039,3.039,0,0,0,158.814,93.273Z" transform="translate(-56.56 -70.701)" fill="#cd916e"/>
        <path id="Trazado_236518" data-name="Trazado 236518" d="M132.189,98.025V90.9a5.94,5.94,0,0,1,5.94-5.94h9.5a2.376,2.376,0,0,0,2.376-2.376H135.575a6.528,6.528,0,0,0-6.371,7.954A2.254,2.254,0,0,1,127,93.273h-.051a3.038,3.038,0,0,0-2.966,2.164,2.98,2.98,0,0,0,2.862,3.777h.654a15.334,15.334,0,0,0,17.768,14.056A15.435,15.435,0,0,1,132.189,98.025Z" transform="translate(-56.561 -70.701)" fill="#b67f5f"/>
        <path id="Trazado_236519" data-name="Trazado 236519" d="M216.963,0H210.2a15.473,15.473,0,0,0-3.746.47v.718A8.316,8.316,0,0,0,214.768,9.5h16.455A15.439,15.439,0,0,0,216.963,0Z" transform="translate(-127.26)" fill="#64505a"/>
        <g id="Grupo_183965" data-name="Grupo 183965" transform="translate(78.004 22.573)">
          <path id="Trazado_236520" data-name="Trazado 236520" d="M199.382,160.467a1.187,1.187,0,0,1-1.188-1.188v-1.188a1.188,1.188,0,1,1,2.376,0v1.188A1.187,1.187,0,0,1,199.382,160.467Z" transform="translate(-198.194 -156.903)" fill="#5a4650"/>
          <path id="Trazado_236521" data-name="Trazado 236521" d="M298.478,160.467a1.187,1.187,0,0,1-1.188-1.188v-1.188a1.188,1.188,0,0,1,2.376,0v1.188A1.187,1.187,0,0,1,298.478,160.467Z" transform="translate(-283.034 -156.903)" fill="#5a4650"/>
        </g>
        <path id="Trazado_236522" data-name="Trazado 236522" d="M227.719,218.274a6.358,6.358,0,0,1-4.4-1.53,1.188,1.188,0,1,1,1.668-1.692,4.829,4.829,0,0,0,5.46,0,1.188,1.188,0,0,1,1.668,1.692A6.357,6.357,0,0,1,227.719,218.274Z" transform="translate(-141.4 -183.821)" fill="#a06e50"/>
        <g id="Grupo_183966" data-name="Grupo 183966" transform="translate(76.816 19.009)">
          <path id="Trazado_236523" data-name="Trazado 236523" d="M193.5,134.505h-2.376a1.188,1.188,0,1,1,0-2.376H193.5a1.188,1.188,0,1,1,0,2.376Z" transform="translate(-189.937 -132.129)" fill="#64505a"/>
          <path id="Trazado_236524" data-name="Trazado 236524" d="M292.6,134.505H290.22a1.188,1.188,0,1,1,0-2.376H292.6a1.188,1.188,0,1,1,0,2.376Z" transform="translate(-274.776 -132.129)" fill="#64505a"/>
        </g>
      </g>
    </g>
    <g id="altavoz" transform="translate(-8851.22 -8509.557)">
      <path id="Trazado_237169" data-name="Trazado 237169" d="M326,10.959a.993.993,0,0,1-1.987-.009,8.867,8.867,0,0,0-2.585-6.321l-.019-.019a8.861,8.861,0,0,0-6.279-2.623A.994.994,0,0,1,315.144,0a10.84,10.84,0,0,1,7.672,3.2l.028.028A10.842,10.842,0,0,1,326,10.959Z" transform="translate(-277.433 0)" fill="#dfe7f4"/>
      <path id="Trazado_237170" data-name="Trazado 237170" d="M321.766,67.5a.994.994,0,0,1-1.987-.01,4.914,4.914,0,0,0-1.434-3.506l0,0a4.915,4.915,0,0,0-3.49-1.464.993.993,0,1,1,.009-1.987,6.885,6.885,0,0,1,4.885,2.043l.011.011a6.892,6.892,0,0,1,2.009,4.915Z" transform="translate(-277.169 -56.561)" fill="#dfe7f4"/>
      <path id="Trazado_237171" data-name="Trazado 237171" d="M383.515,91.667a6.892,6.892,0,0,1,2.009,4.914.994.994,0,0,1-1.987-.01,4.914,4.914,0,0,0-1.434-3.506l0,0,1.4-1.407Z" transform="translate(-340.927 -85.639)" fill="#c7cfe1"/>
      <path id="Trazado_237172" data-name="Trazado 237172" d="M429.437,56.547a.993.993,0,1,1-1.987-.009,8.867,8.867,0,0,0-2.585-6.321l-.019-.019,1.4-1.407.028.028A10.842,10.842,0,0,1,429.437,56.547Z" transform="translate(-380.866 -45.588)" fill="#c7cfe1"/>
      <g id="Grupo_184176" data-name="Grupo 184176" transform="translate(17.219 3.377)">
        <path id="Trazado_237173" data-name="Trazado 237173" d="M25.8,351.722l-2.451,2.456a.691.691,0,0,1-.978,0L19.9,351.7l-.025-.025-2.453-2.458a.69.69,0,0,1,0-.974l2.029-2.038.411-.412a.69.69,0,0,1,.978,0l2.457,2.453h0l.024.024,2.48,2.476A.69.69,0,0,1,25.8,351.722Z" transform="translate(-17.219 -326.28)" fill="#334973"/>
        <path id="Trazado_237174" data-name="Trazado 237174" d="M63.587,389.507l-2.451,2.456a.691.691,0,0,1-.978,0l-2.472-2.476-.025-.025,2.521-2.528.9-.9h0l.024.024,2.48,2.476A.69.69,0,0,1,63.587,389.507Z" transform="translate(-55.007 -364.065)" fill="#1f3259"/>
        <path id="Trazado_237175" data-name="Trazado 237175" d="M201.444,387.692l-1.806,1.809a.8.8,0,0,1-1.128,0l-5.195-5.187a.8.8,0,0,1,0-1.128l1.806-1.809a.8.8,0,0,1,1.128,0l5.195,5.187A.8.8,0,0,1,201.444,387.692Z" transform="translate(-181.537 -359.5)" fill="#1f3259"/>
        <path id="Trazado_237176" data-name="Trazado 237176" d="M54.083,242.751l-1.421,1.424-2.915,2.919-1.526,1.529a1.141,1.141,0,0,1-1.613,0l-3.372-3.367-2.946-2.942-.431-.43a1.141,1.141,0,0,1,0-1.613L45.72,234.4l4.179,4.174Z" transform="translate(-38.059 -222.39)" fill="#ffd182"/>
        <path id="Trazado_237177" data-name="Trazado 237177" d="M106.91,302.157l-1.421,1.424-2.915,2.919-1.526,1.529a1.141,1.141,0,0,1-1.613,0l-3.372-3.367.9-.9,5.764-5.781Z" transform="translate(-90.886 -281.796)" fill="#eeac3a"/>
        <path id="Trazado_237178" data-name="Trazado 237178" d="M153.342,69.017l-11.07,2.8-4.184-4.177-4.18-4.174,2.778-11.074a1.182,1.182,0,0,1,1.991-.59l7.618,7.607.008.008,7.626,7.614A1.182,1.182,0,0,1,153.342,69.017Z" transform="translate(-126.248 -51.451)" fill="#dfe7f4"/>
        <path id="Trazado_237179" data-name="Trazado 237179" d="M212.827,182.206l-11.07,2.8-4.184-4.177,8.207-8.231.008.008,7.626,7.614A1.181,1.181,0,0,1,212.827,182.206Z" transform="translate(-185.733 -164.639)" fill="#c7cfe1"/>
      </g>
    </g>
  </g>
</svg>
