<svg xmlns="http://www.w3.org/2000/svg" xmlns:xlink="http://www.w3.org/1999/xlink" width="85" height="85" viewBox="0 0 85 85">
  <defs>
    <clipPath id="clip-path">
      <circle id="Elipse_6331" data-name="Elipse 6331" cx="42.5" cy="42.5" r="42.5" transform="translate(390 2487)" fill="#967dc0"/>
    </clipPath>
  </defs>
  <g id="Grupo_184178" data-name="Grupo 184178" transform="translate(-390 -2475)">
    <circle id="Elipse_6330" data-name="Elipse 6330" cx="42.5" cy="42.5" r="42.5" transform="translate(390 2475)" fill="#967dc0"/>
    <g id="Enmascarar_grupo_99" data-name="Enmascarar grupo 99" transform="translate(0 -12)" clip-path="url(#clip-path)">
      <g id="hombre" transform="translate(330.312 2497.239)">
        <path id="Trazado_236366" data-name="Trazado 236366" d="M109.361,325.153l-8.082-2.487a3.648,3.648,0,0,1-2.575-3.486v-5.818a1.216,1.216,0,0,0-1.216-1.216H73.169a1.216,1.216,0,0,0-1.216,1.216v5.817a3.648,3.648,0,0,1-2.575,3.487L61.3,325.153a7.3,7.3,0,0,0-5.15,6.973v5.555a3.648,3.648,0,0,0,3.648,3.648h51.069a3.648,3.648,0,0,0,3.648-3.648v-5.555A7.3,7.3,0,0,0,109.361,325.153Z" transform="translate(0 -266.567)" fill="#f5dcb4"/>
        <path id="Trazado_236367" data-name="Trazado 236367" d="M147.59,322.618c1.888,5.172,8.25,8.983,15.83,8.983s13.942-3.811,15.83-8.983a3.642,3.642,0,0,1-2.454-3.438v-5.818a1.216,1.216,0,0,0-1.216-1.216H151.26a1.216,1.216,0,0,0-1.216,1.216v5.817A3.643,3.643,0,0,1,147.59,322.618Z" transform="translate(-78.091 -266.567)" fill="#ebc9a0"/>
        <path id="Trazado_236368" data-name="Trazado 236368" d="M191.857,312.146H167.538a1.2,1.2,0,0,0-.887.4,15.786,15.786,0,0,0,26.093,0A1.2,1.2,0,0,0,191.857,312.146Z" transform="translate(-94.369 -266.567)" fill="#d2b496"/>
        <path id="Trazado_236369" data-name="Trazado 236369" d="M158.633,99.469h-.608V87.31H126.411V99.469H125.8a3.04,3.04,0,0,0,0,6.08h.669a15.791,15.791,0,0,0,31.491,0h.669a3.04,3.04,0,0,0,0-6.079Z" transform="translate(-56.89 -74.562)" fill="#f5b97d"/>
        <g id="Grupo_183934" data-name="Grupo 183934" transform="translate(76.817 25.014)">
          <path id="Trazado_236370" data-name="Trazado 236370" d="M198.924,174.955a1.216,1.216,0,0,1-1.216-1.216v-1.216a1.216,1.216,0,1,1,2.432,0v1.216A1.215,1.215,0,0,1,198.924,174.955Z" transform="translate(-197.708 -171.307)" fill="#5a4650"/>
          <path id="Trazado_236371" data-name="Trazado 236371" d="M298.852,174.955a1.216,1.216,0,0,1-1.216-1.216v-1.216a1.216,1.216,0,0,1,2.432,0v1.216A1.216,1.216,0,0,1,298.852,174.955Z" transform="translate(-283.045 -171.307)" fill="#5a4650"/>
        </g>
        <g id="Grupo_183935" data-name="Grupo 183935" transform="translate(75.601 21.26)">
          <path id="Trazado_236372" data-name="Trazado 236372" d="M193.03,148.034H190.6a1.216,1.216,0,1,1,0-2.432h2.432a1.216,1.216,0,1,1,0,2.432Z" transform="translate(-189.382 -145.602)" fill="#6e5a64"/>
          <path id="Trazado_236373" data-name="Trazado 236373" d="M292.957,148.034h-2.432a1.216,1.216,0,0,1,0-2.432h2.432a1.216,1.216,0,0,1,0,2.432Z" transform="translate(-274.718 -145.602)" fill="#6e5a64"/>
        </g>
        <path id="Trazado_236374" data-name="Trazado 236374" d="M151.946,88.526V87.31H126.411V99.469h-.5a3.11,3.11,0,0,0-3.036,2.214,3.049,3.049,0,0,0,2.929,3.865h.669a15.695,15.695,0,0,0,18.185,14.386,15.8,15.8,0,0,1-13.383-15.6v-7.3a6.08,6.08,0,0,1,6.08-6.08h12.159A2.432,2.432,0,0,0,151.946,88.526Z" transform="translate(-56.89 -74.562)" fill="#e3aa75"/>
        <path id="Trazado_236375" data-name="Trazado 236375" d="M141.106,14.141a12.157,12.157,0,0,0-9.61,13.173l1.027,9.742,1.254-.025a2.432,2.432,0,0,0,2.384-2.431V29.689a3.648,3.648,0,0,1,3.648-3.648h13.456Z" transform="translate(-64.289 -12.077)" fill="#5a4650"/>
        <path id="Trazado_236376" data-name="Trazado 236376" d="M187.5,220.546H168.047a3.648,3.648,0,0,0-3.648,3.648v1.216a13.375,13.375,0,0,0,13.375,13.375h0A13.375,13.375,0,0,0,191.15,225.41v-1.216A3.648,3.648,0,0,0,187.5,220.546Z" transform="translate(-92.446 -188.343)" fill="#84737b"/>
        <path id="Trazado_236377" data-name="Trazado 236377" d="M227.553,249.176a6.509,6.509,0,0,1-4.5-1.566,1.216,1.216,0,1,1,1.708-1.731,4.942,4.942,0,0,0,5.588,0,1.216,1.216,0,0,1,1.708,1.731A6.509,6.509,0,0,1,227.553,249.176Z" transform="translate(-142.225 -209.677)" fill="#e3aa75"/>
        <g id="Grupo_183936" data-name="Grupo 183936" transform="translate(69.441 0)">
          <path id="Trazado_236378" data-name="Trazado 236378" d="M170.479,225.41v-1.216a3.648,3.648,0,0,1,3.648-3.648h-6.08a3.648,3.648,0,0,0-3.648,3.648v1.216a13.336,13.336,0,0,0,16.415,13.015A13.371,13.371,0,0,1,170.479,225.41Z" transform="translate(-161.887 -188.342)" fill="#6e5a64"/>
          <path id="Trazado_236379" data-name="Trazado 236379" d="M180.1,24.979l1.028-9.742a12.157,12.157,0,0,0-12.09-13.432H157c-3.118,0-6.68-.444-8.788-1.712a.683.683,0,0,0-1.02.6c.014,3.589,1.7,13.275,19.535,13.275h6.08a3.648,3.648,0,0,1,3.648,3.648v4.911a2.432,2.432,0,0,0,2.384,2.431Z" transform="translate(-147.195 0)" fill="#6e5a64"/>
        </g>
      </g>
    </g>
    <g id="Company" transform="translate(437.684 2502.856)">
      <path id="Trazado_237143" data-name="Trazado 237143" d="M23.531,9.366V34.132H14.5V5.83l8.537,2.852a.722.722,0,0,1,.493.685Z" transform="translate(9.27 1.878)" fill="#bad2f9"/>
      <path id="Trazado_237144" data-name="Trazado 237144" d="M21.755,7.708v28.3H5.5V4.222A.722.722,0,0,1,6.222,3.5h14.81a.722.722,0,0,1,.722.722Z" transform="translate(2.015 0)" fill="#d9e5f8"/>
      <path id="Trazado_237145" data-name="Trazado 237145" d="M9,18.47h3.612v5.472H9Z" transform="translate(4.837 12.067)" fill="#6c8cfc"/>
      <path id="Trazado_237146" data-name="Trazado 237146" d="M36.413,22.806H3.9A.9.9,0,0,1,3.9,21h32.51a.9.9,0,0,1,0,1.806Z" transform="translate(0 14.107)" fill="#566291"/>
      <g id="Grupo_184167" data-name="Grupo 184167" transform="translate(11.019 8.015)">
        <path id="Trazado_237147" data-name="Trazado 237147" d="M10.221,16.806H8.343a.9.9,0,1,1,0-1.806h1.878a.9.9,0,1,1,0,1.806Z" transform="translate(-7.44 1.255)" fill="#6c8cfc"/>
        <path id="Trazado_237148" data-name="Trazado 237148" d="M13.3,16.806H11.423a.9.9,0,1,1,0-1.806H13.3a.9.9,0,1,1,0,1.806Z" transform="translate(-4.957 1.255)" fill="#6c8cfc"/>
        <path id="Trazado_237149" data-name="Trazado 237149" d="M10.221,13.806H8.343a.9.9,0,1,1,0-1.806h1.878a.9.9,0,1,1,0,1.806Z" transform="translate(-7.44 -1.163)" fill="#6c8cfc"/>
        <path id="Trazado_237150" data-name="Trazado 237150" d="M13.3,13.806H11.423a.9.9,0,1,1,0-1.806H13.3a.9.9,0,1,1,0,1.806Z" transform="translate(-4.957 -1.163)" fill="#6c8cfc"/>
        <path id="Trazado_237151" data-name="Trazado 237151" d="M10.221,10.806H8.343A.9.9,0,1,1,8.343,9h1.878a.9.9,0,0,1,0,1.806Z" transform="translate(-7.44 -3.582)" fill="#6c8cfc"/>
        <path id="Trazado_237152" data-name="Trazado 237152" d="M13.3,10.806H11.423a.9.9,0,1,1,0-1.806H13.3a.9.9,0,1,1,0,1.806Z" transform="translate(-4.957 -3.582)" fill="#6c8cfc"/>
        <path id="Trazado_237153" data-name="Trazado 237153" d="M10.221,7.806H8.343A.9.9,0,1,1,8.343,6h1.878a.9.9,0,0,1,0,1.806Z" transform="translate(-7.44 -6)" fill="#6c8cfc"/>
        <path id="Trazado_237154" data-name="Trazado 237154" d="M13.3,7.806H11.423a.9.9,0,1,1,0-1.806H13.3a.9.9,0,1,1,0,1.806Z" transform="translate(-4.957 -6)" fill="#6c8cfc"/>
        <path id="Trazado_237155" data-name="Trazado 237155" d="M18.709,19.776H16.9a.9.9,0,1,1,0-1.806h1.806a.9.9,0,0,1,0,1.806Z" transform="translate(-0.54 3.649)" fill="#6c8cfc"/>
        <path id="Trazado_237156" data-name="Trazado 237156" d="M18.709,16.786H16.9a.9.9,0,1,1,0-1.806h1.806a.9.9,0,0,1,0,1.806Z" transform="translate(-0.54 1.239)" fill="#6c8cfc"/>
        <path id="Trazado_237157" data-name="Trazado 237157" d="M18.709,13.806H16.9A.9.9,0,1,1,16.9,12h1.806a.9.9,0,0,1,0,1.806Z" transform="translate(-0.54 -1.163)" fill="#6c8cfc"/>
        <path id="Trazado_237158" data-name="Trazado 237158" d="M18.709,10.826H16.9a.9.9,0,1,1,0-1.806h1.806a.9.9,0,0,1,0,1.806Z" transform="translate(-0.54 -3.566)" fill="#6c8cfc"/>
      </g>
    </g>
  </g>
</svg>
