<svg xmlns="http://www.w3.org/2000/svg" xmlns:xlink="http://www.w3.org/1999/xlink" width="93.863" height="80.488" viewBox="0 0 93.863 80.488">
  <defs>
    <clipPath id="clip-path">
      <rect id="Rectángulo_56418" data-name="Rectángulo 56418" width="93.863" height="79.682" fill="#fff"/>
    </clipPath>
  </defs>
  <g id="Grupo_183971" data-name="Grupo 183971" transform="translate(-753 -3851)">
    <g id="Grupo_183970" data-name="Grupo 183970" transform="translate(462.759 1472.545)">
      <g id="Grupo_175904" data-name="Grupo 175904" transform="translate(290.241 2378.455)" clip-path="url(#clip-path)">
        <path id="Trazado_218610" data-name="Trazado 218610" d="M75.88,67.356s49.465-37.1,16-46.919S23.869-13.752,14.776,10.253s15.64,34.189,4,47.282,14.548,36.735,57.1,9.82" transform="translate(-9.637 0)" fill="#fff"/>
      </g>
    </g>
    <g id="pregunta-y-respuesta" transform="translate(757.795 3849.93)">
      <path id="Trazado_236525" data-name="Trazado 236525" d="M72.211,2.434H21.353A5.36,5.36,0,0,0,16,7.787V38.745a2.677,2.677,0,0,0,4.161,2.227l5.612-3.741H72.211a5.36,5.36,0,0,0,5.353-5.353V7.787a5.36,5.36,0,0,0-5.353-5.353Zm2.677,29.444a2.679,2.679,0,0,1-2.677,2.677H25.369a1.34,1.34,0,0,0-.742.225l-5.949,3.966V7.787A2.679,2.679,0,0,1,21.353,5.11H72.211a2.679,2.679,0,0,1,2.677,2.677Z" transform="translate(4.737)"/>
      <path id="Trazado_236526" data-name="Trazado 236526" d="M50.545,6.434A12.059,12.059,0,0,0,38.5,18.479c.632,15.968,23.461,15.964,24.091,0A12.059,12.059,0,0,0,50.545,6.434Zm0,21.414a9.379,9.379,0,0,1-9.369-9.369c.44-12.4,18.3-12.4,18.737,0A9.379,9.379,0,0,1,50.545,27.847Z" transform="translate(12.35 1.353)"/>
      <path id="Trazado_236527" data-name="Trazado 236527" d="M49.386,9.453A5.016,5.016,0,0,0,43.5,14.807a1.338,1.338,0,1,0,2.677,0A2.256,2.256,0,0,1,48.33,12.13h1.056a2.151,2.151,0,0,1,2.149,2.149c.074,1.195-1.067,1.909-1.955,2.453-1.544.847-3.425,4.786-.722,5.188A1.339,1.339,0,0,0,50.2,20.582a1.947,1.947,0,0,1,.869-1.623c4.912-2.435,3.833-9.21-1.679-9.506Z" transform="translate(14.038 2.349)"/>
      <path id="Trazado_236528" data-name="Trazado 236528" d="M47.838,19.43a1.338,1.338,0,1,0,1.339,1.338,1.338,1.338,0,0,0-1.339-1.338Z" transform="translate(15.057 5.751)"/>
      <path id="Trazado_236529" data-name="Trazado 236529" d="M37.4,8.434H21.338a1.338,1.338,0,1,0,0,2.677H37.4a1.338,1.338,0,1,0,0-2.677Z" transform="translate(6.091 2.03)"/>
      <path id="Trazado_236530" data-name="Trazado 236530" d="M37.4,13.434H21.338a1.338,1.338,0,1,0,0,2.677H37.4a1.338,1.338,0,1,0,0-2.677Z" transform="translate(6.091 3.722)"/>
      <path id="Trazado_236531" data-name="Trazado 236531" d="M37.4,18.434H21.338a1.338,1.338,0,1,0,0,2.677H37.4a1.338,1.338,0,1,0,0-2.677Z" transform="translate(6.091 5.414)"/>
      <path id="Trazado_236532" data-name="Trazado 236532" d="M58.211,32.434H7.353A5.36,5.36,0,0,0,2,37.787V61.878a5.36,5.36,0,0,0,5.353,5.353H53.791L59.4,70.972a2.695,2.695,0,0,0,4.161-2.227V37.787a5.36,5.36,0,0,0-5.353-5.353Zm2.677,36.312-5.949-3.966a1.34,1.34,0,0,0-.742-.225H7.353a2.679,2.679,0,0,1-2.677-2.677V37.787A2.679,2.679,0,0,1,7.353,35.11H58.211a2.679,2.679,0,0,1,2.677,2.677s.007,30.962,0,30.958Z" transform="translate(0 10.151)"/>
      <path id="Trazado_236533" data-name="Trazado 236533" d="M38.045,36.434A12.059,12.059,0,0,0,26,48.479c.632,15.968,23.461,15.964,24.091,0A12.059,12.059,0,0,0,38.045,36.434Zm0,21.414a9.379,9.379,0,0,1-9.369-9.369c.44-12.4,18.3-12.4,18.737,0A9.379,9.379,0,0,1,38.045,57.847Z" transform="translate(8.121 11.505)"/>
      <path id="Trazado_236534" data-name="Trazado 236534" d="M24.9,38.434H8.838a1.338,1.338,0,1,0,0,2.677H24.9a1.338,1.338,0,1,0,0-2.677Z" transform="translate(1.861 12.181)"/>
      <path id="Trazado_236535" data-name="Trazado 236535" d="M24.9,43.434H8.838a1.338,1.338,0,1,0,0,2.677H24.9a1.338,1.338,0,1,0,0-2.677Z" transform="translate(1.861 13.873)"/>
      <path id="Trazado_236536" data-name="Trazado 236536" d="M24.9,48.434H8.838a1.338,1.338,0,1,0,0,2.677H24.9a1.338,1.338,0,1,0,0-2.677Z" transform="translate(1.861 15.565)"/>
      <path id="Trazado_236537" data-name="Trazado 236537" d="M39.422,42.826l-4.407,4.407L33.285,45.5A1.338,1.338,0,1,0,31.392,47.4l2.677,2.677a1.338,1.338,0,0,0,1.893,0l5.353-5.353a1.338,1.338,0,1,0-1.893-1.893Z" transform="translate(9.813 13.535)"/>
    </g>
  </g>
</svg>
