<svg xmlns="http://www.w3.org/2000/svg" xmlns:xlink="http://www.w3.org/1999/xlink" width="93.863" height="79.682" viewBox="0 0 93.863 79.682">
  <defs>
    <clipPath id="clip-path">
      <rect id="Rectángulo_56418" data-name="Rectángulo 56418" width="93.863" height="79.682" fill="#fff"/>
    </clipPath>
    <clipPath id="clip-path-2">
      <rect id="Rectángulo_62965" data-name="Rectángulo 62965" width="58.823" height="78.656" fill="none"/>
    </clipPath>
    <clipPath id="clip-path-3">
      <rect id="Rectángulo_62967" data-name="Rectángulo 62967" width="30.938" height="42.827" fill="none"/>
    </clipPath>
  </defs>
  <g id="Grupo_183978" data-name="Grupo 183978" transform="translate(-1104 -3851.339)">
    <g id="Grupo_181781" data-name="Grupo 181781" transform="translate(813.759 1472.884)">
      <g id="Grupo_175904" data-name="Grupo 175904" transform="translate(290.241 2378.455)" clip-path="url(#clip-path)">
        <path id="Trazado_218610" data-name="Trazado 218610" d="M75.88,67.356s49.465-37.1,16-46.919S23.869-13.752,14.776,10.253s15.64,34.189,4,47.282,14.548,36.735,57.1,9.82" transform="translate(-9.637 0)" fill="#fff"/>
      </g>
    </g>
    <g id="Grupo_181773" data-name="Grupo 181773" transform="translate(1122 3852.363)">
      <g id="Grupo_181772" data-name="Grupo 181772" transform="translate(0 0.001)" clip-path="url(#clip-path-2)">
        <path id="Trazado_232763" data-name="Trazado 232763" d="M29.411,58.824A29.412,29.412,0,1,1,58.823,29.412,29.444,29.444,0,0,1,29.411,58.824m0-56.235A26.823,26.823,0,1,0,56.234,29.412,26.854,26.854,0,0,0,29.411,2.589" transform="translate(0 -0.001)"/>
        <path id="Trazado_232764" data-name="Trazado 232764" d="M30.733,61.139H16.657a1.3,1.3,0,0,1-1.3-1.3V50.766a3.688,3.688,0,0,1,3.684-3.684h9.3a3.687,3.687,0,0,1,3.684,3.684v9.078a1.3,1.3,0,0,1-1.3,1.3M17.951,58.55H29.44V50.766a1.1,1.1,0,0,0-1.095-1.095h-9.3a1.1,1.1,0,0,0-1.095,1.095Z" transform="translate(5.716 17.518)"/>
        <path id="Trazado_232765" data-name="Trazado 232765" d="M27.416,52.035H18.559a1.3,1.3,0,0,1-1.3-1.3V42.024a1.3,1.3,0,0,1,1.5-1.279,27.04,27.04,0,0,0,8.453,0,1.3,1.3,0,0,1,1.5,1.279V50.74a1.3,1.3,0,0,1-1.3,1.3m-7.563-2.589h6.269V43.5a29.372,29.372,0,0,1-6.269,0Z" transform="translate(6.424 15.154)"/>
        <path id="Trazado_232766" data-name="Trazado 232766" d="M42,58.029H10.2a1.295,1.295,0,0,1,0-2.589H42a1.295,1.295,0,0,1,0,2.589" transform="translate(3.313 20.628)"/>
        <path id="Trazado_232767" data-name="Trazado 232767" d="M38.149,23.643a1.294,1.294,0,0,1-1.294-1.294c0-.652-.03-1.308-.089-1.951a1.294,1.294,0,1,1,2.577-.237c.067.722.1,1.457.1,2.188a1.294,1.294,0,0,1-1.294,1.294" transform="translate(13.678 7.063)"/>
        <path id="Trazado_232768" data-name="Trazado 232768" d="M39.5,19.057a1.3,1.3,0,0,1-1.173-.745,21.058,21.058,0,0,0-1.836-3.159,1.294,1.294,0,0,1,2.117-1.489,23.84,23.84,0,0,1,2.062,3.545,1.3,1.3,0,0,1-1.17,1.847M32.085,10.24A1.291,1.291,0,0,1,31.341,10a21.207,21.207,0,0,0-3.159-1.836,1.294,1.294,0,0,1,1.1-2.342,23.862,23.862,0,0,1,3.545,2.061,1.295,1.295,0,0,1-.746,2.353" transform="translate(10.21 2.121)"/>
        <path id="Trazado_232769" data-name="Trazado 232769" d="M23.858,6.838a1.176,1.176,0,0,1-.119-.005c-.645-.059-1.3-.089-1.952-.089a1.294,1.294,0,0,1,0-2.588c.729,0,1.465.033,2.188.1a1.295,1.295,0,0,1-.117,2.584" transform="translate(7.625 1.546)"/>
        <path id="Trazado_232770" data-name="Trazado 232770" d="M27.865,51.575a23.709,23.709,0,1,1,0-47.418,1.294,1.294,0,1,1,0,2.588,21.12,21.12,0,1,0,21.12,21.12,1.295,1.295,0,0,1,2.589,0,23.737,23.737,0,0,1-23.71,23.71" transform="translate(1.546 1.546)"/>
        <path id="Trazado_232771" data-name="Trazado 232771" d="M14.26,19.9a9.307,9.307,0,0,1,3.05-6.442,9.936,9.936,0,0,1,6.836-2.383,10.461,10.461,0,0,1,7.1,2.342,7.533,7.533,0,0,1,2.706,5.962,7.964,7.964,0,0,1-.926,3.788,13.965,13.965,0,0,1-3.486,3.872,11.911,11.911,0,0,0-3.142,3.382,10.786,10.786,0,0,0-.583,4.193H22.148a13.433,13.433,0,0,1,.9-5.671,12.894,12.894,0,0,1,3.3-3.84,13.472,13.472,0,0,0,2.987-3.132,4.875,4.875,0,0,0,.582-2.32A5.286,5.286,0,0,0,28.329,15.7a5.662,5.662,0,0,0-4.141-1.55q-5,0-5.87,5.745ZM26.249,42.1H21.982V37.838h4.267Z" transform="translate(5.306 4.119)"/>
      </g>
    </g>
    <g id="Grupo_181777" data-name="Grupo 181777" transform="translate(1164 3883)">
      <g id="Grupo_181776" data-name="Grupo 181776" transform="translate(0 0)" clip-path="url(#clip-path-3)">
        <path id="Trazado_232788" data-name="Trazado 232788" d="M8.589,42.827a1.23,1.23,0,0,1-.32-.041,1.247,1.247,0,0,1-.76-.584L.165,29.37A1.244,1.244,0,0,1,.5,27.753l1.876-1.4a1.244,1.244,0,0,1,1.572.07l4.8,4.279L28.654.559a1.245,1.245,0,0,1,2.165,1.217L12.559,40.455a1.24,1.24,0,0,1-.5.543l-2.845,1.66a1.232,1.232,0,0,1-.627.169M2.874,29.091,9.047,39.875l1.426-.833L21.122,16.485,10.031,33.279a1.243,1.243,0,0,1-1.866.244L3.05,28.96Z" transform="translate(0 0)"/>
      </g>
    </g>
  </g>
</svg>
