<svg xmlns="http://www.w3.org/2000/svg" xmlns:xlink="http://www.w3.org/1999/xlink" width="93.863" height="79.682" viewBox="0 0 93.863 79.682">
  <defs>
    <clipPath id="clip-path">
      <rect id="Rectángulo_56418" data-name="Rectángulo 56418" width="93.863" height="79.682" fill="#fff"/>
    </clipPath>
  </defs>
  <g id="Grupo_183973" data-name="Grupo 183973" transform="translate(925 7720.661)">
    <g id="Grupo_183968" data-name="Grupo 183968" transform="translate(-1215.241 -10099.116)">
      <g id="Grupo_175904" data-name="Grupo 175904" transform="translate(290.241 2378.455)" clip-path="url(#clip-path)">
        <path id="Trazado_218610" data-name="Trazado 218610" d="M75.88,67.356s49.465-37.1,16-46.919S23.869-13.752,14.776,10.253s15.64,34.189,4,47.282,14.548,36.735,57.1,9.82" transform="translate(-9.637 0)" fill="#fff"/>
      </g>
    </g>
    <g id="_15_Bad_Comment_Dislike_Feedback" data-name="15 Bad Comment, Dislike, Feedback" transform="translate(-917 -7717)">
      <path id="Trazado_236546" data-name="Trazado 236546" d="M9.047,65.927H37.814v3.365H9.047A5.047,5.047,0,0,1,4,64.245V7.047A5.047,5.047,0,0,1,9.047,2H52.786a5.047,5.047,0,0,1,5.047,5.047V42.375H54.469V7.047a1.682,1.682,0,0,0-1.682-1.682H9.047A1.682,1.682,0,0,0,7.365,7.047v57.2A1.682,1.682,0,0,0,9.047,65.927Zm3.365-47.1V12.094a1.682,1.682,0,0,1,1.682-1.682H24.187a1.682,1.682,0,0,1,1.682,1.682v6.729a1.682,1.682,0,0,1-1.682,1.682H14.094A1.682,1.682,0,0,1,12.411,18.823Zm3.365-1.682h6.729V13.776H15.776Zm33.646-6.729H29.234v3.365H49.422Zm0,6.729H29.234v3.365H49.422Zm-37.01,8.411a1.682,1.682,0,0,1,1.682-1.682H24.187a1.682,1.682,0,0,1,1.682,1.682v6.729a1.682,1.682,0,0,1-1.682,1.682H14.094a1.682,1.682,0,0,1-1.682-1.682ZM15.776,30.6h6.729V27.234H15.776ZM49.422,23.87H29.234v3.365H49.422Zm0,6.729H29.234v3.365H49.422ZM12.411,39.01a1.682,1.682,0,0,1,1.682-1.682H24.187A1.682,1.682,0,0,1,25.87,39.01v6.729a1.682,1.682,0,0,1-1.682,1.682H14.094a1.682,1.682,0,0,1-1.682-1.682Zm3.365,5.047h6.729V40.693H15.776Zm33.646-6.729H29.234v3.365H49.422ZM37.646,44.057H29.234v3.365h8.411Zm0,6.729H12.411v3.365H37.646ZM12.411,60.88H37.646V57.515H12.411Zm60.36,3.213a5.047,5.047,0,0,1-3.9,1.834H64.562v5.047c0,1.867-.69,5.047-5.316,5.047h0c-3.583,0-5.383-6.241-6.157-10.094H51.1a1.682,1.682,0,0,1-1.682,1.682H42.693a1.682,1.682,0,0,1-1.682-1.682V45.739a1.682,1.682,0,0,1,1.682-1.682h6.729A1.682,1.682,0,0,1,51.1,45.739H65.05a7.251,7.251,0,0,1,7.1,5.8l1.682,8.411A5.047,5.047,0,0,1,72.772,64.093Zm-25.032.151V47.422H44.375V64.245Zm22.778-3.7-1.682-8.411A3.869,3.869,0,0,0,65.05,49.1H51.1V62.562h3.365a1.682,1.682,0,0,1,1.682,1.4c.673,4.088,2.221,8.31,3.163,8.7,1.43,0,1.9-.252,1.9-1.682V64.245A1.682,1.682,0,0,1,62.9,62.562h5.989a1.67,1.67,0,0,0,1.632-2Z" transform="translate(0 0)"/>
    </g>
  </g>
</svg>
