<svg xmlns="http://www.w3.org/2000/svg" xmlns:xlink="http://www.w3.org/1999/xlink" width="93.863" height="79.682" viewBox="0 0 93.863 79.682">
  <defs>
    <clipPath id="clip-path">
      <rect id="Rect치ngulo_56418" data-name="Rect치ngulo 56418" width="93.863" height="79.682" fill="#fff"/>
    </clipPath>
    <clipPath id="clip-path-2">
      <rect id="Rect치ngulo_62964" data-name="Rect치ngulo 62964" width="65.596" height="78.656" fill="none"/>
    </clipPath>
  </defs>
  <g id="Grupo_183977" data-name="Grupo 183977" transform="translate(-402 -3851.339)">
    <g id="Grupo_181780" data-name="Grupo 181780" transform="translate(111.759 1472.884)">
      <g id="Grupo_175904" data-name="Grupo 175904" transform="translate(290.241 2378.455)" clip-path="url(#clip-path)">
        <path id="Trazado_218610" data-name="Trazado 218610" d="M75.88,67.356s49.465-37.1,16-46.919S23.869-13.752,14.776,10.253s15.64,34.189,4,47.282,14.548,36.735,57.1,9.82" transform="translate(-9.637 0)" fill="#fff"/>
      </g>
    </g>
    <g id="Grupo_181771" data-name="Grupo 181771" transform="translate(416 3852.364)">
      <g id="Grupo_181770" data-name="Grupo 181770" transform="translate(0 0)" clip-path="url(#clip-path-2)">
        <path id="Trazado_232752" data-name="Trazado 232752" d="M32.271,65.186A32.271,32.271,0,1,1,47.519,4.469a1.478,1.478,0,0,1-1.4,2.6A29.309,29.309,0,1,0,57.2,17.491a1.478,1.478,0,0,1,2.511-1.56A32.276,32.276,0,0,1,32.271,65.186" transform="translate(0 1.769)"/>
        <path id="Trazado_232753" data-name="Trazado 232753" d="M27.319,53.48A25.514,25.514,0,1,1,52.831,27.964,25.542,25.542,0,0,1,27.319,53.48m0-48.073A22.558,22.558,0,1,0,49.875,27.964,22.581,22.581,0,0,0,27.319,5.407" transform="translate(4.952 6.72)"/>
        <path id="Trazado_232754" data-name="Trazado 232754" d="M22.49,42.058A18.923,18.923,0,1,1,41.413,23.135,18.947,18.947,0,0,1,22.49,42.058m0-34.89A15.967,15.967,0,1,0,38.457,23.135,15.984,15.984,0,0,0,22.49,7.168" transform="translate(9.781 11.549)"/>
        <path id="Trazado_232755" data-name="Trazado 232755" d="M17.376,29.966A11.944,11.944,0,1,1,29.321,18.021,11.958,11.958,0,0,1,17.376,29.966m0-20.932a8.988,8.988,0,1,0,8.988,8.988,9,9,0,0,0-8.988-8.988" transform="translate(14.894 16.663)"/>
        <path id="Trazado_232756" data-name="Trazado 232756" d="M7.979,37.6a5.611,5.611,0,0,1-5.594-6.081L3.646,16.332a1.477,1.477,0,1,1,2.945.243L5.33,31.764a2.655,2.655,0,0,0,2.649,2.878A2.663,2.663,0,0,0,10.393,33.1L15.31,22.424A1.478,1.478,0,1,1,18,23.659L13.08,34.331a5.625,5.625,0,0,1-5.1,3.267" transform="translate(6.487 41.058)"/>
        <path id="Trazado_232757" data-name="Trazado 232757" d="M20.821,37.6a5.625,5.625,0,0,1-5.1-3.267L10.8,23.659a1.478,1.478,0,0,1,2.687-1.235L18.408,33.1a2.663,2.663,0,0,0,2.414,1.545,2.655,2.655,0,0,0,2.649-2.878L22.209,16.575a1.477,1.477,0,1,1,2.945-.243l1.261,15.185A5.611,5.611,0,0,1,20.821,37.6" transform="translate(29.254 41.058)"/>
        <path id="Trazado_232758" data-name="Trazado 232758" d="M63.063,23.186H1.478a1.478,1.478,0,1,1,0-2.956H63.063a1.478,1.478,0,0,1,0,2.956" transform="translate(0 55.47)"/>
        <path id="Trazado_232759" data-name="Trazado 232759" d="M10.16,27.959a1.478,1.478,0,0,1-1.044-2.522L32.237,2.312A1.479,1.479,0,0,1,34.329,4.4L11.2,27.525a1.474,1.474,0,0,1-1.044.434" transform="translate(23.802 5.153)"/>
        <path id="Trazado_232760" data-name="Trazado 232760" d="M15.548,14.279a1.476,1.476,0,0,1-1.4-1.022A11.4,11.4,0,0,1,16.589,2.013L18,.479a1.478,1.478,0,1,1,2.174,2L18.767,4.015a8.439,8.439,0,0,0-1.811,8.326,1.479,1.479,0,0,1-.947,1.863,1.411,1.411,0,0,1-.46.075" transform="translate(37.247 0)"/>
        <path id="Trazado_232761" data-name="Trazado 232761" d="M18.26,9.063A11.307,11.307,0,0,1,14.735,8.5a1.478,1.478,0,1,1,.917-2.81,8.439,8.439,0,0,0,8.326-1.811L25.512,2.47a1.478,1.478,0,1,1,2,2.174L25.979,6.059a11.409,11.409,0,0,1-7.72,3" transform="translate(37.604 5.702)"/>
      </g>
    </g>
  </g>
</svg>
