<svg xmlns="http://www.w3.org/2000/svg" xmlns:xlink="http://www.w3.org/1999/xlink" width="93.863" height="79.682" viewBox="0 0 93.863 79.682">
  <defs>
    <clipPath id="clip-path">
      <rect id="Rect치ngulo_56418" data-name="Rect치ngulo 56418" width="93.863" height="79.682" fill="#fff"/>
    </clipPath>
    <clipPath id="clip-path-2">
      <rect id="Rect치ngulo_62966" data-name="Rect치ngulo 62966" width="80.094" height="73.602" fill="none"/>
    </clipPath>
  </defs>
  <g id="Grupo_183975" data-name="Grupo 183975" transform="translate(1276 7721)">
    <g id="Grupo_181782" data-name="Grupo 181782" transform="translate(-1566.241 -10099.455)">
      <g id="Grupo_175904" data-name="Grupo 175904" transform="translate(290.241 2378.455)" clip-path="url(#clip-path)">
        <path id="Trazado_218610" data-name="Trazado 218610" d="M75.88,67.356s49.465-37.1,16-46.919S23.869-13.752,14.776,10.253s15.64,34.189,4,47.282,14.548,36.735,57.1,9.82" transform="translate(-9.637 0)" fill="#fff"/>
      </g>
    </g>
    <g id="Grupo_181775" data-name="Grupo 181775" transform="translate(-1269 -7715)">
      <g id="Grupo_181774" data-name="Grupo 181774" transform="translate(0 0)" clip-path="url(#clip-path-2)">
        <path id="Trazado_232772" data-name="Trazado 232772" d="M67.573,51.778H12.523A12.538,12.538,0,0,1,0,39.255a1.3,1.3,0,0,1,1.3-1.3H78.792a1.3,1.3,0,0,1,1.3,1.3A12.538,12.538,0,0,1,67.573,51.778M2.695,40.559a9.929,9.929,0,0,0,9.828,8.609h55.05A9.929,9.929,0,0,0,77.4,40.559Z" transform="translate(0 21.825)"/>
        <path id="Trazado_232773" data-name="Trazado 232773" d="M75.763,57.007H2.712a1.3,1.3,0,0,1-1.3-1.3V13.784A4.441,4.441,0,0,1,5.843,9.349H33.657a1.3,1.3,0,1,1,0,2.61H5.843a1.828,1.828,0,0,0-1.827,1.825V54.4H74.459V13.784a1.828,1.828,0,0,0-1.827-1.825h-.884a1.3,1.3,0,0,1,0-2.61h.884a4.441,4.441,0,0,1,4.435,4.435V55.7a1.3,1.3,0,0,1-1.3,1.3" transform="translate(0.81 5.377)"/>
        <path id="Trazado_232774" data-name="Trazado 232774" d="M33.049,16.457H28.875a1.3,1.3,0,1,1,0-2.608h4.174a1.3,1.3,0,0,1,0,2.608" transform="translate(15.855 7.965)"/>
        <path id="Trazado_232775" data-name="Trazado 232775" d="M65.342,47.462H8.118A1.308,1.308,0,0,1,6.983,46.8c-.17-.3-.332-.55-.471-.765a3.433,3.433,0,0,1-.742-1.914V16.172a2.339,2.339,0,0,1,2.348-2.323h4.246a1.3,1.3,0,1,1,0,2.61H8.378V44.121c.02.027.189.288.324.5.049.074.1.153.151.233H64.606c.052-.08.1-.159.151-.233a4.354,4.354,0,0,0,.331-.561l-.008-27.6H61.152a1.3,1.3,0,0,1,0-2.61h4.19a2.339,2.339,0,0,1,2.348,2.323V44.121a3.433,3.433,0,0,1-.742,1.914c-.14.216-.3.463-.471.765a1.308,1.308,0,0,1-1.136.662" transform="translate(3.318 7.965)"/>
        <path id="Trazado_232776" data-name="Trazado 232776" d="M19.57,39.841a1.32,1.32,0,0,1-.208-.016,1.3,1.3,0,0,1-.989-.772l-2.708-6.269L10.9,32.649a1.3,1.3,0,0,1-1.266-1.3V19.039a1.3,1.3,0,0,1,1.033-1.276l23.084-4.9a1.3,1.3,0,0,1,1.57,1.167l1.367,16.244a1.3,1.3,0,0,1-1.167,1.407l-8.924.907L20.545,39.4a1.3,1.3,0,0,1-.975.438m-7.326-9.764,4.327.124a1.3,1.3,0,0,1,1.159.788l2.226,5.15,5.032-5.661a1.3,1.3,0,0,1,.843-.432l8.152-.828L32.848,15.725,12.244,20.1Z" transform="translate(5.541 7.383)"/>
        <path id="Trazado_232777" data-name="Trazado 232777" d="M20.121,20.978a1.785,1.785,0,1,1-1.785-1.785,1.784,1.784,0,0,1,1.785,1.785" transform="translate(9.518 11.038)"/>
        <path id="Trazado_232778" data-name="Trazado 232778" d="M16.722,21.621a1.785,1.785,0,1,1-1.785-1.785,1.784,1.784,0,0,1,1.785,1.785" transform="translate(7.564 11.407)"/>
        <path id="Trazado_232779" data-name="Trazado 232779" d="M23.52,20.268a1.785,1.785,0,1,1-1.785-1.785,1.784,1.784,0,0,1,1.785,1.785" transform="translate(11.473 10.629)"/>
        <path id="Trazado_232780" data-name="Trazado 232780" d="M42.839,27a1.3,1.3,0,0,1-.975-.438l-6.056-6.812-8.923-.907a1.306,1.306,0,0,1-1.169-1.408L27.085,1.2A1.305,1.305,0,0,1,28.656.028l23.082,4.9A1.3,1.3,0,0,1,52.773,6.2V18.507a1.3,1.3,0,0,1-1.268,1.3l-4.761.135-2.708,6.27a1.307,1.307,0,0,1-.991.77,1.153,1.153,0,0,1-.206.017M28.424,16.381l8.154.828a1.307,1.307,0,0,1,.843.432L42.453,23.3l2.224-5.152a1.306,1.306,0,0,1,1.161-.786l4.325-.123V7.258L29.56,2.889Z" transform="translate(14.786 0.001)"/>
        <path id="Trazado_232781" data-name="Trazado 232781" d="M33.71,8.141a1.785,1.785,0,1,0,1.785-1.785A1.784,1.784,0,0,0,33.71,8.141" transform="translate(19.385 3.656)"/>
        <path id="Trazado_232782" data-name="Trazado 232782" d="M37.109,8.783A1.785,1.785,0,1,0,38.894,7a1.784,1.784,0,0,0-1.785,1.785" transform="translate(21.34 4.025)"/>
        <path id="Trazado_232783" data-name="Trazado 232783" d="M30.311,7.43A1.785,1.785,0,1,0,32.1,5.645,1.784,1.784,0,0,0,30.311,7.43" transform="translate(17.43 3.247)"/>
        <path id="Trazado_232784" data-name="Trazado 232784" d="M27.4,33.584H13.139a1.3,1.3,0,1,1,0-2.608H27.4a1.3,1.3,0,0,1,0,2.608" transform="translate(6.806 17.814)"/>
        <path id="Trazado_232785" data-name="Trazado 232785" d="M44.766,20.747H32.243a1.3,1.3,0,1,1,0-2.608H44.766a1.3,1.3,0,1,1,0,2.608" transform="translate(17.791 10.432)"/>
        <path id="Trazado_232786" data-name="Trazado 232786" d="M47.275,28.688H27.881a1.3,1.3,0,0,1,0-2.608H47.275a1.3,1.3,0,1,1,0,2.608" transform="translate(15.283 14.998)"/>
        <path id="Trazado_232787" data-name="Trazado 232787" d="M43.186,44.121H17.865a1.3,1.3,0,0,1,0-2.61H43.186a1.3,1.3,0,0,1,0,2.61" transform="translate(9.523 23.872)"/>
      </g>
    </g>
  </g>
</svg>
