<svg xmlns="http://www.w3.org/2000/svg" width="190" height="96" viewBox="0 0 190 96">
  <g id="Grupo_182207" data-name="Grupo 182207" transform="translate(-1020 -7286)">
    <g id="OUTLINE" transform="translate(1052 7272.728)">
      <path id="Trazado_233251" data-name="Trazado 233251" d="M104.418,16H20.654A4.659,4.659,0,0,0,16,20.654v66.7a4.659,4.659,0,0,0,4.654,4.654H51.2L47.39,105.97H43.922v3.1H81.15v-3.1H77.682L73.874,92.009h30.544a4.659,4.659,0,0,0,4.654-4.654v-66.7A4.659,4.659,0,0,0,104.418,16ZM74.466,105.97H50.606l3.807-13.961H70.658Zm31.5-18.614a1.553,1.553,0,0,1-1.551,1.551H20.654A1.553,1.553,0,0,1,19.1,87.355v-6.2H105.97ZM47.133,66.477,49.414,64.2l4.668,1.857L58.94,64.04l1.983-4.606h3.226l1.983,4.606,4.858,2.013L75.658,64.2l2.281,2.281-1.857,4.668L78.1,76,82.7,77.986v.062H74.845a12.406,12.406,0,0,0-24.618,0H42.37v-.062L46.977,76l2.013-4.858ZM71.712,78.048H53.361a9.305,9.305,0,0,1,18.351,0Zm34.258,0H85.8v-2.1l-5.325-2.292-1.049-2.531,2.146-5.394-5.169-5.168L71.014,62.7l-2.531-1.049-2.292-5.325h-7.31l-2.292,5.325L54.058,62.7l-5.394-2.146L43.5,65.727l2.146,5.394-1.049,2.531-5.325,2.292v2.1H19.1V20.654A1.553,1.553,0,0,1,20.654,19.1h83.765a1.553,1.553,0,0,1,1.551,1.551Z" fill="#f6f6f6"/>
      <path id="Trazado_233252" data-name="Trazado 233252" d="M298.126,65.063a17.063,17.063,0,1,0-17.063,17.063h1.551V66.614h15.512ZM279.512,78.938a13.95,13.95,0,0,1-9.35-22.582l9.35,9.35Zm2.194-15.426-9.35-9.35a13.95,13.95,0,0,1,22.582,9.35Z" transform="translate(-199.913 -25.795)" fill="#f6f6f6"/>
      <path id="Trazado_233253" data-name="Trazado 233253" d="M376,175.512h1.745a13.783,13.783,0,0,0,13.767-13.767V160H376Zm3.1-12.41h9.221a10.687,10.687,0,0,1-9.221,9.221Z" transform="translate(-290.196 -116.078)" fill="#f6f6f6"/>
      <path id="Trazado_233254" data-name="Trazado 233254" d="M88.575,48H60.654A4.659,4.659,0,0,0,56,52.654V74.37a4.659,4.659,0,0,0,4.654,4.654H88.575a4.659,4.659,0,0,0,4.654-4.654V52.654A4.659,4.659,0,0,0,88.575,48Zm1.551,26.37a1.553,1.553,0,0,1-1.551,1.551H60.654A1.553,1.553,0,0,1,59.1,74.37V57.307H90.126Zm0-20.166H59.1V52.654A1.553,1.553,0,0,1,60.654,51.1H88.575a1.553,1.553,0,0,1,1.551,1.551Z" transform="translate(-32.244 -25.795)" fill="#f6f6f6"/>
      <path id="Trazado_233255" data-name="Trazado 233255" d="M56,232H74.614v3.1H56Z" transform="translate(-32.244 -174.118)" fill="#f6f6f6"/>
      <path id="Trazado_233256" data-name="Trazado 233256" d="M56,264H69.961v3.1H56Z" transform="translate(-32.244 -199.913)" fill="#f6f6f6"/>
      <path id="Trazado_233257" data-name="Trazado 233257" d="M56,296H69.961v3.1H56Z" transform="translate(-32.244 -225.708)" fill="#f6f6f6"/>
      <path id="Trazado_233258" data-name="Trazado 233258" d="M376,264h15.512v3.1H376Z" transform="translate(-290.196 -199.913)" fill="#f6f6f6"/>
      <path id="Trazado_233259" data-name="Trazado 233259" d="M376,296h15.512v3.1H376Z" transform="translate(-290.196 -225.708)" fill="#f6f6f6"/>
    </g>
    <rect id="Rectángulo_63388" data-name="Rectángulo 63388" width="190" height="96" transform="translate(1020 7286)" fill="none"/>
  </g>
</svg>
