<svg xmlns="http://www.w3.org/2000/svg" width="190" height="96" viewBox="0 0 190 96">
  <g id="Grupo_182208" data-name="Grupo 182208" transform="translate(-1020 -7286)">
    <rect id="Rectángulo_63388" data-name="Rectángulo 63388" width="190" height="96" transform="translate(1020 7286)" fill="none"/>
    <g id="OUTLINE" transform="translate(1053 7274)">
      <path id="Trazado_233260" data-name="Trazado 233260" d="M104.052,34.218a3.04,3.04,0,0,0,3.036-3.036V22.073A6.079,6.079,0,0,0,101.015,16H29.663a4.56,4.56,0,0,0-4.554,4.554V94.943H19.036A3.04,3.04,0,0,0,16,97.979v3.036a6.079,6.079,0,0,0,6.073,6.073H73.689v-3.036H22.073a3.04,3.04,0,0,1-3.036-3.036V97.979H53.6A4.544,4.544,0,0,0,56.99,99.5H74.478l6.8,8.5,6.8-8.5h14.452a4.56,4.56,0,0,0,4.554-4.554v-33.4a4.56,4.56,0,0,0-4.554-4.554H97.979V34.218ZM97.979,22.073a3.036,3.036,0,0,1,6.073,0v9.109H97.979ZM52.435,61.544v33.4H28.145V20.554a1.52,1.52,0,0,1,1.518-1.518h66.1a6.033,6.033,0,0,0-.817,3.036V56.99H56.99a4.56,4.56,0,0,0-4.554,4.554Zm50.1-1.518a1.52,1.52,0,0,1,1.518,1.518v33.4a1.52,1.52,0,0,1-1.518,1.518H86.623L81.28,103.14l-5.343-6.679H56.99a1.52,1.52,0,0,1-1.518-1.518v-33.4a1.52,1.52,0,0,1,1.518-1.518Z" fill="#fff"/>
      <path id="Trazado_233261" data-name="Trazado 233261" d="M241.518,295.9h9.109V287.47l1.518-1.37v-7.876a4.531,4.531,0,0,0-2.65-4.137,4.538,4.538,0,0,0,1.131-3.01v-.622a4.53,4.53,0,0,0-2.518-4.074,4.576,4.576,0,0,0-4.073,0,4.529,4.529,0,0,0-2.518,4.074v.622a4.538,4.538,0,0,0,1.131,3.01A4.531,4.531,0,0,0,240,278.224V286.1l1.518,1.37Zm3.036-25.45a1.518,1.518,0,0,1,3.036,0v.622a1.511,1.511,0,0,1-.954,1.41l-.564.226-.564-.226a1.511,1.511,0,0,1-.954-1.41Zm-1.518,7.77a1.511,1.511,0,0,1,.954-1.41l2.082-.833,2.082.833a1.511,1.511,0,0,1,.954,1.41v6.526l-1.518,1.37v6.747h-3.036V286.12l-1.518-1.37Z" transform="translate(-181.492 -202.479)" fill="#fff"/>
      <path id="Trazado_233262" data-name="Trazado 233262" d="M321.518,295.9h9.109V287.47l1.518-1.37v-7.876a4.531,4.531,0,0,0-2.65-4.137,4.538,4.538,0,0,0,1.131-3.01v-.622a4.53,4.53,0,0,0-2.518-4.074,4.576,4.576,0,0,0-4.073,0,4.53,4.53,0,0,0-2.518,4.074v.622a4.538,4.538,0,0,0,1.131,3.01,4.531,4.531,0,0,0-2.65,4.137V286.1l1.518,1.37Zm3.036-25.45a1.518,1.518,0,0,1,3.036,0v.622a1.511,1.511,0,0,1-.954,1.41l-.564.226-.564-.226a1.511,1.511,0,0,1-.954-1.41Zm-1.518,7.77a1.511,1.511,0,0,1,.954-1.41l2.082-.833,2.082.833a1.511,1.511,0,0,1,.954,1.41v6.526l-1.518,1.37v6.747h-3.036V286.12l-1.518-1.37Z" transform="translate(-246.311 -202.479)" fill="#fff"/>
      <path id="Trazado_233263" data-name="Trazado 233263" d="M401.518,295.9h9.109V287.47l1.518-1.37v-7.876a4.531,4.531,0,0,0-2.65-4.137,4.538,4.538,0,0,0,1.131-3.011v-.622a4.53,4.53,0,0,0-2.518-4.074,4.576,4.576,0,0,0-4.073,0,4.53,4.53,0,0,0-2.518,4.074v.622a4.538,4.538,0,0,0,1.131,3.01A4.531,4.531,0,0,0,400,278.224V286.1l1.518,1.37Zm3.036-25.45a1.518,1.518,0,1,1,3.036,0v.622a1.511,1.511,0,0,1-.954,1.41l-.564.226-.564-.226a1.511,1.511,0,0,1-.954-1.41Zm-1.518,7.77a1.511,1.511,0,0,1,.954-1.41l2.082-.833,2.082.833a1.511,1.511,0,0,1,.954,1.41v6.526l-1.518,1.37v6.747h-3.036V286.12l-1.518-1.37Z" transform="translate(-311.13 -202.479)" fill="#fff"/>
      <path id="Trazado_233264" data-name="Trazado 233264" d="M271.181,86.363A15.181,15.181,0,1,0,256,71.181a15.181,15.181,0,0,0,15.181,15.181ZM272.7,59.135a12.134,12.134,0,0,1,9.5,17.144l-9.5-5.938Zm7.89,19.717a12.127,12.127,0,0,1-18.816,0l9.408-5.88Zm-21.553-7.67a12.161,12.161,0,0,1,10.627-12.047V70.34l-9.5,5.938a12.07,12.07,0,0,1-1.125-5.1Z" transform="translate(-194.456 -32.409)" fill="#fff"/>
      <path id="Trazado_233265" data-name="Trazado 233265" d="M123.326,109.254H120.29V88h-3.036v21.254h-3.036v-16.7h-3.036v16.7h-3.036V97.109h-3.036v12.145h-3.036v-7.591H99.036v7.591H96v3.036h27.326Z" transform="translate(-64.819 -58.337)" fill="#fff"/>
      <path id="Trazado_233266" data-name="Trazado 233266" d="M96,64h18.218v3.036H96Z" transform="translate(-64.819 -38.891)" fill="#fff"/>
      <path id="Trazado_233267" data-name="Trazado 233267" d="M96,240h3.036v3.036H96Z" transform="translate(-64.819 -181.492)" fill="#fff"/>
      <path id="Trazado_233268" data-name="Trazado 233268" d="M128,240h12.145v3.036H128Z" transform="translate(-90.746 -181.492)" fill="#fff"/>
      <path id="Trazado_233269" data-name="Trazado 233269" d="M96,288h3.036v3.036H96Z" transform="translate(-64.819 -220.383)" fill="#fff"/>
      <path id="Trazado_233270" data-name="Trazado 233270" d="M128,288h12.145v3.036H128Z" transform="translate(-90.746 -220.383)" fill="#fff"/>
      <path id="Trazado_233271" data-name="Trazado 233271" d="M96,336h3.036v3.036H96Z" transform="translate(-64.819 -259.275)" fill="#fff"/>
      <path id="Trazado_233272" data-name="Trazado 233272" d="M128,336h12.145v3.036H128Z" transform="translate(-90.746 -259.275)" fill="#fff"/>
      <path id="Trazado_233273" data-name="Trazado 233273" d="M96,384h3.036v3.036H96Z" transform="translate(-64.819 -298.166)" fill="#fff"/>
      <path id="Trazado_233274" data-name="Trazado 233274" d="M128,384h12.145v3.036H128Z" transform="translate(-90.746 -298.166)" fill="#fff"/>
    </g>
  </g>
</svg>
