<svg xmlns="http://www.w3.org/2000/svg" width="60.001" height="60.001" viewBox="0 0 60.001 60.001">
  <g id="Grupo_184190" data-name="Grupo 184190" transform="translate(-297 -4954)">
    <g id="Grupo_182804" data-name="Grupo 182804" transform="translate(0.001 63)">
      <circle id="Elipse_6255" data-name="Elipse 6255" cx="30" cy="30" r="30" transform="translate(297 4891)" fill="#d7e6f8"/>
      <path id="Intersección_8" data-name="Intersección 8" d="M7292,11730a30.344,30.344,0,0,1,.2-3.494,30.026,30.026,0,1,1-.2,3.494Z" transform="translate(-6995 -6809)" fill="#c6dcf6"/>
    </g>
    <g id="ordenador-portatil_1_" data-name="ordenador-portatil(1)" transform="translate(306 4963)">
      <path id="Trazado_234544" data-name="Trazado 234544" d="M48,448h1.348v1.348H48Zm0,0" transform="translate(-43.957 -410.263)"/>
      <path id="Trazado_234545" data-name="Trazado 234545" d="M80,448h1.348v1.348H80Zm0,0" transform="translate(-73.261 -410.263)"/>
      <path id="Trazado_234546" data-name="Trazado 234546" d="M112,448h1.348v1.348H112Zm0,0" transform="translate(-102.566 -410.263)"/>
      <path id="Trazado_234547" data-name="Trazado 234547" d="M384,448h5.391v1.348H384Zm0,0" transform="translate(-351.654 -410.263)"/>
      <path id="Trazado_234548" data-name="Trazado 234548" d="M40.433,35.042V12.8a3.373,3.373,0,0,0-3.369-3.369H35.042a9.434,9.434,0,1,0-18.869,0H4.717A3.373,3.373,0,0,0,1.348,12.8V35.042H0v3.369A3.373,3.373,0,0,0,3.369,41.78H38.411a3.373,3.373,0,0,0,3.369-3.369V35.042Zm-3.369-24.26A2.024,2.024,0,0,1,39.085,12.8V35.042H37.737V13.478a1.349,1.349,0,0,0-1.348-1.348H34.644a9.368,9.368,0,0,0,.29-1.348ZM17.912,6.958l7.152,2.98,2.449,7.346a8.074,8.074,0,0,1-9.6-10.326Zm10.882,9.906L26.378,9.616l5.4-5.4a8.071,8.071,0,0,1-2.982,12.645ZM25.607,1.348a8.049,8.049,0,0,1,5.217,1.917L25.45,8.638,18.434,5.716a8.088,8.088,0,0,1,7.173-4.368ZM2.7,12.8a2.024,2.024,0,0,1,2.022-2.022H16.281a9.28,9.28,0,0,0,.29,1.348H5.391a1.349,1.349,0,0,0-1.348,1.348V35.042H2.7ZM40.433,38.411a2.024,2.024,0,0,1-2.022,2.022H3.369a2.024,2.024,0,0,1-2.022-2.022V36.389H15.231a5.236,5.236,0,0,0,3.522,1.348h4.274a5.236,5.236,0,0,0,3.522-1.348h8.492V35.042H26l-.2.2a3.9,3.9,0,0,1-2.778,1.15H18.753a3.9,3.9,0,0,1-2.778-1.15l-.2-.2H5.391V13.478H17.1a9.414,9.414,0,0,0,17.022,0h2.271V36.389h4.043Zm0,0"/>
      <path id="Trazado_234549" data-name="Trazado 234549" d="M106.281,292.043a2.01,2.01,0,0,0-1.119.34l-2.351-1.763a1.991,1.991,0,0,0,.1-.6,2.022,2.022,0,1,0-4.043,0,2,2,0,0,0,.119.659l-3.774,3.02a1.981,1.981,0,0,0-2.268.1l-2.906-1.937a1.977,1.977,0,0,0,.068-.493,2.022,2.022,0,1,0-4.043,0,1.977,1.977,0,0,0,.068.493L83.227,293.8a2,2,0,0,0-1.206-.408,2.022,2.022,0,1,0,2.022,2.022,1.977,1.977,0,0,0-.068-.493l2.906-1.937a1.984,1.984,0,0,0,2.411,0L92.2,294.92a1.981,1.981,0,0,0-.068.493,2.022,2.022,0,1,0,4.043,0,2,2,0,0,0-.119-.659l3.774-3.02a2,2,0,0,0,2.182-.031l2.351,1.763a1.991,1.991,0,0,0-.1.6,2.022,2.022,0,1,0,2.022-2.022Zm-24.26,4.043a.674.674,0,1,1,.674-.674A.675.675,0,0,1,82.022,296.086Zm6.065-4.043a.674.674,0,1,1,.674-.674A.675.675,0,0,1,88.086,292.043Zm6.065,4.043a.674.674,0,1,1,.674-.674A.675.675,0,0,1,94.151,296.086Zm6.739-5.391a.674.674,0,1,1,.674-.674A.675.675,0,0,1,100.89,290.7Zm5.391,4.043a.674.674,0,1,1,.674-.674A.675.675,0,0,1,106.281,294.739Zm0,0" transform="translate(-73.261 -263.74)"/>
      <path id="Trazado_234550" data-name="Trazado 234550" d="M90.782,176H80v9.434H90.782Zm-1.348,8.087H81.348v-6.739h8.087Zm0,0" transform="translate(-73.261 -161.175)"/>
      <path id="Trazado_234551" data-name="Trazado 234551" d="M112,208h5.391v1.348H112Zm0,0" transform="translate(-102.566 -190.479)"/>
      <path id="Trazado_234552" data-name="Trazado 234552" d="M112,240h5.391v1.348H112Zm0,0" transform="translate(-102.566 -219.784)"/>
      <path id="Trazado_234553" data-name="Trazado 234553" d="M224,256h1.348v1.348H224Zm0,0" transform="translate(-205.131 -234.436)"/>
      <path id="Trazado_234554" data-name="Trazado 234554" d="M256,256h13.477v1.348H256Zm0,0" transform="translate(-234.436 -234.436)"/>
    </g>
  </g>
</svg>
