<svg xmlns="http://www.w3.org/2000/svg" width="60.001" height="60.001" viewBox="0 0 60.001 60.001">
  <g id="Grupo_184191" data-name="Grupo 184191" transform="translate(-297 -5056)">
    <g id="Grupo_182803" data-name="Grupo 182803" transform="translate(0.001 59)">
      <circle id="Elipse_6306" data-name="Elipse 6306" cx="30" cy="30" r="30" transform="translate(297 4997)" fill="#d7e6f8"/>
      <path id="Intersección_9" data-name="Intersección 9" d="M7292,11730a30.344,30.344,0,0,1,.2-3.494,30.026,30.026,0,1,1-.2,3.494Z" transform="translate(-6995 -6703)" fill="#c6dcf6"/>
    </g>
    <g id="reporte_2_" data-name="reporte(2)" transform="translate(242.863 5064)">
      <path id="Trazado_234555" data-name="Trazado 234555" d="M95.683,25.58H82.591a.65.65,0,0,0,0,1.3H95.683a.65.65,0,0,0,0-1.3Zm0,9.79H82.591a.65.65,0,1,0,0,1.3H95.683a.65.65,0,1,0,0-1.3Zm0-2.6H82.591a.65.65,0,1,0,0,1.3H95.683a.65.65,0,0,0,0-1.3Zm0-9.79H82.591a.65.65,0,0,0,0,1.3H95.683a.65.65,0,1,0,0-1.3Zm4.357,2.336a.65.65,0,0,0,.65-.65V11.327a.659.659,0,0,0-.19-.459L89.823.19a.651.651,0,0,0-.46-.19H71.386a3.253,3.253,0,0,0-3.249,3.249V41.11a3.253,3.253,0,0,0,3.249,3.249H97.441a3.253,3.253,0,0,0,3.249-3.249V27.7a.65.65,0,1,0-1.3,0V41.11a1.952,1.952,0,0,1-1.949,1.949H71.386a1.952,1.952,0,0,1-1.949-1.949V3.249A1.952,1.952,0,0,1,71.386,1.3H88.713V3.9H73.667a1.518,1.518,0,0,0-1.516,1.516V8.577a1.518,1.518,0,0,0,1.516,1.516H86.46a.65.65,0,1,0,0-1.3H73.667a.217.217,0,0,1-.217-.217V5.415a.217.217,0,0,1,.217-.217H88.713V8.727a3.253,3.253,0,0,0,3.249,3.249H99.39V24.668A.65.65,0,0,0,100.04,25.317ZM91.962,10.677a1.952,1.952,0,0,1-1.949-1.949V2.218l8.458,8.458H91.962ZM78.086,32.771H73.407a1.258,1.258,0,0,0-1.256,1.256v4.679a1.258,1.258,0,0,0,1.256,1.256h4.679a1.258,1.258,0,0,0,1.256-1.256V34.028A1.258,1.258,0,0,0,78.086,32.771Zm-.043,5.891H73.451V34.071h4.592Zm1.3-24.216a1.258,1.258,0,0,0-1.256-1.256H73.407a1.258,1.258,0,0,0-1.256,1.256v4.679a1.258,1.258,0,0,0,1.256,1.256h4.679a1.258,1.258,0,0,0,1.256-1.256Zm-1.3,4.635H73.451V14.49h4.592Zm17.64-5.891H82.591a.65.65,0,0,0,0,1.3H95.683a.65.65,0,0,0,0-1.3Zm0,2.6H82.591a.65.65,0,0,0,0,1.3H95.683a.65.65,0,0,0,0-1.3ZM79.342,24.237a1.258,1.258,0,0,0-1.256-1.256H73.407a1.258,1.258,0,0,0-1.256,1.256v4.679a1.258,1.258,0,0,0,1.256,1.256h4.679a1.258,1.258,0,0,0,1.256-1.256Zm-1.3,4.635H73.451V24.281h4.592Z"/>
    </g>
  </g>
</svg>
