<svg xmlns="http://www.w3.org/2000/svg" xmlns:xlink="http://www.w3.org/1999/xlink" width="505" height="205" viewBox="0 0 505 205">
  <defs>
    <clipPath id="clip-path">
      <rect id="Rectángulo_64535" data-name="Rectángulo 64535" width="505" height="205" transform="translate(1116 -5791)" fill="#fff" stroke="#707070" stroke-width="1"/>
    </clipPath>
    <linearGradient id="linear-gradient" x1="0.013" y1="0.554" x2="1" y2="0.554" gradientUnits="objectBoundingBox">
      <stop offset="0" stop-color="#a9d5d5"/>
      <stop offset="0.783" stop-color="#e8f1f9"/>
      <stop offset="1" stop-color="#ecf3fb"/>
    </linearGradient>
    <clipPath id="clip-path-2">
      <rect id="Rectángulo_57889" data-name="Rectángulo 57889" width="246" height="182.061" fill="none"/>
    </clipPath>
    <clipPath id="clip-path-3">
      <rect id="Rectángulo_63739" data-name="Rectángulo 63739" width="315.59" height="141.689" fill="none"/>
    </clipPath>
    <clipPath id="clip-path-4">
      <rect id="Rectángulo_63733" data-name="Rectángulo 63733" width="315.584" height="141.689" transform="translate(0.005)" fill="none"/>
    </clipPath>
    <clipPath id="clip-path-5">
      <rect id="Rectángulo_63728" data-name="Rectángulo 63728" width="161.074" height="81.082" transform="translate(73.152 47.046)" fill="none"/>
    </clipPath>
    <clipPath id="clip-path-6">
      <rect id="Rectángulo_63727" data-name="Rectángulo 63727" width="161.071" height="81.08" transform="translate(73.152 47.048)" fill="none"/>
    </clipPath>
    <clipPath id="clip-path-8">
      <rect id="Rectángulo_63722" data-name="Rectángulo 63722" width="168.92" height="131.737" fill="none"/>
    </clipPath>
  </defs>
  <g id="Enmascarar_grupo_99" data-name="Enmascarar grupo 99" transform="translate(-1116 5791)" clip-path="url(#clip-path)">
    <g id="Grupo_183944" data-name="Grupo 183944">
      <rect id="Rectángulo_64533" data-name="Rectángulo 64533" width="505" height="261" rx="23" transform="translate(1116 -5791)" fill="url(#linear-gradient)"/>
      <g id="Grupo_183940" data-name="Grupo 183940" transform="translate(1165 -5776.061)">
        <g id="Grupo_177953" data-name="Grupo 177953" clip-path="url(#clip-path-2)">
          <path id="Trazado_227962" data-name="Trazado 227962" d="M225.36,191.02c26.178-19.9,37.836-75.1-4.669-102.164-28.14-17.915-45.641-7.7-77.3-19.546C104.747,54.845,98.987,11.144,51.978,32.648,27.074,44.036,9.81,76.134,6.772,112.614c-2.977,35.725,9.685,60.238,35.559,77.011,60.761,2.585,121.644,2.117,183.028,1.395" transform="translate(-2.848 -12.029)" fill="#fff"/>
          <path id="Trazado_227963" data-name="Trazado 227963" d="M208.041,21.995c-3.954,15.875,10.729,31.591,26.2,38.106s33.208,5.744,49.779,2.635c7.15-1.339,14.5-3.225,20.056-7.783s8.776-12.474,5.731-18.868c-2.687-5.639-9.227-8.527-15.463-10.01s-12.858-2.089-18.413-5.209c-5.268-2.96-9-7.86-13.586-11.741-8.465-7.16-20.355-10.71-31.36-8.445S211.4,8.5,208.041,21.995" transform="translate(-93.071 0)" fill="#fff"/>
          <path id="Trazado_227964" data-name="Trazado 227964" d="M238.8,224.47c-1.064-16.4,6.113-33.382,18.2-43.095.375,16.487-6.73,33.173-18.2,43.095" transform="translate(-107.119 -81.397)" fill="#a2c7eb"/>
          <path id="Trazado_227965" data-name="Trazado 227965" d="M244.934,189.385a217.581,217.581,0,0,0-13.158,29.672c-4.448,12.441-7.949,25.659-15.567,36.089" transform="translate(-97.03 -84.992)" fill="none" stroke="#6f8bbf" stroke-linecap="round" stroke-miterlimit="10" stroke-width="1"/>
          <path id="Trazado_227966" data-name="Trazado 227966" d="M231.96,256.33c6.119-13.687,18.262-24.028,31.651-26.955-5.7,14.668-18.521,25.858-31.651,26.955" transform="translate(-104.098 -102.938)" fill="#a2c7eb"/>
          <path id="Trazado_227967" data-name="Trazado 227967" d="M260.707,234.845q-13.717,12.072-27.9,23.46" transform="translate(-104.48 -105.393)" fill="none" stroke="#6f8bbf" stroke-linecap="round" stroke-miterlimit="10" stroke-width="1"/>
          <path id="Trazado_227968" data-name="Trazado 227968" d="M225.41,286.842c8.175-12.21,23.256-18.582,35.736-15.1-9.178,12.055-24.292,18.444-35.736,15.1" transform="translate(-101.159 -121.527)" fill="#a2c7eb"/>
          <path id="Trazado_227969" data-name="Trazado 227969" d="M256.972,274.115a118.986,118.986,0,0,1-34.192,14.629" transform="translate(-99.978 -123.016)" fill="none" stroke="#6f8bbf" stroke-linecap="round" stroke-miterlimit="10" stroke-width="1"/>
          <path id="Trazado_227970" data-name="Trazado 227970" d="M224.131,238.824c2.613-13.748-1.306-29.072-10.032-39.209-3.577,13.51-.165,29.342,10.032,39.209" transform="translate(-95.465 -89.583)" fill="#a2c7eb"/>
          <path id="Trazado_227971" data-name="Trazado 227971" d="M216.85,205.975a148.819,148.819,0,0,0,9.52,36.474" transform="translate(-97.317 -92.437)" fill="none" stroke="#6f8bbf" stroke-linecap="round" stroke-miterlimit="10" stroke-width="1"/>
          <path id="Trazado_227972" data-name="Trazado 227972" d="M209.851,263.708c-1.113-14.133-8.357-27.407-18.951-34.733a60.4,60.4,0,0,0,5.76,21.261c3.633,7.535,8.968,12.314,13.191,13.472" transform="translate(-85.671 -102.759)" fill="#a2c7eb"/>
          <path id="Trazado_227973" data-name="Trazado 227973" d="M193.75,234.165a112.281,112.281,0,0,0,17.645,32.169" transform="translate(-86.95 -105.088)" fill="none" stroke="#6f8bbf" stroke-linecap="round" stroke-miterlimit="10" stroke-width="1"/>
          <path id="Trazado_227974" data-name="Trazado 227974" d="M373.71,260.627c5.782-15.043,19.083-27.247,33.751-30.962-6.427,14.839-19.546,26.8-33.751,30.962" transform="translate(-167.712 -103.068)" fill="#a2c7eb"/>
          <path id="Trazado_227975" data-name="Trazado 227975" d="M385.874,235.335A213.732,213.732,0,0,0,362.083,256.4c-9.029,9.272-17.545,19.613-28.553,25.8" transform="translate(-149.68 -105.613)" fill="none" stroke="#6f8bbf" stroke-linecap="round" stroke-miterlimit="10" stroke-width="1"/>
          <path id="Trazado_227976" data-name="Trazado 227976" d="M359.92,289.94c11.019-9.7,25.99-13.951,39.021-11.1-11.047,10.743-26.966,15.478-39.021,11.1" transform="translate(-161.524 -124.746)" fill="#a2c7eb"/>
          <path id="Trazado_227977" data-name="Trazado 227977" d="M395.3,282.005q-17.074,5.159-34.275,9.514" transform="translate(-162.017 -126.557)" fill="none" stroke="#6f8bbf" stroke-linecap="round" stroke-miterlimit="10" stroke-width="1"/>
          <path id="Trazado_227978" data-name="Trazado 227978" d="M345.26,311.93c12.232-7.541,28.173-7.061,37.775,1.136-13.053,6.99-29.033,6.51-37.775-1.136" transform="translate(-154.945 -137.586)" fill="#a2c7eb"/>
          <path id="Trazado_227979" data-name="Trazado 227979" d="M378.855,316.8a115.24,115.24,0,0,1-36.215-.921" transform="translate(-153.769 -141.757)" fill="none" stroke="#6f8bbf" stroke-linecap="round" stroke-miterlimit="10" stroke-width="1"/>
          <path id="Trazado_227980" data-name="Trazado 227980" d="M362.439,261.806c7.943-11.179,10.76-26.431,7.2-39.021-8.7,10.572-12.177,26.067-7.2,39.021" transform="translate(-161.629 -99.981)" fill="#a2c7eb"/>
          <path id="Trazado_227981" data-name="Trazado 227981" d="M370.882,229.1a146.563,146.563,0,0,0-6.532,36.381" transform="translate(-163.512 -102.817)" fill="none" stroke="#6f8bbf" stroke-linecap="round" stroke-miterlimit="10" stroke-width="1"/>
          <path id="Trazado_227982" data-name="Trazado 227982" d="M343.4,277.689c4.807-13.042,3.848-27.826-2.514-38.674a59.632,59.632,0,0,0-3.622,21.288c.116,8.191,2.872,14.629,6.135,17.386" transform="translate(-151.354 -107.264)" fill="#a2c7eb"/>
          <path id="Trazado_227983" data-name="Trazado 227983" d="M343.811,244.8a110.54,110.54,0,0,0,2.409,35.857" transform="translate(-154.069 -109.858)" fill="none" stroke="#6f8bbf" stroke-linecap="round" stroke-miterlimit="10" stroke-width="1"/>
          <path id="Trazado_227984" data-name="Trazado 227984" d="M42.636,208.214c-5.895-18.03-22.345-32.6-41.482-36.732,8.045,15.6,22.638,28.013,41.482,36.732" transform="translate(-0.518 -76.957)" fill="#a2c7eb"/>
          <path id="Trazado_227985" data-name="Trazado 227985" d="M43.116,237.585A54.527,54.527,0,0,0,0,233.289a60.888,60.888,0,0,0,43.116,4.3" transform="translate(0 -103.53)" fill="#a2c7eb"/>
          <path id="Trazado_227986" data-name="Trazado 227986" d="M52.21,249.858a57.041,57.041,0,0,0-39.9,9.391c12.851,4.672,28.27,1.642,39.9-9.391" transform="translate(-5.523 -111.894)" fill="#a2c7eb"/>
          <path id="Trazado_227987" data-name="Trazado 227987" d="M63.664,265.782c-13.819-.057-27.407,6.51-35.53,17.175a30.383,30.383,0,0,0,18.324-2.06c5.642-2.555,10.37-6.916,17.206-15.115" transform="translate(-12.626 -119.276)" fill="#a2c7eb"/>
          <path id="Trazado_227988" data-name="Trazado 227988" d="M79.352,291.192A45.351,45.351,0,0,0,41.38,302.237a30.51,30.51,0,0,0,18.432,1c6-1.582,11.4-5.1,19.54-12.046" transform="translate(-18.57 -130.396)" fill="#a2c7eb"/>
          <path id="Trazado_227989" data-name="Trazado 227989" d="M76.28,205.169a45.7,45.7,0,0,1-6.328-42.376c3.9,6.611,7.272,13.6,8.844,21.03s1.267,15.351-2.516,21.347" transform="translate(-30.21 -73.058)" fill="#a2c7eb"/>
          <path id="Trazado_227990" data-name="Trazado 227990" d="M93.121,231.691A41.8,41.8,0,0,1,104.7,195.816c1.07,13.331-3.008,26.912-11.581,35.875" transform="translate(-41.553 -87.878)" fill="#a2c7eb"/>
          <path id="Trazado_227991" data-name="Trazado 227991" d="M8.753,177.344c27.387,17.523,48.805,43.641,60.111,73.316" transform="translate(-3.928 -79.588)" fill="none" stroke="#6f8bbf" stroke-linecap="round" stroke-miterlimit="10" stroke-width="1"/>
          <path id="Trazado_227992" data-name="Trazado 227992" d="M73.64,174.393a217.3,217.3,0,0,1,6.044,41.187" transform="translate(-33.048 -78.263)" fill="none" stroke="#6f8bbf" stroke-linecap="round" stroke-miterlimit="10" stroke-width="1"/>
          <path id="Trazado_227993" data-name="Trazado 227993" d="M102.828,205.307a80.261,80.261,0,0,1-9.851,31.187" transform="translate(-41.726 -92.137)" fill="none" stroke="#6f8bbf" stroke-linecap="round" stroke-miterlimit="10" stroke-width="1"/>
          <path id="Trazado_227994" data-name="Trazado 227994" d="M10.458,235.972a221.72,221.72,0,0,0,38.082,3.872" transform="translate(-4.693 -105.899)" fill="none" stroke="#6f8bbf" stroke-linecap="round" stroke-miterlimit="10" stroke-width="1"/>
          <path id="Trazado_227995" data-name="Trazado 227995" d="M24.184,258.661a102.251,102.251,0,0,0,33.5-8.253" transform="translate(-10.853 -112.377)" fill="none" stroke="#6f8bbf" stroke-linecap="round" stroke-miterlimit="10" stroke-width="1"/>
          <path id="Trazado_227996" data-name="Trazado 227996" d="M36.767,280.389Q52.791,272.4,68.816,264.4" transform="translate(-16.5 -118.655)" fill="none" stroke="#6f8bbf" stroke-linecap="round" stroke-miterlimit="10" stroke-width="1"/>
          <path id="Trazado_227997" data-name="Trazado 227997" d="M49.372,302.055c13.948-2.691,18.092-5.9,33.572-10.346" transform="translate(-22.157 -130.912)" fill="none" stroke="#6f8bbf" stroke-linecap="round" stroke-miterlimit="10" stroke-width="1"/>
        </g>
      </g>
      <g id="Grupo_183942" data-name="Grupo 183942" transform="translate(1285.46 -5776.061)">
        <g id="Grupo_182789" data-name="Grupo 182789" clip-path="url(#clip-path-3)">
          <g id="Grupo_182786" data-name="Grupo 182786">
            <g id="Grupo_182785" data-name="Grupo 182785" clip-path="url(#clip-path-4)">
              <path id="Trazado_234404" data-name="Trazado 234404" d="M205.73,29.778h-66.1a3.09,3.09,0,0,1-3.081-3.081V3.08A3.089,3.089,0,0,1,139.629,0h66.1a3.089,3.089,0,0,1,3.08,3.08V26.7a3.089,3.089,0,0,1-3.08,3.081" fill="#9ec8ff"/>
              <path id="Trazado_234405" data-name="Trazado 234405" d="M145.275,25.286V41.715l18.932-18.932s-18.547,2.5-18.932,2.5" fill="#9ec8ff"/>
              <path id="Trazado_234406" data-name="Trazado 234406" d="M202.46,26.825H142.9a2.619,2.619,0,0,1-2.612-2.612V5.564A2.619,2.619,0,0,1,142.9,2.952h59.564a2.619,2.619,0,0,1,2.612,2.612v18.65a2.619,2.619,0,0,1-2.612,2.612" fill="#fff"/>
              <path id="Trazado_234407" data-name="Trazado 234407" d="M200.525,13.764H185.331c-.111,0-.2-.32-.2-.714v-.015c0-.394.089-.713.2-.714h15.194c.111,0,.2.32.2.714v.015c0,.394-.089.713-.2.714" fill="#9ec8ff"/>
              <path id="Trazado_234408" data-name="Trazado 234408" d="M200.525,16.558H185.331c-.111,0-.2-.32-.2-.714v-.01c0-.394.089-.713.2-.714h15.194c.111,0,.2.32.2.714v.015c0,.394-.089.713-.2.714" fill="#9ec8ff"/>
              <path id="Trazado_234409" data-name="Trazado 234409" d="M188.791,25.8h-1.778a.68.68,0,0,1-.679-.68V23.655a.68.68,0,0,1,.679-.68h1.778a.679.679,0,0,1,.68.68v1.464a.679.679,0,0,1-.68.68" fill="#9ec8ff"/>
              <path id="Trazado_234410" data-name="Trazado 234410" d="M194.5,25.8h-1.778a.679.679,0,0,1-.68-.68V23.655a.679.679,0,0,1,.68-.68H194.5a.679.679,0,0,1,.68.68v1.464a.679.679,0,0,1-.68.68" fill="#9ec8ff"/>
              <path id="Trazado_234411" data-name="Trazado 234411" d="M200.2,25.8h-1.778a.679.679,0,0,1-.68-.68V23.655a.679.679,0,0,1,.68-.68H200.2a.679.679,0,0,1,.68.68v1.464a.679.679,0,0,1-.68.68" fill="#9ec8ff"/>
              <rect id="Rectángulo_63725" data-name="Rectángulo 63725" width="175.992" height="97.64" transform="translate(68.93 44.049)" fill="#9ec8ff"/>
              <rect id="Rectángulo_63726" data-name="Rectángulo 63726" width="169.023" height="88.929" transform="translate(70.866 46.179)" fill="#fff"/>
              <g id="Grupo_182784" data-name="Grupo 182784" opacity="0.5">
                <g id="Grupo_182783" data-name="Grupo 182783">
                  <g id="Grupo_182782" data-name="Grupo 182782" clip-path="url(#clip-path-5)">
                    <g id="Grupo_182781" data-name="Grupo 182781">
                      <g id="Grupo_182780" data-name="Grupo 182780" clip-path="url(#clip-path-6)">
                        <path id="Trazado_234412" data-name="Trazado 234412" d="M233.835,128.128H73.539a.387.387,0,0,1-.387-.387V47.435a.387.387,0,0,1,.387-.387h160.3a.387.387,0,0,1,.387.387v80.306a.387.387,0,0,1-.387.387M73.93,127.354H233.448V47.822H73.926Z" fill="#9ec8ff"/>
                        <path id="Trazado_234413" data-name="Trazado 234413" d="M233.835,114.742H73.539a.387.387,0,0,1,0-.774h160.3a.387.387,0,0,1,0,.774" fill="#9ec8ff"/>
                        <path id="Trazado_234414" data-name="Trazado 234414" d="M233.835,101.359H73.539a.387.387,0,0,1,0-.774h160.3a.387.387,0,0,1,0,.774" fill="#9ec8ff"/>
                        <path id="Trazado_234415" data-name="Trazado 234415" d="M233.835,87.975H73.539a.387.387,0,0,1,0-.774h160.3a.387.387,0,0,1,0,.774" fill="#9ec8ff"/>
                        <path id="Trazado_234416" data-name="Trazado 234416" d="M233.835,74.591H73.539a.387.387,0,0,1,0-.774h160.3a.387.387,0,0,1,0,.774" fill="#9ec8ff"/>
                        <path id="Trazado_234417" data-name="Trazado 234417" d="M233.835,61.206H73.539a.387.387,0,0,1,0-.774h160.3a.387.387,0,0,1,0,.774" fill="#9ec8ff"/>
                        <path id="Trazado_234418" data-name="Trazado 234418" d="M207.119,128.128a.387.387,0,0,1-.387-.387V47.435a.387.387,0,1,1,.774,0v80.306a.387.387,0,0,1-.387.387" fill="#9ec8ff"/>
                        <path id="Trazado_234419" data-name="Trazado 234419" d="M180.4,128.128a.387.387,0,0,1-.387-.387V47.435a.387.387,0,0,1,.774-.005v80.311a.387.387,0,0,1-.387.387" fill="#9ec8ff"/>
                        <path id="Trazado_234420" data-name="Trazado 234420" d="M153.687,128.128a.387.387,0,0,1-.387-.387V47.435a.387.387,0,0,1,.774-.005v80.311a.387.387,0,0,1-.387.387" fill="#9ec8ff"/>
                        <path id="Trazado_234421" data-name="Trazado 234421" d="M126.971,128.128a.387.387,0,0,1-.387-.387V47.435a.387.387,0,0,1,.774-.005v80.311a.387.387,0,0,1-.387.387" fill="#9ec8ff"/>
                        <path id="Trazado_234422" data-name="Trazado 234422" d="M100.255,128.128a.387.387,0,0,1-.387-.387V47.435a.387.387,0,0,1,.774,0v80.306a.387.387,0,0,1-.387.387" fill="#9ec8ff"/>
                      </g>
                    </g>
                  </g>
                </g>
              </g>
              <path id="Trazado_234423" data-name="Trazado 234423" d="M73.54,128.515a.774.774,0,0,1-.347-1.467L99.8,113.716l13.724-13.205,12.746-26.642a.757.757,0,0,1,.183-.244l14.488-12.909a.775.775,0,0,1,1.093.063.791.791,0,0,1,.124.189l12.215,26.266,14.514,25.786,10.929-12.556a.773.773,0,0,1,.558-.265.755.755,0,0,1,.575.227l12.436,12.494,13-38.961a.774.774,0,0,1,.186-.3L233.291,46.89a.776.776,0,0,1,1.1,1.094L207.8,74.626l-13.337,39.98a.775.775,0,0,1-1.284.3L180.44,102.111l-11.1,12.757a.773.773,0,0,1-1.092.076.787.787,0,0,1-.167-.205L153.012,87.968a.529.529,0,0,1-.027-.053L141.2,62.566,127.6,74.678l-12.739,26.628a.764.764,0,0,1-.162.224l-13.91,13.384a.768.768,0,0,1-.19.134L73.885,128.432a.769.769,0,0,1-.346.082" fill="#8c5be1"/>
              <path id="Trazado_234424" data-name="Trazado 234424" d="M73.539,128.515a.774.774,0,0,1-.554-1.315l39.174-40.153a.775.775,0,0,1,1.084-.024l13.711,12.87,26.185-26.237a.776.776,0,0,1,1.085-.011l13.345,12.846,12.274-12.823a.772.772,0,0,1,.551-.239.787.787,0,0,1,.556.227l25.962,26.008L233.147,47.09a.774.774,0,1,1,1.386.691l-26.721,53.537a.775.775,0,0,1-1.241.2L180.412,75.312l-12.26,12.815a.775.775,0,0,1-1.1.026l0,0L153.7,75.292l-26.179,26.23a.775.775,0,0,1-1.078.018l-13.7-12.865L74.1,128.284a.775.775,0,0,1-.554.233" fill="#9ec8ff"/>
              <path id="Trazado_234425" data-name="Trazado 234425" d="M74.81,93.651H27V7.233a1.91,1.91,0,0,1,1.91-1.91h56.63a1.91,1.91,0,0,1,1.91,1.91V81.011A12.642,12.642,0,0,1,74.811,93.653" fill="#9ec8ff"/>
              <path id="Trazado_234426" data-name="Trazado 234426" d="M73.406,91.208H27.683V8.63A1.814,1.814,0,0,1,29.5,6.816H83.6A1.814,1.814,0,0,1,85.411,8.63V79.2A12.009,12.009,0,0,1,73.406,91.208" fill="#fff"/>
              <path id="Trazado_234427" data-name="Trazado 234427" d="M61.658,73.89V72.368a2.042,2.042,0,0,0-1.878-2.174H1.883A2.042,2.042,0,0,0,0,72.368V73.89C0,84.678,7.56,93.423,16.881,93.423H76.037c-9.32,0-14.506-7.761-14.379-19.533" fill="#9ec8ff"/>
              <path id="Trazado_234428" data-name="Trazado 234428" d="M60.234,75.4V74.171a1.76,1.76,0,0,0-1.759-1.759H4.261A1.76,1.76,0,0,0,2.5,74.171V75.4A15.8,15.8,0,0,0,18.3,91.2H76.037c-8.728,0-15.8-4.223-15.8-15.8" fill="#fff"/>
              <path id="Trazado_234429" data-name="Trazado 234429" d="M79.355,42.024H38.118a2.37,2.37,0,0,1-2.367-2.367v-22.4a2.369,2.369,0,0,1,2.367-2.371H79.356a2.37,2.37,0,0,1,2.366,2.367v22.4a2.37,2.37,0,0,1-2.366,2.367M38.118,15.661a1.594,1.594,0,0,0-1.592,1.592v22.4a1.594,1.594,0,0,0,1.592,1.592H79.356a1.594,1.594,0,0,0,1.592-1.592v-22.4a1.594,1.594,0,0,0-1.592-1.592Z" fill="#9ec8ff"/>
              <path id="Trazado_234430" data-name="Trazado 234430" d="M65.649,52.9H20.32a1.171,1.171,0,1,1,0-2.342H65.649a1.171,1.171,0,0,1,0,2.342" fill="#9ec8ff"/>
              <path id="Trazado_234431" data-name="Trazado 234431" d="M65.649,57.171H20.32a1.171,1.171,0,0,1,0-2.342H65.649a1.171,1.171,0,0,1,0,2.342" fill="#9ec8ff"/>
              <path id="Trazado_234432" data-name="Trazado 234432" d="M65.649,61.295H20.32a1.171,1.171,0,1,1,0-2.342H65.649a1.171,1.171,0,0,1,0,2.342" fill="#9ec8ff"/>
              <path id="Trazado_234433" data-name="Trazado 234433" d="M68.1,20.857H66.584A.579.579,0,0,1,66,20.278V19.03a.579.579,0,0,1,.579-.579H68.1a.579.579,0,0,1,.579.579v1.247a.579.579,0,0,1-.579.579" fill="#9ec8ff"/>
              <path id="Trazado_234434" data-name="Trazado 234434" d="M72.96,20.857H71.445a.579.579,0,0,1-.579-.579V19.03a.579.579,0,0,1,.579-.579H72.96a.579.579,0,0,1,.579.579v1.247a.579.579,0,0,1-.579.579" fill="#9ec8ff"/>
              <path id="Trazado_234435" data-name="Trazado 234435" d="M77.821,20.857H76.306a.579.579,0,0,1-.579-.579V19.03a.579.579,0,0,1,.579-.579h1.515a.579.579,0,0,1,.579.579v1.247a.579.579,0,0,1-.579.579" fill="#9ec8ff"/>
              <rect id="Rectángulo_63729" data-name="Rectángulo 63729" width="6.103" height="10.077" transform="translate(40.262 28.455)" fill="#eeac3a"/>
              <rect id="Rectángulo_63730" data-name="Rectángulo 63730" width="6.103" height="9.237" transform="translate(57.087 29.295)" fill="#eeac3a"/>
              <rect id="Rectángulo_63731" data-name="Rectángulo 63731" width="6.103" height="13.361" transform="translate(66.819 25.171)" fill="#8c5be1"/>
              <rect id="Rectángulo_63732" data-name="Rectángulo 63732" width="6.103" height="6.103" transform="translate(48.51 32.429)" fill="#8c5be1"/>
              <path id="Trazado_234436" data-name="Trazado 234436" d="M11.688,97.053h-.021a.58.58,0,0,1-.414-.2L8.429,93.644a.581.581,0,0,1,.872-.767l2.418,2.752,5.595-5.476a.581.581,0,0,1,.813.83l-6.033,5.9a.58.58,0,0,1-.406.166" fill="#fff"/>
              <path id="Trazado_234437" data-name="Trazado 234437" d="M314.008,101.876H233.755a1.581,1.581,0,0,1-1.582-1.58h0V65.755a1.581,1.581,0,0,1,1.581-1.581h80.254a1.581,1.581,0,0,1,1.582,1.58h0V100.29a1.583,1.583,0,0,1-1.582,1.581" fill="#9ec8ff"/>
              <path id="Trazado_234438" data-name="Trazado 234438" d="M312.031,100.107h-76.3a1.278,1.278,0,0,1-1.278-1.278V75.36a1.278,1.278,0,0,1,1.278-1.277h76.3a1.277,1.277,0,0,1,1.278,1.276h0V98.829a1.278,1.278,0,0,1-1.278,1.278" fill="#fff"/>
              <path id="Trazado_234439" data-name="Trazado 234439" d="M238.172,69.894H236.32a.708.708,0,0,1-.708-.708V67.661a.708.708,0,0,1,.708-.708h1.852a.708.708,0,0,1,.708.708v1.525a.708.708,0,0,1-.708.708" fill="#fff"/>
              <path id="Trazado_234440" data-name="Trazado 234440" d="M244.114,69.894h-1.852a.708.708,0,0,1-.708-.708V67.661a.708.708,0,0,1,.708-.708h1.852a.708.708,0,0,1,.708.708v1.525a.708.708,0,0,1-.708.708" fill="#fff"/>
              <path id="Trazado_234441" data-name="Trazado 234441" d="M250.055,69.894H248.2a.708.708,0,0,1-.708-.708V67.661a.708.708,0,0,1,.708-.708h1.852a.708.708,0,0,1,.708.708v1.525a.708.708,0,0,1-.708.708" fill="#fff"/>
              <path id="Trazado_234442" data-name="Trazado 234442" d="M310.1,79.786h-41.71a1.25,1.25,0,0,1,0-2.5H310.1a1.25,1.25,0,0,1,0,2.5" fill="#43a99b"/>
            </g>
          </g>
          <g id="Grupo_182788" data-name="Grupo 182788">
            <g id="Grupo_182787" data-name="Grupo 182787" clip-path="url(#clip-path-3)">
              <path id="Trazado_234443" data-name="Trazado 234443" d="M153.255,11.258a.4.4,0,0,1-.238-.728l7.226-5.258a.4.4,0,0,1,.474,0l6.989,5.085,6.988-5.085a.4.4,0,1,1,.474.652l-7.226,5.257a.4.4,0,0,1-.474,0L160.479,6.1l-6.987,5.085a.4.4,0,0,1-.237.077" fill="#477b9e"/>
              <rect id="Rectángulo_63734" data-name="Rectángulo 63734" width="4.881" height="14.246" transform="translate(172.489 10.594)" fill="#8c5be1"/>
              <rect id="Rectángulo_63735" data-name="Rectángulo 63735" width="4.881" height="8.989" transform="translate(165.264 15.851)" fill="#f4dd45"/>
              <rect id="Rectángulo_63736" data-name="Rectángulo 63736" width="4.881" height="14.246" transform="translate(158.039 10.594)" fill="#8c5be1"/>
              <rect id="Rectángulo_63737" data-name="Rectángulo 63737" width="4.881" height="8.989" transform="translate(150.814 15.851)" fill="#eeac3a"/>
              <path id="Trazado_234444" data-name="Trazado 234444" d="M174.326,3.975a1.732,1.732,0,1,1-1,2.235,1.732,1.732,0,0,1,1-2.235" fill="#8c5be1"/>
              <path id="Trazado_234445" data-name="Trazado 234445" d="M166.015,10.466a1.731,1.731,0,1,1,1.288,2.081,1.73,1.73,0,0,1-1.288-2.081" fill="#f4dd45"/>
              <path id="Trazado_234446" data-name="Trazado 234446" d="M159.254,4.374a1.731,1.731,0,1,1,0,2.449,1.733,1.733,0,0,1,0-2.449" fill="#8c5be1"/>
              <path id="Trazado_234447" data-name="Trazado 234447" d="M152.624,9.246a1.732,1.732,0,1,1-.978,2.245,1.732,1.732,0,0,1,.978-2.245" fill="#eeac3a"/>
              <path id="Trazado_234448" data-name="Trazado 234448" d="M260.12,82.217a.983.983,0,0,0-.983.983v21.631a.983.983,0,0,0,.983.983h21.631a.983.983,0,0,0,.983-.983A22.639,22.639,0,0,0,260.12,82.217" fill="#eeac3a"/>
              <path id="Trazado_234449" data-name="Trazado 234449" d="M270.729,123.892l-13.558-17.43V85.168a.985.985,0,0,0-.984-.984c-11.385,0-20.647,10.145-20.647,22.614a22.64,22.64,0,0,0,22.614,22.614,16.8,16.8,0,0,0,12.422-4.157.985.985,0,0,0,.153-1.363" fill="#8c5be1"/>
              <path id="Trazado_234450" data-name="Trazado 234450" d="M281.75,107.781H262.086a.984.984,0,0,0-.765,1.6L274.1,125.205a.979.979,0,0,0,.7.364h.069a.984.984,0,0,0,.67-.263,22.7,22.7,0,0,0,7.2-16.542.983.983,0,0,0-.983-.983" fill="#43a99b"/>
            </g>
          </g>
        </g>
      </g>
      <g id="Grupo_183941" data-name="Grupo 183941" transform="translate(1201 -5725.737)">
        <g id="Grupo_182776" data-name="Grupo 182776" clip-path="url(#clip-path-8)">
          <path id="Trazado_234365" data-name="Trazado 234365" d="M9,96.037A41.8,41.8,0,0,1,20.581,60.162C21.651,73.493,17.573,87.074,9,96.037" fill="#a2c7eb"/>
          <path id="Trazado_234366" data-name="Trazado 234366" d="M18.536,65.394A80.258,80.258,0,0,1,8.685,96.581" fill="none" stroke="#6f8bbf" stroke-linecap="round" stroke-miterlimit="10" stroke-width="1"/>
          <path id="Trazado_234367" data-name="Trazado 234367" d="M72.948,97.821s1.208,11.065,2.558,11.951c2.414,1.593,36.361,13.275,36.361,13.275l-1.915,6.271s-43.277-3.56-44.9-5.473c-2.822-3.318-7.783-19.326-7.783-19.326Z" fill="#e06a58"/>
          <path id="Trazado_234368" data-name="Trazado 234368" d="M54.493,69.34l3.092-7.425s8.39,3.941,11.157,8.809c2.96,5.2,6.582,32.869,6.582,32.869S60.513,107,57.79,105.555s-3.3-36.215-3.3-36.215" fill="#314ec6"/>
          <path id="Trazado_234369" data-name="Trazado 234369" d="M30.939,34.877a16.373,16.373,0,0,0-6.78-1.312c-2.321.176-4.691,1.406-5.479,3.445-.562,1.444-.3,3.147-1.191,4.448a5.322,5.322,0,0,1-4.111,1.865c-1.582.11-3.175-.1-4.746.1C3.781,44.068.32,49.338,1.913,53.654c.634,1.72,1.935,3.362,1.637,5.154C3.236,60.726,1.224,61.989.4,63.769c-1.1,2.37.215,5.242,2.381,6.857s4.983,2.221,7.717,2.629a32.044,32.044,0,0,0,11.372.033c3.721-.794,7.276-2.756,9.2-5.821a47.548,47.548,0,0,1,2.365-4.162c2.051-2.629,5.683-3.649,8.544-5.512,3.125-2.045,5.419-6.025,3.577-9.139-1.775-2.993-6.394-3.66-8.246-6.609a20.747,20.747,0,0,1-1.444-4c-.507-1.334-1.72-2.006-4.922-3.181" fill="#0a2240"/>
          <path id="Trazado_234370" data-name="Trazado 234370" d="M43.564,71.594a3.252,3.252,0,0,0,2.084,1.378,3.125,3.125,0,0,0,2.337-1.246A23.725,23.725,0,0,0,54.021,60.15c-.777-.441-1.527-.865-2.2-1.262a3.343,3.343,0,0,1-1.373-1.51,2.894,2.894,0,0,1-.2-1.422,40.636,40.636,0,0,1,2.288-10.661c-6.912-1.56-13.433-3.412-17.182-6.543-.458,1.929-1,5.705-2.15,9.448-1.229,3.963-3.148,7.882-6.4,9.569a68.586,68.586,0,0,1,16.76,13.825" fill="#f9a07b"/>
          <path id="Trazado_234371" data-name="Trazado 234371" d="M50.238,55.962a2.894,2.894,0,0,0,.2,1.422c-4.09,4.961-13.235-1.521-17.248-9.178,1.152-3.743,1.692-7.519,2.15-9.448,3.743,3.131,10.269,4.989,17.182,6.543a40.6,40.6,0,0,0-2.288,10.661" fill="#e06a58"/>
          <path id="Trazado_234372" data-name="Trazado 234372" d="M61.626,115.934c-.9,5.986,5.556,12.43,5.716,15.627-13.72,0-42.461.838-57.1-1.152-.667-3.693,6.56-12,6.56-20.2,0-1.086-.044-2.277-.132-3.555-.232-3.66-.772-8.015-1.373-12.48C13.665,82.2,11.5,69.385,13.1,66.729c3.142-5.176,10.49-8.693,14.133-10.2,1.251-.518,2.067-.8,2.128-.832,4.57,7.794,13.869,14.442,17.38,14.144.976-.077,3.87-1.086,5.782-10.716.744.424,1.488.816,2.227,1.2,3.633,1.891,7.039,3.451,8.02,5.882,2.591,6.4,5.132,22.534,4.57,28.272-.568,5.788-2.894,10.209-4.526,16.019-.38,1.362-.728,2.806-1.009,4.36-.072.347-.127.711-.182,1.086" fill="#5470d3"/>
          <path id="Trazado_234373" data-name="Trazado 234373" d="M67.342,131.562c-13.72,0-42.461.838-57.1-1.152-.667-3.693,6.56-12,6.56-20.2,0-1.086-.044-2.277-.132-3.555C16.438,103,15.9,98.64,15.3,94.175c2.6,2.74,6.383-8.836,8.059-5.446,9.068,18.3,16.217,23.113,28.642,23.113a47.668,47.668,0,0,0,10.815-1.35c-.38,1.362-.728,2.806-1.009,4.36q-.1.53-.182,1.091c-.9,5.975,5.556,12.419,5.716,15.622" fill="#314ec6"/>
          <path id="Trazado_234374" data-name="Trazado 234374" d="M54.752,60.316c-.59,4.283-2.337,10.054-7.419,11.576-6.868,2.056-16.807-10.776-20.1-15.368,1.251-.518,2.067-.8,2.128-.832,4.57,7.794,13.869,14.442,17.38,14.144.976-.077,3.87-1.086,5.782-10.716.744.419,1.488.81,2.227,1.2" fill="#314ec6"/>
          <path id="Trazado_234375" data-name="Trazado 234375" d="M71.278,23.577c-.639,4.531-2.662,9.525-5.611,15.043-1.036-4.52-1.7-10.027-2.613-15.534-.932-5.518-2.117-11.035-4.173-15.545a27.162,27.162,0,0,0-1.51-2.833A10.065,10.065,0,0,1,61,5.033,12.152,12.152,0,0,1,65.959,7.74a17.392,17.392,0,0,1,4.834,7.9,17.718,17.718,0,0,1,.485,7.938" fill="#0b2d50"/>
          <path id="Trazado_234376" data-name="Trazado 234376" d="M67.817,28.263c-.033.893-.094,1.8-.176,2.706-1.257,14.663-7.414,24.722-16.834,24.722-13.3,0-21.922-14.916-21.922-29.529,0-14.414,8.831-24.849,19.166-23.642C54.01,3.2,58.364,5.182,61.457,8.082a18.282,18.282,0,0,1,4.531,6.912,30.2,30.2,0,0,1,1.825,9.955c0,.011.011.022.011.033.044,1.069.033,2.161-.006,3.28" fill="#f9a07b"/>
          <path id="Trazado_234377" data-name="Trazado 234377" d="M67.817,28.262a14.741,14.741,0,0,0-1.791-4.04A41.858,41.858,0,0,1,39.97,28.406c-1.687,1.406-3.335,2.789-4.994,4.173.033-6.67.127-11.184,2.729-14.414,2.442-3.032,6.515-4.173,10.374-4.669a47.956,47.956,0,0,1,13.092.083,13.25,13.25,0,0,1,4.823,1.428,30.2,30.2,0,0,1,1.825,9.955c0,.011.011.022.011.033.039,1.058.028,2.15-.011,3.269" fill="#e06a58"/>
          <path id="Trazado_234378" data-name="Trazado 234378" d="M69.735,19.233a24.594,24.594,0,0,1-6.681,3.859c-7.309,2.949-16.807,3.925-24.21,3.566-3.638,7.993-5.11,10.859-6.041,17.832-3.555-3.335-6.449-9.442-7.309-14.244a32.589,32.589,0,0,1,.568-14.508A21.7,21.7,0,0,1,37.13,2.424a20.853,20.853,0,0,1,2.381-1.1A22.8,22.8,0,0,1,54.3,1.148,17.6,17.6,0,0,1,60.992,5.04c3.754,3.39,6.074,7.982,7.574,11.421.474,1.053.854,2.006,1.169,2.773" fill="#0b2d50"/>
          <path id="Trazado_234379" data-name="Trazado 234379" d="M71.278,23.578a22.467,22.467,0,0,0-1.395-4.658,16.071,16.071,0,0,0-1.312-2.464,13.508,13.508,0,0,0-7.039-5.738,25.939,25.939,0,0,0-2.646-3.17A20.415,20.415,0,0,0,47.492,1.54a21.644,21.644,0,0,0-10.352.882,20.853,20.853,0,0,1,2.381-1.1A22.8,22.8,0,0,1,54.31,1.146,17.6,17.6,0,0,1,61,5.038a12.152,12.152,0,0,1,4.961,2.707,17.4,17.4,0,0,1,4.834,7.9,17.819,17.819,0,0,1,.48,7.938" fill="#225570"/>
          <path id="Trazado_234380" data-name="Trazado 234380" d="M43.083,32.568a9.33,9.33,0,0,1,8.588-.733" fill="none" stroke="#0b2d50" stroke-linecap="round" stroke-miterlimit="10" stroke-width="2"/>
          <path id="Trazado_234381" data-name="Trazado 234381" d="M59.917,32.468c2.106-1.571,5.226-1.731,6.852,0" fill="none" stroke="#0b2d50" stroke-linecap="round" stroke-miterlimit="10" stroke-width="2"/>
          <path id="Trazado_234382" data-name="Trazado 234382" d="M57.376,40.483a10.081,10.081,0,0,1-.43,4.685" fill="none" stroke="#cc454e" stroke-linecap="round" stroke-miterlimit="10" stroke-width="2"/>
          <path id="Trazado_234383" data-name="Trazado 234383" d="M49.069,38.036c.56,0,1.014.715,1.014,1.6s-.454,1.6-1.014,1.6-1.014-.715-1.014-1.6.454-1.6,1.014-1.6" fill="#262d40"/>
          <path id="Trazado_234384" data-name="Trazado 234384" d="M62.326,37.292c.56,0,1.014.715,1.014,1.6s-.454,1.6-1.014,1.6-1.014-.716-1.014-1.6.454-1.6,1.014-1.6" fill="#262d40"/>
          <path id="Trazado_234385" data-name="Trazado 234385" d="M56.12,47.349a7.859,7.859,0,0,1-.579.91,6.3,6.3,0,0,1-2.993,2.332h-.006a3.913,3.913,0,0,1-1.924.127C48.545,50.349,48,48.436,47.9,46.964a7.787,7.787,0,0,1-.017-.794,7.491,7.491,0,0,1,.077-.992,23.615,23.615,0,0,0,8.158,2.172" fill="#cc454e"/>
          <path id="Trazado_234386" data-name="Trazado 234386" d="M56.119,47.349a7.86,7.86,0,0,1-.579.91,22.774,22.774,0,0,1-7.656-2.089,7.491,7.491,0,0,1,.077-.992,23.615,23.615,0,0,0,8.158,2.172" fill="#fff"/>
          <path id="Trazado_234387" data-name="Trazado 234387" d="M52.542,50.581a3.913,3.913,0,0,1-1.924.127C48.545,50.339,48,48.426,47.9,46.954a5.645,5.645,0,0,1,4.641,3.627" fill="#e8729b"/>
          <path id="Trazado_234388" data-name="Trazado 234388" d="M57.525,112.357l-.342,8.814s-31.877,9.553-37.141,6.532c-2.569-1.477-4.967-9.6-6.758-17.534-1.874-8.334-3.076-16.449-3.076-16.449l18.686-3.66s.011,11.394.645,17.981c.226,2.453.551,4.239.987,4.531,1.648,1.086,27-.215,27-.215" fill="#f9a07b"/>
          <path id="Trazado_234389" data-name="Trazado 234389" d="M29.539,108.03c-3.4,1.1-9.95,2.806-16.256,2.133-1.874-8.334-3.076-16.449-3.076-16.449l18.686-3.66c0-.006.011,11.388.645,17.975" fill="#e06a58"/>
          <path id="Trazado_234390" data-name="Trazado 234390" d="M56.614,112.446c4.741-1.014,12.766-3.451,16.1-4.289,2.365-.6,8.522,2.591,10.148,5.6.711,1.312,1.384,8.742-1.08,7.976-1.235-.386-1.031-3.572-1.417-4.873a5.744,5.744,0,0,0-2.844-2.966c1.02,2.541.981,4.757.871,7.5a3.883,3.883,0,0,1-.353,1.764,1.266,1.266,0,0,1-1.488.667c-.562-.232-.755-.932-.882-1.543a50.285,50.285,0,0,1-1.053-6.626c.044,2.354-.006,4.713-.154,7.061-.11,1.8-1,2.784-2.1,2.469-.491-.138-.689-.59-.9-1.185-.331,1.152-1.158,2.425-2.227,1.94-.65-.292-1.053-2.64-.937-5.055a14.144,14.144,0,0,1-7.034,1.935c-2.392.11-4.84-.336-6.278-1.962a42.341,42.341,0,0,1,1.632-8.412" fill="#f9a07b"/>
          <path id="Trazado_234391" data-name="Trazado 234391" d="M71.51,123.635a16.876,16.876,0,0,0-.491-5.683" fill="none" stroke="#cc454e" stroke-linecap="round" stroke-miterlimit="10" stroke-width="1"/>
          <path id="Trazado_234392" data-name="Trazado 234392" d="M26.8,71.572c-1.356-3.82-6.323-11.636-6.323-11.636S12.893,63.089,10.2,68.441c-4.553,9.062-2.238,35.08-2.238,35.08,6.135,2.569,18.449,2.607,23.692,1.869,0,0-2.144-26.183-4.862-33.818" fill="#5470d3"/>
          <path id="Trazado_234393" data-name="Trazado 234393" d="M27.759,73.171a168.494,168.494,0,0,1,3.528,28.162" fill="#314ec6"/>
          <path id="Trazado_234394" data-name="Trazado 234394" d="M75.155,127.052h50.838a.927.927,0,0,1,.927.927v2.253a.927.927,0,0,1-.927.927H75.155Z" fill="#282142"/>
          <path id="Trazado_234395" data-name="Trazado 234395" d="M62.072,129.886v.916a.358.358,0,0,0,.358.358h12.8a.722.722,0,0,0,.722-.722V127.77a.721.721,0,0,0-.723-.721.662.662,0,0,0-.077,0L62.39,129.53a.358.358,0,0,0-.318.356" fill="#504984"/>
          <path id="Trazado_234396" data-name="Trazado 234396" d="M164,40.645H68.979A4.559,4.559,0,0,0,64.69,43.66L43.915,101.366c-.869,2.977,1.308,5.206,4.808,5.583.536.058,3.089-1.089,7.1-2.974h84.94a4.559,4.559,0,0,0,4.289-3.015l18.771-52.129,4.983-2.6s1.175-5.583-4.808-5.583" fill="#504984"/>
          <path id="Trazado_234397" data-name="Trazado 234397" d="M71.958,43.62h95.014a1.947,1.947,0,0,1,1.833,2.609l-20.78,57.707a4.559,4.559,0,0,1-4.289,3.015H48.722a1.947,1.947,0,0,1-1.833-2.609L67.672,46.635a4.559,4.559,0,0,1,4.289-3.015" fill="#afafaf"/>
          <path id="Trazado_234398" data-name="Trazado 234398" d="M93.409,106.95l4.218-15.643,15.985,15.643Z" fill="#282142"/>
          <path id="Trazado_234399" data-name="Trazado 234399" d="M116.543,63.886a3.879,3.879,0,0,1-4.086,3.62,3.082,3.082,0,0,1-3.2-2.959,3.116,3.116,0,0,1,.046-.661,4.352,4.352,0,0,1,4.086-3.62,3.092,3.092,0,0,1,3.153,3.62" fill="#504984"/>
          <path id="Trazado_234400" data-name="Trazado 234400" d="M81.591,97.347l1.222-3.393H81.277l-1.222,3.393Z" fill="#282142"/>
          <path id="Trazado_234401" data-name="Trazado 234401" d="M127.529,97.347l1.222-3.393h-1.536l-1.222,3.393Z" fill="#282142"/>
          <path id="Trazado_234402" data-name="Trazado 234402" d="M125.493,125.581c-.938-2.7-12.308-39.385-12.308-39.385h-14.6l-.964,5.11s9.785,31.579,10.723,34.275q.108.308.2.618c.858,2.637-1.4,2.625-3.953,2.625H78.859v2.334h42.883c5.158,0,4.689-2.881,3.751-5.577" fill="#372d5b"/>
          <path id="Trazado_234403" data-name="Trazado 234403" d="M98.591,86.2s11.37,36.689,12.308,39.385,1.407,5.577-3.751,5.577h17.144c5.158,0,4.689-2.881,3.751-5.577S115.735,86.2,115.735,86.2Z" fill="#cacacb"/>
        </g>
      </g>
    </g>
  </g>
</svg>
