<svg xmlns="http://www.w3.org/2000/svg" width="60.001" height="60.001" viewBox="0 0 60.001 60.001">
  <g id="Grupo_184192" data-name="Grupo 184192" transform="translate(-297 -5151)">
    <g id="Grupo_182802" data-name="Grupo 182802" transform="translate(0.001 57)">
      <circle id="Elipse_6309" data-name="Elipse 6309" cx="30" cy="30" r="30" transform="translate(297 5094)" fill="#d7e6f8"/>
      <path id="Intersección_10" data-name="Intersección 10" d="M7292,11730a30.344,30.344,0,0,1,.2-3.494,30.026,30.026,0,1,1-.2,3.494Z" transform="translate(-6995 -6606)" fill="#c6dcf6"/>
    </g>
    <g id="Analysis-report-document-develop-infromation" transform="translate(303.991 5156.943)">
      <path id="Trazado_234556" data-name="Trazado 234556" d="M43.425,9.832,35.794,2.2A.717.717,0,0,0,35.3,2H17.958a2.087,2.087,0,0,0-2.081,2.081v4.2a14.549,14.549,0,0,0,0,29.067v4.2a2.087,2.087,0,0,0,2.081,2.081H41.545a2.087,2.087,0,0,0,2.081-2.081V10.325A.717.717,0,0,0,43.425,9.832Zm-7.43-5.466L41.26,9.631H36.689a.694.694,0,0,1-.694-.694ZM3.39,22.811A13.2,13.2,0,0,1,15.877,9.652V22.527L6.789,31.615a13.1,13.1,0,0,1-3.4-8.8Zm4.377,9.781,9.088-9.088H29.731A13.155,13.155,0,0,1,7.768,32.593Zm34.471,8.949a.694.694,0,0,1-.694.694H17.958a.694.694,0,0,1-.694-.694v-4.2A14.578,14.578,0,0,0,31.139,22.811a.694.694,0,0,0-.694-.694H17.265V4.081a.694.694,0,0,1,.694-.694H34.607v5.55a2.087,2.087,0,0,0,2.081,2.081h5.55Z"/>
      <path id="Trazado_234557" data-name="Trazado 234557" d="M26.694,7A.694.694,0,0,0,26,7.694V21.568a.694.694,0,0,0,.694.694H40.568a.694.694,0,0,0,.694-.694A14.584,14.584,0,0,0,26.694,7Zm.694,13.874V8.408A13.192,13.192,0,0,1,39.854,20.874Z" transform="translate(-7.348 -1.531)"/>
      <path id="Trazado_234558" data-name="Trazado 234558" d="M46.243,40a6.243,6.243,0,1,0,6.243,6.243A6.243,6.243,0,0,0,46.243,40Zm0,11.1A4.856,4.856,0,1,1,51.1,46.243,4.856,4.856,0,0,1,46.243,51.1Z" transform="translate(-11.636 -11.639)"/>
      <path id="Trazado_234559" data-name="Trazado 234559" d="M45.865,48.965l-1.591-1.591-.981.981,2.081,2.081a.694.694,0,0,0,.981,0l4.162-4.162-.981-.981Z" transform="translate(-12.645 -13.26)"/>
      <path id="Trazado_234560" data-name="Trazado 234560" d="M50,19h5.55v1.387H50Z" transform="translate(-14.699 -5.207)"/>
      <path id="Trazado_234561" data-name="Trazado 234561" d="M50,25h5.55v1.387H50Z" transform="translate(-14.699 -7.045)"/>
      <path id="Trazado_234562" data-name="Trazado 234562" d="M50,31h5.55v1.387H50Z" transform="translate(-14.699 -8.882)"/>
    </g>
  </g>
</svg>
