<svg xmlns="http://www.w3.org/2000/svg" width="60.001" height="60.001" viewBox="0 0 60.001 60.001">
  <g id="Grupo_184193" data-name="Grupo 184193" transform="translate(-296.999 -5250)">
    <g id="Grupo_182801" data-name="Grupo 182801" transform="translate(0 63)">
      <circle id="Elipse_6312" data-name="Elipse 6312" cx="30" cy="30" r="30" transform="translate(297 5187)" fill="#d7e6f8"/>
      <path id="Intersección_11" data-name="Intersección 11" d="M7292,11730a30.344,30.344,0,0,1,.2-3.494,30.026,30.026,0,1,1-.2,3.494Z" transform="translate(-6995 -6513)" fill="#c6dcf6"/>
    </g>
    <g id="negocios" transform="translate(306 5258.75)">
      <path id="Trazado_234563" data-name="Trazado 234563" d="M42.5,9.032V2.339H34.467V5.016H31.789v9.371H30.451V1H13.44L6.355,8.086V20.227a5.336,5.336,0,0,0,.637,7.679A7.371,7.371,0,0,0,1,35.136V42.5H16.395V33.912a1.216,1.216,0,0,1,.359-.865l3.934-3.934h9.763V15.725h1.339V25.1h2.677v2.677H42.5V21.08H34.467v2.677H33.128V15.725h1.339V18.4H42.5V11.709H34.467v2.677H33.128V6.355h1.339V9.032ZM35.805,3.677H41.16V7.693H35.805ZM13.048,3.285V7.693H8.64ZM6.355,23.757a4.016,4.016,0,1,1,4.016,4.016A4.02,4.02,0,0,1,6.355,23.757Zm6,4.971a2,2,0,0,1-3.958,0,5.3,5.3,0,0,0,3.958,0ZM15.807,32.1a2.545,2.545,0,0,0-.751,1.812V41.16H5.685V33.128H4.347V41.16H2.339V35.136a6.034,6.034,0,0,1,4.792-5.9,3.331,3.331,0,0,0,6.562-.556,10.105,10.105,0,0,0,4.714-2.647l3.62-3.619.392-.392L24.345,20.1a1.224,1.224,0,1,1,1.731,1.731ZM21.08,21.08H19.741V15.725H21.08ZM25.1,18.414V10.371h1.339v8.357a2.531,2.531,0,0,0-1.224-.325C25.172,18.4,25.134,18.412,25.1,18.414Zm4.016,9.359H22.026l5-5a2.545,2.545,0,0,0,.751-1.812V9.032H23.757v9.827a2.63,2.63,0,0,0-.359.295l-.98.981V14.387H18.4v8.032h1.731l-2.673,2.673a8.734,8.734,0,0,1-2.815,1.877,5.276,5.276,0,0,0,.9-4.549h1.515V10.371H13.048v8.756a5.311,5.311,0,0,0-5.355,0V9.032h6.693V2.339H29.112ZM14.387,20.227V11.709h1.339V21.08H15A5.408,5.408,0,0,0,14.387,20.227Zm21.419,2.191H41.16v4.016H35.805Zm0-9.371H41.16v4.016H35.805Z"/>
      <path id="Trazado_234564" data-name="Trazado 234564" d="M55,7h2.677V8.339H55Z" transform="translate(-17.856 -1.984)"/>
      <path id="Trazado_234565" data-name="Trazado 234565" d="M55,21h2.677v1.339H55Z" transform="translate(-17.856 -6.613)"/>
      <path id="Trazado_234566" data-name="Trazado 234566" d="M55,35h2.677v1.339H55Z" transform="translate(-17.856 -11.243)"/>
      <path id="Trazado_234567" data-name="Trazado 234567" d="M39,5h1.339V6.339H39Z" transform="translate(-12.565 -1.323)"/>
      <path id="Trazado_234568" data-name="Trazado 234568" d="M35,5h1.339V6.339H35Z" transform="translate(-11.243 -1.323)"/>
      <path id="Trazado_234569" data-name="Trazado 234569" d="M23,5h6.693V6.339H23Z" transform="translate(-7.275 -1.323)"/>
      <path id="Trazado_234570" data-name="Trazado 234570" d="M23,9H35.048v1.339H23Z" transform="translate(-7.275 -2.645)"/>
      <path id="Trazado_234571" data-name="Trazado 234571" d="M13,15h1.339v1.339H13Z" transform="translate(-3.968 -4.629)"/>
      <path id="Trazado_234572" data-name="Trazado 234572" d="M13,19h1.339v1.339H13Z" transform="translate(-3.968 -5.952)"/>
      <path id="Trazado_234573" data-name="Trazado 234573" d="M13,23h1.339v1.339H13Z" transform="translate(-3.968 -7.275)"/>
    </g>
  </g>
</svg>
