<svg xmlns="http://www.w3.org/2000/svg" width="85" height="77.049" viewBox="0 0 85 77.049">
  <g id="advertencia" transform="translate(0 -23.946)">
    <path id="Trazado_227590" data-name="Trazado 227590" d="M215.564,30.37l29.673,51.4A12.825,12.825,0,0,1,234.124,101H204.451L194.189,62.471l10.262-38.525A12.819,12.819,0,0,1,215.564,30.37Z" transform="translate(-161.951 0)" fill="#3b4145"/>
    <path id="Trazado_227591" data-name="Trazado 227591" d="M31.387,30.37,1.714,81.766A12.825,12.825,0,0,0,12.827,101H42.5V23.946A12.819,12.819,0,0,0,31.387,30.37Z" transform="translate(0 0)" fill="#525a61"/>
    <path id="Trazado_227592" data-name="Trazado 227592" d="M293.451,110.128l-29.673-51.4a7.722,7.722,0,0,0-6.449-3.855l25.379,66.784h4.074a7.695,7.695,0,0,0,6.67-11.534Z" transform="translate(-214.608 -25.797)" fill="#ffb751"/>
    <path id="Trazado_227593" data-name="Trazado 227593" d="M99.628,110.1a8.64,8.64,0,0,1,.886,3.838c0,4.243-2.978,7.7-6.639,7.7H38.6a7.695,7.695,0,0,1-6.67-11.534l29.673-51.4a7.729,7.729,0,0,1,6.67-3.86q.11,0,.221.005a6.6,6.6,0,0,1,5.533,3.855Z" transform="translate(-25.775 -25.771)" fill="#ffd764"/>
    <path id="Trazado_227594" data-name="Trazado 227594" d="M256,354.131v8.551a4.276,4.276,0,1,0,0-8.551Z" transform="translate(-213.5 -275.369)" fill="#3b4145"/>
    <path id="Trazado_227595" data-name="Trazado 227595" d="M234.521,354.131c.472,0,.855,1.914.855,4.276s-.383,4.276-.855,4.276a4.276,4.276,0,1,1,0-8.551Z" transform="translate(-192.021 -275.369)" fill="#525a61"/>
    <path id="Trazado_227596" data-name="Trazado 227596" d="M256,132.646v31.64a4.276,4.276,0,0,0,4.276-4.276V136.922A4.275,4.275,0,0,0,256,132.646Z" transform="translate(-213.5 -90.654)" fill="#3b4145"/>
    <path id="Trazado_227597" data-name="Trazado 227597" d="M234.521,132.646c.472,0,.855,1.914.855,4.276V160.01c0,2.36-.383,4.276-.855,4.276a4.276,4.276,0,0,1-4.276-4.276V136.922A4.275,4.275,0,0,1,234.521,132.646Z" transform="translate(-192.021 -90.654)" fill="#525a61"/>
  </g>
</svg>
